<?xml version="1.0" standalone="no"?>
<!DOCTYPE svg PUBLIC "-//W3C//DTD SVG 1.1//EN" "http://www.w3.org/Graphics/SVG/1.1/DTD/svg11.dtd" >
<svg xmlns="http://www.w3.org/2000/svg" xmlns:xlink="http://www.w3.org/1999/xlink" version="1.1">
<metadata>
Created by FontForge 20201107 at Sun Dec 22 14:45:37 2024
 By 
Copyright  2016 by Daniel Hernandez. All rights reserved.
</metadata>
<defs>
<font id="FONTSPRINGDEMO-BasicSansExtraLightItRegular" horiz-adv-x="1224" >
  <font-face 
    font-family="FSP DEMO - Bsc Sns xtrLght t"
    font-weight="250"
    font-style="italic"
    font-stretch="normal"
    units-per-em="2048"
    panose-1="0 0 3 0 0 0 0 0 0 0"
    ascent="1536"
    descent="-512"
    x-height="951"
    cap-height="1336"
    bbox="-216 -427 1833 1455"
    underline-thickness="102"
    underline-position="-204"
    slope="-7"
    unicode-range="U+0020-007E"
  />
<missing-glyph 
d="M207 403q-13 0 -19 -2v-200q4 -2 19 -2q37 0 50 25t13 77q0 54 -13 78t-50 24zM518 330v-49h-82v-78h96v-49h-155v297h155v-52h-96v-69h82zM203 150q-47 0 -74 4v292q61 9 76 9q67 0 96 -37.5t29 -116.5t-29.5 -115t-97.5 -36zM586 451h80l39 -164l38 164h82
q3 -45 13 -297h-60q0 108 -6 213l-41 -168h-55l-41 168h-2q-4 -140 -4 -213h-58q3 156 15 297zM987 150q-60 0 -84 35.5t-24 115.5q0 81 24 117.5t84 36.5t85.5 -37t25.5 -117q0 -79 -25.5 -115t-85.5 -36zM987 403q-29 0 -39 -23.5t-10 -78.5q0 -54 10 -78t39 -24
q30 0 40.5 24t10.5 78q0 55 -10 78.5t-41 23.5zM967 1016q49 0 79.5 -24.5t39 -51t8.5 -53.5q0 -43 -34.5 -72.5t-72.5 -34.5q-213 -23 -340 -147q3 8 9 22t25 53.5t39 75.5t50 80.5t59.5 76t66 53.5t71.5 22zM285 909q39 0 78 -21t69.5 -55t58.5 -74.5t48 -81.5t35 -75
t22 -55l8 -21q-117 148 -319 148q-49 0 -88 30t-39 76q0 53 33.5 91t93.5 38zM643 1214q38 -37 48.5 -102t-2.5 -131t-31.5 -126.5t-35.5 -98.5l-18 -39q20 191 -125 330q-35 35 -42 81.5t24 83.5q23 23 53 34t65 3.5t64 -35.5z" />
    <glyph glyph-name=".notdef" 
d="M207 403q-13 0 -19 -2v-200q4 -2 19 -2q37 0 50 25t13 77q0 54 -13 78t-50 24zM518 330v-49h-82v-78h96v-49h-155v297h155v-52h-96v-69h82zM203 150q-47 0 -74 4v292q61 9 76 9q67 0 96 -37.5t29 -116.5t-29.5 -115t-97.5 -36zM586 451h80l39 -164l38 164h82
q3 -45 13 -297h-60q0 108 -6 213l-41 -168h-55l-41 168h-2q-4 -140 -4 -213h-58q3 156 15 297zM987 150q-60 0 -84 35.5t-24 115.5q0 81 24 117.5t84 36.5t85.5 -37t25.5 -117q0 -79 -25.5 -115t-85.5 -36zM987 403q-29 0 -39 -23.5t-10 -78.5q0 -54 10 -78t39 -24
q30 0 40.5 24t10.5 78q0 55 -10 78.5t-41 23.5zM967 1016q49 0 79.5 -24.5t39 -51t8.5 -53.5q0 -43 -34.5 -72.5t-72.5 -34.5q-213 -23 -340 -147q3 8 9 22t25 53.5t39 75.5t50 80.5t59.5 76t66 53.5t71.5 22zM285 909q39 0 78 -21t69.5 -55t58.5 -74.5t48 -81.5t35 -75
t22 -55l8 -21q-117 148 -319 148q-49 0 -88 30t-39 76q0 53 33.5 91t93.5 38zM643 1214q38 -37 48.5 -102t-2.5 -131t-31.5 -126.5t-35.5 -98.5l-18 -39q20 191 -125 330q-35 35 -42 81.5t24 83.5q23 23 53 34t65 3.5t64 -35.5z" />
    <glyph glyph-name=".null" horiz-adv-x="0" 
 />
    <glyph glyph-name="nonmarkingreturn" horiz-adv-x="682" 
 />
    <glyph glyph-name="space" unicode=" " horiz-adv-x="489" 
 />
    <glyph glyph-name="exclam" unicode="!" 
d="M207 403q-13 0 -19 -2v-200q4 -2 19 -2q37 0 50 25t13 77q0 54 -13 78t-50 24zM518 330v-49h-82v-78h96v-49h-155v297h155v-52h-96v-69h82zM203 150q-47 0 -74 4v292q61 9 76 9q67 0 96 -37.5t29 -116.5t-29.5 -115t-97.5 -36zM586 451h80l39 -164l38 164h82
q3 -45 13 -297h-60q0 108 -6 213l-41 -168h-55l-41 168h-2q-4 -140 -4 -213h-58q3 156 15 297zM987 150q-60 0 -84 35.5t-24 115.5q0 81 24 117.5t84 36.5t85.5 -37t25.5 -117q0 -79 -25.5 -115t-85.5 -36zM987 403q-29 0 -39 -23.5t-10 -78.5q0 -54 10 -78t39 -24
q30 0 40.5 24t10.5 78q0 55 -10 78.5t-41 23.5zM967 1016q49 0 79.5 -24.5t39 -51t8.5 -53.5q0 -43 -34.5 -72.5t-72.5 -34.5q-213 -23 -340 -147q3 8 9 22t25 53.5t39 75.5t50 80.5t59.5 76t66 53.5t71.5 22zM285 909q39 0 78 -21t69.5 -55t58.5 -74.5t48 -81.5t35 -75
t22 -55l8 -21q-117 148 -319 148q-49 0 -88 30t-39 76q0 53 33.5 91t93.5 38zM643 1214q38 -37 48.5 -102t-2.5 -131t-31.5 -126.5t-35.5 -98.5l-18 -39q20 191 -125 330q-35 35 -42 81.5t24 83.5q23 23 53 34t65 3.5t64 -35.5z" />
    <glyph glyph-name="quotedbl" unicode="&#x22;" 
d="M207 403q-13 0 -19 -2v-200q4 -2 19 -2q37 0 50 25t13 77q0 54 -13 78t-50 24zM518 330v-49h-82v-78h96v-49h-155v297h155v-52h-96v-69h82zM203 150q-47 0 -74 4v292q61 9 76 9q67 0 96 -37.5t29 -116.5t-29.5 -115t-97.5 -36zM586 451h80l39 -164l38 164h82
q3 -45 13 -297h-60q0 108 -6 213l-41 -168h-55l-41 168h-2q-4 -140 -4 -213h-58q3 156 15 297zM987 150q-60 0 -84 35.5t-24 115.5q0 81 24 117.5t84 36.5t85.5 -37t25.5 -117q0 -79 -25.5 -115t-85.5 -36zM987 403q-29 0 -39 -23.5t-10 -78.5q0 -54 10 -78t39 -24
q30 0 40.5 24t10.5 78q0 55 -10 78.5t-41 23.5zM967 1016q49 0 79.5 -24.5t39 -51t8.5 -53.5q0 -43 -34.5 -72.5t-72.5 -34.5q-213 -23 -340 -147q3 8 9 22t25 53.5t39 75.5t50 80.5t59.5 76t66 53.5t71.5 22zM285 909q39 0 78 -21t69.5 -55t58.5 -74.5t48 -81.5t35 -75
t22 -55l8 -21q-117 148 -319 148q-49 0 -88 30t-39 76q0 53 33.5 91t93.5 38zM643 1214q38 -37 48.5 -102t-2.5 -131t-31.5 -126.5t-35.5 -98.5l-18 -39q20 191 -125 330q-35 35 -42 81.5t24 83.5q23 23 53 34t65 3.5t64 -35.5z" />
    <glyph glyph-name="numbersign" unicode="#" 
d="M207 403q-13 0 -19 -2v-200q4 -2 19 -2q37 0 50 25t13 77q0 54 -13 78t-50 24zM518 330v-49h-82v-78h96v-49h-155v297h155v-52h-96v-69h82zM203 150q-47 0 -74 4v292q61 9 76 9q67 0 96 -37.5t29 -116.5t-29.5 -115t-97.5 -36zM586 451h80l39 -164l38 164h82
q3 -45 13 -297h-60q0 108 -6 213l-41 -168h-55l-41 168h-2q-4 -140 -4 -213h-58q3 156 15 297zM987 150q-60 0 -84 35.5t-24 115.5q0 81 24 117.5t84 36.5t85.5 -37t25.5 -117q0 -79 -25.5 -115t-85.5 -36zM987 403q-29 0 -39 -23.5t-10 -78.5q0 -54 10 -78t39 -24
q30 0 40.5 24t10.5 78q0 55 -10 78.5t-41 23.5zM967 1016q49 0 79.5 -24.5t39 -51t8.5 -53.5q0 -43 -34.5 -72.5t-72.5 -34.5q-213 -23 -340 -147q3 8 9 22t25 53.5t39 75.5t50 80.5t59.5 76t66 53.5t71.5 22zM285 909q39 0 78 -21t69.5 -55t58.5 -74.5t48 -81.5t35 -75
t22 -55l8 -21q-117 148 -319 148q-49 0 -88 30t-39 76q0 53 33.5 91t93.5 38zM643 1214q38 -37 48.5 -102t-2.5 -131t-31.5 -126.5t-35.5 -98.5l-18 -39q20 191 -125 330q-35 35 -42 81.5t24 83.5q23 23 53 34t65 3.5t64 -35.5z" />
    <glyph glyph-name="dollar" unicode="$" 
d="M207 403q-13 0 -19 -2v-200q4 -2 19 -2q37 0 50 25t13 77q0 54 -13 78t-50 24zM518 330v-49h-82v-78h96v-49h-155v297h155v-52h-96v-69h82zM203 150q-47 0 -74 4v292q61 9 76 9q67 0 96 -37.5t29 -116.5t-29.5 -115t-97.5 -36zM586 451h80l39 -164l38 164h82
q3 -45 13 -297h-60q0 108 -6 213l-41 -168h-55l-41 168h-2q-4 -140 -4 -213h-58q3 156 15 297zM987 150q-60 0 -84 35.5t-24 115.5q0 81 24 117.5t84 36.5t85.5 -37t25.5 -117q0 -79 -25.5 -115t-85.5 -36zM987 403q-29 0 -39 -23.5t-10 -78.5q0 -54 10 -78t39 -24
q30 0 40.5 24t10.5 78q0 55 -10 78.5t-41 23.5zM967 1016q49 0 79.5 -24.5t39 -51t8.5 -53.5q0 -43 -34.5 -72.5t-72.5 -34.5q-213 -23 -340 -147q3 8 9 22t25 53.5t39 75.5t50 80.5t59.5 76t66 53.5t71.5 22zM285 909q39 0 78 -21t69.5 -55t58.5 -74.5t48 -81.5t35 -75
t22 -55l8 -21q-117 148 -319 148q-49 0 -88 30t-39 76q0 53 33.5 91t93.5 38zM643 1214q38 -37 48.5 -102t-2.5 -131t-31.5 -126.5t-35.5 -98.5l-18 -39q20 191 -125 330q-35 35 -42 81.5t24 83.5q23 23 53 34t65 3.5t64 -35.5z" />
    <glyph glyph-name="percent" unicode="%" 
d="M207 403q-13 0 -19 -2v-200q4 -2 19 -2q37 0 50 25t13 77q0 54 -13 78t-50 24zM518 330v-49h-82v-78h96v-49h-155v297h155v-52h-96v-69h82zM203 150q-47 0 -74 4v292q61 9 76 9q67 0 96 -37.5t29 -116.5t-29.5 -115t-97.5 -36zM586 451h80l39 -164l38 164h82
q3 -45 13 -297h-60q0 108 -6 213l-41 -168h-55l-41 168h-2q-4 -140 -4 -213h-58q3 156 15 297zM987 150q-60 0 -84 35.5t-24 115.5q0 81 24 117.5t84 36.5t85.5 -37t25.5 -117q0 -79 -25.5 -115t-85.5 -36zM987 403q-29 0 -39 -23.5t-10 -78.5q0 -54 10 -78t39 -24
q30 0 40.5 24t10.5 78q0 55 -10 78.5t-41 23.5zM967 1016q49 0 79.5 -24.5t39 -51t8.5 -53.5q0 -43 -34.5 -72.5t-72.5 -34.5q-213 -23 -340 -147q3 8 9 22t25 53.5t39 75.5t50 80.5t59.5 76t66 53.5t71.5 22zM285 909q39 0 78 -21t69.5 -55t58.5 -74.5t48 -81.5t35 -75
t22 -55l8 -21q-117 148 -319 148q-49 0 -88 30t-39 76q0 53 33.5 91t93.5 38zM643 1214q38 -37 48.5 -102t-2.5 -131t-31.5 -126.5t-35.5 -98.5l-18 -39q20 191 -125 330q-35 35 -42 81.5t24 83.5q23 23 53 34t65 3.5t64 -35.5z" />
    <glyph glyph-name="ampersand" unicode="&#x26;" 
d="M207 403q-13 0 -19 -2v-200q4 -2 19 -2q37 0 50 25t13 77q0 54 -13 78t-50 24zM518 330v-49h-82v-78h96v-49h-155v297h155v-52h-96v-69h82zM203 150q-47 0 -74 4v292q61 9 76 9q67 0 96 -37.5t29 -116.5t-29.5 -115t-97.5 -36zM586 451h80l39 -164l38 164h82
q3 -45 13 -297h-60q0 108 -6 213l-41 -168h-55l-41 168h-2q-4 -140 -4 -213h-58q3 156 15 297zM987 150q-60 0 -84 35.5t-24 115.5q0 81 24 117.5t84 36.5t85.5 -37t25.5 -117q0 -79 -25.5 -115t-85.5 -36zM987 403q-29 0 -39 -23.5t-10 -78.5q0 -54 10 -78t39 -24
q30 0 40.5 24t10.5 78q0 55 -10 78.5t-41 23.5zM967 1016q49 0 79.5 -24.5t39 -51t8.5 -53.5q0 -43 -34.5 -72.5t-72.5 -34.5q-213 -23 -340 -147q3 8 9 22t25 53.5t39 75.5t50 80.5t59.5 76t66 53.5t71.5 22zM285 909q39 0 78 -21t69.5 -55t58.5 -74.5t48 -81.5t35 -75
t22 -55l8 -21q-117 148 -319 148q-49 0 -88 30t-39 76q0 53 33.5 91t93.5 38zM643 1214q38 -37 48.5 -102t-2.5 -131t-31.5 -126.5t-35.5 -98.5l-18 -39q20 191 -125 330q-35 35 -42 81.5t24 83.5q23 23 53 34t65 3.5t64 -35.5z" />
    <glyph glyph-name="quotesingle" unicode="'" 
d="M207 403q-13 0 -19 -2v-200q4 -2 19 -2q37 0 50 25t13 77q0 54 -13 78t-50 24zM518 330v-49h-82v-78h96v-49h-155v297h155v-52h-96v-69h82zM203 150q-47 0 -74 4v292q61 9 76 9q67 0 96 -37.5t29 -116.5t-29.5 -115t-97.5 -36zM586 451h80l39 -164l38 164h82
q3 -45 13 -297h-60q0 108 -6 213l-41 -168h-55l-41 168h-2q-4 -140 -4 -213h-58q3 156 15 297zM987 150q-60 0 -84 35.5t-24 115.5q0 81 24 117.5t84 36.5t85.5 -37t25.5 -117q0 -79 -25.5 -115t-85.5 -36zM987 403q-29 0 -39 -23.5t-10 -78.5q0 -54 10 -78t39 -24
q30 0 40.5 24t10.5 78q0 55 -10 78.5t-41 23.5zM967 1016q49 0 79.5 -24.5t39 -51t8.5 -53.5q0 -43 -34.5 -72.5t-72.5 -34.5q-213 -23 -340 -147q3 8 9 22t25 53.5t39 75.5t50 80.5t59.5 76t66 53.5t71.5 22zM285 909q39 0 78 -21t69.5 -55t58.5 -74.5t48 -81.5t35 -75
t22 -55l8 -21q-117 148 -319 148q-49 0 -88 30t-39 76q0 53 33.5 91t93.5 38zM643 1214q38 -37 48.5 -102t-2.5 -131t-31.5 -126.5t-35.5 -98.5l-18 -39q20 191 -125 330q-35 35 -42 81.5t24 83.5q23 23 53 34t65 3.5t64 -35.5z" />
    <glyph glyph-name="parenleft" unicode="(" 
d="M207 403q-13 0 -19 -2v-200q4 -2 19 -2q37 0 50 25t13 77q0 54 -13 78t-50 24zM518 330v-49h-82v-78h96v-49h-155v297h155v-52h-96v-69h82zM203 150q-47 0 -74 4v292q61 9 76 9q67 0 96 -37.5t29 -116.5t-29.5 -115t-97.5 -36zM586 451h80l39 -164l38 164h82
q3 -45 13 -297h-60q0 108 -6 213l-41 -168h-55l-41 168h-2q-4 -140 -4 -213h-58q3 156 15 297zM987 150q-60 0 -84 35.5t-24 115.5q0 81 24 117.5t84 36.5t85.5 -37t25.5 -117q0 -79 -25.5 -115t-85.5 -36zM987 403q-29 0 -39 -23.5t-10 -78.5q0 -54 10 -78t39 -24
q30 0 40.5 24t10.5 78q0 55 -10 78.5t-41 23.5zM967 1016q49 0 79.5 -24.5t39 -51t8.5 -53.5q0 -43 -34.5 -72.5t-72.5 -34.5q-213 -23 -340 -147q3 8 9 22t25 53.5t39 75.5t50 80.5t59.5 76t66 53.5t71.5 22zM285 909q39 0 78 -21t69.5 -55t58.5 -74.5t48 -81.5t35 -75
t22 -55l8 -21q-117 148 -319 148q-49 0 -88 30t-39 76q0 53 33.5 91t93.5 38zM643 1214q38 -37 48.5 -102t-2.5 -131t-31.5 -126.5t-35.5 -98.5l-18 -39q20 191 -125 330q-35 35 -42 81.5t24 83.5q23 23 53 34t65 3.5t64 -35.5z" />
    <glyph glyph-name="parenright" unicode=")" 
d="M207 403q-13 0 -19 -2v-200q4 -2 19 -2q37 0 50 25t13 77q0 54 -13 78t-50 24zM518 330v-49h-82v-78h96v-49h-155v297h155v-52h-96v-69h82zM203 150q-47 0 -74 4v292q61 9 76 9q67 0 96 -37.5t29 -116.5t-29.5 -115t-97.5 -36zM586 451h80l39 -164l38 164h82
q3 -45 13 -297h-60q0 108 -6 213l-41 -168h-55l-41 168h-2q-4 -140 -4 -213h-58q3 156 15 297zM987 150q-60 0 -84 35.5t-24 115.5q0 81 24 117.5t84 36.5t85.5 -37t25.5 -117q0 -79 -25.5 -115t-85.5 -36zM987 403q-29 0 -39 -23.5t-10 -78.5q0 -54 10 -78t39 -24
q30 0 40.5 24t10.5 78q0 55 -10 78.5t-41 23.5zM967 1016q49 0 79.5 -24.5t39 -51t8.5 -53.5q0 -43 -34.5 -72.5t-72.5 -34.5q-213 -23 -340 -147q3 8 9 22t25 53.5t39 75.5t50 80.5t59.5 76t66 53.5t71.5 22zM285 909q39 0 78 -21t69.5 -55t58.5 -74.5t48 -81.5t35 -75
t22 -55l8 -21q-117 148 -319 148q-49 0 -88 30t-39 76q0 53 33.5 91t93.5 38zM643 1214q38 -37 48.5 -102t-2.5 -131t-31.5 -126.5t-35.5 -98.5l-18 -39q20 191 -125 330q-35 35 -42 81.5t24 83.5q23 23 53 34t65 3.5t64 -35.5z" />
    <glyph glyph-name="asterisk" unicode="*" 
d="M207 403q-13 0 -19 -2v-200q4 -2 19 -2q37 0 50 25t13 77q0 54 -13 78t-50 24zM518 330v-49h-82v-78h96v-49h-155v297h155v-52h-96v-69h82zM203 150q-47 0 -74 4v292q61 9 76 9q67 0 96 -37.5t29 -116.5t-29.5 -115t-97.5 -36zM586 451h80l39 -164l38 164h82
q3 -45 13 -297h-60q0 108 -6 213l-41 -168h-55l-41 168h-2q-4 -140 -4 -213h-58q3 156 15 297zM987 150q-60 0 -84 35.5t-24 115.5q0 81 24 117.5t84 36.5t85.5 -37t25.5 -117q0 -79 -25.5 -115t-85.5 -36zM987 403q-29 0 -39 -23.5t-10 -78.5q0 -54 10 -78t39 -24
q30 0 40.5 24t10.5 78q0 55 -10 78.5t-41 23.5zM967 1016q49 0 79.5 -24.5t39 -51t8.5 -53.5q0 -43 -34.5 -72.5t-72.5 -34.5q-213 -23 -340 -147q3 8 9 22t25 53.5t39 75.5t50 80.5t59.5 76t66 53.5t71.5 22zM285 909q39 0 78 -21t69.5 -55t58.5 -74.5t48 -81.5t35 -75
t22 -55l8 -21q-117 148 -319 148q-49 0 -88 30t-39 76q0 53 33.5 91t93.5 38zM643 1214q38 -37 48.5 -102t-2.5 -131t-31.5 -126.5t-35.5 -98.5l-18 -39q20 191 -125 330q-35 35 -42 81.5t24 83.5q23 23 53 34t65 3.5t64 -35.5z" />
    <glyph glyph-name="plus" unicode="+" 
d="M207 403q-13 0 -19 -2v-200q4 -2 19 -2q37 0 50 25t13 77q0 54 -13 78t-50 24zM518 330v-49h-82v-78h96v-49h-155v297h155v-52h-96v-69h82zM203 150q-47 0 -74 4v292q61 9 76 9q67 0 96 -37.5t29 -116.5t-29.5 -115t-97.5 -36zM586 451h80l39 -164l38 164h82
q3 -45 13 -297h-60q0 108 -6 213l-41 -168h-55l-41 168h-2q-4 -140 -4 -213h-58q3 156 15 297zM987 150q-60 0 -84 35.5t-24 115.5q0 81 24 117.5t84 36.5t85.5 -37t25.5 -117q0 -79 -25.5 -115t-85.5 -36zM987 403q-29 0 -39 -23.5t-10 -78.5q0 -54 10 -78t39 -24
q30 0 40.5 24t10.5 78q0 55 -10 78.5t-41 23.5zM967 1016q49 0 79.5 -24.5t39 -51t8.5 -53.5q0 -43 -34.5 -72.5t-72.5 -34.5q-213 -23 -340 -147q3 8 9 22t25 53.5t39 75.5t50 80.5t59.5 76t66 53.5t71.5 22zM285 909q39 0 78 -21t69.5 -55t58.5 -74.5t48 -81.5t35 -75
t22 -55l8 -21q-117 148 -319 148q-49 0 -88 30t-39 76q0 53 33.5 91t93.5 38zM643 1214q38 -37 48.5 -102t-2.5 -131t-31.5 -126.5t-35.5 -98.5l-18 -39q20 191 -125 330q-35 35 -42 81.5t24 83.5q23 23 53 34t65 3.5t64 -35.5z" />
    <glyph glyph-name="comma" unicode="," horiz-adv-x="415" 
d="M140 45q0 33 22 54t56 21q32 0 50.5 -21.5t18.5 -59.5q0 -51 -17 -100t-41 -82.5t-48.5 -60t-41.5 -38.5l-17 -13l-39 53q4 3 11.5 9.5t27.5 26.5t36 41t31 52t20 61q-31 0 -50 15.5t-19 41.5z" />
    <glyph glyph-name="hyphen" unicode="-" 
d="M207 403q-13 0 -19 -2v-200q4 -2 19 -2q37 0 50 25t13 77q0 54 -13 78t-50 24zM518 330v-49h-82v-78h96v-49h-155v297h155v-52h-96v-69h82zM203 150q-47 0 -74 4v292q61 9 76 9q67 0 96 -37.5t29 -116.5t-29.5 -115t-97.5 -36zM586 451h80l39 -164l38 164h82
q3 -45 13 -297h-60q0 108 -6 213l-41 -168h-55l-41 168h-2q-4 -140 -4 -213h-58q3 156 15 297zM987 150q-60 0 -84 35.5t-24 115.5q0 81 24 117.5t84 36.5t85.5 -37t25.5 -117q0 -79 -25.5 -115t-85.5 -36zM987 403q-29 0 -39 -23.5t-10 -78.5q0 -54 10 -78t39 -24
q30 0 40.5 24t10.5 78q0 55 -10 78.5t-41 23.5zM967 1016q49 0 79.5 -24.5t39 -51t8.5 -53.5q0 -43 -34.5 -72.5t-72.5 -34.5q-213 -23 -340 -147q3 8 9 22t25 53.5t39 75.5t50 80.5t59.5 76t66 53.5t71.5 22zM285 909q39 0 78 -21t69.5 -55t58.5 -74.5t48 -81.5t35 -75
t22 -55l8 -21q-117 148 -319 148q-49 0 -88 30t-39 76q0 53 33.5 91t93.5 38zM643 1214q38 -37 48.5 -102t-2.5 -131t-31.5 -126.5t-35.5 -98.5l-18 -39q20 191 -125 330q-35 35 -42 81.5t24 83.5q23 23 53 34t65 3.5t64 -35.5z" />
    <glyph glyph-name="period" unicode="." horiz-adv-x="403" 
d="M140 50q0 32 23.5 55t54.5 23q25 0 42.5 -19t17.5 -44q0 -32 -23.5 -54.5t-54.5 -22.5q-26 0 -43 18.5t-17 43.5z" />
    <glyph glyph-name="slash" unicode="/" 
d="M207 403q-13 0 -19 -2v-200q4 -2 19 -2q37 0 50 25t13 77q0 54 -13 78t-50 24zM518 330v-49h-82v-78h96v-49h-155v297h155v-52h-96v-69h82zM203 150q-47 0 -74 4v292q61 9 76 9q67 0 96 -37.5t29 -116.5t-29.5 -115t-97.5 -36zM586 451h80l39 -164l38 164h82
q3 -45 13 -297h-60q0 108 -6 213l-41 -168h-55l-41 168h-2q-4 -140 -4 -213h-58q3 156 15 297zM987 150q-60 0 -84 35.5t-24 115.5q0 81 24 117.5t84 36.5t85.5 -37t25.5 -117q0 -79 -25.5 -115t-85.5 -36zM987 403q-29 0 -39 -23.5t-10 -78.5q0 -54 10 -78t39 -24
q30 0 40.5 24t10.5 78q0 55 -10 78.5t-41 23.5zM967 1016q49 0 79.5 -24.5t39 -51t8.5 -53.5q0 -43 -34.5 -72.5t-72.5 -34.5q-213 -23 -340 -147q3 8 9 22t25 53.5t39 75.5t50 80.5t59.5 76t66 53.5t71.5 22zM285 909q39 0 78 -21t69.5 -55t58.5 -74.5t48 -81.5t35 -75
t22 -55l8 -21q-117 148 -319 148q-49 0 -88 30t-39 76q0 53 33.5 91t93.5 38zM643 1214q38 -37 48.5 -102t-2.5 -131t-31.5 -126.5t-35.5 -98.5l-18 -39q20 191 -125 330q-35 35 -42 81.5t24 83.5q23 23 53 34t65 3.5t64 -35.5z" />
    <glyph glyph-name="zero" unicode="0" horiz-adv-x="1173" 
d="M584 -12q-188 0 -289 131t-101 388q0 401 150 621.5t414 220.5q188 0 289 -135t101 -397q0 -399 -150 -614t-414 -215zM592 57q224 0 350.5 195t126.5 559q0 233 -83 351t-237 118q-223 0 -349.5 -201.5t-126.5 -566.5q0 -226 82.5 -340.5t236.5 -114.5z" />
    <glyph glyph-name="one" unicode="1" horiz-adv-x="643" 
d="M372 0l159 1252l-334 -90l8 74l400 100h15l-170 -1336h-78z" />
    <glyph glyph-name="two" unicode="2" horiz-adv-x="1028" 
d="M222 63q28 5 82 5h628l-7 -68h-822l8 68q31 21 96.5 63t108 70t109 74.5t112.5 82.5t105 87t98.5 95.5t81.5 101t67 110t41 115.5t16 124q0 134 -75.5 212t-214.5 78q-146 0 -243.5 -86t-97.5 -216q0 -34 4 -42l-76 -14q-4 4 -4 52q0 162 121.5 268t305.5 106
q171 0 265 -94.5t94 -254.5q0 -441 -722 -884q-30 -19 -83 -48z" />
    <glyph glyph-name="three" unicode="3" horiz-adv-x="1071" 
d="M696 1349q160 0 254 -86.5t94 -230.5q0 -103 -53 -186.5t-130.5 -125.5t-158.5 -42l-2 -2q52 0 103 -16.5t96 -49.5t73 -90.5t28 -131.5q0 -176 -132 -286.5t-343 -110.5q-68 0 -127 12.5t-99.5 33t-73.5 44.5t-52.5 48.5t-33 45t-18.5 33.5l-5 12l67 38q4 -8 11.5 -21.5
t37 -48t65.5 -61t100 -48t137 -21.5q170 0 277 88.5t111 234.5q2 67 -23 117t-72.5 80t-110.5 45t-142 16l-65 1l10 70l65 1q167 2 275 83t108 225q0 118 -76.5 190t-204.5 72q-147 0 -242 -79.5t-95 -203.5q0 -32 3 -38l-77 -13q-2 2 -2 48q0 152 119.5 253t303.5 101z" />
    <glyph glyph-name="four" unicode="4" 
d="M207 403q-13 0 -19 -2v-200q4 -2 19 -2q37 0 50 25t13 77q0 54 -13 78t-50 24zM518 330v-49h-82v-78h96v-49h-155v297h155v-52h-96v-69h82zM203 150q-47 0 -74 4v292q61 9 76 9q67 0 96 -37.5t29 -116.5t-29.5 -115t-97.5 -36zM586 451h80l39 -164l38 164h82
q3 -45 13 -297h-60q0 108 -6 213l-41 -168h-55l-41 168h-2q-4 -140 -4 -213h-58q3 156 15 297zM987 150q-60 0 -84 35.5t-24 115.5q0 81 24 117.5t84 36.5t85.5 -37t25.5 -117q0 -79 -25.5 -115t-85.5 -36zM987 403q-29 0 -39 -23.5t-10 -78.5q0 -54 10 -78t39 -24
q30 0 40.5 24t10.5 78q0 55 -10 78.5t-41 23.5zM967 1016q49 0 79.5 -24.5t39 -51t8.5 -53.5q0 -43 -34.5 -72.5t-72.5 -34.5q-213 -23 -340 -147q3 8 9 22t25 53.5t39 75.5t50 80.5t59.5 76t66 53.5t71.5 22zM285 909q39 0 78 -21t69.5 -55t58.5 -74.5t48 -81.5t35 -75
t22 -55l8 -21q-117 148 -319 148q-49 0 -88 30t-39 76q0 53 33.5 91t93.5 38zM643 1214q38 -37 48.5 -102t-2.5 -131t-31.5 -126.5t-35.5 -98.5l-18 -39q20 191 -125 330q-35 35 -42 81.5t24 83.5q23 23 53 34t65 3.5t64 -35.5z" />
    <glyph glyph-name="five" unicode="5" horiz-adv-x="1050" 
d="M379 1336h664l-8 -67h-598l-117 -532l5 -2q44 45 129 80.5t188 35.5q169 0 268.5 -102.5t99.5 -272.5q0 -216 -140.5 -350.5t-361.5 -134.5q-81 0 -150.5 20.5t-111 50t-71.5 59.5t-42 51l-12 20l67 48q4 -7 11 -19.5t35 -44t62 -55.5t93 -43.5t127 -19.5
q182 0 299.5 114.5t117.5 295.5q0 143 -83 229t-224 86q-57 0 -110 -12.5t-88.5 -30t-63 -35t-40.5 -29.5l-13 -13h-77z" />
    <glyph glyph-name="six" unicode="6" horiz-adv-x="1114" 
d="M799 1281q-110 0 -206.5 -51.5t-168.5 -146.5t-114.5 -238.5t-43.5 -317.5l8 -3q34 132 152 224.5t280 92.5q165 0 263 -97.5t98 -259.5q0 -216 -137 -355.5t-348 -139.5q-182 0 -286.5 138t-104.5 390q0 191 47 349t129.5 263t195 162.5t243.5 57.5q61 0 114 -13t85 -30
t59.5 -40.5t37.5 -35.5t19 -25q1 -2 2 -3l-55 -52q-5 8 -12.5 18t-31 32t-52 38.5t-75 29.5t-98.5 13zM687 773q-160 0 -276 -106t-140 -259q19 -170 101.5 -260.5t217.5 -90.5q173 0 286.5 118.5t113.5 300.5q0 135 -82 216t-221 81z" />
    <glyph glyph-name="seven" unicode="7" horiz-adv-x="950" 
d="M1074 1336l-8 -67l-690 -1269h-78l645 1179q34 63 50 88v4q-24 -2 -113 -2h-577l-26 -202h-71l35 269h833z" />
    <glyph glyph-name="eight" unicode="8" horiz-adv-x="1134" 
d="M832 715q240 -59 240 -298q0 -190 -141.5 -308t-364.5 -118q-188 0 -299 92.5t-111 243.5t82.5 251t245.5 137v2q-83 24 -129 93.5t-46 164.5q0 165 121.5 269.5t308.5 104.5q157 0 251.5 -82t94.5 -215q0 -122 -68.5 -213t-184.5 -122v-2zM386 983q0 -109 74 -174.5
t202 -61.5q151 -4 247.5 80t96.5 218q0 107 -75 172t-201 65q-149 0 -246.5 -82.5t-97.5 -216.5zM575 59q184 0 301 98.5t117 254.5q0 127 -89 197t-250 70q-194 0 -306.5 -90t-112.5 -250q0 -125 92 -202.5t248 -77.5z" />
    <glyph glyph-name="nine" unicode="9" horiz-adv-x="1112" 
d="M698 1349q183 0 287 -138t104 -390q0 -383 -166 -607.5t-435 -224.5q-216 0 -317 147l55 51q91 -130 268 -130q111 0 205.5 51.5t163.5 146.5t108 238t40 318l-5 2q-33 -131 -151 -223.5t-281 -92.5q-165 0 -263 97.5t-98 259.5q0 216 137 355.5t348 139.5zM594 565
q158 0 272.5 104t139.5 255q-19 174 -100 265.5t-217 91.5q-172 0 -285.5 -118.5t-113.5 -300.5q0 -135 82 -216t222 -81z" />
    <glyph glyph-name="colon" unicode=":" horiz-adv-x="423" 
d="M257 883q0 32 23.5 55t54.5 23q25 0 42.5 -19t17.5 -44q0 -32 -23.5 -55t-54.5 -23q-26 0 -43 19t-17 44zM150 50q0 32 24 55t55 23q25 0 42 -19t17 -44q0 -32 -23.5 -54.5t-54.5 -22.5q-26 0 -43 18.5t-17 43.5z" />
    <glyph glyph-name="semicolon" unicode=";" horiz-adv-x="471" 
d="M285 883q0 32 24 55t55 23q25 0 42 -19t17 -44q0 -32 -23.5 -55t-54.5 -23q-26 0 -43 19t-17 44zM175 45q0 33 22 54t56 21q32 0 50.5 -21.5t18.5 -59.5q0 -51 -17 -100t-41 -82.5t-48.5 -60t-41.5 -38.5l-17 -13l-39 53q4 3 11.5 9.5t27.5 26.5t36 41t31 52t20 61
q-31 0 -50 15.5t-19 41.5z" />
    <glyph glyph-name="less" unicode="&#x3c;" 
d="M207 403q-13 0 -19 -2v-200q4 -2 19 -2q37 0 50 25t13 77q0 54 -13 78t-50 24zM518 330v-49h-82v-78h96v-49h-155v297h155v-52h-96v-69h82zM203 150q-47 0 -74 4v292q61 9 76 9q67 0 96 -37.5t29 -116.5t-29.5 -115t-97.5 -36zM586 451h80l39 -164l38 164h82
q3 -45 13 -297h-60q0 108 -6 213l-41 -168h-55l-41 168h-2q-4 -140 -4 -213h-58q3 156 15 297zM987 150q-60 0 -84 35.5t-24 115.5q0 81 24 117.5t84 36.5t85.5 -37t25.5 -117q0 -79 -25.5 -115t-85.5 -36zM987 403q-29 0 -39 -23.5t-10 -78.5q0 -54 10 -78t39 -24
q30 0 40.5 24t10.5 78q0 55 -10 78.5t-41 23.5zM967 1016q49 0 79.5 -24.5t39 -51t8.5 -53.5q0 -43 -34.5 -72.5t-72.5 -34.5q-213 -23 -340 -147q3 8 9 22t25 53.5t39 75.5t50 80.5t59.5 76t66 53.5t71.5 22zM285 909q39 0 78 -21t69.5 -55t58.5 -74.5t48 -81.5t35 -75
t22 -55l8 -21q-117 148 -319 148q-49 0 -88 30t-39 76q0 53 33.5 91t93.5 38zM643 1214q38 -37 48.5 -102t-2.5 -131t-31.5 -126.5t-35.5 -98.5l-18 -39q20 191 -125 330q-35 35 -42 81.5t24 83.5q23 23 53 34t65 3.5t64 -35.5z" />
    <glyph glyph-name="equal" unicode="=" 
d="M207 403q-13 0 -19 -2v-200q4 -2 19 -2q37 0 50 25t13 77q0 54 -13 78t-50 24zM518 330v-49h-82v-78h96v-49h-155v297h155v-52h-96v-69h82zM203 150q-47 0 -74 4v292q61 9 76 9q67 0 96 -37.5t29 -116.5t-29.5 -115t-97.5 -36zM586 451h80l39 -164l38 164h82
q3 -45 13 -297h-60q0 108 -6 213l-41 -168h-55l-41 168h-2q-4 -140 -4 -213h-58q3 156 15 297zM987 150q-60 0 -84 35.5t-24 115.5q0 81 24 117.5t84 36.5t85.5 -37t25.5 -117q0 -79 -25.5 -115t-85.5 -36zM987 403q-29 0 -39 -23.5t-10 -78.5q0 -54 10 -78t39 -24
q30 0 40.5 24t10.5 78q0 55 -10 78.5t-41 23.5zM967 1016q49 0 79.5 -24.5t39 -51t8.5 -53.5q0 -43 -34.5 -72.5t-72.5 -34.5q-213 -23 -340 -147q3 8 9 22t25 53.5t39 75.5t50 80.5t59.5 76t66 53.5t71.5 22zM285 909q39 0 78 -21t69.5 -55t58.5 -74.5t48 -81.5t35 -75
t22 -55l8 -21q-117 148 -319 148q-49 0 -88 30t-39 76q0 53 33.5 91t93.5 38zM643 1214q38 -37 48.5 -102t-2.5 -131t-31.5 -126.5t-35.5 -98.5l-18 -39q20 191 -125 330q-35 35 -42 81.5t24 83.5q23 23 53 34t65 3.5t64 -35.5z" />
    <glyph glyph-name="greater" unicode="&#x3e;" 
d="M207 403q-13 0 -19 -2v-200q4 -2 19 -2q37 0 50 25t13 77q0 54 -13 78t-50 24zM518 330v-49h-82v-78h96v-49h-155v297h155v-52h-96v-69h82zM203 150q-47 0 -74 4v292q61 9 76 9q67 0 96 -37.5t29 -116.5t-29.5 -115t-97.5 -36zM586 451h80l39 -164l38 164h82
q3 -45 13 -297h-60q0 108 -6 213l-41 -168h-55l-41 168h-2q-4 -140 -4 -213h-58q3 156 15 297zM987 150q-60 0 -84 35.5t-24 115.5q0 81 24 117.5t84 36.5t85.5 -37t25.5 -117q0 -79 -25.5 -115t-85.5 -36zM987 403q-29 0 -39 -23.5t-10 -78.5q0 -54 10 -78t39 -24
q30 0 40.5 24t10.5 78q0 55 -10 78.5t-41 23.5zM967 1016q49 0 79.5 -24.5t39 -51t8.5 -53.5q0 -43 -34.5 -72.5t-72.5 -34.5q-213 -23 -340 -147q3 8 9 22t25 53.5t39 75.5t50 80.5t59.5 76t66 53.5t71.5 22zM285 909q39 0 78 -21t69.5 -55t58.5 -74.5t48 -81.5t35 -75
t22 -55l8 -21q-117 148 -319 148q-49 0 -88 30t-39 76q0 53 33.5 91t93.5 38zM643 1214q38 -37 48.5 -102t-2.5 -131t-31.5 -126.5t-35.5 -98.5l-18 -39q20 191 -125 330q-35 35 -42 81.5t24 83.5q23 23 53 34t65 3.5t64 -35.5z" />
    <glyph glyph-name="question" unicode="?" horiz-adv-x="874" 
d="M595 1383q154 0 244 -85t90 -225q0 -70 -23 -130t-60.5 -104t-82.5 -84.5t-91.5 -80t-86 -81t-66.5 -98t-32 -120.5l-3 -12l-70 -3q0 3 3 15q6 71 33.5 131.5t66.5 104.5t84.5 85t90 79.5t80.5 79t58.5 93.5t22.5 115q0 113 -72.5 183t-193.5 70q-129 0 -215.5 -81
t-86.5 -196q0 -32 3 -41l-75 -13q-3 21 -3 49q0 147 110.5 248t274.5 101zM418 121q25 0 42 -18t17 -43q0 -31 -23.5 -53.5t-53.5 -22.5q-25 0 -42 18t-17 43q0 31 24 53.5t53 22.5z" />
    <glyph glyph-name="at" unicode="@" 
d="M207 403q-13 0 -19 -2v-200q4 -2 19 -2q37 0 50 25t13 77q0 54 -13 78t-50 24zM518 330v-49h-82v-78h96v-49h-155v297h155v-52h-96v-69h82zM203 150q-47 0 -74 4v292q61 9 76 9q67 0 96 -37.5t29 -116.5t-29.5 -115t-97.5 -36zM586 451h80l39 -164l38 164h82
q3 -45 13 -297h-60q0 108 -6 213l-41 -168h-55l-41 168h-2q-4 -140 -4 -213h-58q3 156 15 297zM987 150q-60 0 -84 35.5t-24 115.5q0 81 24 117.5t84 36.5t85.5 -37t25.5 -117q0 -79 -25.5 -115t-85.5 -36zM987 403q-29 0 -39 -23.5t-10 -78.5q0 -54 10 -78t39 -24
q30 0 40.5 24t10.5 78q0 55 -10 78.5t-41 23.5zM967 1016q49 0 79.5 -24.5t39 -51t8.5 -53.5q0 -43 -34.5 -72.5t-72.5 -34.5q-213 -23 -340 -147q3 8 9 22t25 53.5t39 75.5t50 80.5t59.5 76t66 53.5t71.5 22zM285 909q39 0 78 -21t69.5 -55t58.5 -74.5t48 -81.5t35 -75
t22 -55l8 -21q-117 148 -319 148q-49 0 -88 30t-39 76q0 53 33.5 91t93.5 38zM643 1214q38 -37 48.5 -102t-2.5 -131t-31.5 -126.5t-35.5 -98.5l-18 -39q20 191 -125 330q-35 35 -42 81.5t24 83.5q23 23 53 34t65 3.5t64 -35.5z" />
    <glyph glyph-name="A" unicode="A" horiz-adv-x="1163" 
d="M1030 0l-92 391h-614l-191 -391h-79l655 1336h82l318 -1336h-79zM356 457h567l-170 725q-10 46 -13 67h-4q-6 -21 -27 -67z" />
    <glyph glyph-name="B" unicode="B" horiz-adv-x="1189" 
d="M886 700q43 -7 81.5 -25.5t75.5 -51.5t59 -89.5t22 -129.5q0 -194 -127 -299t-360 -105h-442l171 1336h427q172 0 267 -77.5t95 -223.5q0 -69 -20 -126t-49.5 -91.5t-68 -60t-70 -37t-61.5 -16.5v-4zM1076 1024q0 115 -74 180t-226 65h-340l-70 -541h392q149 0 233.5 85
t84.5 211zM639 67q194 0 300 84.5t106 246.5q0 126 -76 196.5t-214 70.5h-397l-77 -598h358z" />
    <glyph glyph-name="C" unicode="C" horiz-adv-x="1232" 
d="M850 1349q100 0 177.5 -31t121 -76.5t71 -103t35.5 -104.5t6 -87l-77 -15q3 29 -3 67.5t-27.5 89.5t-57 92.5t-102 70.5t-153.5 29q-116 0 -220 -50.5t-181.5 -141t-123 -225.5t-45.5 -295q0 -241 119 -376t319 -135q78 0 150 22.5t125 58.5t87 67t60 63l45 -47
q-27 -33 -62 -65t-95 -73.5t-143.5 -67t-175.5 -25.5q-235 0 -370.5 151t-135.5 418q0 178 51 327.5t139.5 250t208.5 156t257 55.5z" />
    <glyph glyph-name="D" unicode="D" horiz-adv-x="1267" 
d="M679 1336q264 0 414 -150.5t150 -416.5q0 -350 -179.5 -559.5t-480.5 -209.5h-388l171 1336h313zM589 67q263 0 420 190.5t157 505.5q0 241 -131.5 373.5t-365.5 132.5h-235l-154 -1202h309z" />
    <glyph glyph-name="E" unicode="E" horiz-adv-x="1054" 
d="M1112 1269h-678l-69 -538h617l-9 -67h-617l-76 -596h678l-9 -68h-754l171 1336h753z" />
    <glyph glyph-name="F" unicode="F" horiz-adv-x="978" 
d="M1085 1269h-651l-69 -542h570l-8 -68h-571l-84 -659h-77l171 1336h727z" />
    <glyph glyph-name="G" unicode="G" horiz-adv-x="1269" 
d="M1256 952l-77 -15q4 28 -1.5 66.5t-27 88.5t-57.5 91t-104.5 69.5t-157.5 28.5q-116 0 -219 -52t-178 -144.5t-119 -227.5t-44 -292q0 -232 107 -369.5t296 -137.5q79 0 149 22.5t118.5 58.5t86.5 82.5t58.5 91t28.5 87.5l19 155h-485l8 67h552l-79 -622h-48q0 97 13 232
q-60 -109 -172.5 -175t-263.5 -66q-217 0 -341 154.5t-124 412.5q0 172 49.5 320t135.5 251t205.5 161.5t255.5 58.5q102 0 180.5 -30.5t122.5 -75.5t71.5 -102t35.5 -103t6 -86z" />
    <glyph glyph-name="H" unicode="H" horiz-adv-x="1368" 
d="M1267 1336h76l-170 -1336h-77l85 664h-825l-84 -664h-77l171 1336h76l-77 -605h825z" />
    <glyph glyph-name="I" unicode="I" horiz-adv-x="466" 
d="M195 0l171 1336h76l-170 -1336h-77z" />
    <glyph glyph-name="J" unicode="J" horiz-adv-x="837" 
d="M99 175q91 -117 229 -117q253 0 290 282l128 996h77l-126 -988q-46 -357 -377 -357q-174 0 -277 124z" />
    <glyph glyph-name="K" unicode="K" horiz-adv-x="1236" 
d="M1227 1q-3 0 -26 -1.5t-39 -1.5q-61 0 -108 34t-76.5 88.5t-54.5 120.5t-50.5 132.5t-55.5 121t-77.5 88.5t-109.5 34h-277l-80 -617h-78l171 1336h78l-84 -652h274q49 0 102.5 17.5t116.5 64.5t115.5 117.5t96.5 188t63 264.5h78q-18 -136 -54 -246t-78.5 -181
t-98 -125.5t-104 -83t-104.5 -50.5q49 -17 89.5 -69t66 -116.5t54.5 -136t54.5 -130.5t65 -97.5t88.5 -38.5h49z" />
    <glyph glyph-name="L" unicode="L" horiz-adv-x="980" 
d="M280 68h683l-7 -68h-761l171 1336h76z" />
    <glyph glyph-name="M" unicode="M" horiz-adv-x="1585" 
d="M1561 1336l-171 -1336h-76l145 1116q12 91 14 98l-4 2q-14 -42 -41 -92l-604 -1128h-55l-324 1130q-6 22 -10 42t-5.5 33t-1.5 15l-6 -2q1 -19 -8 -98l-142 -1116h-77l171 1336h96l318 -1131q21 -70 26 -108h4q6 17 54 108l604 1131h93z" />
    <glyph glyph-name="N" unicode="N" horiz-adv-x="1339" 
d="M1313 1336l-170 -1336h-98l-545 1089q-40 80 -70 152l-6 -3q5 -19 -9 -128l-142 -1110h-78l171 1336h93l547 -1094q40 -85 71 -153l6 3q3 62 12 133l142 1111h76z" />
    <glyph glyph-name="O" unicode="O" horiz-adv-x="1380" 
d="M863 1349q224 0 359 -153.5t135 -419.5q0 -178 -52.5 -327t-142.5 -248.5t-212 -154.5t-260 -55q-224 0 -360 153.5t-136 419.5q0 178 52.5 327t143.5 248.5t213 154.5t260 55zM698 58q119 0 225 50.5t185.5 141t126 225t46.5 292.5q0 236 -118 375t-310 139
q-118 0 -224 -50.5t-185.5 -141t-126 -225t-46.5 -292.5q0 -236 117.5 -375t309.5 -139z" />
    <glyph glyph-name="P" unicode="P" horiz-adv-x="1124" 
d="M766 1336q187 0 293.5 -99t106.5 -269q0 -211 -138.5 -340t-361.5 -129h-330l-64 -499h-77l171 1336h400zM665 566q190 0 307 107t117 284q0 142 -89 227t-244 85h-322l-90 -703h321z" />
    <glyph glyph-name="Q" unicode="Q" horiz-adv-x="1452" 
d="M1357 776q0 -162 -43.5 -300.5t-120.5 -237t-181 -160.5t-225 -80q206 -74 397 -91l-27 -68q-138 14 -249.5 51.5t-243.5 100.5q-213 9 -341.5 162t-128.5 411q0 178 52.5 327t143.5 248.5t213 154.5t260 55q224 0 359 -153.5t135 -419.5zM271 573q0 -236 117.5 -375.5
t309.5 -139.5q119 0 225 50.5t185.5 141t126 225t46.5 292.5q0 236 -118 375t-310 139q-118 0 -224 -50.5t-185.5 -141t-126 -224.5t-46.5 -292z" />
    <glyph glyph-name="R" unicode="R" horiz-adv-x="1150" 
d="M1097 56l25 3l-1 -64q-20 -4 -49 -4q-60 0 -103 30.5t-67.5 79t-45 107t-43.5 117.5t-54 107.5t-85 79t-129 30.5h-204l-69 -542h-77l171 1336h365q177 0 278 -92t101 -255q0 -180 -105.5 -293t-282.5 -144q58 -16 100.5 -73t68 -126.5t50.5 -137.5t63.5 -113.5
t92.5 -45.5zM349 606h270q177 0 295.5 100t118.5 272q0 134 -84.5 212.5t-230.5 78.5h-284z" />
    <glyph glyph-name="S" unicode="S" horiz-adv-x="1071" 
d="M1003 1049q-3 23 -14 50t-35.5 60t-58 59.5t-87 44.5t-116.5 18q-150 0 -251 -83t-101 -214q0 -55 23 -97.5t61.5 -70t88.5 -49t105.5 -39.5t111 -37t105.5 -45.5t88.5 -61.5t61.5 -88.5t23 -122.5q0 -175 -128.5 -278.5t-343.5 -103.5q-158 0 -268 46t-169 107l54 59
q29 -28 56.5 -48t75 -45t114 -38.5t145.5 -13.5q173 0 280.5 85t107.5 219q0 60 -23 105.5t-62 75t-89 52.5t-106 41t-111.5 36.5t-105.5 44t-89 58.5t-62 84.5t-23 117.5q0 167 121.5 269.5t316.5 102.5q79 0 143 -20t104 -49.5t69.5 -70t43.5 -73.5t22 -68z" />
    <glyph glyph-name="T" unicode="T" horiz-adv-x="1019" 
d="M471 0l163 1269h-445l8 67h967l-7 -67h-447l-163 -1269h-76z" />
    <glyph glyph-name="U" unicode="U" horiz-adv-x="1320" 
d="M1234 1336h76l-101 -797q-33 -263 -178 -405.5t-371 -142.5q-225 0 -334.5 142.5t-76.5 405.5l101 797h77l-100 -796q-30 -235 60.5 -358.5t281.5 -123.5t312.5 123.5t151.5 357.5z" />
    <glyph glyph-name="V" unicode="V" horiz-adv-x="1150" 
d="M304 1336l271 -1182q7 -32 10 -66h2q7 21 29 66l575 1182h77l-650 -1336h-82l-312 1336h80z" />
    <glyph glyph-name="W" unicode="W" horiz-adv-x="1722" 
d="M1757 1336h76l-543 -1336h-92l-168 1127q-9 54 -9 109h-3q-32 -97 -37 -109l-455 -1127h-92l-203 1336h79l170 -1182q6 -48 8 -71h4q8 25 26 71l477 1182h74l177 -1182q3 -21 8 -71h4q5 15 26 71z" />
    <glyph glyph-name="X" unicode="X" horiz-adv-x="1087" 
d="M1211 1336l-535 -678l365 -658h-86l-291 520q-29 51 -40 95h-2q-46 -69 -65 -93l-420 -522h-86l527 657l-359 679h90l285 -542q23 -48 39 -92h2q12 28 63 94l424 540h89z" />
    <glyph glyph-name="Y" unicode="Y" horiz-adv-x="1105" 
d="M1223 1336l-564 -809l-67 -527h-78l67 526l-358 810h85l283 -640q25 -59 38 -107h2q24 54 61 107l449 640h82z" />
    <glyph glyph-name="Z" unicode="Z" horiz-adv-x="1052" 
d="M66 0l8 68l928 1137q28 35 55 62l-1 5q-21 -3 -97 -3h-710l7 67h901l-8 -67l-925 -1138q-40 -47 -59 -62l3 -5q19 4 98 4h713l-8 -68h-905z" />
    <glyph glyph-name="bracketleft" unicode="[" 
d="M207 403q-13 0 -19 -2v-200q4 -2 19 -2q37 0 50 25t13 77q0 54 -13 78t-50 24zM518 330v-49h-82v-78h96v-49h-155v297h155v-52h-96v-69h82zM203 150q-47 0 -74 4v292q61 9 76 9q67 0 96 -37.5t29 -116.5t-29.5 -115t-97.5 -36zM586 451h80l39 -164l38 164h82
q3 -45 13 -297h-60q0 108 -6 213l-41 -168h-55l-41 168h-2q-4 -140 -4 -213h-58q3 156 15 297zM987 150q-60 0 -84 35.5t-24 115.5q0 81 24 117.5t84 36.5t85.5 -37t25.5 -117q0 -79 -25.5 -115t-85.5 -36zM987 403q-29 0 -39 -23.5t-10 -78.5q0 -54 10 -78t39 -24
q30 0 40.5 24t10.5 78q0 55 -10 78.5t-41 23.5zM967 1016q49 0 79.5 -24.5t39 -51t8.5 -53.5q0 -43 -34.5 -72.5t-72.5 -34.5q-213 -23 -340 -147q3 8 9 22t25 53.5t39 75.5t50 80.5t59.5 76t66 53.5t71.5 22zM285 909q39 0 78 -21t69.5 -55t58.5 -74.5t48 -81.5t35 -75
t22 -55l8 -21q-117 148 -319 148q-49 0 -88 30t-39 76q0 53 33.5 91t93.5 38zM643 1214q38 -37 48.5 -102t-2.5 -131t-31.5 -126.5t-35.5 -98.5l-18 -39q20 191 -125 330q-35 35 -42 81.5t24 83.5q23 23 53 34t65 3.5t64 -35.5z" />
    <glyph glyph-name="backslash" unicode="\" 
d="M207 403q-13 0 -19 -2v-200q4 -2 19 -2q37 0 50 25t13 77q0 54 -13 78t-50 24zM518 330v-49h-82v-78h96v-49h-155v297h155v-52h-96v-69h82zM203 150q-47 0 -74 4v292q61 9 76 9q67 0 96 -37.5t29 -116.5t-29.5 -115t-97.5 -36zM586 451h80l39 -164l38 164h82
q3 -45 13 -297h-60q0 108 -6 213l-41 -168h-55l-41 168h-2q-4 -140 -4 -213h-58q3 156 15 297zM987 150q-60 0 -84 35.5t-24 115.5q0 81 24 117.5t84 36.5t85.5 -37t25.5 -117q0 -79 -25.5 -115t-85.5 -36zM987 403q-29 0 -39 -23.5t-10 -78.5q0 -54 10 -78t39 -24
q30 0 40.5 24t10.5 78q0 55 -10 78.5t-41 23.5zM967 1016q49 0 79.5 -24.5t39 -51t8.5 -53.5q0 -43 -34.5 -72.5t-72.5 -34.5q-213 -23 -340 -147q3 8 9 22t25 53.5t39 75.5t50 80.5t59.5 76t66 53.5t71.5 22zM285 909q39 0 78 -21t69.5 -55t58.5 -74.5t48 -81.5t35 -75
t22 -55l8 -21q-117 148 -319 148q-49 0 -88 30t-39 76q0 53 33.5 91t93.5 38zM643 1214q38 -37 48.5 -102t-2.5 -131t-31.5 -126.5t-35.5 -98.5l-18 -39q20 191 -125 330q-35 35 -42 81.5t24 83.5q23 23 53 34t65 3.5t64 -35.5z" />
    <glyph glyph-name="bracketright" unicode="]" 
d="M207 403q-13 0 -19 -2v-200q4 -2 19 -2q37 0 50 25t13 77q0 54 -13 78t-50 24zM518 330v-49h-82v-78h96v-49h-155v297h155v-52h-96v-69h82zM203 150q-47 0 -74 4v292q61 9 76 9q67 0 96 -37.5t29 -116.5t-29.5 -115t-97.5 -36zM586 451h80l39 -164l38 164h82
q3 -45 13 -297h-60q0 108 -6 213l-41 -168h-55l-41 168h-2q-4 -140 -4 -213h-58q3 156 15 297zM987 150q-60 0 -84 35.5t-24 115.5q0 81 24 117.5t84 36.5t85.5 -37t25.5 -117q0 -79 -25.5 -115t-85.5 -36zM987 403q-29 0 -39 -23.5t-10 -78.5q0 -54 10 -78t39 -24
q30 0 40.5 24t10.5 78q0 55 -10 78.5t-41 23.5zM967 1016q49 0 79.5 -24.5t39 -51t8.5 -53.5q0 -43 -34.5 -72.5t-72.5 -34.5q-213 -23 -340 -147q3 8 9 22t25 53.5t39 75.5t50 80.5t59.5 76t66 53.5t71.5 22zM285 909q39 0 78 -21t69.5 -55t58.5 -74.5t48 -81.5t35 -75
t22 -55l8 -21q-117 148 -319 148q-49 0 -88 30t-39 76q0 53 33.5 91t93.5 38zM643 1214q38 -37 48.5 -102t-2.5 -131t-31.5 -126.5t-35.5 -98.5l-18 -39q20 191 -125 330q-35 35 -42 81.5t24 83.5q23 23 53 34t65 3.5t64 -35.5z" />
    <glyph glyph-name="asciicircum" unicode="^" 
d="M207 403q-13 0 -19 -2v-200q4 -2 19 -2q37 0 50 25t13 77q0 54 -13 78t-50 24zM518 330v-49h-82v-78h96v-49h-155v297h155v-52h-96v-69h82zM203 150q-47 0 -74 4v292q61 9 76 9q67 0 96 -37.5t29 -116.5t-29.5 -115t-97.5 -36zM586 451h80l39 -164l38 164h82
q3 -45 13 -297h-60q0 108 -6 213l-41 -168h-55l-41 168h-2q-4 -140 -4 -213h-58q3 156 15 297zM987 150q-60 0 -84 35.5t-24 115.5q0 81 24 117.5t84 36.5t85.5 -37t25.5 -117q0 -79 -25.5 -115t-85.5 -36zM987 403q-29 0 -39 -23.5t-10 -78.5q0 -54 10 -78t39 -24
q30 0 40.5 24t10.5 78q0 55 -10 78.5t-41 23.5zM967 1016q49 0 79.5 -24.5t39 -51t8.5 -53.5q0 -43 -34.5 -72.5t-72.5 -34.5q-213 -23 -340 -147q3 8 9 22t25 53.5t39 75.5t50 80.5t59.5 76t66 53.5t71.5 22zM285 909q39 0 78 -21t69.5 -55t58.5 -74.5t48 -81.5t35 -75
t22 -55l8 -21q-117 148 -319 148q-49 0 -88 30t-39 76q0 53 33.5 91t93.5 38zM643 1214q38 -37 48.5 -102t-2.5 -131t-31.5 -126.5t-35.5 -98.5l-18 -39q20 191 -125 330q-35 35 -42 81.5t24 83.5q23 23 53 34t65 3.5t64 -35.5z" />
    <glyph glyph-name="underscore" unicode="_" 
d="M207 403q-13 0 -19 -2v-200q4 -2 19 -2q37 0 50 25t13 77q0 54 -13 78t-50 24zM518 330v-49h-82v-78h96v-49h-155v297h155v-52h-96v-69h82zM203 150q-47 0 -74 4v292q61 9 76 9q67 0 96 -37.5t29 -116.5t-29.5 -115t-97.5 -36zM586 451h80l39 -164l38 164h82
q3 -45 13 -297h-60q0 108 -6 213l-41 -168h-55l-41 168h-2q-4 -140 -4 -213h-58q3 156 15 297zM987 150q-60 0 -84 35.5t-24 115.5q0 81 24 117.5t84 36.5t85.5 -37t25.5 -117q0 -79 -25.5 -115t-85.5 -36zM987 403q-29 0 -39 -23.5t-10 -78.5q0 -54 10 -78t39 -24
q30 0 40.5 24t10.5 78q0 55 -10 78.5t-41 23.5zM967 1016q49 0 79.5 -24.5t39 -51t8.5 -53.5q0 -43 -34.5 -72.5t-72.5 -34.5q-213 -23 -340 -147q3 8 9 22t25 53.5t39 75.5t50 80.5t59.5 76t66 53.5t71.5 22zM285 909q39 0 78 -21t69.5 -55t58.5 -74.5t48 -81.5t35 -75
t22 -55l8 -21q-117 148 -319 148q-49 0 -88 30t-39 76q0 53 33.5 91t93.5 38zM643 1214q38 -37 48.5 -102t-2.5 -131t-31.5 -126.5t-35.5 -98.5l-18 -39q20 191 -125 330q-35 35 -42 81.5t24 83.5q23 23 53 34t65 3.5t64 -35.5z" />
    <glyph glyph-name="grave" unicode="`" 
d="M207 403q-13 0 -19 -2v-200q4 -2 19 -2q37 0 50 25t13 77q0 54 -13 78t-50 24zM518 330v-49h-82v-78h96v-49h-155v297h155v-52h-96v-69h82zM203 150q-47 0 -74 4v292q61 9 76 9q67 0 96 -37.5t29 -116.5t-29.5 -115t-97.5 -36zM586 451h80l39 -164l38 164h82
q3 -45 13 -297h-60q0 108 -6 213l-41 -168h-55l-41 168h-2q-4 -140 -4 -213h-58q3 156 15 297zM987 150q-60 0 -84 35.5t-24 115.5q0 81 24 117.5t84 36.5t85.5 -37t25.5 -117q0 -79 -25.5 -115t-85.5 -36zM987 403q-29 0 -39 -23.5t-10 -78.5q0 -54 10 -78t39 -24
q30 0 40.5 24t10.5 78q0 55 -10 78.5t-41 23.5zM967 1016q49 0 79.5 -24.5t39 -51t8.5 -53.5q0 -43 -34.5 -72.5t-72.5 -34.5q-213 -23 -340 -147q3 8 9 22t25 53.5t39 75.5t50 80.5t59.5 76t66 53.5t71.5 22zM285 909q39 0 78 -21t69.5 -55t58.5 -74.5t48 -81.5t35 -75
t22 -55l8 -21q-117 148 -319 148q-49 0 -88 30t-39 76q0 53 33.5 91t93.5 38zM643 1214q38 -37 48.5 -102t-2.5 -131t-31.5 -126.5t-35.5 -98.5l-18 -39q20 191 -125 330q-35 35 -42 81.5t24 83.5q23 23 53 34t65 3.5t64 -35.5z" />
    <glyph glyph-name="a" unicode="a" horiz-adv-x="1134" 
d="M972 138q-11 -80 55 -80q15 0 31 4l-2 -63q-20 -8 -57 -8q-54 0 -82 31t-19 97l17 125h-3q-49 -111 -153 -182t-237 -71q-167 0 -265.5 112.5t-98.5 300.5q0 244 139 400.5t350 156.5q140 0 225.5 -75.5t102.5 -193.5h1q22 151 46 259h54zM538 55q79 0 149.5 32t119 82.5
t80 109t43.5 116.5l21 147l-2 -4q7 59 -7.5 120t-49 115t-99.5 88.5t-150 34.5q-177 0 -293 -136.5t-116 -348.5q0 -162 81.5 -259t222.5 -97z" />
    <glyph glyph-name="b" unicode="b" horiz-adv-x="1120" 
d="M718 962q166 0 264 -112.5t98 -300.5q0 -245 -137.5 -401t-349.5 -156q-141 0 -227 75.5t-103 192.5h-1q-12 -117 -44 -258h-53l183 1435h73l-90 -717q53 107 154.5 174.5t232.5 67.5zM597 57q178 0 293.5 136t115.5 349q0 162 -81.5 259t-222.5 97q-63 0 -121.5 -20.5
t-102.5 -54.5t-79.5 -78t-57 -90t-30.5 -91l-22 -170q-4 -58 12.5 -115.5t52 -108t98.5 -82t145 -31.5z" />
    <glyph glyph-name="c" unicode="c" horiz-adv-x="985" 
d="M657 961q144 0 228 -78.5t84 -203.5q0 -23 -3.5 -46.5t-7.5 -36.5l-3 -12l-71 -6q13 26 13 84q0 105 -66.5 169.5t-182.5 64.5q-177 0 -296 -137.5t-119 -348.5q0 -162 85 -258.5t238 -96.5q178 0 300 122l39 -48q-137 -138 -347 -138q-183 0 -287 112t-104 300
q0 243 143 400.5t357 157.5z" />
    <glyph glyph-name="d" unicode="d" horiz-adv-x="1134" 
d="M972 138q-11 -80 55 -80q15 0 31 4l-2 -63q-20 -8 -57 -8q-115 0 -100 128l16 125h-3q-51 -111 -153.5 -181.5t-237.5 -70.5q-167 0 -264.5 113t-97.5 300q0 244 138.5 400.5t349.5 156.5q129 0 214.5 -66.5t111.5 -172.5l91 714h72zM538 57q84 0 158 34.5t122 88.5
t78 115t37 119l17 133q6 58 -9.5 118.5t-51 113t-100 86t-146.5 33.5q-177 0 -293 -136.5t-116 -349.5q0 -162 81.5 -258.5t222.5 -96.5z" />
    <glyph glyph-name="e" unicode="e" horiz-adv-x="995" 
d="M644 961q149 0 237 -97t88 -261q0 -34 -4.5 -67t-8.5 -49l-5 -16h-715q-3 -30 -3 -60q0 -163 86 -259.5t238 -96.5q176 0 292 121l41 -44q-131 -141 -345 -141q-180 0 -283.5 112t-103.5 299q0 124 39 230t105.5 177.5t155 111.5t186.5 40zM637 896q-143 0 -252 -99.5
t-141 -266.5h647q5 27 5 74q0 138 -69.5 215t-189.5 77z" />
    <glyph glyph-name="f" unicode="f" horiz-adv-x="675" 
d="M678 1391q-92 0 -158 -70.5t-80 -186.5l-23 -183h352l-8 -62h-352l-113 -889h-74l112 889h-135l7 62h136l23 182q19 146 107 234t211 88q119 0 192 -66l-41 -58q-67 60 -156 60z" />
    <glyph glyph-name="g" unicode="g" horiz-adv-x="1120" 
d="M1022 951h52l-126 -987q-23 -183 -150 -287t-322 -104q-94 0 -179 25t-123.5 48t-61.5 43l42 62q38 -41 129 -77.5t202 -36.5q162 0 266 85t124 241l34 271q-53 -108 -155 -175.5t-232 -67.5q-167 0 -265.5 112.5t-98.5 300.5q0 244 139 400.5t350 156.5
q140 0 225.5 -75.5t102.5 -193.5h1q22 151 46 259zM538 55q80 0 152 33t120.5 85.5t80 112.5t40.5 118l19 155q4 58 -12.5 115.5t-51.5 108t-98 82t-145 31.5q-177 0 -293 -136.5t-116 -348.5q0 -162 81.5 -259t222.5 -97z" />
    <glyph glyph-name="h" unicode="h" horiz-adv-x="1114" 
d="M1013 58q18 0 34 4l-2 -64q-26 -7 -62 -7q-54 0 -80 33t-18 98l57 461q17 141 -49 227t-196 86q-76 0 -145.5 -31t-117.5 -81t-80.5 -109t-43.5 -118l-71 -557h-74l185 1446h71l-95 -741q52 111 155.5 183.5t233.5 72.5q159 0 240.5 -104.5t60.5 -273.5l-56 -450
q-10 -75 53 -75z" />
    <glyph glyph-name="i" unicode="i" horiz-adv-x="417" 
d="M438 1274q0 -33 -24 -55.5t-57 -22.5q-26 0 -43.5 18.5t-17.5 45.5q0 31 24.5 54t55.5 23q27 0 44.5 -18.5t17.5 -44.5zM362 954l-107 -826q-9 -70 48 -70q16 0 32 4l-3 -64q-26 -7 -58 -7q-110 0 -94 124l108 836z" />
    <glyph glyph-name="j" unicode="j" horiz-adv-x="423" 
d="M456 1272q0 -31 -25 -53.5t-57 -22.5q-26 0 -43.5 18.5t-17.5 45.5q0 31 24.5 54t56.5 23q26 0 44 -19t18 -46zM-186 -320q5 -5 15 -12t43.5 -18.5t70.5 -11.5q99 0 152.5 58.5t69.5 188.5l137 1066l74 3l-136 -1060q-20 -162 -94 -241t-208 -79q-47 0 -85.5 12.5
t-53.5 25.5l-15 12z" />
    <glyph glyph-name="k" unicode="k" horiz-adv-x="1003" 
d="M981 877q-16 -133 -84.5 -237.5t-181.5 -150.5l225 -489h-89l-211 466q-39 -8 -91 -8h-252l-59 -458h-73l185 1446h73l-118 -926h242q148 0 250 102t113 269q1 10 1.5 30t1.5 30h73q-1 -9 -2 -33.5t-3 -40.5z" />
    <glyph glyph-name="l" unicode="l" horiz-adv-x="411" 
d="M169 0l184 1446h73l-184 -1446h-73z" />
    <glyph glyph-name="m" unicode="m" horiz-adv-x="1746" 
d="M1645 58q19 0 33 4l-3 -64q-26 -7 -60 -7q-54 0 -80.5 33.5t-18.5 97.5l59 460q18 141 -45.5 227t-191.5 86q-72 0 -137.5 -33t-110 -84.5t-74 -111t-39.5 -116.5l-71 -550h-74l75 582q17 141 -46 227t-191 86q-96 0 -177 -56t-126.5 -134t-58.5 -160l-70 -545h-73
l122 951l53 3q-4 -124 -22 -262h2q45 116 144 192t226 76q129 0 206 -73.5t88 -199.5q46 118 144.5 195.5t226.5 77.5q157 0 236 -104.5t57 -273.5l-58 -449q-10 -75 55 -75z" />
    <glyph glyph-name="n" unicode="n" horiz-adv-x="1114" 
d="M1012 58q18 0 34 4l-2 -64q-26 -7 -62 -7q-54 0 -80 33t-18 98l58 461q17 141 -49.5 227t-196.5 86q-79 0 -149 -32.5t-118 -84.5t-79.5 -111.5t-41.5 -118.5l-70 -549h-73l122 951l53 3q-4 -124 -22 -262h2q50 114 156 191.5t238 77.5q159 0 240.5 -104.5t60.5 -273.5
l-56 -450q-10 -75 53 -75z" />
    <glyph glyph-name="o" unicode="o" horiz-adv-x="1081" 
d="M663 961q176 0 278.5 -114.5t102.5 -302.5q0 -243 -142.5 -398t-361.5 -155q-176 0 -278.5 113t-102.5 301q0 243 143 399.5t361 156.5zM547 55q182 0 302 136t120 347q0 163 -84 260.5t-230 97.5q-182 0 -302 -136.5t-120 -347.5q0 -162 84.5 -259.5t229.5 -97.5z" />
    <glyph glyph-name="p" unicode="p" horiz-adv-x="1120" 
d="M718 961q167 0 265 -113t98 -300q0 -245 -138 -401t-350 -156q-128 0 -213.5 67t-111.5 174l-82 -650h-74l175 1369l53 3q-6 -157 -22 -262h2q47 118 150.5 193.5t247.5 75.5zM597 55q178 0 293.5 136.5t115.5 349.5q0 162 -81.5 258.5t-222.5 96.5q-81 0 -152.5 -32
t-120 -84t-80 -111.5t-41.5 -119.5l-19 -148q-4 -60 13 -119.5t52 -111t98.5 -83.5t144.5 -32z" />
    <glyph glyph-name="q" unicode="q" horiz-adv-x="1118" 
d="M1022 951h52l-174 -1369h-73l82 652q-53 -108 -155 -175.5t-232 -67.5q-167 0 -265.5 112.5t-98.5 300.5q0 244 139 400.5t350 156.5q141 0 225.5 -75.5t101.5 -193.5h2q22 151 46 259zM538 55q80 0 151.5 33t120 85t80 112t40.5 118l20 156q4 58 -12.5 115.5t-51.5 108
t-98 82t-145 31.5q-177 0 -293 -136.5t-116 -348.5q0 -162 81.5 -259t222.5 -97z" />
    <glyph glyph-name="r" unicode="r" horiz-adv-x="616" 
d="M621 961q48 0 90 -12l-27 -72q-23 13 -75 13q-58 0 -112.5 -35.5t-92.5 -89.5t-63.5 -113.5t-33.5 -111.5l-69 -540h-73l122 951l53 3q-4 -124 -22 -262h2q41 113 120.5 191t180.5 78z" />
    <glyph glyph-name="s" unicode="s" horiz-adv-x="878" 
d="M762 650q11 28 11 71q0 83 -61 129t-162 46q-120 0 -192.5 -57t-72.5 -150q0 -49 29 -83t75.5 -52.5t102.5 -33t112 -31.5t102.5 -40.5t75.5 -67t29 -104.5q0 -132 -101.5 -209t-272.5 -77q-223 0 -338 138l54 47q9 -10 16.5 -18t35 -29.5t57.5 -35.5t79.5 -26t104.5 -12
q133 0 211 57t78 153q0 49 -29 83.5t-75 54t-102 35t-112 33t-102 41.5t-75 66.5t-29 101.5q0 123 97 202t251 79q128 0 207.5 -60t79.5 -162q0 -19 -3.5 -39.5t-6.5 -31.5l-4 -12z" />
    <glyph glyph-name="t" unicode="t" horiz-adv-x="724" 
d="M401 889l-74 -583q-16 -127 24.5 -189.5t148.5 -62.5q50 0 99 16t73 32l24 17l20 -59q-11 -8 -30.5 -20t-79.5 -31.5t-119 -19.5q-143 0 -199 78t-35 237l74 585h-152l8 62h152l39 295l72 5l-37 -300h381l-8 -62h-381z" />
    <glyph glyph-name="u" unicode="u" horiz-adv-x="1085" 
d="M923 138q-11 -80 55 -80q15 0 31 4l-2 -63q-20 -8 -57 -8q-52 0 -79.5 31t-19.5 97l14 122h-3q-49 -109 -149.5 -179.5t-227.5 -70.5q-157 0 -231.5 101.5t-52.5 270.5l74 588h74l-75 -588q-19 -141 42 -224.5t189 -83.5q76 0 144.5 33t115 85.5t77 112t40.5 117.5
l71 548h75z" />
    <glyph glyph-name="v" unicode="v" horiz-adv-x="956" 
d="M949 951h76l-499 -951h-92l-260 951h83l223 -841q6 -24 7 -39h4q2 6 16 39z" />
    <glyph glyph-name="w" unicode="w" horiz-adv-x="1380" 
d="M1366 951h76l-404 -951h-96l-129 781q-9 52 -9 72h-3q-1 -3 -6.5 -17t-11.5 -29.5t-10 -25.5l-330 -781h-96l-166 951h81l134 -830q8 -49 8 -50h4q1 2 4.5 11t8 20.5t7.5 18.5l348 830h77l137 -828q1 -9 2.5 -21t2.5 -20.5t1 -10.5h4q1 2 4 9.5l8 20l9 22.5z" />
    <glyph glyph-name="x" unicode="x" horiz-adv-x="872" 
d="M937 951l-397 -475l277 -476h-89l-224 393q-11 20 -11 29h-3q-6 -14 -20 -29l-326 -393h-86l397 475l-277 476h87l222 -389q16 -31 17 -36h3q4 9 24 36l319 389h87z" />
    <glyph glyph-name="y" unicode="y" horiz-adv-x="1071" 
d="M953 951h73l-126 -988q-24 -185 -139 -287.5t-314 -102.5q-180 0 -317 93l42 63q40 -36 114 -64t171 -28q331 0 374 326l38 283h-2q-50 -112 -150 -183.5t-232 -71.5q-157 0 -231.5 101.5t-52.5 270.5l74 588h74l-75 -588q-19 -141 42 -224.5t189 -83.5q76 0 144.5 33
t115 85t77 111.5t40.5 117.5z" />
    <glyph glyph-name="z" unicode="z" horiz-adv-x="843" 
d="M74 0l8 63l680 796l30 30l-2 2q-7 -2 -49 -2h-541l8 62h675l-7 -62l-674 -789q-11 -14 -34 -37l1 -3q11 3 51 3h555l-8 -63h-693z" />
    <glyph glyph-name="braceleft" unicode="{" 
d="M207 403q-13 0 -19 -2v-200q4 -2 19 -2q37 0 50 25t13 77q0 54 -13 78t-50 24zM518 330v-49h-82v-78h96v-49h-155v297h155v-52h-96v-69h82zM203 150q-47 0 -74 4v292q61 9 76 9q67 0 96 -37.5t29 -116.5t-29.5 -115t-97.5 -36zM586 451h80l39 -164l38 164h82
q3 -45 13 -297h-60q0 108 -6 213l-41 -168h-55l-41 168h-2q-4 -140 -4 -213h-58q3 156 15 297zM987 150q-60 0 -84 35.5t-24 115.5q0 81 24 117.5t84 36.5t85.5 -37t25.5 -117q0 -79 -25.5 -115t-85.5 -36zM987 403q-29 0 -39 -23.5t-10 -78.5q0 -54 10 -78t39 -24
q30 0 40.5 24t10.5 78q0 55 -10 78.5t-41 23.5zM967 1016q49 0 79.5 -24.5t39 -51t8.5 -53.5q0 -43 -34.5 -72.5t-72.5 -34.5q-213 -23 -340 -147q3 8 9 22t25 53.5t39 75.5t50 80.5t59.5 76t66 53.5t71.5 22zM285 909q39 0 78 -21t69.5 -55t58.5 -74.5t48 -81.5t35 -75
t22 -55l8 -21q-117 148 -319 148q-49 0 -88 30t-39 76q0 53 33.5 91t93.5 38zM643 1214q38 -37 48.5 -102t-2.5 -131t-31.5 -126.5t-35.5 -98.5l-18 -39q20 191 -125 330q-35 35 -42 81.5t24 83.5q23 23 53 34t65 3.5t64 -35.5z" />
    <glyph glyph-name="bar" unicode="|" 
d="M207 403q-13 0 -19 -2v-200q4 -2 19 -2q37 0 50 25t13 77q0 54 -13 78t-50 24zM518 330v-49h-82v-78h96v-49h-155v297h155v-52h-96v-69h82zM203 150q-47 0 -74 4v292q61 9 76 9q67 0 96 -37.5t29 -116.5t-29.5 -115t-97.5 -36zM586 451h80l39 -164l38 164h82
q3 -45 13 -297h-60q0 108 -6 213l-41 -168h-55l-41 168h-2q-4 -140 -4 -213h-58q3 156 15 297zM987 150q-60 0 -84 35.5t-24 115.5q0 81 24 117.5t84 36.5t85.5 -37t25.5 -117q0 -79 -25.5 -115t-85.5 -36zM987 403q-29 0 -39 -23.5t-10 -78.5q0 -54 10 -78t39 -24
q30 0 40.5 24t10.5 78q0 55 -10 78.5t-41 23.5zM967 1016q49 0 79.5 -24.5t39 -51t8.5 -53.5q0 -43 -34.5 -72.5t-72.5 -34.5q-213 -23 -340 -147q3 8 9 22t25 53.5t39 75.5t50 80.5t59.5 76t66 53.5t71.5 22zM285 909q39 0 78 -21t69.5 -55t58.5 -74.5t48 -81.5t35 -75
t22 -55l8 -21q-117 148 -319 148q-49 0 -88 30t-39 76q0 53 33.5 91t93.5 38zM643 1214q38 -37 48.5 -102t-2.5 -131t-31.5 -126.5t-35.5 -98.5l-18 -39q20 191 -125 330q-35 35 -42 81.5t24 83.5q23 23 53 34t65 3.5t64 -35.5z" />
    <glyph glyph-name="braceright" unicode="}" 
d="M207 403q-13 0 -19 -2v-200q4 -2 19 -2q37 0 50 25t13 77q0 54 -13 78t-50 24zM518 330v-49h-82v-78h96v-49h-155v297h155v-52h-96v-69h82zM203 150q-47 0 -74 4v292q61 9 76 9q67 0 96 -37.5t29 -116.5t-29.5 -115t-97.5 -36zM586 451h80l39 -164l38 164h82
q3 -45 13 -297h-60q0 108 -6 213l-41 -168h-55l-41 168h-2q-4 -140 -4 -213h-58q3 156 15 297zM987 150q-60 0 -84 35.5t-24 115.5q0 81 24 117.5t84 36.5t85.5 -37t25.5 -117q0 -79 -25.5 -115t-85.5 -36zM987 403q-29 0 -39 -23.5t-10 -78.5q0 -54 10 -78t39 -24
q30 0 40.5 24t10.5 78q0 55 -10 78.5t-41 23.5zM967 1016q49 0 79.5 -24.5t39 -51t8.5 -53.5q0 -43 -34.5 -72.5t-72.5 -34.5q-213 -23 -340 -147q3 8 9 22t25 53.5t39 75.5t50 80.5t59.5 76t66 53.5t71.5 22zM285 909q39 0 78 -21t69.5 -55t58.5 -74.5t48 -81.5t35 -75
t22 -55l8 -21q-117 148 -319 148q-49 0 -88 30t-39 76q0 53 33.5 91t93.5 38zM643 1214q38 -37 48.5 -102t-2.5 -131t-31.5 -126.5t-35.5 -98.5l-18 -39q20 191 -125 330q-35 35 -42 81.5t24 83.5q23 23 53 34t65 3.5t64 -35.5z" />
    <glyph glyph-name="asciitilde" unicode="~" 
d="M207 403q-13 0 -19 -2v-200q4 -2 19 -2q37 0 50 25t13 77q0 54 -13 78t-50 24zM518 330v-49h-82v-78h96v-49h-155v297h155v-52h-96v-69h82zM203 150q-47 0 -74 4v292q61 9 76 9q67 0 96 -37.5t29 -116.5t-29.5 -115t-97.5 -36zM586 451h80l39 -164l38 164h82
q3 -45 13 -297h-60q0 108 -6 213l-41 -168h-55l-41 168h-2q-4 -140 -4 -213h-58q3 156 15 297zM987 150q-60 0 -84 35.5t-24 115.5q0 81 24 117.5t84 36.5t85.5 -37t25.5 -117q0 -79 -25.5 -115t-85.5 -36zM987 403q-29 0 -39 -23.5t-10 -78.5q0 -54 10 -78t39 -24
q30 0 40.5 24t10.5 78q0 55 -10 78.5t-41 23.5zM967 1016q49 0 79.5 -24.5t39 -51t8.5 -53.5q0 -43 -34.5 -72.5t-72.5 -34.5q-213 -23 -340 -147q3 8 9 22t25 53.5t39 75.5t50 80.5t59.5 76t66 53.5t71.5 22zM285 909q39 0 78 -21t69.5 -55t58.5 -74.5t48 -81.5t35 -75
t22 -55l8 -21q-117 148 -319 148q-49 0 -88 30t-39 76q0 53 33.5 91t93.5 38zM643 1214q38 -37 48.5 -102t-2.5 -131t-31.5 -126.5t-35.5 -98.5l-18 -39q20 191 -125 330q-35 35 -42 81.5t24 83.5q23 23 53 34t65 3.5t64 -35.5z" />
    </font>
</defs>
</svg>
