<?xml version="1.0" standalone="no"?>
<!DOCTYPE svg PUBLIC "-//W3C//DTD SVG 1.1//EN" "http://www.w3.org/Graphics/SVG/1.1/DTD/svg11.dtd" >
<svg xmlns="http://www.w3.org/2000/svg" xmlns:xlink="http://www.w3.org/1999/xlink" version="1.1">
<metadata>
Created by FontForge 20201107 at Sun Dec 22 14:45:37 2024
 By 
Copyright  2016 by Daniel Hernandez. All rights reserved.
</metadata>
<defs>
<font id="FONTSPRINGDEMO-BasicSansItRegular" horiz-adv-x="1224" >
  <font-face 
    font-family="FSP DEMO - Basic Sans It"
    font-weight="400"
    font-style="italic"
    font-stretch="normal"
    units-per-em="2048"
    panose-1="0 0 5 0 0 0 0 0 0 0"
    ascent="1536"
    descent="-512"
    x-height="967"
    cap-height="1352"
    bbox="-217 -430 1894 1458"
    underline-thickness="102"
    underline-position="-204"
    slope="-7"
    unicode-range="U+0020-007E"
  />
<missing-glyph 
d="M207 403q-13 0 -19 -2v-200q4 -2 19 -2q37 0 50 25t13 77q0 54 -13 78t-50 24zM518 330v-49h-82v-78h96v-49h-155v297h155v-52h-96v-69h82zM203 150q-47 0 -74 4v292q61 9 76 9q67 0 96 -37.5t29 -116.5t-29.5 -115t-97.5 -36zM586 451h80l39 -164l38 164h82
q3 -45 13 -297h-60q0 108 -6 213l-41 -168h-55l-41 168h-2q-4 -140 -4 -213h-58q3 156 15 297zM987 150q-60 0 -84 35.5t-24 115.5q0 81 24 117.5t84 36.5t85.5 -37t25.5 -117q0 -79 -25.5 -115t-85.5 -36zM987 403q-29 0 -39 -23.5t-10 -78.5q0 -54 10 -78t39 -24
q30 0 40.5 24t10.5 78q0 55 -10 78.5t-41 23.5zM967 1016q49 0 79.5 -24.5t39 -51t8.5 -53.5q0 -43 -34.5 -72.5t-72.5 -34.5q-213 -23 -340 -147q3 8 9 22t25 53.5t39 75.5t50 80.5t59.5 76t66 53.5t71.5 22zM285 909q39 0 78 -21t69.5 -55t58.5 -74.5t48 -81.5t35 -75
t22 -55l8 -21q-117 148 -319 148q-49 0 -88 30t-39 76q0 53 33.5 91t93.5 38zM643 1214q38 -37 48.5 -102t-2.5 -131t-31.5 -126.5t-35.5 -98.5l-18 -39q20 191 -125 330q-35 35 -42 81.5t24 83.5q23 23 53 34t65 3.5t64 -35.5z" />
    <glyph glyph-name=".notdef" 
d="M207 403q-13 0 -19 -2v-200q4 -2 19 -2q37 0 50 25t13 77q0 54 -13 78t-50 24zM518 330v-49h-82v-78h96v-49h-155v297h155v-52h-96v-69h82zM203 150q-47 0 -74 4v292q61 9 76 9q67 0 96 -37.5t29 -116.5t-29.5 -115t-97.5 -36zM586 451h80l39 -164l38 164h82
q3 -45 13 -297h-60q0 108 -6 213l-41 -168h-55l-41 168h-2q-4 -140 -4 -213h-58q3 156 15 297zM987 150q-60 0 -84 35.5t-24 115.5q0 81 24 117.5t84 36.5t85.5 -37t25.5 -117q0 -79 -25.5 -115t-85.5 -36zM987 403q-29 0 -39 -23.5t-10 -78.5q0 -54 10 -78t39 -24
q30 0 40.5 24t10.5 78q0 55 -10 78.5t-41 23.5zM967 1016q49 0 79.5 -24.5t39 -51t8.5 -53.5q0 -43 -34.5 -72.5t-72.5 -34.5q-213 -23 -340 -147q3 8 9 22t25 53.5t39 75.5t50 80.5t59.5 76t66 53.5t71.5 22zM285 909q39 0 78 -21t69.5 -55t58.5 -74.5t48 -81.5t35 -75
t22 -55l8 -21q-117 148 -319 148q-49 0 -88 30t-39 76q0 53 33.5 91t93.5 38zM643 1214q38 -37 48.5 -102t-2.5 -131t-31.5 -126.5t-35.5 -98.5l-18 -39q20 191 -125 330q-35 35 -42 81.5t24 83.5q23 23 53 34t65 3.5t64 -35.5z" />
    <glyph glyph-name=".null" horiz-adv-x="0" 
 />
    <glyph glyph-name="nonmarkingreturn" horiz-adv-x="682" 
 />
    <glyph glyph-name="space" unicode=" " horiz-adv-x="438" 
 />
    <glyph glyph-name="exclam" unicode="!" 
d="M207 403q-13 0 -19 -2v-200q4 -2 19 -2q37 0 50 25t13 77q0 54 -13 78t-50 24zM518 330v-49h-82v-78h96v-49h-155v297h155v-52h-96v-69h82zM203 150q-47 0 -74 4v292q61 9 76 9q67 0 96 -37.5t29 -116.5t-29.5 -115t-97.5 -36zM586 451h80l39 -164l38 164h82
q3 -45 13 -297h-60q0 108 -6 213l-41 -168h-55l-41 168h-2q-4 -140 -4 -213h-58q3 156 15 297zM987 150q-60 0 -84 35.5t-24 115.5q0 81 24 117.5t84 36.5t85.5 -37t25.5 -117q0 -79 -25.5 -115t-85.5 -36zM987 403q-29 0 -39 -23.5t-10 -78.5q0 -54 10 -78t39 -24
q30 0 40.5 24t10.5 78q0 55 -10 78.5t-41 23.5zM967 1016q49 0 79.5 -24.5t39 -51t8.5 -53.5q0 -43 -34.5 -72.5t-72.5 -34.5q-213 -23 -340 -147q3 8 9 22t25 53.5t39 75.5t50 80.5t59.5 76t66 53.5t71.5 22zM285 909q39 0 78 -21t69.5 -55t58.5 -74.5t48 -81.5t35 -75
t22 -55l8 -21q-117 148 -319 148q-49 0 -88 30t-39 76q0 53 33.5 91t93.5 38zM643 1214q38 -37 48.5 -102t-2.5 -131t-31.5 -126.5t-35.5 -98.5l-18 -39q20 191 -125 330q-35 35 -42 81.5t24 83.5q23 23 53 34t65 3.5t64 -35.5z" />
    <glyph glyph-name="quotedbl" unicode="&#x22;" 
d="M207 403q-13 0 -19 -2v-200q4 -2 19 -2q37 0 50 25t13 77q0 54 -13 78t-50 24zM518 330v-49h-82v-78h96v-49h-155v297h155v-52h-96v-69h82zM203 150q-47 0 -74 4v292q61 9 76 9q67 0 96 -37.5t29 -116.5t-29.5 -115t-97.5 -36zM586 451h80l39 -164l38 164h82
q3 -45 13 -297h-60q0 108 -6 213l-41 -168h-55l-41 168h-2q-4 -140 -4 -213h-58q3 156 15 297zM987 150q-60 0 -84 35.5t-24 115.5q0 81 24 117.5t84 36.5t85.5 -37t25.5 -117q0 -79 -25.5 -115t-85.5 -36zM987 403q-29 0 -39 -23.5t-10 -78.5q0 -54 10 -78t39 -24
q30 0 40.5 24t10.5 78q0 55 -10 78.5t-41 23.5zM967 1016q49 0 79.5 -24.5t39 -51t8.5 -53.5q0 -43 -34.5 -72.5t-72.5 -34.5q-213 -23 -340 -147q3 8 9 22t25 53.5t39 75.5t50 80.5t59.5 76t66 53.5t71.5 22zM285 909q39 0 78 -21t69.5 -55t58.5 -74.5t48 -81.5t35 -75
t22 -55l8 -21q-117 148 -319 148q-49 0 -88 30t-39 76q0 53 33.5 91t93.5 38zM643 1214q38 -37 48.5 -102t-2.5 -131t-31.5 -126.5t-35.5 -98.5l-18 -39q20 191 -125 330q-35 35 -42 81.5t24 83.5q23 23 53 34t65 3.5t64 -35.5z" />
    <glyph glyph-name="numbersign" unicode="#" 
d="M207 403q-13 0 -19 -2v-200q4 -2 19 -2q37 0 50 25t13 77q0 54 -13 78t-50 24zM518 330v-49h-82v-78h96v-49h-155v297h155v-52h-96v-69h82zM203 150q-47 0 -74 4v292q61 9 76 9q67 0 96 -37.5t29 -116.5t-29.5 -115t-97.5 -36zM586 451h80l39 -164l38 164h82
q3 -45 13 -297h-60q0 108 -6 213l-41 -168h-55l-41 168h-2q-4 -140 -4 -213h-58q3 156 15 297zM987 150q-60 0 -84 35.5t-24 115.5q0 81 24 117.5t84 36.5t85.5 -37t25.5 -117q0 -79 -25.5 -115t-85.5 -36zM987 403q-29 0 -39 -23.5t-10 -78.5q0 -54 10 -78t39 -24
q30 0 40.5 24t10.5 78q0 55 -10 78.5t-41 23.5zM967 1016q49 0 79.5 -24.5t39 -51t8.5 -53.5q0 -43 -34.5 -72.5t-72.5 -34.5q-213 -23 -340 -147q3 8 9 22t25 53.5t39 75.5t50 80.5t59.5 76t66 53.5t71.5 22zM285 909q39 0 78 -21t69.5 -55t58.5 -74.5t48 -81.5t35 -75
t22 -55l8 -21q-117 148 -319 148q-49 0 -88 30t-39 76q0 53 33.5 91t93.5 38zM643 1214q38 -37 48.5 -102t-2.5 -131t-31.5 -126.5t-35.5 -98.5l-18 -39q20 191 -125 330q-35 35 -42 81.5t24 83.5q23 23 53 34t65 3.5t64 -35.5z" />
    <glyph glyph-name="dollar" unicode="$" 
d="M207 403q-13 0 -19 -2v-200q4 -2 19 -2q37 0 50 25t13 77q0 54 -13 78t-50 24zM518 330v-49h-82v-78h96v-49h-155v297h155v-52h-96v-69h82zM203 150q-47 0 -74 4v292q61 9 76 9q67 0 96 -37.5t29 -116.5t-29.5 -115t-97.5 -36zM586 451h80l39 -164l38 164h82
q3 -45 13 -297h-60q0 108 -6 213l-41 -168h-55l-41 168h-2q-4 -140 -4 -213h-58q3 156 15 297zM987 150q-60 0 -84 35.5t-24 115.5q0 81 24 117.5t84 36.5t85.5 -37t25.5 -117q0 -79 -25.5 -115t-85.5 -36zM987 403q-29 0 -39 -23.5t-10 -78.5q0 -54 10 -78t39 -24
q30 0 40.5 24t10.5 78q0 55 -10 78.5t-41 23.5zM967 1016q49 0 79.5 -24.5t39 -51t8.5 -53.5q0 -43 -34.5 -72.5t-72.5 -34.5q-213 -23 -340 -147q3 8 9 22t25 53.5t39 75.5t50 80.5t59.5 76t66 53.5t71.5 22zM285 909q39 0 78 -21t69.5 -55t58.5 -74.5t48 -81.5t35 -75
t22 -55l8 -21q-117 148 -319 148q-49 0 -88 30t-39 76q0 53 33.5 91t93.5 38zM643 1214q38 -37 48.5 -102t-2.5 -131t-31.5 -126.5t-35.5 -98.5l-18 -39q20 191 -125 330q-35 35 -42 81.5t24 83.5q23 23 53 34t65 3.5t64 -35.5z" />
    <glyph glyph-name="percent" unicode="%" 
d="M207 403q-13 0 -19 -2v-200q4 -2 19 -2q37 0 50 25t13 77q0 54 -13 78t-50 24zM518 330v-49h-82v-78h96v-49h-155v297h155v-52h-96v-69h82zM203 150q-47 0 -74 4v292q61 9 76 9q67 0 96 -37.5t29 -116.5t-29.5 -115t-97.5 -36zM586 451h80l39 -164l38 164h82
q3 -45 13 -297h-60q0 108 -6 213l-41 -168h-55l-41 168h-2q-4 -140 -4 -213h-58q3 156 15 297zM987 150q-60 0 -84 35.5t-24 115.5q0 81 24 117.5t84 36.5t85.5 -37t25.5 -117q0 -79 -25.5 -115t-85.5 -36zM987 403q-29 0 -39 -23.5t-10 -78.5q0 -54 10 -78t39 -24
q30 0 40.5 24t10.5 78q0 55 -10 78.5t-41 23.5zM967 1016q49 0 79.5 -24.5t39 -51t8.5 -53.5q0 -43 -34.5 -72.5t-72.5 -34.5q-213 -23 -340 -147q3 8 9 22t25 53.5t39 75.5t50 80.5t59.5 76t66 53.5t71.5 22zM285 909q39 0 78 -21t69.5 -55t58.5 -74.5t48 -81.5t35 -75
t22 -55l8 -21q-117 148 -319 148q-49 0 -88 30t-39 76q0 53 33.5 91t93.5 38zM643 1214q38 -37 48.5 -102t-2.5 -131t-31.5 -126.5t-35.5 -98.5l-18 -39q20 191 -125 330q-35 35 -42 81.5t24 83.5q23 23 53 34t65 3.5t64 -35.5z" />
    <glyph glyph-name="ampersand" unicode="&#x26;" 
d="M207 403q-13 0 -19 -2v-200q4 -2 19 -2q37 0 50 25t13 77q0 54 -13 78t-50 24zM518 330v-49h-82v-78h96v-49h-155v297h155v-52h-96v-69h82zM203 150q-47 0 -74 4v292q61 9 76 9q67 0 96 -37.5t29 -116.5t-29.5 -115t-97.5 -36zM586 451h80l39 -164l38 164h82
q3 -45 13 -297h-60q0 108 -6 213l-41 -168h-55l-41 168h-2q-4 -140 -4 -213h-58q3 156 15 297zM987 150q-60 0 -84 35.5t-24 115.5q0 81 24 117.5t84 36.5t85.5 -37t25.5 -117q0 -79 -25.5 -115t-85.5 -36zM987 403q-29 0 -39 -23.5t-10 -78.5q0 -54 10 -78t39 -24
q30 0 40.5 24t10.5 78q0 55 -10 78.5t-41 23.5zM967 1016q49 0 79.5 -24.5t39 -51t8.5 -53.5q0 -43 -34.5 -72.5t-72.5 -34.5q-213 -23 -340 -147q3 8 9 22t25 53.5t39 75.5t50 80.5t59.5 76t66 53.5t71.5 22zM285 909q39 0 78 -21t69.5 -55t58.5 -74.5t48 -81.5t35 -75
t22 -55l8 -21q-117 148 -319 148q-49 0 -88 30t-39 76q0 53 33.5 91t93.5 38zM643 1214q38 -37 48.5 -102t-2.5 -131t-31.5 -126.5t-35.5 -98.5l-18 -39q20 191 -125 330q-35 35 -42 81.5t24 83.5q23 23 53 34t65 3.5t64 -35.5z" />
    <glyph glyph-name="quotesingle" unicode="'" 
d="M207 403q-13 0 -19 -2v-200q4 -2 19 -2q37 0 50 25t13 77q0 54 -13 78t-50 24zM518 330v-49h-82v-78h96v-49h-155v297h155v-52h-96v-69h82zM203 150q-47 0 -74 4v292q61 9 76 9q67 0 96 -37.5t29 -116.5t-29.5 -115t-97.5 -36zM586 451h80l39 -164l38 164h82
q3 -45 13 -297h-60q0 108 -6 213l-41 -168h-55l-41 168h-2q-4 -140 -4 -213h-58q3 156 15 297zM987 150q-60 0 -84 35.5t-24 115.5q0 81 24 117.5t84 36.5t85.5 -37t25.5 -117q0 -79 -25.5 -115t-85.5 -36zM987 403q-29 0 -39 -23.5t-10 -78.5q0 -54 10 -78t39 -24
q30 0 40.5 24t10.5 78q0 55 -10 78.5t-41 23.5zM967 1016q49 0 79.5 -24.5t39 -51t8.5 -53.5q0 -43 -34.5 -72.5t-72.5 -34.5q-213 -23 -340 -147q3 8 9 22t25 53.5t39 75.5t50 80.5t59.5 76t66 53.5t71.5 22zM285 909q39 0 78 -21t69.5 -55t58.5 -74.5t48 -81.5t35 -75
t22 -55l8 -21q-117 148 -319 148q-49 0 -88 30t-39 76q0 53 33.5 91t93.5 38zM643 1214q38 -37 48.5 -102t-2.5 -131t-31.5 -126.5t-35.5 -98.5l-18 -39q20 191 -125 330q-35 35 -42 81.5t24 83.5q23 23 53 34t65 3.5t64 -35.5z" />
    <glyph glyph-name="parenleft" unicode="(" 
d="M207 403q-13 0 -19 -2v-200q4 -2 19 -2q37 0 50 25t13 77q0 54 -13 78t-50 24zM518 330v-49h-82v-78h96v-49h-155v297h155v-52h-96v-69h82zM203 150q-47 0 -74 4v292q61 9 76 9q67 0 96 -37.5t29 -116.5t-29.5 -115t-97.5 -36zM586 451h80l39 -164l38 164h82
q3 -45 13 -297h-60q0 108 -6 213l-41 -168h-55l-41 168h-2q-4 -140 -4 -213h-58q3 156 15 297zM987 150q-60 0 -84 35.5t-24 115.5q0 81 24 117.5t84 36.5t85.5 -37t25.5 -117q0 -79 -25.5 -115t-85.5 -36zM987 403q-29 0 -39 -23.5t-10 -78.5q0 -54 10 -78t39 -24
q30 0 40.5 24t10.5 78q0 55 -10 78.5t-41 23.5zM967 1016q49 0 79.5 -24.5t39 -51t8.5 -53.5q0 -43 -34.5 -72.5t-72.5 -34.5q-213 -23 -340 -147q3 8 9 22t25 53.5t39 75.5t50 80.5t59.5 76t66 53.5t71.5 22zM285 909q39 0 78 -21t69.5 -55t58.5 -74.5t48 -81.5t35 -75
t22 -55l8 -21q-117 148 -319 148q-49 0 -88 30t-39 76q0 53 33.5 91t93.5 38zM643 1214q38 -37 48.5 -102t-2.5 -131t-31.5 -126.5t-35.5 -98.5l-18 -39q20 191 -125 330q-35 35 -42 81.5t24 83.5q23 23 53 34t65 3.5t64 -35.5z" />
    <glyph glyph-name="parenright" unicode=")" 
d="M207 403q-13 0 -19 -2v-200q4 -2 19 -2q37 0 50 25t13 77q0 54 -13 78t-50 24zM518 330v-49h-82v-78h96v-49h-155v297h155v-52h-96v-69h82zM203 150q-47 0 -74 4v292q61 9 76 9q67 0 96 -37.5t29 -116.5t-29.5 -115t-97.5 -36zM586 451h80l39 -164l38 164h82
q3 -45 13 -297h-60q0 108 -6 213l-41 -168h-55l-41 168h-2q-4 -140 -4 -213h-58q3 156 15 297zM987 150q-60 0 -84 35.5t-24 115.5q0 81 24 117.5t84 36.5t85.5 -37t25.5 -117q0 -79 -25.5 -115t-85.5 -36zM987 403q-29 0 -39 -23.5t-10 -78.5q0 -54 10 -78t39 -24
q30 0 40.5 24t10.5 78q0 55 -10 78.5t-41 23.5zM967 1016q49 0 79.5 -24.5t39 -51t8.5 -53.5q0 -43 -34.5 -72.5t-72.5 -34.5q-213 -23 -340 -147q3 8 9 22t25 53.5t39 75.5t50 80.5t59.5 76t66 53.5t71.5 22zM285 909q39 0 78 -21t69.5 -55t58.5 -74.5t48 -81.5t35 -75
t22 -55l8 -21q-117 148 -319 148q-49 0 -88 30t-39 76q0 53 33.5 91t93.5 38zM643 1214q38 -37 48.5 -102t-2.5 -131t-31.5 -126.5t-35.5 -98.5l-18 -39q20 191 -125 330q-35 35 -42 81.5t24 83.5q23 23 53 34t65 3.5t64 -35.5z" />
    <glyph glyph-name="asterisk" unicode="*" 
d="M207 403q-13 0 -19 -2v-200q4 -2 19 -2q37 0 50 25t13 77q0 54 -13 78t-50 24zM518 330v-49h-82v-78h96v-49h-155v297h155v-52h-96v-69h82zM203 150q-47 0 -74 4v292q61 9 76 9q67 0 96 -37.5t29 -116.5t-29.5 -115t-97.5 -36zM586 451h80l39 -164l38 164h82
q3 -45 13 -297h-60q0 108 -6 213l-41 -168h-55l-41 168h-2q-4 -140 -4 -213h-58q3 156 15 297zM987 150q-60 0 -84 35.5t-24 115.5q0 81 24 117.5t84 36.5t85.5 -37t25.5 -117q0 -79 -25.5 -115t-85.5 -36zM987 403q-29 0 -39 -23.5t-10 -78.5q0 -54 10 -78t39 -24
q30 0 40.5 24t10.5 78q0 55 -10 78.5t-41 23.5zM967 1016q49 0 79.5 -24.5t39 -51t8.5 -53.5q0 -43 -34.5 -72.5t-72.5 -34.5q-213 -23 -340 -147q3 8 9 22t25 53.5t39 75.5t50 80.5t59.5 76t66 53.5t71.5 22zM285 909q39 0 78 -21t69.5 -55t58.5 -74.5t48 -81.5t35 -75
t22 -55l8 -21q-117 148 -319 148q-49 0 -88 30t-39 76q0 53 33.5 91t93.5 38zM643 1214q38 -37 48.5 -102t-2.5 -131t-31.5 -126.5t-35.5 -98.5l-18 -39q20 191 -125 330q-35 35 -42 81.5t24 83.5q23 23 53 34t65 3.5t64 -35.5z" />
    <glyph glyph-name="plus" unicode="+" 
d="M207 403q-13 0 -19 -2v-200q4 -2 19 -2q37 0 50 25t13 77q0 54 -13 78t-50 24zM518 330v-49h-82v-78h96v-49h-155v297h155v-52h-96v-69h82zM203 150q-47 0 -74 4v292q61 9 76 9q67 0 96 -37.5t29 -116.5t-29.5 -115t-97.5 -36zM586 451h80l39 -164l38 164h82
q3 -45 13 -297h-60q0 108 -6 213l-41 -168h-55l-41 168h-2q-4 -140 -4 -213h-58q3 156 15 297zM987 150q-60 0 -84 35.5t-24 115.5q0 81 24 117.5t84 36.5t85.5 -37t25.5 -117q0 -79 -25.5 -115t-85.5 -36zM987 403q-29 0 -39 -23.5t-10 -78.5q0 -54 10 -78t39 -24
q30 0 40.5 24t10.5 78q0 55 -10 78.5t-41 23.5zM967 1016q49 0 79.5 -24.5t39 -51t8.5 -53.5q0 -43 -34.5 -72.5t-72.5 -34.5q-213 -23 -340 -147q3 8 9 22t25 53.5t39 75.5t50 80.5t59.5 76t66 53.5t71.5 22zM285 909q39 0 78 -21t69.5 -55t58.5 -74.5t48 -81.5t35 -75
t22 -55l8 -21q-117 148 -319 148q-49 0 -88 30t-39 76q0 53 33.5 91t93.5 38zM643 1214q38 -37 48.5 -102t-2.5 -131t-31.5 -126.5t-35.5 -98.5l-18 -39q20 191 -125 330q-35 35 -42 81.5t24 83.5q23 23 53 34t65 3.5t64 -35.5z" />
    <glyph glyph-name="comma" unicode="," horiz-adv-x="464" 
d="M113 88q0 57 37.5 92t101.5 35q55 0 88 -37.5t33 -97.5q0 -73 -25.5 -141.5t-62 -114t-73 -80.5t-62.5 -52l-25 -16l-68 99q6 4 16 11t36 30t46.5 46.5t39 58t22.5 67.5q-45 0 -74.5 28t-29.5 72z" />
    <glyph glyph-name="hyphen" unicode="-" 
d="M207 403q-13 0 -19 -2v-200q4 -2 19 -2q37 0 50 25t13 77q0 54 -13 78t-50 24zM518 330v-49h-82v-78h96v-49h-155v297h155v-52h-96v-69h82zM203 150q-47 0 -74 4v292q61 9 76 9q67 0 96 -37.5t29 -116.5t-29.5 -115t-97.5 -36zM586 451h80l39 -164l38 164h82
q3 -45 13 -297h-60q0 108 -6 213l-41 -168h-55l-41 168h-2q-4 -140 -4 -213h-58q3 156 15 297zM987 150q-60 0 -84 35.5t-24 115.5q0 81 24 117.5t84 36.5t85.5 -37t25.5 -117q0 -79 -25.5 -115t-85.5 -36zM987 403q-29 0 -39 -23.5t-10 -78.5q0 -54 10 -78t39 -24
q30 0 40.5 24t10.5 78q0 55 -10 78.5t-41 23.5zM967 1016q49 0 79.5 -24.5t39 -51t8.5 -53.5q0 -43 -34.5 -72.5t-72.5 -34.5q-213 -23 -340 -147q3 8 9 22t25 53.5t39 75.5t50 80.5t59.5 76t66 53.5t71.5 22zM285 909q39 0 78 -21t69.5 -55t58.5 -74.5t48 -81.5t35 -75
t22 -55l8 -21q-117 148 -319 148q-49 0 -88 30t-39 76q0 53 33.5 91t93.5 38zM643 1214q38 -37 48.5 -102t-2.5 -131t-31.5 -126.5t-35.5 -98.5l-18 -39q20 191 -125 330q-35 35 -42 81.5t24 83.5q23 23 53 34t65 3.5t64 -35.5z" />
    <glyph glyph-name="period" unicode="." horiz-adv-x="432" 
d="M111 94q0 54 40 93.5t95 39.5q43 0 72.5 -32t29.5 -76q0 -53 -40 -92t-93 -39q-45 0 -74.5 30.5t-29.5 75.5z" />
    <glyph glyph-name="slash" unicode="/" 
d="M207 403q-13 0 -19 -2v-200q4 -2 19 -2q37 0 50 25t13 77q0 54 -13 78t-50 24zM518 330v-49h-82v-78h96v-49h-155v297h155v-52h-96v-69h82zM203 150q-47 0 -74 4v292q61 9 76 9q67 0 96 -37.5t29 -116.5t-29.5 -115t-97.5 -36zM586 451h80l39 -164l38 164h82
q3 -45 13 -297h-60q0 108 -6 213l-41 -168h-55l-41 168h-2q-4 -140 -4 -213h-58q3 156 15 297zM987 150q-60 0 -84 35.5t-24 115.5q0 81 24 117.5t84 36.5t85.5 -37t25.5 -117q0 -79 -25.5 -115t-85.5 -36zM987 403q-29 0 -39 -23.5t-10 -78.5q0 -54 10 -78t39 -24
q30 0 40.5 24t10.5 78q0 55 -10 78.5t-41 23.5zM967 1016q49 0 79.5 -24.5t39 -51t8.5 -53.5q0 -43 -34.5 -72.5t-72.5 -34.5q-213 -23 -340 -147q3 8 9 22t25 53.5t39 75.5t50 80.5t59.5 76t66 53.5t71.5 22zM285 909q39 0 78 -21t69.5 -55t58.5 -74.5t48 -81.5t35 -75
t22 -55l8 -21q-117 148 -319 148q-49 0 -88 30t-39 76q0 53 33.5 91t93.5 38zM643 1214q38 -37 48.5 -102t-2.5 -131t-31.5 -126.5t-35.5 -98.5l-18 -39q20 191 -125 330q-35 35 -42 81.5t24 83.5q23 23 53 34t65 3.5t64 -35.5z" />
    <glyph glyph-name="zero" unicode="0" horiz-adv-x="1216" 
d="M602 -12q-210 0 -321 143.5t-111 407.5q0 245 70.5 430.5t208 290t323.5 104.5q214 0 327 -144t113 -411q0 -243 -71.5 -427.5t-210.5 -289t-328 -104.5zM623 152q183 0 291 178.5t108 462.5q0 195 -70 301t-200 106q-120 0 -210 -84t-136 -230t-46 -333q0 -193 68 -297
t195 -104z" />
    <glyph glyph-name="one" unicode="1" horiz-adv-x="722" 
d="M375 0l141 1151l-344 -94l23 178l507 117h25l-166 -1352h-186z" />
    <glyph glyph-name="two" unicode="2" horiz-adv-x="1085" 
d="M399 152q42 6 111 6h514l-18 -158h-902l19 150q53 37 133 89.5t136 89t127.5 88t120.5 94t100.5 98t82.5 108.5t50.5 117.5t19.5 132.5q0 108 -59 170.5t-162 62.5q-122 0 -200.5 -68.5t-78.5 -175.5q0 -25 4 -41l-186 -28q-4 8 -4 51q0 190 137 308t348 118
q182 0 286.5 -101.5t104.5 -271.5q0 -93 -33 -184t-83.5 -165t-129.5 -151.5t-152.5 -135.5t-170.5 -126q-63 -45 -117 -69z" />
    <glyph glyph-name="three" unicode="3" horiz-adv-x="1099" 
d="M700 1364q179 0 282 -92.5t103 -247.5q0 -72 -27.5 -136.5t-71.5 -107.5t-97 -68.5t-105 -25.5v-4q47 0 94 -18.5t87 -53t65 -91t25 -124.5q0 -174 -141 -290.5t-379 -116.5q-74 0 -138.5 14t-108 36.5t-79 49.5t-56 54t-34 49.5t-18.5 36.5l-5 14l160 88q3 -7 10 -19
t32.5 -43t56.5 -54.5t85 -42.5t115 -19q134 0 214.5 59.5t94.5 163.5q13 101 -57 154.5t-225 62.5l-74 4l20 166l74 4q137 8 215 65t78 162q0 92 -59 149.5t-156 57.5q-116 0 -189 -60.5t-73 -152.5q0 -33 4 -41l-186 -28q-5 10 -5 51q0 174 131.5 284.5t337.5 110.5z" />
    <glyph glyph-name="four" unicode="4" 
d="M207 403q-13 0 -19 -2v-200q4 -2 19 -2q37 0 50 25t13 77q0 54 -13 78t-50 24zM518 330v-49h-82v-78h96v-49h-155v297h155v-52h-96v-69h82zM203 150q-47 0 -74 4v292q61 9 76 9q67 0 96 -37.5t29 -116.5t-29.5 -115t-97.5 -36zM586 451h80l39 -164l38 164h82
q3 -45 13 -297h-60q0 108 -6 213l-41 -168h-55l-41 168h-2q-4 -140 -4 -213h-58q3 156 15 297zM987 150q-60 0 -84 35.5t-24 115.5q0 81 24 117.5t84 36.5t85.5 -37t25.5 -117q0 -79 -25.5 -115t-85.5 -36zM987 403q-29 0 -39 -23.5t-10 -78.5q0 -54 10 -78t39 -24
q30 0 40.5 24t10.5 78q0 55 -10 78.5t-41 23.5zM967 1016q49 0 79.5 -24.5t39 -51t8.5 -53.5q0 -43 -34.5 -72.5t-72.5 -34.5q-213 -23 -340 -147q3 8 9 22t25 53.5t39 75.5t50 80.5t59.5 76t66 53.5t71.5 22zM285 909q39 0 78 -21t69.5 -55t58.5 -74.5t48 -81.5t35 -75
t22 -55l8 -21q-117 148 -319 148q-49 0 -88 30t-39 76q0 53 33.5 91t93.5 38zM643 1214q38 -37 48.5 -102t-2.5 -131t-31.5 -126.5t-35.5 -98.5l-18 -39q20 191 -125 330q-35 35 -42 81.5t24 83.5q23 23 53 34t65 3.5t64 -35.5z" />
    <glyph glyph-name="five" unicode="5" horiz-adv-x="1089" 
d="M354 1352h740l-19 -158h-579l-82 -385l6 -4q41 41 112.5 68.5t153.5 27.5q177 0 282 -109.5t105 -287.5q0 -151 -73 -269t-198.5 -182.5t-281.5 -64.5q-67 0 -127 13.5t-102 35t-77.5 47.5t-57.5 52.5t-37.5 48t-22.5 35.5l-6 13l164 99q3 -7 10 -19.5t31.5 -43.5
t54.5 -54.5t81.5 -43t109.5 -19.5q144 0 243 92.5t99 238.5q0 113 -67.5 182.5t-180.5 69.5q-43 0 -83 -10.5t-67.5 -25.5t-48.5 -30t-31 -25l-10 -11h-182z" />
    <glyph glyph-name="six" unicode="6" horiz-adv-x="1134" 
d="M748 862q162 0 262 -103.5t100 -271.5q0 -220 -144 -359.5t-364 -139.5q-200 0 -317 142.5t-117 408.5q0 240 82.5 428.5t227 292.5t325.5 104q243 0 358 -158l-119 -118q-27 43 -86.5 77.5t-160.5 34.5q-174 0 -295 -155t-142 -416l11 -2q8 28 32.5 63.5t68 76t117 68
t161.5 27.5zM621 152q130 0 215.5 89t85.5 226q0 105 -63 167t-171 62q-128 0 -217 -75t-110 -198q34 -271 260 -271z" />
    <glyph glyph-name="seven" unicode="7" horiz-adv-x="978" 
d="M1100 1352l-19 -158l-641 -1194h-194l596 1087q58 102 61 105l-2 6q-32 -4 -113 -4h-414l-24 -186h-166l43 344h873z" />
    <glyph glyph-name="eight" unicode="8" horiz-adv-x="1167" 
d="M938 715q88 -34 139 -112.5t51 -180.5q0 -193 -153 -313.5t-393 -120.5q-205 0 -328 97t-123 257q0 131 76 230t201 143v4q-59 25 -94 91.5t-35 152.5q0 174 133.5 287.5t339.5 113.5q176 0 280.5 -90.5t104.5 -235.5q0 -110 -57 -199t-142 -120v-4zM731 1202
q-117 0 -189.5 -60.5t-72.5 -164.5q0 -80 57 -131t156 -51q116 0 190 65t74 164q0 84 -58 131t-157 47zM602 150q150 0 245 77t95 199q0 94 -75 148.5t-205 54.5q-151 0 -244.5 -68t-93.5 -184q0 -102 75.5 -164.5t202.5 -62.5z" />
    <glyph glyph-name="nine" unicode="9" horiz-adv-x="1134" 
d="M698 1364q201 0 316.5 -142t115.5 -409q0 -240 -80.5 -428.5t-224.5 -292.5t-327 -104q-245 0 -361 157l121 117q76 -110 248 -110q170 0 291.5 154.5t142.5 412.5l-10 2q-7 -26 -31 -61t-67 -75.5t-116.5 -68t-162.5 -27.5q-162 0 -262.5 103.5t-100.5 271.5
q0 220 144 360t364 140zM612 653q126 0 215.5 76.5t110.5 200.5q-34 270 -258 270q-127 0 -214 -90t-87 -225q0 -104 63.5 -168t169.5 -64z" />
    <glyph glyph-name="colon" unicode=":" horiz-adv-x="475" 
d="M223 846q0 54 40 93.5t95 39.5q43 0 73 -32.5t30 -76.5q0 -53 -40 -92t-93 -39q-45 0 -75 31t-30 76zM133 94q0 54 40 93.5t95 39.5q43 0 73 -32t30 -76q0 -53 -40 -92t-93 -39q-45 0 -75 30.5t-30 75.5z" />
    <glyph glyph-name="semicolon" unicode=";" horiz-adv-x="516" 
d="M250 846q0 54 40 93.5t95 39.5q42 0 72 -32t30 -77q0 -53 -40 -92t-93 -39q-45 0 -74.5 31t-29.5 76zM141 88q0 57 38 92t102 35q55 0 87.5 -37t32.5 -98q0 -73 -25.5 -141.5t-61.5 -114t-72.5 -80.5t-61.5 -52l-26 -16l-68 99q6 4 16 11t36 30t46.5 46.5t39 58
t22.5 67.5q-45 0 -75 28t-30 72z" />
    <glyph glyph-name="less" unicode="&#x3c;" 
d="M207 403q-13 0 -19 -2v-200q4 -2 19 -2q37 0 50 25t13 77q0 54 -13 78t-50 24zM518 330v-49h-82v-78h96v-49h-155v297h155v-52h-96v-69h82zM203 150q-47 0 -74 4v292q61 9 76 9q67 0 96 -37.5t29 -116.5t-29.5 -115t-97.5 -36zM586 451h80l39 -164l38 164h82
q3 -45 13 -297h-60q0 108 -6 213l-41 -168h-55l-41 168h-2q-4 -140 -4 -213h-58q3 156 15 297zM987 150q-60 0 -84 35.5t-24 115.5q0 81 24 117.5t84 36.5t85.5 -37t25.5 -117q0 -79 -25.5 -115t-85.5 -36zM987 403q-29 0 -39 -23.5t-10 -78.5q0 -54 10 -78t39 -24
q30 0 40.5 24t10.5 78q0 55 -10 78.5t-41 23.5zM967 1016q49 0 79.5 -24.5t39 -51t8.5 -53.5q0 -43 -34.5 -72.5t-72.5 -34.5q-213 -23 -340 -147q3 8 9 22t25 53.5t39 75.5t50 80.5t59.5 76t66 53.5t71.5 22zM285 909q39 0 78 -21t69.5 -55t58.5 -74.5t48 -81.5t35 -75
t22 -55l8 -21q-117 148 -319 148q-49 0 -88 30t-39 76q0 53 33.5 91t93.5 38zM643 1214q38 -37 48.5 -102t-2.5 -131t-31.5 -126.5t-35.5 -98.5l-18 -39q20 191 -125 330q-35 35 -42 81.5t24 83.5q23 23 53 34t65 3.5t64 -35.5z" />
    <glyph glyph-name="equal" unicode="=" 
d="M207 403q-13 0 -19 -2v-200q4 -2 19 -2q37 0 50 25t13 77q0 54 -13 78t-50 24zM518 330v-49h-82v-78h96v-49h-155v297h155v-52h-96v-69h82zM203 150q-47 0 -74 4v292q61 9 76 9q67 0 96 -37.5t29 -116.5t-29.5 -115t-97.5 -36zM586 451h80l39 -164l38 164h82
q3 -45 13 -297h-60q0 108 -6 213l-41 -168h-55l-41 168h-2q-4 -140 -4 -213h-58q3 156 15 297zM987 150q-60 0 -84 35.5t-24 115.5q0 81 24 117.5t84 36.5t85.5 -37t25.5 -117q0 -79 -25.5 -115t-85.5 -36zM987 403q-29 0 -39 -23.5t-10 -78.5q0 -54 10 -78t39 -24
q30 0 40.5 24t10.5 78q0 55 -10 78.5t-41 23.5zM967 1016q49 0 79.5 -24.5t39 -51t8.5 -53.5q0 -43 -34.5 -72.5t-72.5 -34.5q-213 -23 -340 -147q3 8 9 22t25 53.5t39 75.5t50 80.5t59.5 76t66 53.5t71.5 22zM285 909q39 0 78 -21t69.5 -55t58.5 -74.5t48 -81.5t35 -75
t22 -55l8 -21q-117 148 -319 148q-49 0 -88 30t-39 76q0 53 33.5 91t93.5 38zM643 1214q38 -37 48.5 -102t-2.5 -131t-31.5 -126.5t-35.5 -98.5l-18 -39q20 191 -125 330q-35 35 -42 81.5t24 83.5q23 23 53 34t65 3.5t64 -35.5z" />
    <glyph glyph-name="greater" unicode="&#x3e;" 
d="M207 403q-13 0 -19 -2v-200q4 -2 19 -2q37 0 50 25t13 77q0 54 -13 78t-50 24zM518 330v-49h-82v-78h96v-49h-155v297h155v-52h-96v-69h82zM203 150q-47 0 -74 4v292q61 9 76 9q67 0 96 -37.5t29 -116.5t-29.5 -115t-97.5 -36zM586 451h80l39 -164l38 164h82
q3 -45 13 -297h-60q0 108 -6 213l-41 -168h-55l-41 168h-2q-4 -140 -4 -213h-58q3 156 15 297zM987 150q-60 0 -84 35.5t-24 115.5q0 81 24 117.5t84 36.5t85.5 -37t25.5 -117q0 -79 -25.5 -115t-85.5 -36zM987 403q-29 0 -39 -23.5t-10 -78.5q0 -54 10 -78t39 -24
q30 0 40.5 24t10.5 78q0 55 -10 78.5t-41 23.5zM967 1016q49 0 79.5 -24.5t39 -51t8.5 -53.5q0 -43 -34.5 -72.5t-72.5 -34.5q-213 -23 -340 -147q3 8 9 22t25 53.5t39 75.5t50 80.5t59.5 76t66 53.5t71.5 22zM285 909q39 0 78 -21t69.5 -55t58.5 -74.5t48 -81.5t35 -75
t22 -55l8 -21q-117 148 -319 148q-49 0 -88 30t-39 76q0 53 33.5 91t93.5 38zM643 1214q38 -37 48.5 -102t-2.5 -131t-31.5 -126.5t-35.5 -98.5l-18 -39q20 191 -125 330q-35 35 -42 81.5t24 83.5q23 23 53 34t65 3.5t64 -35.5z" />
    <glyph glyph-name="question" unicode="?" horiz-adv-x="907" 
d="M614 1409q169 0 268 -92t99 -240q0 -71 -21.5 -130.5t-56.5 -102.5t-77.5 -82t-87.5 -75.5t-84 -74.5t-69 -89.5t-40 -110.5q-1 -5 -2 -14.5t-2 -14.5l-168 -6q0 21 4 37q15 76 46.5 139t69 105.5t79.5 80t80.5 69.5t69.5 66t50 78.5t19 98.5q0 86 -53.5 141t-141.5 55
q-98 0 -162.5 -59t-64.5 -148q0 -24 2 -34l-183 -29q-4 24 -4 55q0 165 120.5 271t309.5 106zM430 201q42 0 71 -30t29 -73q0 -51 -39 -88t-90 -37q-41 0 -69.5 30t-28.5 73q0 50 38.5 87.5t88.5 37.5z" />
    <glyph glyph-name="at" unicode="@" 
d="M207 403q-13 0 -19 -2v-200q4 -2 19 -2q37 0 50 25t13 77q0 54 -13 78t-50 24zM518 330v-49h-82v-78h96v-49h-155v297h155v-52h-96v-69h82zM203 150q-47 0 -74 4v292q61 9 76 9q67 0 96 -37.5t29 -116.5t-29.5 -115t-97.5 -36zM586 451h80l39 -164l38 164h82
q3 -45 13 -297h-60q0 108 -6 213l-41 -168h-55l-41 168h-2q-4 -140 -4 -213h-58q3 156 15 297zM987 150q-60 0 -84 35.5t-24 115.5q0 81 24 117.5t84 36.5t85.5 -37t25.5 -117q0 -79 -25.5 -115t-85.5 -36zM987 403q-29 0 -39 -23.5t-10 -78.5q0 -54 10 -78t39 -24
q30 0 40.5 24t10.5 78q0 55 -10 78.5t-41 23.5zM967 1016q49 0 79.5 -24.5t39 -51t8.5 -53.5q0 -43 -34.5 -72.5t-72.5 -34.5q-213 -23 -340 -147q3 8 9 22t25 53.5t39 75.5t50 80.5t59.5 76t66 53.5t71.5 22zM285 909q39 0 78 -21t69.5 -55t58.5 -74.5t48 -81.5t35 -75
t22 -55l8 -21q-117 148 -319 148q-49 0 -88 30t-39 76q0 53 33.5 91t93.5 38zM643 1214q38 -37 48.5 -102t-2.5 -131t-31.5 -126.5t-35.5 -98.5l-18 -39q20 191 -125 330q-35 35 -42 81.5t24 83.5q23 23 53 34t65 3.5t64 -35.5z" />
    <glyph glyph-name="A" unicode="A" horiz-adv-x="1198" 
d="M981 0l-75 336h-532l-157 -336h-192l645 1352h188l316 -1352h-193zM446 489h425l-109 490q-16 63 -25 141h-4q-23 -66 -57 -141z" />
    <glyph glyph-name="B" unicode="B" horiz-adv-x="1183" 
d="M922 711q34 -7 69 -25.5t72 -51.5t60.5 -90.5t23.5 -129.5q0 -192 -126.5 -303t-358.5 -111h-500l166 1352h438q188 0 290.5 -80t102.5 -234q0 -81 -25 -144t-64.5 -98.5t-76 -54.5t-71.5 -26v-4zM969 1012q0 182 -248 182h-226l-53 -426h250q129 0 203 69.5t74 174.5z
M655 158q136 0 221 66t85 194q0 106 -73.5 158.5t-195.5 52.5h-267l-58 -471h288z" />
    <glyph glyph-name="C" unicode="C" horiz-adv-x="1243" 
d="M844 1364q104 0 185.5 -31t130 -79t78 -110t37.5 -121.5t1 -115.5l-176 -28q6 52 -5.5 105t-40.5 103t-88.5 81.5t-140.5 31.5q-92 0 -176 -42t-149 -118.5t-103.5 -194t-38.5 -257.5q0 -112 29.5 -197.5t81 -136.5t117.5 -76.5t143 -25.5q114 0 212.5 59.5t166.5 144.5
l98 -114q-22 -26 -43 -49t-71 -64t-101.5 -69t-128 -50t-157.5 -22q-248 0 -391.5 155t-143.5 430q0 173 52.5 321.5t143 251t214.5 160.5t264 58z" />
    <glyph glyph-name="D" unicode="D" horiz-adv-x="1306" 
d="M723 1352q280 0 430 -151.5t150 -422.5q0 -194 -49.5 -343.5t-140 -244t-214 -142.5t-276.5 -48h-461l166 1352h395zM635 158q104 0 190 37t151 110t101.5 191t36.5 270q0 212 -106.5 320t-309.5 108h-203l-128 -1036h268z" />
    <glyph glyph-name="E" unicode="E" horiz-adv-x="1062" 
d="M1110 1194h-615l-51 -414h545l-20 -157h-544l-58 -465h614l-18 -158h-801l166 1352h800z" />
    <glyph glyph-name="F" unicode="F" horiz-adv-x="997" 
d="M1092 1194h-597l-53 -430h508l-20 -162h-508l-74 -602h-186l166 1352h782z" />
    <glyph glyph-name="G" unicode="G" horiz-adv-x="1296" 
d="M1280 928l-176 -29q5 40 -1 81t-25.5 81t-51.5 70.5t-84.5 49.5t-118.5 19q-91 0 -174.5 -42t-148.5 -118t-103.5 -193t-38.5 -257q0 -199 92.5 -318.5t256.5 -119.5t266.5 95.5t120.5 235.5l4 29h-406l19 156h559l-82 -668h-115q-8 39 -5 184q-132 -196 -409 -196
q-226 0 -357.5 159t-131.5 424q0 174 52.5 323t142.5 251.5t213.5 160.5t263.5 58q104 0 186 -29t131 -74.5t79.5 -104t39 -116t2.5 -112.5z" />
    <glyph glyph-name="H" unicode="H" horiz-adv-x="1374" 
d="M1192 1352h186l-166 -1352h-186l76 623h-677l-77 -623h-186l166 1352h186l-70 -572h678z" />
    <glyph glyph-name="I" unicode="I" horiz-adv-x="509" 
d="M162 0l166 1352h186l-166 -1352h-186z" />
    <glyph glyph-name="J" unicode="J" horiz-adv-x="905" 
d="M156 266q92 -114 209 -114q109 0 170.5 55.5t76.5 179.5l119 965h187l-117 -955q-26 -201 -148 -305t-309 -104q-192 0 -319 141z" />
    <glyph glyph-name="K" unicode="K" horiz-adv-x="1257" 
d="M1239 2q-52 -8 -111 -8q-65 0 -115 25t-79.5 66t-54.5 93.5t-40 107.5t-36.5 107.5t-44.5 93.5t-62.5 66t-91.5 25h-184l-72 -578h-186l166 1352h186l-76 -621h170q60 0 114 17.5t109.5 62.5t99 113.5t78.5 178t52 249.5h186q-67 -539 -399 -693q53 -29 91 -94.5t60 -136
t45.5 -137.5t61.5 -110.5t94 -43.5h55z" />
    <glyph glyph-name="L" unicode="L" horiz-adv-x="1007" 
d="M367 158h634l-18 -158h-821l166 1352h186z" />
    <glyph glyph-name="M" unicode="M" horiz-adv-x="1636" 
d="M1640 1352l-165 -1352h-187l107 831q10 99 26 177l-4 2q-67 -153 -67 -154l-471 -860h-113l-272 874q-25 82 -25 140l-10 -2q4 -18 -13 -177l-98 -831h-186l166 1352h202l273 -897q40 -139 49 -189h4q21 52 98 189l494 897h192z" />
    <glyph glyph-name="N" unicode="N" horiz-adv-x="1341" 
d="M1346 1352l-166 -1352h-201l-395 848q-27 58 -63 143t-44 107l-12 -6q7 -32 -16 -242l-101 -850h-186l166 1352h204l396 -856q54 -120 100 -246l12 6q14 203 19 244l100 852h187z" />
    <glyph glyph-name="O" unicode="O" horiz-adv-x="1394" 
d="M864 1364q240 0 384.5 -160.5t144.5 -429.5q0 -232 -93 -412.5t-251.5 -277t-354.5 -96.5q-237 0 -381.5 160.5t-144.5 429.5q0 174 54.5 322.5t148.5 249.5t221.5 157.5t271.5 56.5zM715 152q210 0 349.5 168t139.5 438q0 202 -98 322t-262 120q-101 0 -190 -44
t-155 -122t-104.5 -192t-38.5 -248q0 -202 98.5 -322t260.5 -120z" />
    <glyph glyph-name="P" unicode="P" horiz-adv-x="1140" 
d="M737 1352q221 0 339 -102.5t118 -291.5q0 -245 -145.5 -383.5t-401.5 -138.5h-245l-54 -436h-186l166 1352h409zM639 594q173 0 269 90t96 252q0 124 -76.5 191t-220.5 67h-212l-74 -600h218z" />
    <glyph glyph-name="Q" unicode="Q" horiz-adv-x="1466" 
d="M1393 774q0 -283 -134 -483.5t-353 -270.5q162 -37 356 -51l-56 -145q-328 28 -574 167q-212 21 -338 179t-126 408q0 174 54.5 322.5t148.5 249.5t221.5 157.5t271.5 56.5q240 0 384.5 -160.5t144.5 -429.5zM356 594q0 -202 98.5 -322t260.5 -120q210 0 349.5 168
t139.5 438q0 202 -98 322t-262 120q-101 0 -190 -44t-155 -122t-104.5 -192t-38.5 -248z" />
    <glyph glyph-name="R" unicode="R" horiz-adv-x="1169" 
d="M810 555q41 -27 70.5 -80.5t47.5 -109.5t38.5 -108.5t55 -86t84.5 -33.5l39 4l-2 -143q-52 -10 -111 -10q-74 0 -126 29.5t-79.5 76.5t-48 103.5t-39.5 113t-44 103.5t-71.5 76.5t-113.5 29.5h-98l-64 -520h-186l166 1352h391q428 0 428 -357q0 -162 -92 -276t-245 -164z
M430 666h178q152 0 251 80.5t99 224.5q0 110 -67.5 166.5t-198.5 56.5h-197z" />
    <glyph glyph-name="S" unicode="S" horiz-adv-x="1085" 
d="M936 991q0 31 -12 64t-38.5 67t-78.5 56t-121 22q-120 0 -194 -60.5t-74 -160.5q0 -40 21.5 -72t57.5 -54t83 -40.5t99 -37t104 -39.5t99 -51t83 -67.5t57.5 -94t21.5 -126.5q0 -186 -140 -297.5t-369 -111.5q-158 0 -275.5 47.5t-181.5 111.5l135 146q129 -141 342 -141
q141 0 222 59t81 162q0 64 -35 110t-90.5 73.5t-123 51t-134.5 50t-122.5 61t-90.5 94t-35 139.5q0 181 136.5 296.5t343.5 115.5q99 0 174.5 -26t116.5 -61.5t68.5 -86t36 -84t13.5 -72.5z" />
    <glyph glyph-name="T" unicode="T" horiz-adv-x="1056" 
d="M434 0l148 1194h-410l18 158h1008l-18 -158h-412l-147 -1194h-187z" />
    <glyph glyph-name="U" unicode="U" horiz-adv-x="1329" 
d="M1157 1352h186l-102 -830q-29 -241 -188.5 -387.5t-388.5 -146.5q-231 0 -354.5 146.5t-94.5 387.5l102 830h187l-101 -826q-21 -176 55.5 -275t225.5 -99q147 0 248.5 99t122.5 271z" />
    <glyph glyph-name="V" unicode="V" horiz-adv-x="1181" 
d="M391 1352l205 -979q13 -64 22 -142h5q23 61 59 142l451 979h190l-641 -1352h-184l-303 1352h196z" />
    <glyph glyph-name="W" unicode="W" horiz-adv-x="1761" 
d="M1708 1352h186l-532 -1352h-205l-121 895q-18 126 -18 195h-4q-23 -88 -64 -195l-354 -895h-199l-198 1352h192l117 -979q3 -27 9 -81.5t9 -80.5h4q14 47 56 162l379 979h172l137 -979q5 -35 11 -94.5t7 -67.5h4q9 31 30.5 90t25.5 72z" />
    <glyph glyph-name="X" unicode="X" horiz-adv-x="1163" 
d="M1303 1352l-515 -684l351 -668h-213l-205 399q-21 41 -41.5 94.5t-26.5 75.5h-4q-48 -92 -108 -170l-310 -399h-204l509 665l-343 687h223l196 -420q54 -127 62 -160h4q9 19 43.5 72t60.5 88l310 420h211z" />
    <glyph glyph-name="Y" unicode="Y" horiz-adv-x="1128" 
d="M1268 1352l-546 -849l-63 -503h-186l61 490l-344 862h203l209 -535q41 -104 45 -170h4q16 64 84 170l342 535h191z" />
    <glyph glyph-name="Z" unicode="Z" horiz-adv-x="1105" 
d="M68 0l20 158l772 929q39 45 101 107l-5 6q-81 -6 -141 -6h-582l19 158h946l-18 -158l-768 -930q-24 -29 -46 -51t-39 -37t-20 -18l4 -6q21 6 142 6h591l-18 -158h-958z" />
    <glyph glyph-name="bracketleft" unicode="[" 
d="M207 403q-13 0 -19 -2v-200q4 -2 19 -2q37 0 50 25t13 77q0 54 -13 78t-50 24zM518 330v-49h-82v-78h96v-49h-155v297h155v-52h-96v-69h82zM203 150q-47 0 -74 4v292q61 9 76 9q67 0 96 -37.5t29 -116.5t-29.5 -115t-97.5 -36zM586 451h80l39 -164l38 164h82
q3 -45 13 -297h-60q0 108 -6 213l-41 -168h-55l-41 168h-2q-4 -140 -4 -213h-58q3 156 15 297zM987 150q-60 0 -84 35.5t-24 115.5q0 81 24 117.5t84 36.5t85.5 -37t25.5 -117q0 -79 -25.5 -115t-85.5 -36zM987 403q-29 0 -39 -23.5t-10 -78.5q0 -54 10 -78t39 -24
q30 0 40.5 24t10.5 78q0 55 -10 78.5t-41 23.5zM967 1016q49 0 79.5 -24.5t39 -51t8.5 -53.5q0 -43 -34.5 -72.5t-72.5 -34.5q-213 -23 -340 -147q3 8 9 22t25 53.5t39 75.5t50 80.5t59.5 76t66 53.5t71.5 22zM285 909q39 0 78 -21t69.5 -55t58.5 -74.5t48 -81.5t35 -75
t22 -55l8 -21q-117 148 -319 148q-49 0 -88 30t-39 76q0 53 33.5 91t93.5 38zM643 1214q38 -37 48.5 -102t-2.5 -131t-31.5 -126.5t-35.5 -98.5l-18 -39q20 191 -125 330q-35 35 -42 81.5t24 83.5q23 23 53 34t65 3.5t64 -35.5z" />
    <glyph glyph-name="backslash" unicode="\" 
d="M207 403q-13 0 -19 -2v-200q4 -2 19 -2q37 0 50 25t13 77q0 54 -13 78t-50 24zM518 330v-49h-82v-78h96v-49h-155v297h155v-52h-96v-69h82zM203 150q-47 0 -74 4v292q61 9 76 9q67 0 96 -37.5t29 -116.5t-29.5 -115t-97.5 -36zM586 451h80l39 -164l38 164h82
q3 -45 13 -297h-60q0 108 -6 213l-41 -168h-55l-41 168h-2q-4 -140 -4 -213h-58q3 156 15 297zM987 150q-60 0 -84 35.5t-24 115.5q0 81 24 117.5t84 36.5t85.5 -37t25.5 -117q0 -79 -25.5 -115t-85.5 -36zM987 403q-29 0 -39 -23.5t-10 -78.5q0 -54 10 -78t39 -24
q30 0 40.5 24t10.5 78q0 55 -10 78.5t-41 23.5zM967 1016q49 0 79.5 -24.5t39 -51t8.5 -53.5q0 -43 -34.5 -72.5t-72.5 -34.5q-213 -23 -340 -147q3 8 9 22t25 53.5t39 75.5t50 80.5t59.5 76t66 53.5t71.5 22zM285 909q39 0 78 -21t69.5 -55t58.5 -74.5t48 -81.5t35 -75
t22 -55l8 -21q-117 148 -319 148q-49 0 -88 30t-39 76q0 53 33.5 91t93.5 38zM643 1214q38 -37 48.5 -102t-2.5 -131t-31.5 -126.5t-35.5 -98.5l-18 -39q20 191 -125 330q-35 35 -42 81.5t24 83.5q23 23 53 34t65 3.5t64 -35.5z" />
    <glyph glyph-name="bracketright" unicode="]" 
d="M207 403q-13 0 -19 -2v-200q4 -2 19 -2q37 0 50 25t13 77q0 54 -13 78t-50 24zM518 330v-49h-82v-78h96v-49h-155v297h155v-52h-96v-69h82zM203 150q-47 0 -74 4v292q61 9 76 9q67 0 96 -37.5t29 -116.5t-29.5 -115t-97.5 -36zM586 451h80l39 -164l38 164h82
q3 -45 13 -297h-60q0 108 -6 213l-41 -168h-55l-41 168h-2q-4 -140 -4 -213h-58q3 156 15 297zM987 150q-60 0 -84 35.5t-24 115.5q0 81 24 117.5t84 36.5t85.5 -37t25.5 -117q0 -79 -25.5 -115t-85.5 -36zM987 403q-29 0 -39 -23.5t-10 -78.5q0 -54 10 -78t39 -24
q30 0 40.5 24t10.5 78q0 55 -10 78.5t-41 23.5zM967 1016q49 0 79.5 -24.5t39 -51t8.5 -53.5q0 -43 -34.5 -72.5t-72.5 -34.5q-213 -23 -340 -147q3 8 9 22t25 53.5t39 75.5t50 80.5t59.5 76t66 53.5t71.5 22zM285 909q39 0 78 -21t69.5 -55t58.5 -74.5t48 -81.5t35 -75
t22 -55l8 -21q-117 148 -319 148q-49 0 -88 30t-39 76q0 53 33.5 91t93.5 38zM643 1214q38 -37 48.5 -102t-2.5 -131t-31.5 -126.5t-35.5 -98.5l-18 -39q20 191 -125 330q-35 35 -42 81.5t24 83.5q23 23 53 34t65 3.5t64 -35.5z" />
    <glyph glyph-name="asciicircum" unicode="^" 
d="M207 403q-13 0 -19 -2v-200q4 -2 19 -2q37 0 50 25t13 77q0 54 -13 78t-50 24zM518 330v-49h-82v-78h96v-49h-155v297h155v-52h-96v-69h82zM203 150q-47 0 -74 4v292q61 9 76 9q67 0 96 -37.5t29 -116.5t-29.5 -115t-97.5 -36zM586 451h80l39 -164l38 164h82
q3 -45 13 -297h-60q0 108 -6 213l-41 -168h-55l-41 168h-2q-4 -140 -4 -213h-58q3 156 15 297zM987 150q-60 0 -84 35.5t-24 115.5q0 81 24 117.5t84 36.5t85.5 -37t25.5 -117q0 -79 -25.5 -115t-85.5 -36zM987 403q-29 0 -39 -23.5t-10 -78.5q0 -54 10 -78t39 -24
q30 0 40.5 24t10.5 78q0 55 -10 78.5t-41 23.5zM967 1016q49 0 79.5 -24.5t39 -51t8.5 -53.5q0 -43 -34.5 -72.5t-72.5 -34.5q-213 -23 -340 -147q3 8 9 22t25 53.5t39 75.5t50 80.5t59.5 76t66 53.5t71.5 22zM285 909q39 0 78 -21t69.5 -55t58.5 -74.5t48 -81.5t35 -75
t22 -55l8 -21q-117 148 -319 148q-49 0 -88 30t-39 76q0 53 33.5 91t93.5 38zM643 1214q38 -37 48.5 -102t-2.5 -131t-31.5 -126.5t-35.5 -98.5l-18 -39q20 191 -125 330q-35 35 -42 81.5t24 83.5q23 23 53 34t65 3.5t64 -35.5z" />
    <glyph glyph-name="underscore" unicode="_" 
d="M207 403q-13 0 -19 -2v-200q4 -2 19 -2q37 0 50 25t13 77q0 54 -13 78t-50 24zM518 330v-49h-82v-78h96v-49h-155v297h155v-52h-96v-69h82zM203 150q-47 0 -74 4v292q61 9 76 9q67 0 96 -37.5t29 -116.5t-29.5 -115t-97.5 -36zM586 451h80l39 -164l38 164h82
q3 -45 13 -297h-60q0 108 -6 213l-41 -168h-55l-41 168h-2q-4 -140 -4 -213h-58q3 156 15 297zM987 150q-60 0 -84 35.5t-24 115.5q0 81 24 117.5t84 36.5t85.5 -37t25.5 -117q0 -79 -25.5 -115t-85.5 -36zM987 403q-29 0 -39 -23.5t-10 -78.5q0 -54 10 -78t39 -24
q30 0 40.5 24t10.5 78q0 55 -10 78.5t-41 23.5zM967 1016q49 0 79.5 -24.5t39 -51t8.5 -53.5q0 -43 -34.5 -72.5t-72.5 -34.5q-213 -23 -340 -147q3 8 9 22t25 53.5t39 75.5t50 80.5t59.5 76t66 53.5t71.5 22zM285 909q39 0 78 -21t69.5 -55t58.5 -74.5t48 -81.5t35 -75
t22 -55l8 -21q-117 148 -319 148q-49 0 -88 30t-39 76q0 53 33.5 91t93.5 38zM643 1214q38 -37 48.5 -102t-2.5 -131t-31.5 -126.5t-35.5 -98.5l-18 -39q20 191 -125 330q-35 35 -42 81.5t24 83.5q23 23 53 34t65 3.5t64 -35.5z" />
    <glyph glyph-name="grave" unicode="`" 
d="M207 403q-13 0 -19 -2v-200q4 -2 19 -2q37 0 50 25t13 77q0 54 -13 78t-50 24zM518 330v-49h-82v-78h96v-49h-155v297h155v-52h-96v-69h82zM203 150q-47 0 -74 4v292q61 9 76 9q67 0 96 -37.5t29 -116.5t-29.5 -115t-97.5 -36zM586 451h80l39 -164l38 164h82
q3 -45 13 -297h-60q0 108 -6 213l-41 -168h-55l-41 168h-2q-4 -140 -4 -213h-58q3 156 15 297zM987 150q-60 0 -84 35.5t-24 115.5q0 81 24 117.5t84 36.5t85.5 -37t25.5 -117q0 -79 -25.5 -115t-85.5 -36zM987 403q-29 0 -39 -23.5t-10 -78.5q0 -54 10 -78t39 -24
q30 0 40.5 24t10.5 78q0 55 -10 78.5t-41 23.5zM967 1016q49 0 79.5 -24.5t39 -51t8.5 -53.5q0 -43 -34.5 -72.5t-72.5 -34.5q-213 -23 -340 -147q3 8 9 22t25 53.5t39 75.5t50 80.5t59.5 76t66 53.5t71.5 22zM285 909q39 0 78 -21t69.5 -55t58.5 -74.5t48 -81.5t35 -75
t22 -55l8 -21q-117 148 -319 148q-49 0 -88 30t-39 76q0 53 33.5 91t93.5 38zM643 1214q38 -37 48.5 -102t-2.5 -131t-31.5 -126.5t-35.5 -98.5l-18 -39q20 191 -125 330q-35 35 -42 81.5t24 83.5q23 23 53 34t65 3.5t64 -35.5z" />
    <glyph glyph-name="a" unicode="a" horiz-adv-x="1179" 
d="M1040 223q-5 -40 6.5 -56.5t43.5 -16.5q16 0 32 4l-8 -152q-49 -12 -100 -12q-79 0 -119.5 39.5t-30.5 120.5l5 34h-3q-57 -91 -146 -143.5t-206 -52.5q-173 0 -277 117t-104 311q0 248 144 405.5t368 157.5q125 0 203.5 -64t103.5 -167h2q2 30 17.5 100.5t32.5 118.5
h129zM565 139q86 0 158 49t112.5 119t54.5 147l6 54q6 57 -5.5 112t-40.5 102t-83 76t-126 29q-140 0 -231 -111t-91 -284q0 -133 66 -213t180 -80z" />
    <glyph glyph-name="b" unicode="b" horiz-adv-x="1146" 
d="M754 979q171 0 274 -117t103 -311q0 -249 -143.5 -406t-366.5 -157q-128 0 -206.5 63.5t-103.5 165.5q-6 -79 -49 -217h-129l178 1446h181l-80 -644q124 177 342 177zM625 139q142 0 231.5 111t89.5 285q0 134 -65 213t-181 79q-64 0 -121.5 -27.5t-97 -72.5t-66.5 -97.5
t-37 -106.5l-8 -70q-4 -44 2 -87.5t24.5 -84.5t48 -72.5t76 -50.5t104.5 -19z" />
    <glyph glyph-name="c" unicode="c" horiz-adv-x="1009" 
d="M662 979q159 0 252.5 -84t93.5 -213q0 -25 -4 -49.5t-8 -36.5l-5 -12l-168 -13q13 35 13 76q0 80 -50.5 130t-140.5 50q-142 0 -235 -111.5t-93 -287.5q0 -132 68 -210.5t193 -78.5q60 0 110.5 13t86.5 36t56 40t41 40l91 -114q-71 -81 -177 -123.5t-233 -42.5
q-195 0 -308.5 117t-113.5 309q0 120 41 225.5t112 179.5t169 117t209 43z" />
    <glyph glyph-name="d" unicode="d" horiz-adv-x="1179" 
d="M1040 223q-5 -40 6.5 -56.5t43.5 -16.5q16 0 32 4l-8 -152q-49 -12 -100 -12q-79 0 -119.5 39.5t-30.5 120.5l5 36h-5q-58 -91 -146.5 -144.5t-205.5 -53.5q-173 0 -276 116.5t-103 309.5q0 250 145 407.5t367 157.5q105 0 178.5 -44t111.5 -119l77 630h178zM565 139
q89 0 162.5 52.5t113.5 124.5t50 148l6 45q6 56 -5.5 110.5t-40.5 102t-83.5 76.5t-126.5 29q-140 0 -231 -111t-91 -284q0 -133 66 -213t180 -80z" />
    <glyph glyph-name="e" unicode="e" horiz-adv-x="1030" 
d="M657 979q175 0 271 -109t96 -282q0 -37 -6 -75.5t-12 -58.5l-5 -20h-684v-2q0 -134 72.5 -213.5t202.5 -79.5q169 0 274 127l95 -100q-71 -88 -175.5 -133t-228.5 -45q-197 0 -310.5 117t-113.5 311q0 241 148 402t376 161zM639 827q-110 0 -192 -73t-113 -191h510
q2 22 2 35q0 105 -55.5 167t-151.5 62z" />
    <glyph glyph-name="f" unicode="f" horiz-adv-x="718" 
d="M727 1307q-88 0 -143.5 -58.5t-67.5 -158.5l-15 -123h312l-18 -146h-312l-100 -821h-178l101 821h-138l18 146h137l15 118q20 168 127.5 270.5t263.5 102.5q68 0 124.5 -18t76.5 -33l-78 -143q-2 1 -13.5 9t-19.5 12t-22.5 10t-32 9t-37.5 3z" />
    <glyph glyph-name="g" unicode="g" horiz-adv-x="1146" 
d="M1004 967h129l-119 -963q-24 -197 -164.5 -315.5t-366.5 -118.5q-78 0 -142.5 11t-112 31.5t-72 34.5t-54.5 36l101 143q117 -105 299 -105q145 0 230 73t102 210l19 162q-57 -83 -143 -130.5t-196 -47.5q-173 0 -277 117t-104 311q0 248 144 405.5t368 157.5
q125 0 203.5 -64t103.5 -167h2q2 30 17.5 100.5t32.5 118.5zM567 139q64 0 121 28t97 73t66.5 97.5t36.5 106.5l8 70q5 56 -6.5 109.5t-40 100t-82.5 75t-126 28.5q-140 0 -231 -111t-91 -284q0 -134 66 -213.5t182 -79.5z" />
    <glyph glyph-name="h" unicode="h" horiz-adv-x="1132" 
d="M1047 150q24 0 36 4l-8 -154q-50 -12 -117 -12q-82 0 -118.5 50t-26.5 124l51 430q12 108 -33.5 171.5t-144.5 63.5q-120 0 -200 -87.5t-104 -204.5l-67 -535h-182l178 1446h178l-79 -649h3q122 182 326 182q164 0 247 -106t61 -281l-48 -387q-3 -25 10 -40t38 -15z" />
    <glyph glyph-name="i" unicode="i" horiz-adv-x="466" 
d="M510 1292q0 -56 -42.5 -94.5t-100.5 -38.5q-46 0 -77.5 31t-31.5 78q0 56 42 95.5t97 39.5q49 0 81 -31.5t32 -79.5zM432 973l-96 -783q-5 -40 33 -40q18 0 34 4l-10 -154q-50 -12 -106 -12q-81 0 -115 40.5t-25 112.5l103 826z" />
    <glyph glyph-name="j" unicode="j" horiz-adv-x="466" 
d="M526 1292q0 -56 -42 -94.5t-99 -38.5q-47 0 -79 31t-32 78q0 56 42 95.5t100 39.5q47 0 78.5 -32t31.5 -79zM-147 -244q34 -30 102 -30q84 0 128.5 48t55.5 142l129 1051l183 6l-125 -1022q-22 -183 -116 -280t-257 -97q-34 0 -64 6t-48.5 14t-32 16.5t-19.5 14.5l-6 6z
" />
    <glyph glyph-name="k" unicode="k" horiz-adv-x="1036" 
d="M1024 877q-18 -146 -81 -253t-175 -160l244 -464h-213l-213 420q-32 -2 -49 -2h-172l-52 -418h-180l178 1446h181l-109 -883h139q147 0 237.5 94t90.5 277v33h180q0 -6 -2 -36.5t-4 -53.5z" />
    <glyph glyph-name="l" unicode="l" horiz-adv-x="450" 
d="M135 0l178 1446h181l-179 -1446h-180z" />
    <glyph glyph-name="m" unicode="m" horiz-adv-x="1757" 
d="M1669 150q23 0 39 4l-8 -154q-54 -12 -117 -12q-82 0 -118.5 50t-26.5 124l51 426q13 108 -34 171.5t-146 63.5q-78 0 -143 -49t-100 -117t-47 -141l-63 -516h-182l72 588q14 108 -33 171.5t-147 63.5q-59 0 -111.5 -28.5t-88 -74t-58.5 -98.5t-32 -107l-63 -515h-180
l119 967l129 6q10 -94 -2 -225h3q46 100 132.5 163.5t204.5 63.5q120 0 198.5 -59t103.5 -164q51 99 137 161t202 62q165 0 249 -106.5t62 -280.5l-47 -383q-3 -25 9.5 -40t35.5 -15z" />
    <glyph glyph-name="n" unicode="n" horiz-adv-x="1130" 
d="M1044 150q25 0 37 4l-8 -154q-50 -12 -117 -12q-82 0 -118.5 50t-26.5 124l51 430q12 108 -33.5 171.5t-144.5 63.5q-64 0 -120 -29t-93.5 -75.5t-61.5 -100t-33 -107.5l-63 -515h-180l119 967l129 6q10 -94 -2 -225h5q54 101 143 166t210 65q164 0 246.5 -106t60.5 -281
l-47 -387q-3 -25 9.5 -40t37.5 -15z" />
    <glyph glyph-name="o" unicode="o" horiz-adv-x="1103" 
d="M672 979q191 0 304.5 -121t113.5 -315q0 -120 -41 -223.5t-112 -176.5t-171.5 -114t-216.5 -41q-192 0 -305 117.5t-113 310.5q0 243 153.5 403t387.5 160zM567 139q147 0 242.5 110t95.5 279q0 133 -68 216t-184 83q-145 0 -240.5 -114t-95.5 -283q0 -131 67 -211
t183 -80z" />
    <glyph glyph-name="p" unicode="p" horiz-adv-x="1146" 
d="M754 979q173 0 276 -116.5t103 -309.5q0 -250 -144.5 -407.5t-367.5 -157.5q-103 0 -176.5 46t-112.5 124l-70 -576h-180l170 1385l129 6q4 -51 3.5 -123t-5.5 -102h4q51 102 145 166.5t226 64.5zM625 139q142 0 231.5 111t89.5 285q0 134 -65 213t-181 79
q-65 0 -122.5 -28t-97.5 -74t-67 -101.5t-37 -112.5l-8 -62q-3 -57 9 -109.5t40.5 -99t82 -74t125.5 -27.5z" />
    <glyph glyph-name="q" unicode="q" horiz-adv-x="1146" 
d="M1004 967h129l-170 -1385h-181l72 585q-57 -83 -143.5 -131t-196.5 -48q-173 0 -277 117t-104 311q0 248 144 405.5t368 157.5q126 0 204 -64t101 -167h4q2 30 17.5 100.5t32.5 118.5zM565 139q65 0 123 28t97.5 73t66 98t36.5 107l8 67q6 56 -5.5 110t-40.5 101
t-83 75.5t-126 28.5q-140 0 -231 -111t-91 -284q0 -133 66 -213t180 -80z" />
    <glyph glyph-name="r" unicode="r" horiz-adv-x="677" 
d="M664 979q59 0 118 -16l-67 -183q-35 23 -86 23q-83 0 -157.5 -74.5t-94.5 -208.5l-64 -520h-180l119 967l129 6q10 -94 -2 -225h5q42 104 112.5 167.5t167.5 63.5z" />
    <glyph glyph-name="s" unicode="s" horiz-adv-x="917" 
d="M725 621q14 31 14 65q0 66 -49 103.5t-131 37.5q-91 0 -142.5 -40.5t-51.5 -106.5q0 -47 37.5 -77t93.5 -42.5t121.5 -30.5t121.5 -40t93.5 -73t37.5 -126q0 -142 -115.5 -222.5t-301.5 -80.5q-242 0 -381 145l121 123q34 -40 110 -78.5t170 -38.5q103 0 158 37t55 98
q0 36 -28 61t-72.5 40t-98.5 28.5t-108 32t-98.5 45t-72.5 73t-28 110.5q0 133 114.5 224t287.5 91q150 0 239.5 -71t89.5 -183q0 -23 -4.5 -46t-8.5 -35l-5 -11z" />
    <glyph glyph-name="t" unicode="t" horiz-adv-x="788" 
d="M476 821l-54 -446q-14 -119 20 -176.5t125 -57.5q47 0 91 14t64 28l21 14l37 -146q-11 -7 -32 -17.5t-86.5 -28t-133.5 -17.5q-175 0 -243.5 95.5t-44.5 285.5l55 452h-145l18 146h145l35 286l182 11l-36 -297h354l-19 -146h-353z" />
    <glyph glyph-name="u" unicode="u" horiz-adv-x="1107" 
d="M971 223q-5 -40 5.5 -56.5t41.5 -16.5q21 0 33 4l-9 -152q-47 -12 -98 -12q-79 0 -119 39t-30 121l2 18h-6q-50 -82 -130 -131t-182 -49q-164 0 -247.5 106t-61.5 281l72 592h182l-72 -592q-14 -108 33 -172t147 -64q77 0 142 52t100.5 122.5t46.5 144.5l62 509h180z" />
    <glyph glyph-name="v" unicode="v" horiz-adv-x="1009" 
d="M913 967h183l-492 -967h-196l-258 967h200l164 -676q16 -65 18 -107h5q11 35 41 107z" />
    <glyph glyph-name="w" unicode="w" horiz-adv-x="1490" 
d="M1382 967h187l-400 -967h-215l-104 670q-6 34 -6 67h-4q-8 -33 -23 -67l-276 -670h-209l-178 967h196l96 -676q5 -30 12.5 -66t8.5 -41h4q27 72 41 107l268 676h183l102 -670q4 -27 8 -68.5t4 -44.5h4q1 3 15 42.5t26 70.5z" />
    <glyph glyph-name="x" unicode="x" horiz-adv-x="944" 
d="M1030 967l-395 -478l283 -489h-209l-166 303q-23 41 -23 57h-4q-5 -18 -39 -57l-239 -303h-203l397 477l-285 490h211l152 -289q3 -6 14 -27.5t17 -35t6 -19.5h4q9 21 53 82l221 289h205z" />
    <glyph glyph-name="y" unicode="y" horiz-adv-x="1077" 
d="M883 967h180l-119 -967q-24 -197 -156.5 -313.5t-355.5 -116.5q-69 0 -127.5 11t-103.5 31.5t-68.5 34.5t-54.5 36l100 145q117 -107 273 -107q145 0 226.5 72.5t98.5 210.5l21 166h-5q-52 -83 -131.5 -132.5t-181.5 -49.5q-164 0 -247.5 106t-61.5 281l72 592h182
l-72 -592q-14 -108 33 -172t147 -64q56 0 106 27.5t85 71.5t59 95t35 104z" />
    <glyph glyph-name="z" unicode="z" horiz-adv-x="901" 
d="M70 0l18 145l574 619q15 15 31 32.5t24 24.5l-2 4q-20 -4 -78 -4h-457l19 146h741l-18 -146l-541 -588q-43 -49 -82 -88v-4q20 4 88 4h467l-18 -145h-766z" />
    <glyph glyph-name="braceleft" unicode="{" 
d="M207 403q-13 0 -19 -2v-200q4 -2 19 -2q37 0 50 25t13 77q0 54 -13 78t-50 24zM518 330v-49h-82v-78h96v-49h-155v297h155v-52h-96v-69h82zM203 150q-47 0 -74 4v292q61 9 76 9q67 0 96 -37.5t29 -116.5t-29.5 -115t-97.5 -36zM586 451h80l39 -164l38 164h82
q3 -45 13 -297h-60q0 108 -6 213l-41 -168h-55l-41 168h-2q-4 -140 -4 -213h-58q3 156 15 297zM987 150q-60 0 -84 35.5t-24 115.5q0 81 24 117.5t84 36.5t85.5 -37t25.5 -117q0 -79 -25.5 -115t-85.5 -36zM987 403q-29 0 -39 -23.5t-10 -78.5q0 -54 10 -78t39 -24
q30 0 40.5 24t10.5 78q0 55 -10 78.5t-41 23.5zM967 1016q49 0 79.5 -24.5t39 -51t8.5 -53.5q0 -43 -34.5 -72.5t-72.5 -34.5q-213 -23 -340 -147q3 8 9 22t25 53.5t39 75.5t50 80.5t59.5 76t66 53.5t71.5 22zM285 909q39 0 78 -21t69.5 -55t58.5 -74.5t48 -81.5t35 -75
t22 -55l8 -21q-117 148 -319 148q-49 0 -88 30t-39 76q0 53 33.5 91t93.5 38zM643 1214q38 -37 48.5 -102t-2.5 -131t-31.5 -126.5t-35.5 -98.5l-18 -39q20 191 -125 330q-35 35 -42 81.5t24 83.5q23 23 53 34t65 3.5t64 -35.5z" />
    <glyph glyph-name="bar" unicode="|" 
d="M207 403q-13 0 -19 -2v-200q4 -2 19 -2q37 0 50 25t13 77q0 54 -13 78t-50 24zM518 330v-49h-82v-78h96v-49h-155v297h155v-52h-96v-69h82zM203 150q-47 0 -74 4v292q61 9 76 9q67 0 96 -37.5t29 -116.5t-29.5 -115t-97.5 -36zM586 451h80l39 -164l38 164h82
q3 -45 13 -297h-60q0 108 -6 213l-41 -168h-55l-41 168h-2q-4 -140 -4 -213h-58q3 156 15 297zM987 150q-60 0 -84 35.5t-24 115.5q0 81 24 117.5t84 36.5t85.5 -37t25.5 -117q0 -79 -25.5 -115t-85.5 -36zM987 403q-29 0 -39 -23.5t-10 -78.5q0 -54 10 -78t39 -24
q30 0 40.5 24t10.5 78q0 55 -10 78.5t-41 23.5zM967 1016q49 0 79.5 -24.5t39 -51t8.5 -53.5q0 -43 -34.5 -72.5t-72.5 -34.5q-213 -23 -340 -147q3 8 9 22t25 53.5t39 75.5t50 80.5t59.5 76t66 53.5t71.5 22zM285 909q39 0 78 -21t69.5 -55t58.5 -74.5t48 -81.5t35 -75
t22 -55l8 -21q-117 148 -319 148q-49 0 -88 30t-39 76q0 53 33.5 91t93.5 38zM643 1214q38 -37 48.5 -102t-2.5 -131t-31.5 -126.5t-35.5 -98.5l-18 -39q20 191 -125 330q-35 35 -42 81.5t24 83.5q23 23 53 34t65 3.5t64 -35.5z" />
    <glyph glyph-name="braceright" unicode="}" 
d="M207 403q-13 0 -19 -2v-200q4 -2 19 -2q37 0 50 25t13 77q0 54 -13 78t-50 24zM518 330v-49h-82v-78h96v-49h-155v297h155v-52h-96v-69h82zM203 150q-47 0 -74 4v292q61 9 76 9q67 0 96 -37.5t29 -116.5t-29.5 -115t-97.5 -36zM586 451h80l39 -164l38 164h82
q3 -45 13 -297h-60q0 108 -6 213l-41 -168h-55l-41 168h-2q-4 -140 -4 -213h-58q3 156 15 297zM987 150q-60 0 -84 35.5t-24 115.5q0 81 24 117.5t84 36.5t85.5 -37t25.5 -117q0 -79 -25.5 -115t-85.5 -36zM987 403q-29 0 -39 -23.5t-10 -78.5q0 -54 10 -78t39 -24
q30 0 40.5 24t10.5 78q0 55 -10 78.5t-41 23.5zM967 1016q49 0 79.5 -24.5t39 -51t8.5 -53.5q0 -43 -34.5 -72.5t-72.5 -34.5q-213 -23 -340 -147q3 8 9 22t25 53.5t39 75.5t50 80.5t59.5 76t66 53.5t71.5 22zM285 909q39 0 78 -21t69.5 -55t58.5 -74.5t48 -81.5t35 -75
t22 -55l8 -21q-117 148 -319 148q-49 0 -88 30t-39 76q0 53 33.5 91t93.5 38zM643 1214q38 -37 48.5 -102t-2.5 -131t-31.5 -126.5t-35.5 -98.5l-18 -39q20 191 -125 330q-35 35 -42 81.5t24 83.5q23 23 53 34t65 3.5t64 -35.5z" />
    <glyph glyph-name="asciitilde" unicode="~" 
d="M207 403q-13 0 -19 -2v-200q4 -2 19 -2q37 0 50 25t13 77q0 54 -13 78t-50 24zM518 330v-49h-82v-78h96v-49h-155v297h155v-52h-96v-69h82zM203 150q-47 0 -74 4v292q61 9 76 9q67 0 96 -37.5t29 -116.5t-29.5 -115t-97.5 -36zM586 451h80l39 -164l38 164h82
q3 -45 13 -297h-60q0 108 -6 213l-41 -168h-55l-41 168h-2q-4 -140 -4 -213h-58q3 156 15 297zM987 150q-60 0 -84 35.5t-24 115.5q0 81 24 117.5t84 36.5t85.5 -37t25.5 -117q0 -79 -25.5 -115t-85.5 -36zM987 403q-29 0 -39 -23.5t-10 -78.5q0 -54 10 -78t39 -24
q30 0 40.5 24t10.5 78q0 55 -10 78.5t-41 23.5zM967 1016q49 0 79.5 -24.5t39 -51t8.5 -53.5q0 -43 -34.5 -72.5t-72.5 -34.5q-213 -23 -340 -147q3 8 9 22t25 53.5t39 75.5t50 80.5t59.5 76t66 53.5t71.5 22zM285 909q39 0 78 -21t69.5 -55t58.5 -74.5t48 -81.5t35 -75
t22 -55l8 -21q-117 148 -319 148q-49 0 -88 30t-39 76q0 53 33.5 91t93.5 38zM643 1214q38 -37 48.5 -102t-2.5 -131t-31.5 -126.5t-35.5 -98.5l-18 -39q20 191 -125 330q-35 35 -42 81.5t24 83.5q23 23 53 34t65 3.5t64 -35.5z" />
    </font>
</defs>
</svg>
