<?xml version="1.0" standalone="no"?>
<!DOCTYPE svg PUBLIC "-//W3C//DTD SVG 1.1//EN" "http://www.w3.org/Graphics/SVG/1.1/DTD/svg11.dtd" >
<svg xmlns="http://www.w3.org/2000/svg" xmlns:xlink="http://www.w3.org/1999/xlink" version="1.1">
<metadata>
Created by FontForge 20201107 at Sun Dec 22 14:45:38 2024
 By 
Copyright  2016 by Daniel Hernandez. All rights reserved.
</metadata>
<defs>
<font id="FONTSPRINGDEMO-BasicSansBoldItRegular" horiz-adv-x="1224" >
  <font-face 
    font-family="FSP DEMO - Basic Sans Bold It"
    font-weight="700"
    font-style="italic"
    font-stretch="normal"
    units-per-em="2048"
    panose-1="0 0 8 0 0 0 0 0 0 0"
    ascent="1536"
    descent="-512"
    x-height="967"
    cap-height="1352"
    bbox="-226 -433 1979 1462"
    underline-thickness="102"
    underline-position="-204"
    slope="-7"
    unicode-range="U+0020-007E"
  />
<missing-glyph 
d="M207 403q-13 0 -19 -2v-200q4 -2 19 -2q37 0 50 25t13 77q0 54 -13 78t-50 24zM518 330v-49h-82v-78h96v-49h-155v297h155v-52h-96v-69h82zM203 150q-47 0 -74 4v292q61 9 76 9q67 0 96 -37.5t29 -116.5t-29.5 -115t-97.5 -36zM586 451h80l39 -164l38 164h82
q3 -45 13 -297h-60q0 108 -6 213l-41 -168h-55l-41 168h-2q-4 -140 -4 -213h-58q3 156 15 297zM987 150q-60 0 -84 35.5t-24 115.5q0 81 24 117.5t84 36.5t85.5 -37t25.5 -117q0 -79 -25.5 -115t-85.5 -36zM987 403q-29 0 -39 -23.5t-10 -78.5q0 -54 10 -78t39 -24
q30 0 40.5 24t10.5 78q0 55 -10 78.5t-41 23.5zM967 1016q49 0 79.5 -24.5t39 -51t8.5 -53.5q0 -43 -34.5 -72.5t-72.5 -34.5q-213 -23 -340 -147q3 8 9 22t25 53.5t39 75.5t50 80.5t59.5 76t66 53.5t71.5 22zM285 909q39 0 78 -21t69.5 -55t58.5 -74.5t48 -81.5t35 -75
t22 -55l8 -21q-117 148 -319 148q-49 0 -88 30t-39 76q0 53 33.5 91t93.5 38zM643 1214q38 -37 48.5 -102t-2.5 -131t-31.5 -126.5t-35.5 -98.5l-18 -39q20 191 -125 330q-35 35 -42 81.5t24 83.5q23 23 53 34t65 3.5t64 -35.5z" />
    <glyph glyph-name=".notdef" 
d="M207 403q-13 0 -19 -2v-200q4 -2 19 -2q37 0 50 25t13 77q0 54 -13 78t-50 24zM518 330v-49h-82v-78h96v-49h-155v297h155v-52h-96v-69h82zM203 150q-47 0 -74 4v292q61 9 76 9q67 0 96 -37.5t29 -116.5t-29.5 -115t-97.5 -36zM586 451h80l39 -164l38 164h82
q3 -45 13 -297h-60q0 108 -6 213l-41 -168h-55l-41 168h-2q-4 -140 -4 -213h-58q3 156 15 297zM987 150q-60 0 -84 35.5t-24 115.5q0 81 24 117.5t84 36.5t85.5 -37t25.5 -117q0 -79 -25.5 -115t-85.5 -36zM987 403q-29 0 -39 -23.5t-10 -78.5q0 -54 10 -78t39 -24
q30 0 40.5 24t10.5 78q0 55 -10 78.5t-41 23.5zM967 1016q49 0 79.5 -24.5t39 -51t8.5 -53.5q0 -43 -34.5 -72.5t-72.5 -34.5q-213 -23 -340 -147q3 8 9 22t25 53.5t39 75.5t50 80.5t59.5 76t66 53.5t71.5 22zM285 909q39 0 78 -21t69.5 -55t58.5 -74.5t48 -81.5t35 -75
t22 -55l8 -21q-117 148 -319 148q-49 0 -88 30t-39 76q0 53 33.5 91t93.5 38zM643 1214q38 -37 48.5 -102t-2.5 -131t-31.5 -126.5t-35.5 -98.5l-18 -39q20 191 -125 330q-35 35 -42 81.5t24 83.5q23 23 53 34t65 3.5t64 -35.5z" />
    <glyph glyph-name=".null" horiz-adv-x="0" 
 />
    <glyph glyph-name="nonmarkingreturn" horiz-adv-x="682" 
 />
    <glyph glyph-name="space" unicode=" " horiz-adv-x="395" 
 />
    <glyph glyph-name="exclam" unicode="!" 
d="M207 403q-13 0 -19 -2v-200q4 -2 19 -2q37 0 50 25t13 77q0 54 -13 78t-50 24zM518 330v-49h-82v-78h96v-49h-155v297h155v-52h-96v-69h82zM203 150q-47 0 -74 4v292q61 9 76 9q67 0 96 -37.5t29 -116.5t-29.5 -115t-97.5 -36zM586 451h80l39 -164l38 164h82
q3 -45 13 -297h-60q0 108 -6 213l-41 -168h-55l-41 168h-2q-4 -140 -4 -213h-58q3 156 15 297zM987 150q-60 0 -84 35.5t-24 115.5q0 81 24 117.5t84 36.5t85.5 -37t25.5 -117q0 -79 -25.5 -115t-85.5 -36zM987 403q-29 0 -39 -23.5t-10 -78.5q0 -54 10 -78t39 -24
q30 0 40.5 24t10.5 78q0 55 -10 78.5t-41 23.5zM967 1016q49 0 79.5 -24.5t39 -51t8.5 -53.5q0 -43 -34.5 -72.5t-72.5 -34.5q-213 -23 -340 -147q3 8 9 22t25 53.5t39 75.5t50 80.5t59.5 76t66 53.5t71.5 22zM285 909q39 0 78 -21t69.5 -55t58.5 -74.5t48 -81.5t35 -75
t22 -55l8 -21q-117 148 -319 148q-49 0 -88 30t-39 76q0 53 33.5 91t93.5 38zM643 1214q38 -37 48.5 -102t-2.5 -131t-31.5 -126.5t-35.5 -98.5l-18 -39q20 191 -125 330q-35 35 -42 81.5t24 83.5q23 23 53 34t65 3.5t64 -35.5z" />
    <glyph glyph-name="quotedbl" unicode="&#x22;" 
d="M207 403q-13 0 -19 -2v-200q4 -2 19 -2q37 0 50 25t13 77q0 54 -13 78t-50 24zM518 330v-49h-82v-78h96v-49h-155v297h155v-52h-96v-69h82zM203 150q-47 0 -74 4v292q61 9 76 9q67 0 96 -37.5t29 -116.5t-29.5 -115t-97.5 -36zM586 451h80l39 -164l38 164h82
q3 -45 13 -297h-60q0 108 -6 213l-41 -168h-55l-41 168h-2q-4 -140 -4 -213h-58q3 156 15 297zM987 150q-60 0 -84 35.5t-24 115.5q0 81 24 117.5t84 36.5t85.5 -37t25.5 -117q0 -79 -25.5 -115t-85.5 -36zM987 403q-29 0 -39 -23.5t-10 -78.5q0 -54 10 -78t39 -24
q30 0 40.5 24t10.5 78q0 55 -10 78.5t-41 23.5zM967 1016q49 0 79.5 -24.5t39 -51t8.5 -53.5q0 -43 -34.5 -72.5t-72.5 -34.5q-213 -23 -340 -147q3 8 9 22t25 53.5t39 75.5t50 80.5t59.5 76t66 53.5t71.5 22zM285 909q39 0 78 -21t69.5 -55t58.5 -74.5t48 -81.5t35 -75
t22 -55l8 -21q-117 148 -319 148q-49 0 -88 30t-39 76q0 53 33.5 91t93.5 38zM643 1214q38 -37 48.5 -102t-2.5 -131t-31.5 -126.5t-35.5 -98.5l-18 -39q20 191 -125 330q-35 35 -42 81.5t24 83.5q23 23 53 34t65 3.5t64 -35.5z" />
    <glyph glyph-name="numbersign" unicode="#" 
d="M207 403q-13 0 -19 -2v-200q4 -2 19 -2q37 0 50 25t13 77q0 54 -13 78t-50 24zM518 330v-49h-82v-78h96v-49h-155v297h155v-52h-96v-69h82zM203 150q-47 0 -74 4v292q61 9 76 9q67 0 96 -37.5t29 -116.5t-29.5 -115t-97.5 -36zM586 451h80l39 -164l38 164h82
q3 -45 13 -297h-60q0 108 -6 213l-41 -168h-55l-41 168h-2q-4 -140 -4 -213h-58q3 156 15 297zM987 150q-60 0 -84 35.5t-24 115.5q0 81 24 117.5t84 36.5t85.5 -37t25.5 -117q0 -79 -25.5 -115t-85.5 -36zM987 403q-29 0 -39 -23.5t-10 -78.5q0 -54 10 -78t39 -24
q30 0 40.5 24t10.5 78q0 55 -10 78.5t-41 23.5zM967 1016q49 0 79.5 -24.5t39 -51t8.5 -53.5q0 -43 -34.5 -72.5t-72.5 -34.5q-213 -23 -340 -147q3 8 9 22t25 53.5t39 75.5t50 80.5t59.5 76t66 53.5t71.5 22zM285 909q39 0 78 -21t69.5 -55t58.5 -74.5t48 -81.5t35 -75
t22 -55l8 -21q-117 148 -319 148q-49 0 -88 30t-39 76q0 53 33.5 91t93.5 38zM643 1214q38 -37 48.5 -102t-2.5 -131t-31.5 -126.5t-35.5 -98.5l-18 -39q20 191 -125 330q-35 35 -42 81.5t24 83.5q23 23 53 34t65 3.5t64 -35.5z" />
    <glyph glyph-name="dollar" unicode="$" 
d="M207 403q-13 0 -19 -2v-200q4 -2 19 -2q37 0 50 25t13 77q0 54 -13 78t-50 24zM518 330v-49h-82v-78h96v-49h-155v297h155v-52h-96v-69h82zM203 150q-47 0 -74 4v292q61 9 76 9q67 0 96 -37.5t29 -116.5t-29.5 -115t-97.5 -36zM586 451h80l39 -164l38 164h82
q3 -45 13 -297h-60q0 108 -6 213l-41 -168h-55l-41 168h-2q-4 -140 -4 -213h-58q3 156 15 297zM987 150q-60 0 -84 35.5t-24 115.5q0 81 24 117.5t84 36.5t85.5 -37t25.5 -117q0 -79 -25.5 -115t-85.5 -36zM987 403q-29 0 -39 -23.5t-10 -78.5q0 -54 10 -78t39 -24
q30 0 40.5 24t10.5 78q0 55 -10 78.5t-41 23.5zM967 1016q49 0 79.5 -24.5t39 -51t8.5 -53.5q0 -43 -34.5 -72.5t-72.5 -34.5q-213 -23 -340 -147q3 8 9 22t25 53.5t39 75.5t50 80.5t59.5 76t66 53.5t71.5 22zM285 909q39 0 78 -21t69.5 -55t58.5 -74.5t48 -81.5t35 -75
t22 -55l8 -21q-117 148 -319 148q-49 0 -88 30t-39 76q0 53 33.5 91t93.5 38zM643 1214q38 -37 48.5 -102t-2.5 -131t-31.5 -126.5t-35.5 -98.5l-18 -39q20 191 -125 330q-35 35 -42 81.5t24 83.5q23 23 53 34t65 3.5t64 -35.5z" />
    <glyph glyph-name="percent" unicode="%" 
d="M207 403q-13 0 -19 -2v-200q4 -2 19 -2q37 0 50 25t13 77q0 54 -13 78t-50 24zM518 330v-49h-82v-78h96v-49h-155v297h155v-52h-96v-69h82zM203 150q-47 0 -74 4v292q61 9 76 9q67 0 96 -37.5t29 -116.5t-29.5 -115t-97.5 -36zM586 451h80l39 -164l38 164h82
q3 -45 13 -297h-60q0 108 -6 213l-41 -168h-55l-41 168h-2q-4 -140 -4 -213h-58q3 156 15 297zM987 150q-60 0 -84 35.5t-24 115.5q0 81 24 117.5t84 36.5t85.5 -37t25.5 -117q0 -79 -25.5 -115t-85.5 -36zM987 403q-29 0 -39 -23.5t-10 -78.5q0 -54 10 -78t39 -24
q30 0 40.5 24t10.5 78q0 55 -10 78.5t-41 23.5zM967 1016q49 0 79.5 -24.5t39 -51t8.5 -53.5q0 -43 -34.5 -72.5t-72.5 -34.5q-213 -23 -340 -147q3 8 9 22t25 53.5t39 75.5t50 80.5t59.5 76t66 53.5t71.5 22zM285 909q39 0 78 -21t69.5 -55t58.5 -74.5t48 -81.5t35 -75
t22 -55l8 -21q-117 148 -319 148q-49 0 -88 30t-39 76q0 53 33.5 91t93.5 38zM643 1214q38 -37 48.5 -102t-2.5 -131t-31.5 -126.5t-35.5 -98.5l-18 -39q20 191 -125 330q-35 35 -42 81.5t24 83.5q23 23 53 34t65 3.5t64 -35.5z" />
    <glyph glyph-name="ampersand" unicode="&#x26;" 
d="M207 403q-13 0 -19 -2v-200q4 -2 19 -2q37 0 50 25t13 77q0 54 -13 78t-50 24zM518 330v-49h-82v-78h96v-49h-155v297h155v-52h-96v-69h82zM203 150q-47 0 -74 4v292q61 9 76 9q67 0 96 -37.5t29 -116.5t-29.5 -115t-97.5 -36zM586 451h80l39 -164l38 164h82
q3 -45 13 -297h-60q0 108 -6 213l-41 -168h-55l-41 168h-2q-4 -140 -4 -213h-58q3 156 15 297zM987 150q-60 0 -84 35.5t-24 115.5q0 81 24 117.5t84 36.5t85.5 -37t25.5 -117q0 -79 -25.5 -115t-85.5 -36zM987 403q-29 0 -39 -23.5t-10 -78.5q0 -54 10 -78t39 -24
q30 0 40.5 24t10.5 78q0 55 -10 78.5t-41 23.5zM967 1016q49 0 79.5 -24.5t39 -51t8.5 -53.5q0 -43 -34.5 -72.5t-72.5 -34.5q-213 -23 -340 -147q3 8 9 22t25 53.5t39 75.5t50 80.5t59.5 76t66 53.5t71.5 22zM285 909q39 0 78 -21t69.5 -55t58.5 -74.5t48 -81.5t35 -75
t22 -55l8 -21q-117 148 -319 148q-49 0 -88 30t-39 76q0 53 33.5 91t93.5 38zM643 1214q38 -37 48.5 -102t-2.5 -131t-31.5 -126.5t-35.5 -98.5l-18 -39q20 191 -125 330q-35 35 -42 81.5t24 83.5q23 23 53 34t65 3.5t64 -35.5z" />
    <glyph glyph-name="quotesingle" unicode="'" 
d="M207 403q-13 0 -19 -2v-200q4 -2 19 -2q37 0 50 25t13 77q0 54 -13 78t-50 24zM518 330v-49h-82v-78h96v-49h-155v297h155v-52h-96v-69h82zM203 150q-47 0 -74 4v292q61 9 76 9q67 0 96 -37.5t29 -116.5t-29.5 -115t-97.5 -36zM586 451h80l39 -164l38 164h82
q3 -45 13 -297h-60q0 108 -6 213l-41 -168h-55l-41 168h-2q-4 -140 -4 -213h-58q3 156 15 297zM987 150q-60 0 -84 35.5t-24 115.5q0 81 24 117.5t84 36.5t85.5 -37t25.5 -117q0 -79 -25.5 -115t-85.5 -36zM987 403q-29 0 -39 -23.5t-10 -78.5q0 -54 10 -78t39 -24
q30 0 40.5 24t10.5 78q0 55 -10 78.5t-41 23.5zM967 1016q49 0 79.5 -24.5t39 -51t8.5 -53.5q0 -43 -34.5 -72.5t-72.5 -34.5q-213 -23 -340 -147q3 8 9 22t25 53.5t39 75.5t50 80.5t59.5 76t66 53.5t71.5 22zM285 909q39 0 78 -21t69.5 -55t58.5 -74.5t48 -81.5t35 -75
t22 -55l8 -21q-117 148 -319 148q-49 0 -88 30t-39 76q0 53 33.5 91t93.5 38zM643 1214q38 -37 48.5 -102t-2.5 -131t-31.5 -126.5t-35.5 -98.5l-18 -39q20 191 -125 330q-35 35 -42 81.5t24 83.5q23 23 53 34t65 3.5t64 -35.5z" />
    <glyph glyph-name="parenleft" unicode="(" 
d="M207 403q-13 0 -19 -2v-200q4 -2 19 -2q37 0 50 25t13 77q0 54 -13 78t-50 24zM518 330v-49h-82v-78h96v-49h-155v297h155v-52h-96v-69h82zM203 150q-47 0 -74 4v292q61 9 76 9q67 0 96 -37.5t29 -116.5t-29.5 -115t-97.5 -36zM586 451h80l39 -164l38 164h82
q3 -45 13 -297h-60q0 108 -6 213l-41 -168h-55l-41 168h-2q-4 -140 -4 -213h-58q3 156 15 297zM987 150q-60 0 -84 35.5t-24 115.5q0 81 24 117.5t84 36.5t85.5 -37t25.5 -117q0 -79 -25.5 -115t-85.5 -36zM987 403q-29 0 -39 -23.5t-10 -78.5q0 -54 10 -78t39 -24
q30 0 40.5 24t10.5 78q0 55 -10 78.5t-41 23.5zM967 1016q49 0 79.5 -24.5t39 -51t8.5 -53.5q0 -43 -34.5 -72.5t-72.5 -34.5q-213 -23 -340 -147q3 8 9 22t25 53.5t39 75.5t50 80.5t59.5 76t66 53.5t71.5 22zM285 909q39 0 78 -21t69.5 -55t58.5 -74.5t48 -81.5t35 -75
t22 -55l8 -21q-117 148 -319 148q-49 0 -88 30t-39 76q0 53 33.5 91t93.5 38zM643 1214q38 -37 48.5 -102t-2.5 -131t-31.5 -126.5t-35.5 -98.5l-18 -39q20 191 -125 330q-35 35 -42 81.5t24 83.5q23 23 53 34t65 3.5t64 -35.5z" />
    <glyph glyph-name="parenright" unicode=")" 
d="M207 403q-13 0 -19 -2v-200q4 -2 19 -2q37 0 50 25t13 77q0 54 -13 78t-50 24zM518 330v-49h-82v-78h96v-49h-155v297h155v-52h-96v-69h82zM203 150q-47 0 -74 4v292q61 9 76 9q67 0 96 -37.5t29 -116.5t-29.5 -115t-97.5 -36zM586 451h80l39 -164l38 164h82
q3 -45 13 -297h-60q0 108 -6 213l-41 -168h-55l-41 168h-2q-4 -140 -4 -213h-58q3 156 15 297zM987 150q-60 0 -84 35.5t-24 115.5q0 81 24 117.5t84 36.5t85.5 -37t25.5 -117q0 -79 -25.5 -115t-85.5 -36zM987 403q-29 0 -39 -23.5t-10 -78.5q0 -54 10 -78t39 -24
q30 0 40.5 24t10.5 78q0 55 -10 78.5t-41 23.5zM967 1016q49 0 79.5 -24.5t39 -51t8.5 -53.5q0 -43 -34.5 -72.5t-72.5 -34.5q-213 -23 -340 -147q3 8 9 22t25 53.5t39 75.5t50 80.5t59.5 76t66 53.5t71.5 22zM285 909q39 0 78 -21t69.5 -55t58.5 -74.5t48 -81.5t35 -75
t22 -55l8 -21q-117 148 -319 148q-49 0 -88 30t-39 76q0 53 33.5 91t93.5 38zM643 1214q38 -37 48.5 -102t-2.5 -131t-31.5 -126.5t-35.5 -98.5l-18 -39q20 191 -125 330q-35 35 -42 81.5t24 83.5q23 23 53 34t65 3.5t64 -35.5z" />
    <glyph glyph-name="asterisk" unicode="*" 
d="M207 403q-13 0 -19 -2v-200q4 -2 19 -2q37 0 50 25t13 77q0 54 -13 78t-50 24zM518 330v-49h-82v-78h96v-49h-155v297h155v-52h-96v-69h82zM203 150q-47 0 -74 4v292q61 9 76 9q67 0 96 -37.5t29 -116.5t-29.5 -115t-97.5 -36zM586 451h80l39 -164l38 164h82
q3 -45 13 -297h-60q0 108 -6 213l-41 -168h-55l-41 168h-2q-4 -140 -4 -213h-58q3 156 15 297zM987 150q-60 0 -84 35.5t-24 115.5q0 81 24 117.5t84 36.5t85.5 -37t25.5 -117q0 -79 -25.5 -115t-85.5 -36zM987 403q-29 0 -39 -23.5t-10 -78.5q0 -54 10 -78t39 -24
q30 0 40.5 24t10.5 78q0 55 -10 78.5t-41 23.5zM967 1016q49 0 79.5 -24.5t39 -51t8.5 -53.5q0 -43 -34.5 -72.5t-72.5 -34.5q-213 -23 -340 -147q3 8 9 22t25 53.5t39 75.5t50 80.5t59.5 76t66 53.5t71.5 22zM285 909q39 0 78 -21t69.5 -55t58.5 -74.5t48 -81.5t35 -75
t22 -55l8 -21q-117 148 -319 148q-49 0 -88 30t-39 76q0 53 33.5 91t93.5 38zM643 1214q38 -37 48.5 -102t-2.5 -131t-31.5 -126.5t-35.5 -98.5l-18 -39q20 191 -125 330q-35 35 -42 81.5t24 83.5q23 23 53 34t65 3.5t64 -35.5z" />
    <glyph glyph-name="plus" unicode="+" 
d="M207 403q-13 0 -19 -2v-200q4 -2 19 -2q37 0 50 25t13 77q0 54 -13 78t-50 24zM518 330v-49h-82v-78h96v-49h-155v297h155v-52h-96v-69h82zM203 150q-47 0 -74 4v292q61 9 76 9q67 0 96 -37.5t29 -116.5t-29.5 -115t-97.5 -36zM586 451h80l39 -164l38 164h82
q3 -45 13 -297h-60q0 108 -6 213l-41 -168h-55l-41 168h-2q-4 -140 -4 -213h-58q3 156 15 297zM987 150q-60 0 -84 35.5t-24 115.5q0 81 24 117.5t84 36.5t85.5 -37t25.5 -117q0 -79 -25.5 -115t-85.5 -36zM987 403q-29 0 -39 -23.5t-10 -78.5q0 -54 10 -78t39 -24
q30 0 40.5 24t10.5 78q0 55 -10 78.5t-41 23.5zM967 1016q49 0 79.5 -24.5t39 -51t8.5 -53.5q0 -43 -34.5 -72.5t-72.5 -34.5q-213 -23 -340 -147q3 8 9 22t25 53.5t39 75.5t50 80.5t59.5 76t66 53.5t71.5 22zM285 909q39 0 78 -21t69.5 -55t58.5 -74.5t48 -81.5t35 -75
t22 -55l8 -21q-117 148 -319 148q-49 0 -88 30t-39 76q0 53 33.5 91t93.5 38zM643 1214q38 -37 48.5 -102t-2.5 -131t-31.5 -126.5t-35.5 -98.5l-18 -39q20 191 -125 330q-35 35 -42 81.5t24 83.5q23 23 53 34t65 3.5t64 -35.5z" />
    <glyph glyph-name="comma" unicode="," horiz-adv-x="495" 
d="M91 124q0 75 50.5 124t130.5 49q69 0 115 -46t46 -130q0 -68 -16.5 -130.5t-43 -108t-58.5 -85t-64 -65t-58.5 -44t-42.5 -26.5l-17 -8l-81 121q7 4 18.5 11t42 29t54 45.5t45 58.5t25.5 69q-64 0 -105 38.5t-41 97.5z" />
    <glyph glyph-name="hyphen" unicode="-" 
d="M207 403q-13 0 -19 -2v-200q4 -2 19 -2q37 0 50 25t13 77q0 54 -13 78t-50 24zM518 330v-49h-82v-78h96v-49h-155v297h155v-52h-96v-69h82zM203 150q-47 0 -74 4v292q61 9 76 9q67 0 96 -37.5t29 -116.5t-29.5 -115t-97.5 -36zM586 451h80l39 -164l38 164h82
q3 -45 13 -297h-60q0 108 -6 213l-41 -168h-55l-41 168h-2q-4 -140 -4 -213h-58q3 156 15 297zM987 150q-60 0 -84 35.5t-24 115.5q0 81 24 117.5t84 36.5t85.5 -37t25.5 -117q0 -79 -25.5 -115t-85.5 -36zM987 403q-29 0 -39 -23.5t-10 -78.5q0 -54 10 -78t39 -24
q30 0 40.5 24t10.5 78q0 55 -10 78.5t-41 23.5zM967 1016q49 0 79.5 -24.5t39 -51t8.5 -53.5q0 -43 -34.5 -72.5t-72.5 -34.5q-213 -23 -340 -147q3 8 9 22t25 53.5t39 75.5t50 80.5t59.5 76t66 53.5t71.5 22zM285 909q39 0 78 -21t69.5 -55t58.5 -74.5t48 -81.5t35 -75
t22 -55l8 -21q-117 148 -319 148q-49 0 -88 30t-39 76q0 53 33.5 91t93.5 38zM643 1214q38 -37 48.5 -102t-2.5 -131t-31.5 -126.5t-35.5 -98.5l-18 -39q20 191 -125 330q-35 35 -42 81.5t24 83.5q23 23 53 34t65 3.5t64 -35.5z" />
    <glyph glyph-name="period" unicode="." horiz-adv-x="462" 
d="M90 130q0 72 54 125t126 53q60 0 100 -42t40 -103q0 -72 -54.5 -123.5t-126.5 -51.5q-60 0 -99.5 41t-39.5 101z" />
    <glyph glyph-name="slash" unicode="/" 
d="M207 403q-13 0 -19 -2v-200q4 -2 19 -2q37 0 50 25t13 77q0 54 -13 78t-50 24zM518 330v-49h-82v-78h96v-49h-155v297h155v-52h-96v-69h82zM203 150q-47 0 -74 4v292q61 9 76 9q67 0 96 -37.5t29 -116.5t-29.5 -115t-97.5 -36zM586 451h80l39 -164l38 164h82
q3 -45 13 -297h-60q0 108 -6 213l-41 -168h-55l-41 168h-2q-4 -140 -4 -213h-58q3 156 15 297zM987 150q-60 0 -84 35.5t-24 115.5q0 81 24 117.5t84 36.5t85.5 -37t25.5 -117q0 -79 -25.5 -115t-85.5 -36zM987 403q-29 0 -39 -23.5t-10 -78.5q0 -54 10 -78t39 -24
q30 0 40.5 24t10.5 78q0 55 -10 78.5t-41 23.5zM967 1016q49 0 79.5 -24.5t39 -51t8.5 -53.5q0 -43 -34.5 -72.5t-72.5 -34.5q-213 -23 -340 -147q3 8 9 22t25 53.5t39 75.5t50 80.5t59.5 76t66 53.5t71.5 22zM285 909q39 0 78 -21t69.5 -55t58.5 -74.5t48 -81.5t35 -75
t22 -55l8 -21q-117 148 -319 148q-49 0 -88 30t-39 76q0 53 33.5 91t93.5 38zM643 1214q38 -37 48.5 -102t-2.5 -131t-31.5 -126.5t-35.5 -98.5l-18 -39q20 191 -125 330q-35 35 -42 81.5t24 83.5q23 23 53 34t65 3.5t64 -35.5z" />
    <glyph glyph-name="zero" unicode="0" horiz-adv-x="1280" 
d="M637 -14q-236 0 -361.5 147.5t-125.5 413.5q0 240 77 424t227 289.5t353 105.5q236 0 362 -153.5t126 -422.5q0 -240 -76.5 -420.5t-226.5 -282t-355 -101.5zM668 237q153 0 245 143t92 386q0 166 -60 257t-169 91q-151 0 -243 -149.5t-92 -391.5q0 -163 59 -249.5
t168 -86.5z" />
    <glyph glyph-name="one" unicode="1" horiz-adv-x="782" 
d="M365 0l129 1056l-340 -88l32 260l583 124h46l-166 -1352h-284z" />
    <glyph glyph-name="two" unicode="2" horiz-adv-x="1128" 
d="M553 229q30 5 100 5h428l-29 -234h-966l24 195q54 39 132 92t132.5 90t122 87t114.5 89t94.5 88t76.5 93.5t47 96.5t18 104q0 82 -44 130.5t-124 48.5q-87 0 -144 -51.5t-57 -131.5q0 -21 3 -30l-286 -51q-7 28 -7 67q0 196 149 322.5t381 126.5q196 0 311 -109t115 -290
q0 -87 -30 -171t-75.5 -150.5t-115.5 -134t-133 -116t-144 -103.5q-63 -42 -96 -55z" />
    <glyph glyph-name="three" unicode="3" horiz-adv-x="1142" 
d="M723 1366q197 0 310 -98t113 -259q0 -142 -87 -235t-206 -93l-1 -6q105 0 185 -77.5t80 -201.5q0 -179 -151.5 -294.5t-404.5 -115.5q-83 0 -155 15t-120.5 39t-87.5 53t-61.5 58t-37.5 53t-20 39l-5 15l233 141q3 -7 10 -18t31 -39t53 -50t77.5 -39.5t102.5 -17.5
q106 0 171.5 46t72.5 126q7 70 -43 110t-157 44l-142 2l26 210l96 2q114 4 178 50.5t64 130.5q0 71 -44 114.5t-119 43.5q-85 0 -136 -43t-51 -109q0 -23 2 -28l-285 -45q-4 8 -4 61q0 183 144 299.5t369 116.5z" />
    <glyph glyph-name="four" unicode="4" 
d="M207 403q-13 0 -19 -2v-200q4 -2 19 -2q37 0 50 25t13 77q0 54 -13 78t-50 24zM518 330v-49h-82v-78h96v-49h-155v297h155v-52h-96v-69h82zM203 150q-47 0 -74 4v292q61 9 76 9q67 0 96 -37.5t29 -116.5t-29.5 -115t-97.5 -36zM586 451h80l39 -164l38 164h82
q3 -45 13 -297h-60q0 108 -6 213l-41 -168h-55l-41 168h-2q-4 -140 -4 -213h-58q3 156 15 297zM987 150q-60 0 -84 35.5t-24 115.5q0 81 24 117.5t84 36.5t85.5 -37t25.5 -117q0 -79 -25.5 -115t-85.5 -36zM987 403q-29 0 -39 -23.5t-10 -78.5q0 -54 10 -78t39 -24
q30 0 40.5 24t10.5 78q0 55 -10 78.5t-41 23.5zM967 1016q49 0 79.5 -24.5t39 -51t8.5 -53.5q0 -43 -34.5 -72.5t-72.5 -34.5q-213 -23 -340 -147q3 8 9 22t25 53.5t39 75.5t50 80.5t59.5 76t66 53.5t71.5 22zM285 909q39 0 78 -21t69.5 -55t58.5 -74.5t48 -81.5t35 -75
t22 -55l8 -21q-117 148 -319 148q-49 0 -88 30t-39 76q0 53 33.5 91t93.5 38zM643 1214q38 -37 48.5 -102t-2.5 -131t-31.5 -126.5t-35.5 -98.5l-18 -39q20 191 -125 330q-35 35 -42 81.5t24 83.5q23 23 53 34t65 3.5t64 -35.5z" />
    <glyph glyph-name="five" unicode="5" horiz-adv-x="1136" 
d="M352 1352h797l-28 -237h-569l-59 -289l7 -4q39 33 104 54.5t135 21.5q182 0 290 -107.5t108 -283.5q0 -231 -165.5 -376t-420.5 -145q-74 0 -141 14t-114 37t-86.5 50.5t-64 55t-41.5 50.5t-24 37l-7 14l235 158q4 -7 11 -18t32 -39t54 -50t76.5 -39.5t99.5 -17.5
q112 0 186 68t74 175q0 84 -49 136.5t-134 52.5q-54 0 -100 -20t-64.5 -37.5t-24.5 -28.5h-265z" />
    <glyph glyph-name="six" unicode="6" horiz-adv-x="1167" 
d="M785 858q167 0 268.5 -103t101.5 -271q0 -145 -69.5 -259t-191.5 -176.5t-275 -62.5q-217 0 -344 151t-127 415q0 178 51.5 330t140.5 257.5t212.5 165.5t264.5 60q275 0 398 -189l-207 -171q-21 39 -76 73.5t-134 34.5q-147 0 -246 -119t-121 -329l11 -1q15 32 42 63.5
t68 62t102 49.5t131 19zM647 234q104 0 171.5 65.5t67.5 166.5q0 79 -51 126t-139 47q-102 0 -173 -58t-88 -154q36 -193 212 -193z" />
    <glyph glyph-name="seven" unicode="7" horiz-adv-x="1038" 
d="M219 1352h949l-27 -228l-617 -1124h-322l589 1018q60 99 61 101l-2 6q-24 -4 -88 -4h-313l-23 -182h-259l51 413l1 -1v1z" />
    <glyph glyph-name="eight" unicode="8" horiz-adv-x="1187" 
d="M993 709q80 -37 127 -110.5t47 -172.5q0 -196 -160 -318t-416 -122q-220 0 -348 98.5t-128 261.5q0 128 69.5 221.5t183.5 141.5l1 5q-56 29 -89 91t-33 142q0 186 143.5 302.5t370.5 116.5q193 0 307.5 -93t114.5 -248q0 -109 -52.5 -190.5t-135.5 -120.5zM694 817
q92 0 151.5 54t59.5 134q0 69 -46 108t-125 39q-93 0 -150.5 -50t-57.5 -135q0 -65 45.5 -107.5t122.5 -42.5zM620 213q120 0 195.5 60t75.5 156q0 77 -60.5 122.5t-163.5 45.5q-119 0 -194.5 -57t-75.5 -149q0 -81 60.5 -129.5t162.5 -48.5z" />
    <glyph glyph-name="nine" unicode="9" horiz-adv-x="1159" 
d="M719 1365q217 0 336.5 -146t119.5 -415q0 -368 -183.5 -593t-474.5 -225q-149 0 -251 48t-155 131l213 171q28 -40 81 -71t130 -31q134 0 234.5 112t129.5 308l-11 2q-14 -29 -38.5 -57.5t-63.5 -57.5t-99.5 -47t-131.5 -18q-170 0 -273.5 102t-103.5 271
q0 147 71.5 265.5t195 184.5t274.5 66zM640 711q101 0 171.5 58.5t87.5 154.5q-36 192 -211 192q-102 0 -171 -66t-69 -165q0 -78 52.5 -126t139.5 -48z" />
    <glyph glyph-name="colon" unicode=":" horiz-adv-x="503" 
d="M193 803q0 72 54 125t126 53q60 0 100 -42t40 -102q0 -72 -54.5 -124t-126.5 -52q-60 0 -99.5 41t-39.5 101zM111 128q0 72 54 125t126 53q60 0 100.5 -42.5t40.5 -102.5q0 -72 -54.5 -123.5t-126.5 -51.5q-60 0 -100 41t-40 101z" />
    <glyph glyph-name="semicolon" unicode=";" horiz-adv-x="532" 
d="M204 803q0 72 54 125t126 53q60 0 100 -42t40 -102q0 -72 -54.5 -124t-126.5 -52q-60 0 -99.5 41t-39.5 101zM115 122q0 75 50.5 123.5t130.5 48.5q69 0 115 -45.5t46 -129.5q0 -68 -16.5 -130.5t-43 -108.5t-58.5 -85.5t-64 -65t-58.5 -44t-42.5 -26.5l-17 -8l-81 122
q7 4 18.5 11t42 29t54 45.5t45 58.5t25.5 69q-64 0 -105 38.5t-41 97.5z" />
    <glyph glyph-name="less" unicode="&#x3c;" 
d="M207 403q-13 0 -19 -2v-200q4 -2 19 -2q37 0 50 25t13 77q0 54 -13 78t-50 24zM518 330v-49h-82v-78h96v-49h-155v297h155v-52h-96v-69h82zM203 150q-47 0 -74 4v292q61 9 76 9q67 0 96 -37.5t29 -116.5t-29.5 -115t-97.5 -36zM586 451h80l39 -164l38 164h82
q3 -45 13 -297h-60q0 108 -6 213l-41 -168h-55l-41 168h-2q-4 -140 -4 -213h-58q3 156 15 297zM987 150q-60 0 -84 35.5t-24 115.5q0 81 24 117.5t84 36.5t85.5 -37t25.5 -117q0 -79 -25.5 -115t-85.5 -36zM987 403q-29 0 -39 -23.5t-10 -78.5q0 -54 10 -78t39 -24
q30 0 40.5 24t10.5 78q0 55 -10 78.5t-41 23.5zM967 1016q49 0 79.5 -24.5t39 -51t8.5 -53.5q0 -43 -34.5 -72.5t-72.5 -34.5q-213 -23 -340 -147q3 8 9 22t25 53.5t39 75.5t50 80.5t59.5 76t66 53.5t71.5 22zM285 909q39 0 78 -21t69.5 -55t58.5 -74.5t48 -81.5t35 -75
t22 -55l8 -21q-117 148 -319 148q-49 0 -88 30t-39 76q0 53 33.5 91t93.5 38zM643 1214q38 -37 48.5 -102t-2.5 -131t-31.5 -126.5t-35.5 -98.5l-18 -39q20 191 -125 330q-35 35 -42 81.5t24 83.5q23 23 53 34t65 3.5t64 -35.5z" />
    <glyph glyph-name="equal" unicode="=" 
d="M207 403q-13 0 -19 -2v-200q4 -2 19 -2q37 0 50 25t13 77q0 54 -13 78t-50 24zM518 330v-49h-82v-78h96v-49h-155v297h155v-52h-96v-69h82zM203 150q-47 0 -74 4v292q61 9 76 9q67 0 96 -37.5t29 -116.5t-29.5 -115t-97.5 -36zM586 451h80l39 -164l38 164h82
q3 -45 13 -297h-60q0 108 -6 213l-41 -168h-55l-41 168h-2q-4 -140 -4 -213h-58q3 156 15 297zM987 150q-60 0 -84 35.5t-24 115.5q0 81 24 117.5t84 36.5t85.5 -37t25.5 -117q0 -79 -25.5 -115t-85.5 -36zM987 403q-29 0 -39 -23.5t-10 -78.5q0 -54 10 -78t39 -24
q30 0 40.5 24t10.5 78q0 55 -10 78.5t-41 23.5zM967 1016q49 0 79.5 -24.5t39 -51t8.5 -53.5q0 -43 -34.5 -72.5t-72.5 -34.5q-213 -23 -340 -147q3 8 9 22t25 53.5t39 75.5t50 80.5t59.5 76t66 53.5t71.5 22zM285 909q39 0 78 -21t69.5 -55t58.5 -74.5t48 -81.5t35 -75
t22 -55l8 -21q-117 148 -319 148q-49 0 -88 30t-39 76q0 53 33.5 91t93.5 38zM643 1214q38 -37 48.5 -102t-2.5 -131t-31.5 -126.5t-35.5 -98.5l-18 -39q20 191 -125 330q-35 35 -42 81.5t24 83.5q23 23 53 34t65 3.5t64 -35.5z" />
    <glyph glyph-name="greater" unicode="&#x3e;" 
d="M207 403q-13 0 -19 -2v-200q4 -2 19 -2q37 0 50 25t13 77q0 54 -13 78t-50 24zM518 330v-49h-82v-78h96v-49h-155v297h155v-52h-96v-69h82zM203 150q-47 0 -74 4v292q61 9 76 9q67 0 96 -37.5t29 -116.5t-29.5 -115t-97.5 -36zM586 451h80l39 -164l38 164h82
q3 -45 13 -297h-60q0 108 -6 213l-41 -168h-55l-41 168h-2q-4 -140 -4 -213h-58q3 156 15 297zM987 150q-60 0 -84 35.5t-24 115.5q0 81 24 117.5t84 36.5t85.5 -37t25.5 -117q0 -79 -25.5 -115t-85.5 -36zM987 403q-29 0 -39 -23.5t-10 -78.5q0 -54 10 -78t39 -24
q30 0 40.5 24t10.5 78q0 55 -10 78.5t-41 23.5zM967 1016q49 0 79.5 -24.5t39 -51t8.5 -53.5q0 -43 -34.5 -72.5t-72.5 -34.5q-213 -23 -340 -147q3 8 9 22t25 53.5t39 75.5t50 80.5t59.5 76t66 53.5t71.5 22zM285 909q39 0 78 -21t69.5 -55t58.5 -74.5t48 -81.5t35 -75
t22 -55l8 -21q-117 148 -319 148q-49 0 -88 30t-39 76q0 53 33.5 91t93.5 38zM643 1214q38 -37 48.5 -102t-2.5 -131t-31.5 -126.5t-35.5 -98.5l-18 -39q20 191 -125 330q-35 35 -42 81.5t24 83.5q23 23 53 34t65 3.5t64 -35.5z" />
    <glyph glyph-name="question" unicode="?" horiz-adv-x="944" 
d="M634 1419q100 0 177 -28.5t122 -77.5t67.5 -108t22.5 -126q0 -72 -21.5 -131t-57 -100.5t-78 -76.5t-87.5 -67t-84 -65t-68 -77t-38 -95q-1 -5 -2 -16t-2 -16l-239 -8q2 26 9 75q11 65 38 120t61.5 93t73.5 71t76 61t67 55.5t48 62.5t18 75q0 59 -34.5 95.5t-98.5 36.5
q-71 0 -118 -43t-47 -113q0 -16 4 -34l-259 -41q-3 31 -3 63q0 183 127.5 299t325.5 116zM456 295q60 0 99.5 -40.5t39.5 -100.5q0 -71 -53.5 -122t-124.5 -51q-59 0 -98.5 40.5t-39.5 99.5q0 71 53.5 122.5t123.5 51.5z" />
    <glyph glyph-name="at" unicode="@" 
d="M207 403q-13 0 -19 -2v-200q4 -2 19 -2q37 0 50 25t13 77q0 54 -13 78t-50 24zM518 330v-49h-82v-78h96v-49h-155v297h155v-52h-96v-69h82zM203 150q-47 0 -74 4v292q61 9 76 9q67 0 96 -37.5t29 -116.5t-29.5 -115t-97.5 -36zM586 451h80l39 -164l38 164h82
q3 -45 13 -297h-60q0 108 -6 213l-41 -168h-55l-41 168h-2q-4 -140 -4 -213h-58q3 156 15 297zM987 150q-60 0 -84 35.5t-24 115.5q0 81 24 117.5t84 36.5t85.5 -37t25.5 -117q0 -79 -25.5 -115t-85.5 -36zM987 403q-29 0 -39 -23.5t-10 -78.5q0 -54 10 -78t39 -24
q30 0 40.5 24t10.5 78q0 55 -10 78.5t-41 23.5zM967 1016q49 0 79.5 -24.5t39 -51t8.5 -53.5q0 -43 -34.5 -72.5t-72.5 -34.5q-213 -23 -340 -147q3 8 9 22t25 53.5t39 75.5t50 80.5t59.5 76t66 53.5t71.5 22zM285 909q39 0 78 -21t69.5 -55t58.5 -74.5t48 -81.5t35 -75
t22 -55l8 -21q-117 148 -319 148q-49 0 -88 30t-39 76q0 53 33.5 91t93.5 38zM643 1214q38 -37 48.5 -102t-2.5 -131t-31.5 -126.5t-35.5 -98.5l-18 -39q20 191 -125 330q-35 35 -42 81.5t24 83.5q23 23 53 34t65 3.5t64 -35.5z" />
    <glyph glyph-name="A" unicode="A" horiz-adv-x="1234" 
d="M935 0l-52 289h-459l-123 -289h-298l623 1352h315l290 -1352h-296zM517 507h327l-72 402q-14 75 -19 154h-7q-16 -57 -57 -155z" />
    <glyph glyph-name="B" unicode="B" horiz-adv-x="1216" 
d="M973 702q33 -5 69 -24t72.5 -52.5t60 -90.5t23.5 -127q0 -193 -130.5 -300.5t-364.5 -107.5h-570l166 1352h522q191 0 296.5 -85t105.5 -238q0 -68 -18.5 -123.5t-45.5 -89.5t-62.5 -58t-65 -35t-58.5 -15v-6zM703 790q105 0 164.5 51.5t59.5 139.5q0 73 -49 112t-145 39
h-175l-42 -342h187zM675 220q105 0 168 51.5t63 151.5q0 79 -54.5 122.5t-144.5 43.5h-216l-46 -369h230z" />
    <glyph glyph-name="C" unicode="C" horiz-adv-x="1280" 
d="M855 1366q82 0 151.5 -16.5t118.5 -45.5t89 -68t62 -84t37.5 -94.5t16 -98.5t-3.5 -96l-273 -42q3 39 1 79t-18.5 78.5t-41.5 68.5t-68 48.5t-98 18.5q-76 0 -145.5 -36t-123 -100.5t-85 -162t-31.5 -212.5q0 -182 89 -274t226 -92q59 0 116 18.5t101.5 49t77.5 61
t58 63.5l150 -180q-25 -31 -55 -60.5t-82 -68t-108.5 -67t-134.5 -48t-161 -19.5q-265 0 -418.5 158.5t-153.5 434.5q0 174 55 322t150.5 249.5t225 158.5t276.5 57z" />
    <glyph glyph-name="D" unicode="D" horiz-adv-x="1316" 
d="M761 1352q278 0 425.5 -154.5t147.5 -421.5q0 -366 -180 -571t-501 -205h-520l166 1352h462zM645 231q188 0 291 131.5t103 394.5q0 181 -88 272.5t-257 91.5h-132l-110 -890h193z" />
    <glyph glyph-name="E" unicode="E" horiz-adv-x="1087" 
d="M1137 1112h-576l-38 -311h497l-28 -227h-497l-42 -335h577l-29 -239h-868l166 1352h868z" />
    <glyph glyph-name="F" unicode="F" horiz-adv-x="1030" 
d="M1119 1112h-558l-41 -332h481l-29 -234h-481l-67 -546h-291l166 1352h849z" />
    <glyph glyph-name="G" unicode="G" horiz-adv-x="1327" 
d="M1331 883l-274 -42q6 50 -3 96.5t-33.5 87t-74.5 65t-118 24.5q-159 0 -271.5 -141t-112.5 -371q0 -171 78.5 -273t215.5 -102q132 0 212.5 66.5t99.5 181.5h-333l22 184h578l-81 -659h-198q-5 36 -2 144q-133 -158 -378 -158q-235 0 -372 158.5t-137 427.5q0 176 55 326
t150.5 252t224.5 159t276 57q113 0 202 -30.5t143 -80t87 -114t42.5 -129t1.5 -129.5z" />
    <glyph glyph-name="H" unicode="H" horiz-adv-x="1396" 
d="M1139 1352h290l-165 -1352h-291l69 568h-548l-70 -568h-290l165 1352h291l-67 -545h549z" />
    <glyph glyph-name="I" unicode="I" horiz-adv-x="552" 
d="M134 0l165 1352h286l-166 -1352h-285z" />
    <glyph glyph-name="J" unicode="J" horiz-adv-x="931" 
d="M202 335q63 -95 166 -95q92 0 141 46.5t62 151.5l112 914h291l-111 -910q-27 -221 -166 -337.5t-356 -116.5q-116 0 -200 44t-134 99z" />
    <glyph glyph-name="K" unicode="K" horiz-adv-x="1294" 
d="M1273 4q-54 -13 -150 -13q-85 0 -145.5 30.5t-92.5 79t-54 107t-38.5 117t-37.5 107t-59.5 79t-96.5 30.5h-108l-67 -541h-290l165 1352h291l-71 -583h107q61 0 109.5 14.5t96 53t83 103t64.5 168.5t46 244h282q-19 -153 -56.5 -272t-89 -198t-106 -129.5t-121.5 -85.5
q50 -35 82.5 -95t48.5 -118t34 -112t52.5 -87.5t89.5 -33.5h59z" />
    <glyph glyph-name="L" unicode="L" horiz-adv-x="1026" 
d="M453 239h580l-29 -239h-870l165 1352h291z" />
    <glyph glyph-name="M" unicode="M" horiz-adv-x="1685" 
d="M1718 1352l-166 -1352h-288l89 712q11 101 28 162l-6 3q-53 -121 -56 -127l-399 -759h-154l-218 766q-22 77 -22 120l-12 -3q6 -23 -10 -162l-85 -712h-285l165 1352h310l221 -717q53 -171 63 -238h7q13 41 122 239l392 716h304z" />
    <glyph glyph-name="N" unicode="N" horiz-adv-x="1382" 
d="M1414 1352l-166 -1352h-275l-326 652q-2 5 -121 251l-14 -6q6 -39 -18 -244l-78 -653h-282l165 1352h255l345 -683q67 -134 118 -257l14 6q-4 74 18 253l82 681h283z" />
    <glyph glyph-name="O" unicode="O" horiz-adv-x="1413" 
d="M873 1366q254 0 406 -161.5t152 -436.5q0 -175 -55.5 -322t-152 -247.5t-231 -156t-289.5 -55.5q-253 0 -404.5 161.5t-151.5 436.5q0 175 55.5 322t152.5 247.5t230.5 156t287.5 55.5zM734 239q172 0 287 139.5t115 369.5q0 170 -80.5 268t-213.5 98q-170 0 -285 -139.5
t-115 -369.5q0 -170 80 -268t212 -98z" />
    <glyph glyph-name="P" unicode="P" horiz-adv-x="1200" 
d="M773 1352q237 0 366.5 -105t129.5 -308q0 -132 -44.5 -237t-123 -171.5t-182.5 -101.5t-226 -35h-220l-49 -394h-290l165 1352h474zM666 623q146 0 226 74t80 210q0 101 -65 158t-191 57h-154l-61 -499h165z" />
    <glyph glyph-name="Q" unicode="Q" horiz-adv-x="1468" 
d="M1431 768q0 -272 -125.5 -465.5t-338.5 -270.5q179 -42 346 -51l-88 -222q-197 32 -320 80.5t-288 152.5q-217 28 -343.5 186t-126.5 407q0 175 55.5 322t152.5 247.5t230.5 156t287.5 55.5q254 0 406 -161.5t152 -436.5zM442 605q0 -170 80 -268t212 -98
q172 0 287 139.5t115 369.5q0 170 -80.5 268t-213.5 98q-170 0 -285 -139.5t-115 -369.5z" />
    <glyph glyph-name="R" unicode="R" horiz-adv-x="1236" 
d="M910 514q35 -18 60.5 -56t42 -77.5t35 -76.5t50 -61t76.5 -24l42 4l-10 -223q-54 -14 -149 -14q-82 0 -140 26.5t-89.5 68.5t-53.5 92.5t-39.5 101.5t-39 93t-61.5 68.5t-98 26.5h-55l-57 -463h-290l165 1352h447q474 0 474 -386q0 -168 -80 -282t-230 -170zM507 668h117
q137 0 222 67.5t85 189.5q0 96 -59.5 146.5t-170.5 50.5h-139z" />
    <glyph glyph-name="S" unicode="S" horiz-adv-x="1132" 
d="M910 948q4 65 -46.5 121.5t-149.5 56.5q-93 0 -148.5 -44.5t-55.5 -117.5q0 -39 26 -69t68 -48t96.5 -38t110.5 -38t110.5 -48.5t96.5 -68.5t68 -99.5t26 -139.5q0 -189 -143 -309t-406 -120q-97 0 -184 19.5t-149.5 51t-103 60t-69.5 57.5l197 209q32 -35 75.5 -68
t119 -63.5t152.5 -30.5q108 0 162.5 40t54.5 112q0 48 -33.5 83t-86.5 57t-117.5 42.5t-128.5 48t-117 64t-86.5 99.5t-33.5 147q0 191 148 321.5t374 130.5q99 0 177 -23.5t124.5 -59t78 -85t44.5 -94.5t16 -93z" />
    <glyph glyph-name="T" unicode="T" horiz-adv-x="1120" 
d="M415 0l136 1112h-392l29 240h1076l-29 -240h-393l-137 -1112h-290z" />
    <glyph glyph-name="U" unicode="U" horiz-adv-x="1333" 
d="M1087 1352h291l-100 -819q-31 -249 -199 -398t-412 -149q-248 0 -380 149t-101 398l101 819h291l-99 -817q-17 -140 43 -219t176 -79q114 0 193 79t96 217z" />
    <glyph glyph-name="V" unicode="V" horiz-adv-x="1220" 
d="M473 1352l152 -909q18 -113 20 -154h6q17 52 57 153l378 910h295l-613 -1352h-316l-279 1352h300z" />
    <glyph glyph-name="W" unicode="W" horiz-adv-x="1822" 
d="M1685 1352h294l-527 -1352h-330l-81 696q-11 102 -11 228h-6q-49 -172 -68 -228l-258 -696h-332l-189 1352h297l85 -909q2 -19 7.5 -80.5t6.5 -83.5h6l26.5 79.5t27.5 83.5l321 910h252l96 -910q13 -134 15 -163h7q5 17 53 164z" />
    <glyph glyph-name="X" unicode="X" horiz-adv-x="1222" 
d="M1372 1352l-477 -689l325 -663h-327l-171 387q-39 86 -44 127h-6q-37 -74 -76 -127l-279 -387h-301l467 658l-310 694h341l156 -414q36 -98 40 -121h6q9 23 74 121l279 414h303z" />
    <glyph glyph-name="Y" unicode="Y" horiz-adv-x="1175" 
d="M1337 1352l-541 -855l-61 -497h-291l60 491l-335 861h315l154 -454q37 -105 42 -168h6q29 82 81 168l266 454h304z" />
    <glyph glyph-name="Z" unicode="Z" horiz-adv-x="1150" 
d="M62 0l29 231l657 748q79 86 133 132l-4 8q-63 -7 -180 -7h-479l30 240h1002l-28 -231l-650 -748q-68 -75 -139 -133l5 -7q37 6 180 6h488l-29 -239h-1015z" />
    <glyph glyph-name="bracketleft" unicode="[" 
d="M207 403q-13 0 -19 -2v-200q4 -2 19 -2q37 0 50 25t13 77q0 54 -13 78t-50 24zM518 330v-49h-82v-78h96v-49h-155v297h155v-52h-96v-69h82zM203 150q-47 0 -74 4v292q61 9 76 9q67 0 96 -37.5t29 -116.5t-29.5 -115t-97.5 -36zM586 451h80l39 -164l38 164h82
q3 -45 13 -297h-60q0 108 -6 213l-41 -168h-55l-41 168h-2q-4 -140 -4 -213h-58q3 156 15 297zM987 150q-60 0 -84 35.5t-24 115.5q0 81 24 117.5t84 36.5t85.5 -37t25.5 -117q0 -79 -25.5 -115t-85.5 -36zM987 403q-29 0 -39 -23.5t-10 -78.5q0 -54 10 -78t39 -24
q30 0 40.5 24t10.5 78q0 55 -10 78.5t-41 23.5zM967 1016q49 0 79.5 -24.5t39 -51t8.5 -53.5q0 -43 -34.5 -72.5t-72.5 -34.5q-213 -23 -340 -147q3 8 9 22t25 53.5t39 75.5t50 80.5t59.5 76t66 53.5t71.5 22zM285 909q39 0 78 -21t69.5 -55t58.5 -74.5t48 -81.5t35 -75
t22 -55l8 -21q-117 148 -319 148q-49 0 -88 30t-39 76q0 53 33.5 91t93.5 38zM643 1214q38 -37 48.5 -102t-2.5 -131t-31.5 -126.5t-35.5 -98.5l-18 -39q20 191 -125 330q-35 35 -42 81.5t24 83.5q23 23 53 34t65 3.5t64 -35.5z" />
    <glyph glyph-name="backslash" unicode="\" 
d="M207 403q-13 0 -19 -2v-200q4 -2 19 -2q37 0 50 25t13 77q0 54 -13 78t-50 24zM518 330v-49h-82v-78h96v-49h-155v297h155v-52h-96v-69h82zM203 150q-47 0 -74 4v292q61 9 76 9q67 0 96 -37.5t29 -116.5t-29.5 -115t-97.5 -36zM586 451h80l39 -164l38 164h82
q3 -45 13 -297h-60q0 108 -6 213l-41 -168h-55l-41 168h-2q-4 -140 -4 -213h-58q3 156 15 297zM987 150q-60 0 -84 35.5t-24 115.5q0 81 24 117.5t84 36.5t85.5 -37t25.5 -117q0 -79 -25.5 -115t-85.5 -36zM987 403q-29 0 -39 -23.5t-10 -78.5q0 -54 10 -78t39 -24
q30 0 40.5 24t10.5 78q0 55 -10 78.5t-41 23.5zM967 1016q49 0 79.5 -24.5t39 -51t8.5 -53.5q0 -43 -34.5 -72.5t-72.5 -34.5q-213 -23 -340 -147q3 8 9 22t25 53.5t39 75.5t50 80.5t59.5 76t66 53.5t71.5 22zM285 909q39 0 78 -21t69.5 -55t58.5 -74.5t48 -81.5t35 -75
t22 -55l8 -21q-117 148 -319 148q-49 0 -88 30t-39 76q0 53 33.5 91t93.5 38zM643 1214q38 -37 48.5 -102t-2.5 -131t-31.5 -126.5t-35.5 -98.5l-18 -39q20 191 -125 330q-35 35 -42 81.5t24 83.5q23 23 53 34t65 3.5t64 -35.5z" />
    <glyph glyph-name="bracketright" unicode="]" 
d="M207 403q-13 0 -19 -2v-200q4 -2 19 -2q37 0 50 25t13 77q0 54 -13 78t-50 24zM518 330v-49h-82v-78h96v-49h-155v297h155v-52h-96v-69h82zM203 150q-47 0 -74 4v292q61 9 76 9q67 0 96 -37.5t29 -116.5t-29.5 -115t-97.5 -36zM586 451h80l39 -164l38 164h82
q3 -45 13 -297h-60q0 108 -6 213l-41 -168h-55l-41 168h-2q-4 -140 -4 -213h-58q3 156 15 297zM987 150q-60 0 -84 35.5t-24 115.5q0 81 24 117.5t84 36.5t85.5 -37t25.5 -117q0 -79 -25.5 -115t-85.5 -36zM987 403q-29 0 -39 -23.5t-10 -78.5q0 -54 10 -78t39 -24
q30 0 40.5 24t10.5 78q0 55 -10 78.5t-41 23.5zM967 1016q49 0 79.5 -24.5t39 -51t8.5 -53.5q0 -43 -34.5 -72.5t-72.5 -34.5q-213 -23 -340 -147q3 8 9 22t25 53.5t39 75.5t50 80.5t59.5 76t66 53.5t71.5 22zM285 909q39 0 78 -21t69.5 -55t58.5 -74.5t48 -81.5t35 -75
t22 -55l8 -21q-117 148 -319 148q-49 0 -88 30t-39 76q0 53 33.5 91t93.5 38zM643 1214q38 -37 48.5 -102t-2.5 -131t-31.5 -126.5t-35.5 -98.5l-18 -39q20 191 -125 330q-35 35 -42 81.5t24 83.5q23 23 53 34t65 3.5t64 -35.5z" />
    <glyph glyph-name="asciicircum" unicode="^" 
d="M207 403q-13 0 -19 -2v-200q4 -2 19 -2q37 0 50 25t13 77q0 54 -13 78t-50 24zM518 330v-49h-82v-78h96v-49h-155v297h155v-52h-96v-69h82zM203 150q-47 0 -74 4v292q61 9 76 9q67 0 96 -37.5t29 -116.5t-29.5 -115t-97.5 -36zM586 451h80l39 -164l38 164h82
q3 -45 13 -297h-60q0 108 -6 213l-41 -168h-55l-41 168h-2q-4 -140 -4 -213h-58q3 156 15 297zM987 150q-60 0 -84 35.5t-24 115.5q0 81 24 117.5t84 36.5t85.5 -37t25.5 -117q0 -79 -25.5 -115t-85.5 -36zM987 403q-29 0 -39 -23.5t-10 -78.5q0 -54 10 -78t39 -24
q30 0 40.5 24t10.5 78q0 55 -10 78.5t-41 23.5zM967 1016q49 0 79.5 -24.5t39 -51t8.5 -53.5q0 -43 -34.5 -72.5t-72.5 -34.5q-213 -23 -340 -147q3 8 9 22t25 53.5t39 75.5t50 80.5t59.5 76t66 53.5t71.5 22zM285 909q39 0 78 -21t69.5 -55t58.5 -74.5t48 -81.5t35 -75
t22 -55l8 -21q-117 148 -319 148q-49 0 -88 30t-39 76q0 53 33.5 91t93.5 38zM643 1214q38 -37 48.5 -102t-2.5 -131t-31.5 -126.5t-35.5 -98.5l-18 -39q20 191 -125 330q-35 35 -42 81.5t24 83.5q23 23 53 34t65 3.5t64 -35.5z" />
    <glyph glyph-name="underscore" unicode="_" 
d="M207 403q-13 0 -19 -2v-200q4 -2 19 -2q37 0 50 25t13 77q0 54 -13 78t-50 24zM518 330v-49h-82v-78h96v-49h-155v297h155v-52h-96v-69h82zM203 150q-47 0 -74 4v292q61 9 76 9q67 0 96 -37.5t29 -116.5t-29.5 -115t-97.5 -36zM586 451h80l39 -164l38 164h82
q3 -45 13 -297h-60q0 108 -6 213l-41 -168h-55l-41 168h-2q-4 -140 -4 -213h-58q3 156 15 297zM987 150q-60 0 -84 35.5t-24 115.5q0 81 24 117.5t84 36.5t85.5 -37t25.5 -117q0 -79 -25.5 -115t-85.5 -36zM987 403q-29 0 -39 -23.5t-10 -78.5q0 -54 10 -78t39 -24
q30 0 40.5 24t10.5 78q0 55 -10 78.5t-41 23.5zM967 1016q49 0 79.5 -24.5t39 -51t8.5 -53.5q0 -43 -34.5 -72.5t-72.5 -34.5q-213 -23 -340 -147q3 8 9 22t25 53.5t39 75.5t50 80.5t59.5 76t66 53.5t71.5 22zM285 909q39 0 78 -21t69.5 -55t58.5 -74.5t48 -81.5t35 -75
t22 -55l8 -21q-117 148 -319 148q-49 0 -88 30t-39 76q0 53 33.5 91t93.5 38zM643 1214q38 -37 48.5 -102t-2.5 -131t-31.5 -126.5t-35.5 -98.5l-18 -39q20 191 -125 330q-35 35 -42 81.5t24 83.5q23 23 53 34t65 3.5t64 -35.5z" />
    <glyph glyph-name="grave" unicode="`" 
d="M207 403q-13 0 -19 -2v-200q4 -2 19 -2q37 0 50 25t13 77q0 54 -13 78t-50 24zM518 330v-49h-82v-78h96v-49h-155v297h155v-52h-96v-69h82zM203 150q-47 0 -74 4v292q61 9 76 9q67 0 96 -37.5t29 -116.5t-29.5 -115t-97.5 -36zM586 451h80l39 -164l38 164h82
q3 -45 13 -297h-60q0 108 -6 213l-41 -168h-55l-41 168h-2q-4 -140 -4 -213h-58q3 156 15 297zM987 150q-60 0 -84 35.5t-24 115.5q0 81 24 117.5t84 36.5t85.5 -37t25.5 -117q0 -79 -25.5 -115t-85.5 -36zM987 403q-29 0 -39 -23.5t-10 -78.5q0 -54 10 -78t39 -24
q30 0 40.5 24t10.5 78q0 55 -10 78.5t-41 23.5zM967 1016q49 0 79.5 -24.5t39 -51t8.5 -53.5q0 -43 -34.5 -72.5t-72.5 -34.5q-213 -23 -340 -147q3 8 9 22t25 53.5t39 75.5t50 80.5t59.5 76t66 53.5t71.5 22zM285 909q39 0 78 -21t69.5 -55t58.5 -74.5t48 -81.5t35 -75
t22 -55l8 -21q-117 148 -319 148q-49 0 -88 30t-39 76q0 53 33.5 91t93.5 38zM643 1214q38 -37 48.5 -102t-2.5 -131t-31.5 -126.5t-35.5 -98.5l-18 -39q20 191 -125 330q-35 35 -42 81.5t24 83.5q23 23 53 34t65 3.5t64 -35.5z" />
    <glyph glyph-name="a" unicode="a" horiz-adv-x="1181" 
d="M1069 275q-4 -33 6.5 -47t37.5 -14q17 0 35 5l-15 -214q-62 -16 -138 -16q-106 0 -155 44t-47 133q-104 -178 -314 -178q-162 0 -262.5 112.5t-100.5 309.5q0 245 134 407t345 162q113 0 182 -52.5t96 -143.5h4q2 23 19 83t36 101h222zM576 223q87 0 151.5 65.5
t81.5 150.5l12 78l-2 -2q11 91 -39 160t-144 69q-102 0 -167.5 -84.5t-65.5 -218.5q0 -100 46.5 -159t126.5 -59z" />
    <glyph glyph-name="b" unicode="b" horiz-adv-x="1140" 
d="M792 979q156 0 254 -112t98 -308q0 -169 -66.5 -300.5t-177.5 -201t-246 -69.5q-110 0 -182 52.5t-103 142.5h-1q-6 -75 -46 -183h-216l178 1446h280l-76 -622q109 155 304 155zM625 223q103 0 168 84.5t65 220.5q0 101 -45.5 158.5t-128.5 57.5q-88 0 -153 -65.5
t-80 -149.5l-10 -86q-8 -88 42 -154t142 -66z" />
    <glyph glyph-name="c" unicode="c" horiz-adv-x="1001" 
d="M663 979q164 0 257 -86t93 -219q0 -28 -4.5 -55t-9.5 -39l-5 -13l-247 -14q11 29 11 64q0 58 -33 95t-95 37q-100 0 -165 -86t-65 -221q0 -104 51 -164.5t150 -60.5q93 0 160.5 36t103.5 76l113 -175q-56 -68 -166 -117t-257 -49q-209 0 -325.5 117.5t-116.5 310.5
q0 245 156.5 404t393.5 159z" />
    <glyph glyph-name="d" unicode="d" horiz-adv-x="1181" 
d="M1069 275q-4 -33 6.5 -47t37.5 -14q17 0 35 5l-15 -214q-62 -16 -138 -16q-110 0 -158.5 45.5t-43.5 138.5h-2q-110 -185 -324 -185q-163 0 -257 115.5t-94 302.5q0 132 40 241.5t108 181t156 111t185 39.5q183 0 255 -130l73 597h279zM576 223q89 0 156.5 69.5
t78.5 158.5l10 77q6 85 -43.5 150.5t-141.5 65.5q-102 0 -168 -85.5t-66 -220.5q0 -98 46.5 -156.5t127.5 -58.5z" />
    <glyph glyph-name="e" unicode="e" horiz-adv-x="1028" 
d="M656 979q179 0 278.5 -109t99.5 -286q0 -41 -7 -82t-13 -62l-7 -20h-616q7 -99 65 -159t163 -60q142 0 252 110l111 -154q-57 -71 -167.5 -120t-254.5 -49q-210 0 -327.5 118t-117.5 313q0 159 68.5 287t192.5 200.5t280 72.5zM630 765q-80 0 -141 -52.5t-85 -147.5h376
q0 3 0.5 11t0.5 13q0 78 -40 127t-111 49z" />
    <glyph glyph-name="f" unicode="f" horiz-adv-x="776" 
d="M775 1222q-72 0 -120 -48.5t-58 -130.5l-10 -76h288l-26 -213h-288l-92 -754h-279l92 754h-138l26 213h138l9 72q24 193 149.5 306t302.5 113q59 0 112 -12t75 -22t29 -16l-106 -225q-1 1 -8.5 6.5t-15.5 10t-20 10t-27.5 9t-32.5 3.5z" />
    <glyph glyph-name="g" unicode="g" horiz-adv-x="1140" 
d="M932 967h222l-114 -929q-26 -212 -185.5 -341.5t-399.5 -129.5q-251 0 -404 114l138 210q116 -100 288 -100q113 0 190 60.5t91 177.5l15 116q-104 -136 -291 -136q-164 0 -264.5 108.5t-100.5 303.5q0 245 132.5 401.5t345.5 156.5q113 0 182 -52.5t95 -143.5h5
q2 23 19 83t36 101zM581 245q86 0 149.5 65t80.5 148l9 76q5 86 -44 148t-138 62q-102 0 -168 -81t-66 -207q0 -96 47.5 -153.5t129.5 -57.5z" />
    <glyph glyph-name="h" unicode="h" horiz-adv-x="1155" 
d="M1090 214q16 0 36 5l-16 -216q-53 -16 -161 -16q-111 0 -156.5 57t-34.5 153l41 347q11 90 -23.5 141.5t-112.5 51.5q-85 0 -140 -64t-72 -154l-64 -519h-281l178 1446h276l-78 -637h6q101 170 299 170q113 0 186.5 -51t100.5 -136.5t13 -197.5l-41 -328q-6 -52 44 -52z
" />
    <glyph glyph-name="i" unicode="i" horiz-adv-x="518" 
d="M582 1294q0 -82 -61 -136.5t-144 -54.5q-69 0 -114 43t-45 111q0 82 60 138t143 56q70 0 115.5 -44.5t45.5 -112.5zM504 975l-90 -726q-4 -36 33 -36q18 0 34 4l-17 -214q-53 -16 -149 -16q-212 0 -189 200l96 780z" />
    <glyph glyph-name="j" unicode="j" horiz-adv-x="509" 
d="M610 1305q0 -82 -60 -137t-144 -55q-69 0 -114 43.5t-45 111.5q0 82 60 138t142 56q70 0 115.5 -44.5t45.5 -112.5zM-121 -169q28 -23 81 -23q139 0 160 183l120 976l281 8l-119 -976q-24 -201 -131.5 -314t-300.5 -113q-41 0 -76 6.5t-56 16t-36.5 19t-21.5 16.5l-6 6z
" />
    <glyph glyph-name="k" unicode="k" horiz-adv-x="1101" 
d="M1106 897q-6 -94 -30 -175.5t-78.5 -157.5t-135.5 -120l242 -444h-332l-199 385h-139l-48 -385h-280l178 1446h280l-103 -841h111q123 0 195 83t72 235q0 7 -0.5 23t-0.5 21h269q0 -55 -1 -70z" />
    <glyph glyph-name="l" unicode="l" horiz-adv-x="493" 
d="M107 0l178 1446h280l-178 -1446h-280z" />
    <glyph glyph-name="m" unicode="m" horiz-adv-x="1753" 
d="M1689 214q15 0 38 5l-17 -216q-59 -16 -161 -16q-111 0 -157 57t-35 153l42 345q11 90 -22.5 141.5t-110.5 51.5q-84 0 -136 -65.5t-67 -158.5l-63 -511h-281l66 542q12 90 -21.5 141.5t-110.5 51.5q-86 0 -138.5 -67t-66.5 -161l-62 -507h-280l119 967l223 8
q8 -41 10.5 -107.5t-1.5 -94.5h6q99 204 314 204q120 0 193.5 -57.5t96.5 -158.5q101 216 322 216q166 0 242 -106.5t55 -278.5l-40 -326q-6 -52 43 -52z" />
    <glyph glyph-name="n" unicode="n" horiz-adv-x="1153" 
d="M1089 214q16 0 36 5l-16 -216q-53 -16 -160 -16q-111 0 -157 57t-35 153l41 347q11 89 -23.5 141t-111.5 52q-86 0 -142 -66t-72 -159l-63 -512h-280l119 967l223 8q18 -105 9 -202h7q107 206 324 206q167 0 243 -107t55 -278l-41 -328q-6 -52 44 -52z" />
    <glyph glyph-name="o" unicode="o" horiz-adv-x="1097" 
d="M670 979q199 0 316 -120t117 -315q0 -242 -156.5 -399t-399.5 -157q-199 0 -316 119.5t-117 313.5q0 241 157 399.5t399 158.5zM575 218q109 0 176 86.5t67 222.5q0 101 -47 161.5t-130 60.5q-108 0 -174.5 -88t-66.5 -223q0 -100 46 -160t129 -60z" />
    <glyph glyph-name="p" unicode="p" horiz-adv-x="1140" 
d="M793 979q164 0 258 -116t94 -305q0 -131 -39 -240t-106 -180.5t-156 -110.5t-189 -39q-182 0 -254 132l-66 -538h-280l170 1385l224 8q8 -41 10.5 -108t-1.5 -84h7q106 196 328 196zM625 223q102 0 167 84.5t65 218.5q0 101 -46 159.5t-127 58.5q-86 0 -152 -66t-81 -154
l-11 -90q-2 -85 46 -148t139 -63z" />
    <glyph glyph-name="q" unicode="q" horiz-adv-x="1140" 
d="M932 967h222l-170 -1385h-280l67 542q-104 -136 -292 -136q-162 0 -262.5 112.5t-100.5 309.5q0 245 134 407t345 162q113 0 182.5 -52.5t94.5 -143.5h5q2 23 19 83t36 101zM576 223q89 0 153.5 66.5t80.5 151.5l9 81q10 89 -40 155.5t-143 66.5q-102 0 -167.5 -84.5
t-65.5 -218.5q0 -100 46.5 -159t126.5 -59z" />
    <glyph glyph-name="r" unicode="r" horiz-adv-x="755" 
d="M738 979q73 0 135 -28l-107 -272q-44 36 -105 36q-77 0 -137 -60t-78 -169l-60 -486h-280l119 967l223 8q8 -44 9.5 -114.5t-2.5 -98.5h6q89 217 277 217z" />
    <glyph glyph-name="s" unicode="s" horiz-adv-x="948" 
d="M692 629q10 23 10 52q0 50 -33.5 79.5t-94.5 29.5q-69 0 -107 -30.5t-38 -78.5q0 -35 27 -58t71 -35.5t96.5 -23.5t105 -27.5t96.5 -42t71 -72.5t27 -113q0 -146 -120 -233.5t-326 -87.5q-99 0 -181.5 18.5t-131.5 47t-71 46t-35 32.5l150 170q21 -27 106 -72.5
t175 -45.5q71 0 108 22t37 62q0 28 -26 48t-67.5 33t-91.5 26.5t-100 33t-91.5 47t-67.5 75t-26 110.5q0 154 122.5 246t321.5 92q157 0 254 -69t97 -178q0 -22 -4.5 -44t-8.5 -33l-5 -11z" />
    <glyph glyph-name="t" unicode="t" horiz-adv-x="837" 
d="M550 754l-42 -342q-11 -97 19 -142t106 -45q41 0 79.5 13t56.5 26l18 13l52 -219q-12 -8 -35 -19.5t-99 -31t-157 -19.5q-183 0 -265.5 103.5t-57.5 308.5l44 354h-142l26 213h153l32 271l272 10l-34 -281h322l-26 -213h-322z" />
    <glyph glyph-name="u" unicode="u" horiz-adv-x="1136" 
d="M1024 275q-4 -33 7 -47t37 -14q17 0 35 5l-16 -214q-60 -16 -136 -16q-108 0 -157 44.5t-46 135.5h-4q-100 -181 -303 -181q-167 0 -243.5 107t-54.5 278l73 594h281l-66 -544q-12 -89 22.5 -141t111.5 -52q82 0 136 71t67 164l61 502h281z" />
    <glyph glyph-name="v" unicode="v" horiz-adv-x="1050" 
d="M871 967h280l-469 -967h-314l-233 967h301l114 -573q13 -66 13 -128h6q23 75 44 128z" />
    <glyph glyph-name="w" unicode="w" horiz-adv-x="1523" 
d="M1333 967h285l-384 -967h-322l-65 491q-7 55 -5 108h-7q-14 -62 -31 -108l-189 -491h-319l-154 967h289l57 -573q9 -95 8 -128h7q15 48 43 128l215 571v2h247l73 -570q7 -59 10 -131h7q14 56 40 131z" />
    <glyph glyph-name="x" unicode="x" horiz-adv-x="1007" 
d="M1114 967l-397 -489l284 -478h-299l-122 229q-32 62 -35 83h-6q-6 -19 -54 -83l-175 -229h-301l405 491l-282 476h305l107 -212q40 -87 41 -106h6q6 21 62 106l153 212h308z" />
    <glyph glyph-name="y" unicode="y" horiz-adv-x="1097" 
d="M829 967h281l-115 -931q-26 -213 -178.5 -341t-388.5 -128q-227 0 -380 114l136 197q119 -98 256 -98q124 0 201 69t92 191l16 131h-5q-103 -183 -303 -183q-167 0 -243.5 107t-54.5 278l73 594l281 1l-66 -545q-12 -89 22.5 -141t111.5 -52q78 0 131.5 65.5t69.5 154.5z
" />
    <glyph glyph-name="z" unicode="z" horiz-adv-x="935" 
d="M59 0l25 202l505 500q46 45 55 51l-2 6q-33 -5 -112 -5h-365l26 213h795l-26 -202l-483 -487q-27 -28 -65 -64l2 -6q32 5 107 5h384l-26 -213h-820z" />
    <glyph glyph-name="braceleft" unicode="{" 
d="M207 403q-13 0 -19 -2v-200q4 -2 19 -2q37 0 50 25t13 77q0 54 -13 78t-50 24zM518 330v-49h-82v-78h96v-49h-155v297h155v-52h-96v-69h82zM203 150q-47 0 -74 4v292q61 9 76 9q67 0 96 -37.5t29 -116.5t-29.5 -115t-97.5 -36zM586 451h80l39 -164l38 164h82
q3 -45 13 -297h-60q0 108 -6 213l-41 -168h-55l-41 168h-2q-4 -140 -4 -213h-58q3 156 15 297zM987 150q-60 0 -84 35.5t-24 115.5q0 81 24 117.5t84 36.5t85.5 -37t25.5 -117q0 -79 -25.5 -115t-85.5 -36zM987 403q-29 0 -39 -23.5t-10 -78.5q0 -54 10 -78t39 -24
q30 0 40.5 24t10.5 78q0 55 -10 78.5t-41 23.5zM967 1016q49 0 79.5 -24.5t39 -51t8.5 -53.5q0 -43 -34.5 -72.5t-72.5 -34.5q-213 -23 -340 -147q3 8 9 22t25 53.5t39 75.5t50 80.5t59.5 76t66 53.5t71.5 22zM285 909q39 0 78 -21t69.5 -55t58.5 -74.5t48 -81.5t35 -75
t22 -55l8 -21q-117 148 -319 148q-49 0 -88 30t-39 76q0 53 33.5 91t93.5 38zM643 1214q38 -37 48.5 -102t-2.5 -131t-31.5 -126.5t-35.5 -98.5l-18 -39q20 191 -125 330q-35 35 -42 81.5t24 83.5q23 23 53 34t65 3.5t64 -35.5z" />
    <glyph glyph-name="bar" unicode="|" 
d="M207 403q-13 0 -19 -2v-200q4 -2 19 -2q37 0 50 25t13 77q0 54 -13 78t-50 24zM518 330v-49h-82v-78h96v-49h-155v297h155v-52h-96v-69h82zM203 150q-47 0 -74 4v292q61 9 76 9q67 0 96 -37.5t29 -116.5t-29.5 -115t-97.5 -36zM586 451h80l39 -164l38 164h82
q3 -45 13 -297h-60q0 108 -6 213l-41 -168h-55l-41 168h-2q-4 -140 -4 -213h-58q3 156 15 297zM987 150q-60 0 -84 35.5t-24 115.5q0 81 24 117.5t84 36.5t85.5 -37t25.5 -117q0 -79 -25.5 -115t-85.5 -36zM987 403q-29 0 -39 -23.5t-10 -78.5q0 -54 10 -78t39 -24
q30 0 40.5 24t10.5 78q0 55 -10 78.5t-41 23.5zM967 1016q49 0 79.5 -24.5t39 -51t8.5 -53.5q0 -43 -34.5 -72.5t-72.5 -34.5q-213 -23 -340 -147q3 8 9 22t25 53.5t39 75.5t50 80.5t59.5 76t66 53.5t71.5 22zM285 909q39 0 78 -21t69.5 -55t58.5 -74.5t48 -81.5t35 -75
t22 -55l8 -21q-117 148 -319 148q-49 0 -88 30t-39 76q0 53 33.5 91t93.5 38zM643 1214q38 -37 48.5 -102t-2.5 -131t-31.5 -126.5t-35.5 -98.5l-18 -39q20 191 -125 330q-35 35 -42 81.5t24 83.5q23 23 53 34t65 3.5t64 -35.5z" />
    <glyph glyph-name="braceright" unicode="}" 
d="M207 403q-13 0 -19 -2v-200q4 -2 19 -2q37 0 50 25t13 77q0 54 -13 78t-50 24zM518 330v-49h-82v-78h96v-49h-155v297h155v-52h-96v-69h82zM203 150q-47 0 -74 4v292q61 9 76 9q67 0 96 -37.5t29 -116.5t-29.5 -115t-97.5 -36zM586 451h80l39 -164l38 164h82
q3 -45 13 -297h-60q0 108 -6 213l-41 -168h-55l-41 168h-2q-4 -140 -4 -213h-58q3 156 15 297zM987 150q-60 0 -84 35.5t-24 115.5q0 81 24 117.5t84 36.5t85.5 -37t25.5 -117q0 -79 -25.5 -115t-85.5 -36zM987 403q-29 0 -39 -23.5t-10 -78.5q0 -54 10 -78t39 -24
q30 0 40.5 24t10.5 78q0 55 -10 78.5t-41 23.5zM967 1016q49 0 79.5 -24.5t39 -51t8.5 -53.5q0 -43 -34.5 -72.5t-72.5 -34.5q-213 -23 -340 -147q3 8 9 22t25 53.5t39 75.5t50 80.5t59.5 76t66 53.5t71.5 22zM285 909q39 0 78 -21t69.5 -55t58.5 -74.5t48 -81.5t35 -75
t22 -55l8 -21q-117 148 -319 148q-49 0 -88 30t-39 76q0 53 33.5 91t93.5 38zM643 1214q38 -37 48.5 -102t-2.5 -131t-31.5 -126.5t-35.5 -98.5l-18 -39q20 191 -125 330q-35 35 -42 81.5t24 83.5q23 23 53 34t65 3.5t64 -35.5z" />
    <glyph glyph-name="asciitilde" unicode="~" 
d="M207 403q-13 0 -19 -2v-200q4 -2 19 -2q37 0 50 25t13 77q0 54 -13 78t-50 24zM518 330v-49h-82v-78h96v-49h-155v297h155v-52h-96v-69h82zM203 150q-47 0 -74 4v292q61 9 76 9q67 0 96 -37.5t29 -116.5t-29.5 -115t-97.5 -36zM586 451h80l39 -164l38 164h82
q3 -45 13 -297h-60q0 108 -6 213l-41 -168h-55l-41 168h-2q-4 -140 -4 -213h-58q3 156 15 297zM987 150q-60 0 -84 35.5t-24 115.5q0 81 24 117.5t84 36.5t85.5 -37t25.5 -117q0 -79 -25.5 -115t-85.5 -36zM987 403q-29 0 -39 -23.5t-10 -78.5q0 -54 10 -78t39 -24
q30 0 40.5 24t10.5 78q0 55 -10 78.5t-41 23.5zM967 1016q49 0 79.5 -24.5t39 -51t8.5 -53.5q0 -43 -34.5 -72.5t-72.5 -34.5q-213 -23 -340 -147q3 8 9 22t25 53.5t39 75.5t50 80.5t59.5 76t66 53.5t71.5 22zM285 909q39 0 78 -21t69.5 -55t58.5 -74.5t48 -81.5t35 -75
t22 -55l8 -21q-117 148 -319 148q-49 0 -88 30t-39 76q0 53 33.5 91t93.5 38zM643 1214q38 -37 48.5 -102t-2.5 -131t-31.5 -126.5t-35.5 -98.5l-18 -39q20 191 -125 330q-35 35 -42 81.5t24 83.5q23 23 53 34t65 3.5t64 -35.5z" />
    </font>
</defs>
</svg>
