<?xml version="1.0" standalone="no"?>
<!DOCTYPE svg PUBLIC "-//W3C//DTD SVG 1.1//EN" "http://www.w3.org/Graphics/SVG/1.1/DTD/svg11.dtd" >
<svg xmlns="http://www.w3.org/2000/svg" xmlns:xlink="http://www.w3.org/1999/xlink" version="1.1">
<metadata>
Created by FontForge 20201107 at Mon Nov 16 14:49:35 2020
 By 
Copyright (c) 2020 by Elena Genova. All rights reserved.
</metadata>
<defs>
<font id="RocaTwo-Th" horiz-adv-x="0" >
  <font-face 
    font-family="RocaTwo-Th"
    font-weight="400"
    font-stretch="normal"
    units-per-em="1000"
    panose-1="0 0 2 0 0 0 0 0 0 0"
    ascent="770"
    descent="-230"
    x-height="480"
    cap-height="700"
    bbox="-763 -440 1343 929"
    underline-thickness="50"
    underline-position="-100"
    unicode-range="U+0020-E0F8"
  />
<missing-glyph horiz-adv-x="450" 
d="M369 700v-900h-285v900h285zM150 -16h150v102h-150v-102zM150 -66h63l-63 -42v-30h150v30h-92l63 42h29v30h-150v-30zM150 140h150v102h-90v-50h30v20h30v-42h-90v72h-30v-102zM150 430h150v31h-60v63h-90v-94zM150 547h150v30h-60v33h60v30h-149v-30h59v-33h-60v-30z
M150 313h90v63h60v30h-150v-30h60v-33h-60v-30zM150 262h150v90h-30v-60h-120v-30zM270 57v-43h-90v43h90zM180 493h30v-32h-30v32z" />
    <glyph glyph-name="f_f" unicode="ff" horiz-adv-x="634" 
d="M552 710q51 0 78 -30t27 -68q0 -17 -10.5 -30.5t-28.5 -13.5q-28 0 -36 30q-9 39 -23.5 55t-42.5 16q-31 0 -52 -26.5t-21 -79.5q0 -83 16 -83h120q29 0 32 -9q1 -4 0 -10q-5 -21 -35 -21l-117 1v-315q0 -35 10 -56t22.5 -26.5t22.5 -11.5t10 -16q0 -16 -36 -16h-102
q-36 0 -36 16q0 8 7.5 14t16.5 12.5t16.5 28t7.5 55.5v316l-227 3v-319q0 -35 10 -56t22.5 -26.5t22.5 -11.5t10 -16q0 -16 -36 -16h-102q-36 0 -36 16q0 8 7.5 14t16.5 12.5t16.5 28t7.5 55.5v320h-30h-4q-24 2 -24 14v4q2 16 27 16h31q0 230 154 230q51 0 78 -30t27 -68
q0 -17 -10.5 -30.5t-28.5 -13.5q-28 0 -36 30q-9 39 -23.5 55t-42.5 16q-31 0 -52 -26.5t-21 -79.5q0 -83 16 -83h227q0 230 154 230z" />
    <glyph glyph-name="fl" unicode="fl" horiz-adv-x="570" 
d="M474 693l-1 -138v-428q0 -33 7 -54t15.5 -27.5t15.5 -13.5t7 -16q0 -16 -36 -16h-84q-36 0 -36 16q0 9 7.5 16t16.5 13.5t16.5 27.5t7.5 54l-1 396q0 151 -119 151q-32 0 -54.5 -13t-35 -31.5t-19.5 -47t-8.5 -51t-1.5 -51.5h126q29 0 32 -9q1 -4 0 -10q-5 -23 -35 -21
l-123 3v-317q0 -35 10 -56t22.5 -26.5t22.5 -11.5t10 -16q0 -16 -36 -16h-102q-36 0 -36 16q0 8 7.5 14t16.5 12.5t16.5 28t7.5 55.5v319l-30 1h-4q-24 2 -24 14v4q2 16 27 16h31q4 99 53 164.5t139 65.5q61 0 96 -21q43 20 58 21q18 2 18 -17z" />
    <glyph glyph-name=".notdef" horiz-adv-x="450" 
d="M369 700v-900h-285v900h285zM150 -16h150v102h-150v-102zM150 -66h63l-63 -42v-30h150v30h-92l63 42h29v30h-150v-30zM150 140h150v102h-90v-50h30v20h30v-42h-90v72h-30v-102zM150 430h150v31h-60v63h-90v-94zM150 547h150v30h-60v33h60v30h-149v-30h59v-33h-60v-30z
M150 313h90v63h60v30h-150v-30h60v-33h-60v-30zM150 262h150v90h-30v-60h-120v-30zM270 57v-43h-90v43h90zM180 493h30v-32h-30v32z" />
    <glyph glyph-name=".null" 
 />
    <glyph glyph-name="uni000D" horiz-adv-x="333" 
 />
    <glyph glyph-name="space" unicode=" " horiz-adv-x="200" 
 />
    <glyph glyph-name="exclam" unicode="!" horiz-adv-x="245" 
d="M87 695q14 15 35 15t35.5 -15t14.5 -39q0 -14 -18 -145t-24 -254q-2 -11 -8 -11t-8 11q-6 123 -23.5 253.5t-17.5 145.5q0 24 14 39zM93 71q15 14 34 14t32 -12t13 -34t-14 -35q-15 -14 -35 -14t-33 11.5t-13 32.5q0 22 16 37z" />
    <glyph glyph-name="quotedbl" unicode="&#x22;" horiz-adv-x="372" 
d="M254 710q16 0 26 -11.5t10 -31.5q0 -6 -4 -42.5t-9 -81t-7 -60.5q-4 -20 -16 -20q-15 0 -17 20q-20 140 -20 183q0 44 37 44zM82 666q0 44 37 44q36 0 36 -43q0 -16 -20 -184q-4 -20 -16 -20q-5 0 -8 1.5t-5 5t-2.5 5.5t-1.5 8q-20 168 -20 183z" />
    <glyph glyph-name="numbersign" unicode="#" horiz-adv-x="713" 
d="M29 234q0 20 20 20h127l39 159h-146q-20 0 -20 20v1q0 20 20 20h157l56 229q5 17 22 17q19 0 19 -15q0 -3 -1 -7l-55 -224h169l56 229q5 17 22 17q19 0 19 -15q0 -3 -1 -7l-55 -224h151q20 0 20 -20v-1q0 -20 -20 -20h-161l-40 -159h181q20 0 20 -20v-1q0 -20 -20 -20
h-191l-48 -196q-5 -17 -22 -17q-19 0 -19 15q0 3 1 7l47 191h-169l-48 -196q-5 -17 -22 -17q-19 0 -19 15q0 3 1 7l47 191h-117q-20 0 -20 20v1zM386 254l39 159h-168l-40 -159h169z" />
    <glyph glyph-name="dollar" unicode="$" horiz-adv-x="517" 
d="M50 156q4 7 13 7q13 0 25 -23q13 -23 23 -37t31 -35t50.5 -32t67.5 -11h4q66 0 103 33t41 84v7q0 13 -3 26t-13 25.5t-18.5 21t-27.5 18.5t-29 15t-34 15.5t-33 14.5q-5 2 -31.5 14.5t-34.5 16.5t-31 16.5t-32 20.5t-25 22.5t-23 28t-12.5 31.5t-5.5 38q0 57 47 99.5
t136 47.5v38q0 11 4.5 14.5t13.5 3.5t13.5 -3.5t4.5 -14.5v-39q14 0 39 -3.5t37 -3.5q10 0 20 4t16 4q12 0 16 -7.5t12 -39.5q2 -11 8 -36.5t8 -36.5q2 -6 2 -10q0 -13 -13 -13q-11 0 -33 26q-67 81 -151 81q-59 0 -92 -26.5t-33 -66.5q0 -25 10.5 -44.5t39 -37.5
t43.5 -25.5t60 -27.5q11 -5 38 -18t40.5 -20t36 -20.5t35 -25t26 -28t20.5 -36t8 -41.5v-9q0 -67 -55 -113.5t-138 -53.5v-54q0 -18 -18 -18t-18 18v53q-32 1 -64.5 4.5t-43.5 3.5q-9 0 -19 -4t-16 -4q-22 0 -31 49q-1 6 -4.5 23.5t-6.5 37.5t-5 38q-1 3 -1 6q0 7 3 12z" />
    <glyph glyph-name="percent" unicode="%" horiz-adv-x="890" 
d="M480 178q0 84 45.5 139.5t115.5 55.5q67 0 110 -53t43 -133q0 -86 -44.5 -141t-114.5 -55q-68 0 -111.5 53t-43.5 134zM111 655q45 55 115 55q67 0 110 -52.5t43 -133.5q0 -86 -44.5 -141t-114.5 -55q-68 0 -111 53t-43 134q0 84 45 140zM545 216q0 -87 28.5 -141
t73.5 -54q38 0 60.5 37t22.5 95q0 85 -26.5 137.5t-71.5 52.5q-39 0 -63 -35t-24 -92zM159 413q28 -54 73 -54q38 0 60.5 36t22.5 95q0 86 -26 138t-71 52q-40 0 -63.5 -35t-23.5 -92q0 -86 28 -140zM171 20l474 681q5 9 12 9q5 0 10 -5l4 -2q8 -7 8 -13q0 -5 -4 -10
l-475 -679q-5 -8 -12 -8q-5 0 -10 4l-2 1q-8 5 -8 12q0 5 3 10z" />
    <glyph glyph-name="ampersand" unicode="&#x26;" horiz-adv-x="793" 
d="M36 246q0 70 41.5 124t100.5 83q-59 36 -59 111q0 61 53.5 104.5t131.5 43.5t122 -42q11 -11 11 -21q0 -1 -0.5 -6.5t-5.5 -6.5t-7 -1q-8 0 -17 5q-48 32 -102 32q-50 0 -83 -26.5t-33 -70.5q0 -66 43 -101q17 3 32 3q20 0 40.5 -7t20.5 -23q0 -26 -18 -28.5t-23 -2.5
q-29 0 -68 20q-100 -58 -100 -181q0 -90 72.5 -157t189.5 -67q58 0 101 18.5t65 47.5t31.5 57t9.5 55q0 120 -92 120q-44 0 -64.5 -30.5t-20.5 -74.5q0 -9 -7 -9h-1q-13 0 -18 25l-1 15q0 57 57 97q23 15 71.5 36.5t50.5 22.5q73 37 100.5 70.5t27.5 80.5q0 45 -44 45
q-16 0 -40 -12q-5 -2 -9 -2q-6 0 -10.5 3.5t-4.5 7.5q0 6 10 15q26 23 72 23q40 -1 65 -23.5t25 -57.5q0 -38 -19.5 -71t-54.5 -58.5t-69.5 -43t-78.5 -35.5q59 -12 93 -51.5t34 -87.5q0 -32 -15 -67.5t-47 -71.5t-94 -59q-63 -24 -146 -24t-147.5 23t-100.5 61t-53.5 81
t-17.5 89z" />
    <glyph glyph-name="quotesingle" unicode="'" horiz-adv-x="238" 
d="M119 710q36 0 36 -43q0 -16 -20 -184q-4 -20 -16 -20q-5 0 -8 1.5t-5 5t-2.5 5.5t-1.5 8q-20 168 -20 183q0 44 37 44z" />
    <glyph glyph-name="parenleft" unicode="(" horiz-adv-x="374" 
d="M141 592q75 111 195 180q9 5 16 5q6 0 10 -4q3 -4 3 -9q0 -2 -1.5 -7.5t-8.5 -10.5q-207 -151 -207 -415q0 -255 212 -421q13 -8 13 -17q0 -5 -4 -10q-4 -6 -9.5 -6.5t-6.5 -0.5q-9 0 -15 4q-118 63 -195.5 178.5t-77.5 275.5q0 147 76 258z" />
    <glyph glyph-name="parenright" unicode=")" horiz-adv-x="374" 
d="M17 -90q212 166 212 421q0 264 -207 415q-7 5 -8.5 10.5t-1.5 7.5q0 5 3 9q4 4 10 4q7 0 16 -5q120 -69 195.5 -180t75.5 -258q0 -160 -77.5 -275.5t-195.5 -178.5q-6 -4 -15 -4q-1 0 -6.5 0.5t-9.5 6.5q-4 5 -4 10q0 9 13 17z" />
    <glyph glyph-name="asterisk" unicode="*" horiz-adv-x="498" 
d="M50 553q6 17 18 22t21 6q9 -1 18 -4q15 -5 46.5 -34t35.5 -32q12 -9 23 -9q9 0 20 7.5t11 24.5q0 6 -2 13q-3 10 -18.5 47t-15.5 53q0 19 12.5 32t29.5 13t29.5 -13t12.5 -32q0 -16 -16.5 -55t-18.5 -45q-2 -7 -2 -13q0 -17 11 -24.5t20 -7.5q11 0 23 9q9 7 25.5 23
t30.5 27.5t26 15.5q9 3 18 4q9 -1 21 -6t18 -22q3 -8 3 -16t-6 -20t-25 -19q-3 -5 -25 -5q-11 0 -37.5 2t-39.5 2h-5q-27 -1 -30.5 -14.5t-3.5 -17.5q0 -17 18 -29q6 -4 42.5 -22.5t47.5 -32.5q11 -15 11 -31q0 -1 -0.5 -10.5t-14.5 -21.5q-11 -9 -25 -9q-3 0 -13 1t-23 17
q-11 13 -24 54.5t-19 52.5q-11 21 -29 21q-1 0 -10.5 -0.5t-20.5 -21.5q-7 -14 -19 -53.5t-23 -52.5q-13 -16 -23 -17t-13 -1q-14 0 -25 9q-14 12 -14.5 21.5t-0.5 10.5q0 16 11 31q10 13 48.5 32.5t43.5 22.5q16 12 16 28q0 5 -3.5 18.5t-30.5 14.5h-6q-14 0 -40 -2t-37 -2
q-21 0 -24 5q-19 7 -25 19t-6 20t3 16z" />
    <glyph glyph-name="plus" unicode="+" horiz-adv-x="427" 
d="M32 379v-3q2 18 9 24t25 6h119v123q0 17 6 23.5t23 6.5q16 0 22 -6.5t6 -23.5v-123h127q18 0 22.5 -5t4.5 -16q0 -4 -1 -9v3q-1 -18 -8 -24t-25 -6h-120v-123q0 -17 -6 -23.5t-22 -6.5q-17 0 -23 6.5t-6 23.5v123h-127q-18 0 -22.5 5t-4.5 16q0 4 1 9z" />
    <glyph glyph-name="comma" unicode="," horiz-adv-x="255" 
d="M94 72q14 13 33 13q51 0 51 -64q0 -63 -30.5 -107.5t-52.5 -44.5q-12 0 -12 11q0 3 19.5 31t19.5 47q0 13 -21.5 34t-21.5 44q0 22 15 36z" />
    <glyph glyph-name="hyphen" unicode="-" horiz-adv-x="340" 
d="M44 290l1 7q2 10 13 10h223q10 0 10 -10v-4l-1 -8q-2 -10 -13 -10h-223q-10 0 -10 11v4z" />
    <glyph glyph-name="period" unicode="." horiz-adv-x="245" 
d="M77 34q0 22 15.5 36.5t34.5 14.5t32 -12t13 -34t-14 -35q-15 -14 -35 -14t-33 11.5t-13 32.5z" />
    <glyph glyph-name="slash" unicode="/" horiz-adv-x="369" 
d="M32 -81l252 807q4 14 18 14h13q8 0 12 -5t4 -10q0 -2 -1 -4l-252 -807q-4 -14 -18 -14h-14q-7 0 -10.5 5.5t-3.5 10.5v3z" />
    <glyph glyph-name="zero" unicode="0" horiz-adv-x="603" 
d="M124 615q64 95 169 95q111 0 180.5 -101.5t69.5 -270.5q0 -159 -63.5 -253.5t-167.5 -94.5q-114 0 -183 101t-69 270q0 159 64 254zM139 386q0 -88 19 -169.5t61 -140t99 -58.5q38 0 68 27t47 71t25.5 95t8.5 105q0 86 -19.5 167t-62 138.5t-98.5 57.5q-40 0 -70 -26
t-46.5 -70t-24 -93.5t-7.5 -103.5z" />
    <glyph glyph-name="one" unicode="1" horiz-adv-x="311" 
d="M65 659q0 5 3 8t18.5 10t46.5 19q47 13 56 14h3q6 0 10 -3t4 -14v-573q0 -28 7 -48t15.5 -27.5t15.5 -15t7 -14.5q0 -15 -42 -15h-88q-25 0 -33.5 3t-8.5 12q0 7 10.5 15t22.5 15.5t22.5 27t10.5 47.5v455q0 28 -8.5 42.5t-36.5 20.5q-35 8 -35 21z" />
    <glyph glyph-name="two" unicode="2" horiz-adv-x="583" 
d="M59 48q57 49 93 81.5t91 88t87.5 98.5t57.5 94t25 92q0 68 -40 108t-106 40q-93 0 -162 -98q-6 -10 -14 -10q-4 0 -9.5 2.5t-5.5 10.5q0 4 3 10q27 62 84 103.5t131 41.5q88 0 140 -55t52 -137v-6q-1 -51 -21 -98.5t-69 -104t-104.5 -108t-152.5 -134.5q61 -4 122 -4
q60 0 119 4q45 3 75.5 19.5t45.5 31t23 14.5q12 0 13 -19q-1 -4 -1 -9q-3 -18 -14 -59q-14 -45 -46 -45h-396q-28 0 -32 9.5t-4 13.5q0 12 15 25z" />
    <glyph glyph-name="three" unicode="3" horiz-adv-x="612" 
d="M65 166q4 2 8 2q9 0 15 -11q86 -116 218 -116q77 0 128.5 39t51.5 112q0 59 -36 98.5t-87.5 56.5t-118.5 21q-23 1 -24.5 8t-1.5 9q0 11 16 23q132 101 232 227q-67 7 -125 7q-50 0 -94 -5q-59 -7 -82 -39q-6 -9 -14 -24t-13 -20t-13 -5q-13 0 -13 23v7q1 57 12 92
q3 16 17.5 22.5t59.5 6.5h307q16 0 21 -6t5 -10q0 -7 -5 -15q-109 -156 -224 -247q54 -1 109.5 -22t98.5 -70t43 -115q0 -91 -67.5 -158.5t-174.5 -67.5q-90 0 -158 44t-98 109q-2 6 -2 10q0 9 9 14z" />
    <glyph glyph-name="four" unicode="4" horiz-adv-x="593" 
d="M46 177q0 23 152 227q182 248 234 306h15q21 0 21 -27v-467q24 0 44 7.5t24 7.5q11 0 11 -17q0 -13 -6 -36q-4 -13 -10.5 -19.5t-20.5 -6.5h-42v-124q0 -24 -15 -31q-18 -13 -43 -13q-14 0 -14 21v146l-313 -2q-14 0 -19.5 0.5t-11.5 7t-6 20.5zM149 216l260 -1v410
q-127 -158 -280 -385q-6 -8 -6 -13q0 -11 26 -11z" />
    <glyph glyph-name="five" unicode="5" horiz-adv-x="589" 
d="M43 166q4 2 8 2q9 0 15 -10q84 -114 222 -114q74 0 120 46t46 108q0 102 -78 153.5t-237 67.5q-13 2 -13 13q0 3 1 7l77 247q4 14 15 14h3q57 -4 113 -4t111 4q21 2 34 11.5t20.5 18t14.5 8.5q13 0 13 -19v-5q-3 -32 -17 -59q-9 -14 -41 -17q-58 -6 -128 -6q-57 0 -121 4
l-47 -164q356 -46 356 -253q0 -93 -65 -161t-171 -68q-92 0 -160 44t-98 110q-2 5 -2 10q0 8 9 12z" />
    <glyph glyph-name="six" unicode="6" horiz-adv-x="598" 
d="M61 311q1 178 78 288.5t192 110.5q103 0 149 -61q5 -7 5 -13q0 -5 -4 -9t-9 -4q-6 0 -13 4q-57 33 -125 33q-89 0 -137.5 -78.5t-48.5 -199.5v-5q24 48 75 79t106 31q93 0 155.5 -68t62.5 -164q0 -112 -70.5 -188.5t-173.5 -76.5q-112 0 -177 87.5t-65 229.5v4zM196 98
q45 -67 127 -67q69 0 107.5 51t38.5 129q0 90 -46.5 153t-123.5 63q-67 0 -108 -47.5t-41 -122.5q0 -92 46 -159z" />
    <glyph glyph-name="seven" unicode="7" horiz-adv-x="514" 
d="M53 592q2 46 18 90q6 18 22 18h371q25 0 25 -13q0 -6 -5 -14q-21 -37 -64 -109t-67 -113.5t-57 -107.5t-51 -115t-31 -110t-13 -118q0 -6 -6 -7.5t-9 -1.5q-4 0 -7 1q-19 2 -47 18q-15 10 -15 31q0 53 32.5 130.5t68.5 138t103.5 166t97.5 155.5q-66 5 -131 5
q-66 0 -131 -5q-20 -2 -35.5 -12.5t-23.5 -22.5t-16.5 -21.5t-16.5 -9.5q-12 0 -12 27z" />
    <glyph glyph-name="eight" unicode="8" horiz-adv-x="574" 
d="M58 173q0 53 36.5 109t111.5 96q-110 76 -110 167q0 70 56.5 118t156.5 48q88 0 140.5 -41.5t52.5 -104.5q0 -57 -35.5 -101.5t-115.5 -88.5q98 -57 131 -96.5t33 -101.5q0 -73 -58.5 -129t-166.5 -56q-107 0 -169.5 50t-62.5 131zM175 68q47 -46 130 -46q57 0 96.5 37
t39.5 92q0 46 -35 87.5t-130 95.5l-48 30q-100 -82 -100 -182q0 -69 47 -114zM210 474q43 -42 117 -85q1 0 1 -0.5t1 -0.5q109 88 109 169q0 56 -39 89t-101 33q-54 0 -92.5 -30t-38.5 -82t43 -93z" />
    <glyph glyph-name="nine" unicode="9" horiz-adv-x="603" 
d="M127 634q70 76 172 76q112 0 177.5 -88t65.5 -233q-1 -178 -78.5 -288.5t-192.5 -110.5q-102 0 -148 61q-5 7 -5 13q0 5 4 9.5t10 4.5q5 0 12 -4q55 -34 124 -34q89 0 138 79.5t49 204.5q-24 -48 -75.5 -79.5t-105.5 -31.5q-93 0 -155.5 68t-62.5 165q0 111 71 188z
M133 489q0 -89 46.5 -152.5t123.5 -63.5q68 0 109 47.5t41 122.5q0 92 -46 159t-128 67q-69 0 -107.5 -51t-38.5 -129z" />
    <glyph glyph-name="colon" unicode=":" horiz-adv-x="245" 
d="M77 34q0 22 15.5 36.5t34.5 14.5t32 -12t13 -34t-14 -35q-15 -14 -35 -14t-33 11.5t-13 32.5zM77 346q0 22 15.5 36.5t34.5 14.5t32 -12t13 -34t-14 -35q-15 -14 -35 -14t-33 11.5t-13 32.5z" />
    <glyph glyph-name="semicolon" unicode=";" horiz-adv-x="255" 
d="M79 36q0 22 14.5 35.5t33.5 13.5q51 0 51 -64q0 -63 -30.5 -107.5t-52.5 -44.5q-12 0 -12 11q0 3 19.5 31t19.5 47q0 13 -21.5 34t-21.5 44zM77 346q0 22 15.5 36.5t34.5 14.5t32 -12t13 -34t-14 -35q-15 -14 -35 -14t-33 11.5t-13 32.5z" />
    <glyph glyph-name="equal" unicode="=" horiz-adv-x="527" 
d="M30 452q0 16 6.5 22t23.5 6h407q17 0 23.5 -6t6.5 -22q0 -17 -6.5 -23t-23.5 -6h-407q-17 0 -23.5 6t-6.5 23zM37 302q6 6 23 6h407q17 0 23.5 -6t6.5 -22q0 -17 -6.5 -23t-23.5 -6h-407q-17 0 -23.5 6t-6.5 23q0 16 7 22z" />
    <glyph glyph-name="question" unicode="?" horiz-adv-x="489" 
d="M67 577q0 49 53 91t129 42q81 0 129.5 -38t48.5 -93v-5q-1 -30 -19 -60.5t-40.5 -52.5t-51 -54t-43.5 -60q-14 -27 -16 -78q-1 -9 -7 -12.5t-10 -3.5q-3 0 -8 2.5t-5 12.5q0 45 17.5 88.5t39 72.5t40 68t19.5 75v3q0 47 -26.5 74.5t-67.5 27.5q-83 0 -109 -102
q-5 -23 -12 -33t-24 -10q-14 0 -25.5 11t-11.5 34zM194 34q0 22 15.5 36.5t34.5 14.5t32 -12t13 -34t-14 -35q-15 -14 -35 -14t-33 11.5t-13 32.5z" />
    <glyph glyph-name="at" unicode="@" horiz-adv-x="833" 
d="M178 577q111 109 275 109q146 0 243 -90t97 -223q0 -98 -62 -174t-155 -76q-73 0 -83 65q-55 -66 -121 -66q-48 0 -83 38t-35 104q0 51 22.5 102t68 87.5t101.5 36.5q19 0 52 -8t41 -8q13 0 26.5 7.5t20.5 7.5q10 0 10 -17q0 -6 -1 -14l-34 -238q-1 -10 -1 -19
q0 -47 41 -47q57 0 108 66.5t51 153.5q0 121 -88 200.5t-219 79.5q-149 0 -251.5 -100.5t-102.5 -249.5q0 -146 95.5 -235t241.5 -89q80 0 134 18q5 1 9 1q9 0 11 -5t2 -8q0 -8 -14 -14q-60 -21 -145 -21q-161 0 -264 99t-103 256q0 161 112 271zM301 291q0 -71 29.5 -99.5
t65.5 -28.5q48 0 84 49t49 127l12 68v1q0 7 -10.5 19t-35 23t-51.5 11q-45 0 -79 -29.5t-49 -67t-15 -73.5z" />
    <glyph glyph-name="A" unicode="A" horiz-adv-x="667" 
d="M-2 14q0 10 8 16t19.5 10.5t27 23t27.5 48.5l194 502q5 10 5 19q0 5 -3.5 12.5t-11.5 11.5t-16.5 10.5t-8.5 15.5q0 17 25 17h78q14 0 19 -13l226 -576q11 -28 25 -45.5t24 -23t17 -11.5t7 -14q0 -17 -45 -17h-90q-36 0 -36 14q0 10 14.5 20.5t19 19t4.5 15.5q0 15 -9 42
l-31 80q-7 18 -18 22q-18 6 -147 6q-140 0 -158 -7q-12 -5 -19 -25l-29 -75q-9 -31 -9 -46q0 -6 3 -14t16.5 -16.5t13.5 -17.5q0 -18 -31 -18h-76q-35 0 -35 14zM180 253q14 -4 143 -4q121 0 131 6q3 2 3 7t-3 13l-140 354l-138 -362q-1 -4 -1 -7q0 -6 5 -7z" />
    <glyph glyph-name="B" unicode="B" horiz-adv-x="586" 
d="M57 29q7 5 16 8.5t18 14t11 27.5q3 14 3 38v466q0 25 -3 38q-2 17 -11 27.5t-18 14t-16 9t-7 13.5q0 15 45 15h137q114 0 172.5 -41t58.5 -115q-1 -56 -38 -89t-105 -39q104 -10 169.5 -64.5t65.5 -135.5q0 -113 -75 -164.5t-235 -51.5h-150q-45 0 -45 15q0 8 7 14z
M167 357v-254q0 -41 16.5 -55.5t60.5 -14.5q125 0 182.5 41.5t57.5 132.5q0 92 -66 142t-184 50q-40 0 -53.5 -8.5t-13.5 -33.5zM167 453q0 -19 62 -19q89 0 127 24t38 81q0 59 -42.5 93.5t-112.5 34.5q-43 0 -57.5 -9t-14.5 -37v-168z" />
    <glyph glyph-name="C" unicode="C" horiz-adv-x="674" 
d="M140 602q100 108 248 108q37 0 82 -9.5t57 -9.5q11 0 23 8.5t17 8.5q13 0 19 -9.5t16 -43.5q10 -35 28 -119q0 -4 1 -8q-1 -17 -13 -20h-2q-14 0 -32 31q-46 72 -96 100t-129 28q-113 0 -183.5 -84.5t-70.5 -219.5q0 -145 81 -236.5t206 -91.5q132 0 220 98q8 9 14 9
q4 0 8 -6q4 -5 4 -12q0 -10 -9 -22q-37 -48 -111 -80t-149 -32q-151 0 -240.5 93t-89.5 248q0 162 101 271z" />
    <glyph glyph-name="D" unicode="D" horiz-adv-x="729" 
d="M64 685q0 15 46 15h185q84 0 153 -21t113 -55t74 -79t43 -91t13 -93q0 -72 -18.5 -133t-58.5 -114t-114 -83.5t-175 -30.5h-215q-46 0 -46 15q0 8 7 13.5t16 9t18 14t12 27.5q3 14 3 38v466q0 25 -3 38q-3 17 -12 27.5t-18 14t-16 9t-7 13.5zM208 47q26 -13 107 -13
q307 0 307 285q0 154 -95.5 251t-271.5 97q-45 0 -59.5 -8.5t-14.5 -35.5v-530q0 -34 27 -46z" />
    <glyph glyph-name="E" unicode="E" horiz-adv-x="598" 
d="M50 15q0 8 7 13.5t16 9t18 14t11 27.5q3 14 3 38v466q0 25 -3 38q-2 17 -11 27.5t-18 14t-16 9t-7 13.5q0 15 45 15l365 1q40 0 50 -4.5t16 -23.5q18 -61 24 -108q1 -5 1 -9q0 -18 -11 -20h-5q-8 0 -14 6t-18 29q-23 49 -57.5 72.5t-88.5 23.5h-61q-81 0 -105 -10.5
t-24 -36.5v-182q0 -34 18 -41.5t67 -7.5h61q22 0 36 11.5t18.5 26t12 26t17.5 11.5q9 0 12 -12.5t3 -46.5v-80q0 -47 -15 -47q-10 0 -17.5 12t-12 26.5t-18.5 26.5t-36 12h-54q-62 0 -76 -9q-16 -10 -16 -40v-222q0 -30 23 -40.5t104 -10.5l83 1q69 0 93 16.5t44 64.5
q11 25 18 33t16 8h2q11 -2 11 -21v-6q-6 -68 -15 -99q-5 -17 -19.5 -23.5t-59.5 -6.5h-372q-45 0 -45 15z" />
    <glyph glyph-name="F" unicode="F" horiz-adv-x="548" 
d="M50 685q0 15 45 15l352 1q41 0 51 -4.5t15 -23.5q17 -50 24 -108q1 -5 1 -9q0 -18 -11 -20h-4q-8 0 -14.5 6.5t-17.5 28.5q-23 49 -57.5 72.5t-88.5 23.5h-48q-83 0 -106.5 -11t-23.5 -43v-185q0 -34 18 -41.5t67 -7.5h82q22 0 36 12t18.5 26t11.5 26t18 12q9 0 12 -12.5
t3 -47.5v-79q0 -48 -15 -48q-11 0 -18 12t-11.5 27t-18.5 27t-36 12h-75q-62 0 -76 -9q-16 -10 -16 -40v-165q0 -37 8.5 -60t18.5 -28.5t18.5 -12t8.5 -15.5q0 -15 -46 -15h-80q-45 0 -45 15q0 9 8.5 15.5t19 12t19 28.5t8.5 60v451q0 25 -3 38q-2 17 -11 27.5t-18 14t-16 9
t-7 13.5z" />
    <glyph glyph-name="G" unicode="G" horiz-adv-x="739" 
d="M143 602q104 108 266 108q35 0 71.5 -6t48.5 -6q11 0 23 5t17 5q14 0 20.5 -10.5t14.5 -42.5q19 -70 28 -124q1 -6 1 -11q0 -15 -12 -17h-2q-15 0 -35 29q-21 28 -27.5 36.5t-30 32.5t-42.5 33.5t-52 18.5t-71 9q-114 0 -185 -87t-73 -200q0 -145 82.5 -241.5
t216.5 -96.5q69 0 125.5 23.5t56.5 58.5v109q0 31 -16.5 50.5t-37 25.5t-37 14.5t-16.5 20.5q0 15 46 15l129 -1q28 0 28 -15q0 -10 -5.5 -16.5t-11.5 -11.5t-11.5 -26t-5.5 -57v-106q0 -44 -84 -87t-176 -44q-161 0 -254 97t-93 244q0 163 104 271z" />
    <glyph glyph-name="H" unicode="H" horiz-adv-x="756" 
d="M50 15q0 9 8.5 15.5t19 12t19 28.5t8.5 60v438q0 37 -8.5 60t-18 28.5t-18 12t-8.5 15.5q0 15 45 15h80q46 0 46 -15q0 -8 -6 -13t-14 -9.5t-16 -13t-14 -29t-6 -51.5v-129q0 -30 11 -38q17 -12 133 -13h75q159 0 183 8q19 6 20 30v142q0 37 -8.5 60t-18.5 28.5t-18.5 12
t-8.5 15.5q0 15 46 15h80q45 0 45 -15q0 -9 -8.5 -15.5t-19 -12t-19 -28.5t-8.5 -60v-438q0 -37 8.5 -60t18 -28.5t18 -12t8.5 -15.5q0 -15 -45 -15h-80q-46 0 -46 15q0 8 6 13t14 9.5t16 13t14 29t6 51.5v173q0 31 -11 38q-16 12 -128 13h-65q-171 0 -196 -8
q-20 -6 -22 -28v-188q0 -37 8.5 -60t18.5 -28.5t18.5 -12t8.5 -15.5q0 -15 -46 -15h-80q-45 0 -45 15z" />
    <glyph glyph-name="I" unicode="I" horiz-adv-x="272" 
d="M50 15q0 9 8.5 15.5t19 12t19 28.5t8.5 60v438q0 37 -8.5 60t-18 28.5t-18 12t-8.5 15.5q0 15 45 15h80q46 0 46 -15q0 -8 -6 -13t-14 -9.5t-16 -13t-14 -29t-6 -51.5v-438q0 -37 8.5 -60t18.5 -28.5t18.5 -12t8.5 -15.5q0 -15 -46 -15h-80q-45 0 -45 15z" />
    <glyph glyph-name="J" unicode="J" horiz-adv-x="496" 
d="M30 183q10 12 26 12q33 0 41 -42q20 -124 118 -124q128 0 128 246v294q0 37 -8.5 60t-18.5 28.5t-18.5 12t-8.5 15.5q0 15 46 15h80q46 0 46 -15q0 -8 -6 -13t-14 -9.5t-16 -13t-14 -29t-6 -51.5l-1 -295q0 -282 -205 -282q-85 0 -132 48.5t-47 110.5q0 20 10 32z" />
    <glyph glyph-name="K" unicode="K" horiz-adv-x="667" 
d="M59 31q8 6 18.5 11.5t19 28.5t8.5 60v438q0 37 -8.5 60t-18 28.5t-18 12t-8.5 15.5q0 15 45 15h80q46 0 46 -15q0 -8 -6 -13t-14 -9.5t-16 -13t-14 -29t-6 -51.5v-229l295 273q19 18 21 24.5t2 9.5q0 6 -6.5 9t-15 10.5t-8.5 17.5q0 16 30 16h83q46 0 46 -15
q0 -10 -8 -16t-20 -9.5t-33.5 -15.5t-42.5 -31l-107 -100l189 -424q9 -21 22.5 -34t24 -17t18 -9.5t7.5 -13.5q0 -15 -32 -15h-81q-47 0 -47 19q0 7 10 15.5t12 14.5t2 10q0 12 -8 37l-161 376l-192 -179v-162q0 -37 8.5 -60t18.5 -28.5t18.5 -12t8.5 -15.5q0 -15 -46 -15
h-80q-45 0 -45 15q0 9 9 16z" />
    <glyph glyph-name="L" unicode="L" horiz-adv-x="538" 
d="M57 29q7 5 16 8.5t18 14t11 27.5q3 14 3 38v452q0 37 -8.5 60t-18 28.5t-18 12t-8.5 15.5q0 15 45 15h80q46 0 46 -15q0 -8 -6 -13t-14 -9.5t-16 -13t-14 -29t-6 -51.5v-485q0 -29 18 -40t76 -11l73 1q69 0 93 16.5t44 64.5q11 25 18 33t16 8h2q11 -2 11 -21v-6
q-4 -61 -15 -99q-5 -17 -19.5 -23.5t-59.5 -6.5h-329q-45 0 -45 15q0 8 7 14z" />
    <glyph glyph-name="M" unicode="M" horiz-adv-x="871" 
d="M59 35q8 7 18.5 12t19.5 22.5t10 47.5l17 479v6q0 19 -6 34.5t-14.5 22.5t-15.5 14t-7 13q0 14 32 14h58q14 0 21 -15l235 -571l257 572q6 14 21 14h53q32 0 32 -14q0 -8 -11 -15t-21.5 -24t-10.5 -46v-5l15 -484q1 -33 14 -51t25 -26t12 -18q0 -17 -39 -17h-81
q-46 0 -46 17q0 8 8.5 15.5t19 13t18.5 22t8 39.5v5l-14 497l-250 -547q-5 -10 -21 -16q-7 -1 -12 -1q-12 0 -16 8l-227 551l-19 -487v-7q0 -25 7 -42t16 -22t17 -11.5t8 -16.5q0 -18 -44 -18h-54q-42 0 -42 18q0 10 9 17z" />
    <glyph glyph-name="N" unicode="N" horiz-adv-x="746" 
d="M45 685q0 15 46 15h23q12 0 20 -11l486 -590l-2 484q0 30 -8.5 48t-18.5 23t-18 11.5t-8 16.5q0 18 44 18h54q42 0 42 -18q0 -10 -8.5 -17t-18 -12t-18 -22.5t-8.5 -47.5v-556q0 -27 -16 -27h-7q-10 0 -27 21l-469 573l2 -477q0 -24 6 -40.5t13.5 -23.5t15.5 -11.5
t13.5 -10t5.5 -13.5q0 -18 -45 -18h-54q-42 0 -42 18q0 10 8.5 17t18 12t18 22.5t8.5 47.5v466q0 25 -3 38q-3 17 -12 27.5t-18 14t-16 9t-7 13.5z" />
    <glyph glyph-name="O" unicode="O" horiz-adv-x="765" 
d="M142 598q103 112 262 112q146 0 234 -93.5t88 -238.5q0 -169 -100.5 -278.5t-263.5 -109.5q-148 0 -235.5 93t-87.5 239q0 164 103 276zM101 384q0 -157 81.5 -253t216.5 -96q121 0 191.5 88.5t70.5 209.5q0 145 -79 240t-210 95q-123 0 -197 -87.5t-74 -196.5z" />
    <glyph glyph-name="P" unicode="P" horiz-adv-x="609" 
d="M95 700h158q155 0 240.5 -69.5t85.5 -169.5q0 -110 -75.5 -171t-223.5 -61h-93q-15 0 -17.5 -2.5t-2.5 -17.5v-78q0 -37 8.5 -60t18.5 -28.5t18.5 -12t8.5 -15.5q0 -15 -46 -15h-80q-45 0 -45 15q0 9 8.5 15.5t19 12t19 28.5t8.5 60v452q0 25 -3 38q-2 17 -11 27.5
t-18 14t-16 9t-7 13.5q0 15 45 15zM173 275q5 -5 31 -9t76 -4q51 0 90 8t71 27t49 55.5t17 88.5q0 95 -69.5 160t-186.5 65q-54 0 -69 -5.5t-15 -21.5v-350q0 -9 6 -14z" />
    <glyph glyph-name="Q" unicode="Q" horiz-adv-x="791" 
d="M142 598q103 112 262 112q146 0 234 -93.5t88 -238.5q0 -169 -100.5 -278.5t-263.5 -109.5q-22 0 -32 1q184 -49 294 -49q30 0 45.5 12.5t23.5 12.5q5 0 9.5 -6.5t4.5 -16.5q0 -37 -24 -61t-77 -24q-76 0 -322 90q-109 40 -152 40q-12 0 -20.5 -9.5t-12.5 -9.5
q-14 0 -14 19q0 21 15.5 31.5t40.5 10.5q32 0 69 -8q-81 39 -126 118t-45 181q0 164 103 276zM183 131q81 -96 216 -96q121 0 191.5 88.5t70.5 209.5q0 145 -79 240t-210 95q-123 0 -197 -87.5t-74 -196.5q0 -157 82 -253z" />
    <glyph glyph-name="R" unicode="R" horiz-adv-x="633" 
d="M59 31q8 6 18.5 11.5t19 28.5t8.5 60v452q0 25 -3 38q-2 17 -11 27.5t-18 14t-16 9t-7 13.5q0 15 45 15h162q160 0 243 -64.5t83 -162.5q0 -72 -38.5 -126t-109.5 -80l97 -175q11 -20 25.5 -34t24 -18.5t16.5 -10.5t7 -14q0 -15 -31 -15h-83q-50 0 -50 19q0 7 12.5 16
t15 15.5t2.5 9.5q0 12 -11 36l-86 154q-36 -6 -78 -6h-109q-20 0 -20 -20v-93q0 -37 8.5 -60t18.5 -28.5t18.5 -12t8.5 -15.5q0 -15 -46 -15h-80q-45 0 -45 15q0 9 9 16zM167 304q0 -9 7 -14t36.5 -8.5t86.5 -3.5q44 0 80 8.5t67 28t48.5 54.5t17.5 84q0 88 -67.5 149.5
t-186.5 62.5h-16q-42 0 -57.5 -5t-15.5 -21v-335z" />
    <glyph glyph-name="S" unicode="S" horiz-adv-x="559" 
d="M63 210q22 0 33 -28q27 -68 73 -111.5t126 -44.5h4q76 0 118.5 39t45.5 97v7q0 13 -3.5 27t-9 25.5t-18.5 24t-22.5 19.5t-29 17.5t-29.5 15.5t-33 15.5t-32 14.5q-7 3 -36 16.5t-39 18.5t-35 18.5t-35.5 22.5t-28 25.5t-25 31.5t-13.5 35.5t-6 43.5q0 69 57.5 118.5
t168.5 49.5q22 0 56 -5t49 -5q11 0 23 5t17 5q14 0 19 -9t13 -44q18 -65 26 -110q2 -8 2 -14q0 -12 -12 -12q-20 0 -34 27q-76 125 -186 125q-67 0 -104 -33.5t-37 -85.5q0 -21 7.5 -39t16 -29t30.5 -25t33 -20t43 -20.5t43 -19.5q12 -6 43 -20t46 -21.5t40.5 -21.5t39 -27
t28.5 -31t22.5 -40t8.5 -48v-9q0 -82 -69.5 -136t-171.5 -55q-44 0 -85.5 4.5t-51.5 4.5q-11 0 -22.5 -4.5t-17.5 -4.5q-15 0 -23 12t-13 43q-16 89 -22 137q-1 7 -1 12q0 16 13 16z" />
    <glyph glyph-name="T" unicode="T" horiz-adv-x="630" 
d="M42 571q0 57 12 99q4 16 18.5 23t60.5 7l364 1q46 0 60 -6.5t19 -23.5q11 -37 12 -99v-5q0 -22 -17 -22q-10 0 -17 8t-20 33q-19 36 -29 49t-34 23.5t-66 10.5q-33 0 -46 -12t-13 -41v-485q0 -37 8.5 -60t18 -28.5t18 -12t8.5 -15.5q0 -15 -45 -15h-80q-46 0 -46 15
q0 9 9 15.5t19 12t19 28.5t9 60v484q0 29 -13 41t-46 12q-42 0 -66 -10.5t-34 -23.5t-29 -49q-13 -24 -20.5 -32.5t-16.5 -8.5q-17 0 -17 22v5z" />
    <glyph glyph-name="U" unicode="U" horiz-adv-x="707" 
d="M96 698h80q46 0 46 -15q0 -9 -9 -15.5t-19 -12t-19 -28.5t-9 -60v-318q0 -108 56 -165t156 -57q101 0 156.5 66t55.5 165l-4 325q0 30 -8 48t-17.5 23t-18 11.5t-8.5 16.5q0 18 45 18h54q42 0 42 -18q0 -10 -8.5 -17t-18 -12t-18 -22.5t-8.5 -47.5l-1 -317
q0 -119 -64.5 -197.5t-190.5 -78.5q-119 0 -190.5 74.5t-71.5 194.5v308q0 37 -8.5 60t-18.5 28.5t-18.5 12t-8.5 15.5q0 15 46 15z" />
    <glyph glyph-name="V" unicode="V" horiz-adv-x="670" 
d="M-2 683q0 17 46 17h89q36 0 36 -14q0 -10 -14 -20.5t-18.5 -19t-4.5 -16.5q0 -14 8 -41l212 -542l207 541q9 31 9 46q0 6 -3 14t-16.5 17t-13.5 17q0 18 31 18h76q35 0 35 -14q0 -10 -8 -16t-19.5 -10.5t-27 -23t-27.5 -48.5l-222 -573q-4 -10 -9 -13.5t-20 -6.5
q-10 -2 -17 -2q-6 0 -11.5 2t-10.5 13l-233 581q-11 28 -25 45.5t-24.5 23t-17.5 11.5t-7 14z" />
    <glyph glyph-name="W" unicode="W" horiz-adv-x="1018" 
d="M45 700h89q37 0 37 -14q0 -10 -15 -20.5t-20.5 -19.5t-5.5 -18q0 -15 7 -40l183 -530l168 508l-8 22q-10 29 -23 47t-23.5 23t-17.5 10.5t-7 13.5q0 18 47 18h89q37 0 37 -14q0 -10 -15 -20.5t-20.5 -19.5t-5.5 -18q0 -15 7 -40l185 -532l176 531q7 29 7 45
q0 7 -3.5 15.5t-16.5 17t-13 17.5q0 18 31 18h76q35 0 35 -14q0 -10 -8.5 -16t-20 -10.5t-26.5 -23t-25 -49.5l-192 -569q-6 -17 -31 -21q-9 -3 -16 -3q-15 0 -18 12l-180 507l-168 -495q-6 -16 -30 -21q-8 -2 -15 -2q-4 0 -11.5 1.5t-9.5 9.5l-205 582q-10 29 -23 47
t-23.5 23t-17.5 10.5t-7 13.5q0 18 47 18z" />
    <glyph glyph-name="X" unicode="X" horiz-adv-x="686" 
d="M30 30q8 6 19.5 9t30 16.5t34.5 36.5l188 260l-182 243q-18 23 -37 39t-30.5 21.5t-19 12t-7.5 14.5q0 18 47 18h109q37 0 37 -14q0 -9 -10 -17.5t-19.5 -14.5t-9.5 -20q0 -1 0.5 -9t17.5 -30l157 -209l160 222q15 21 17 30t2 12q0 6 -4 9t-10.5 9t-6.5 14q0 18 30 18h70
q35 0 35 -14q0 -10 -8 -16t-20 -9t-30.5 -16.5t-34.5 -35.5l-181 -249l192 -255q22 -30 46.5 -46.5t36 -23t11.5 -17.5q0 -18 -47 -18h-109q-37 0 -37 14q0 9 10 17.5t19.5 15t9.5 20.5l-0.5 8t-17.5 30l-166 221l-167 -235q-20 -31 -20 -40l0.5 -4t11 -12t10.5 -17
q0 -18 -31 -18h-69q-35 0 -35 14q0 10 8 16z" />
    <glyph glyph-name="Y" unicode="Y" horiz-adv-x="638" 
d="M50 700h109q37 0 37 -14q0 -9 -10 -17.5t-19.5 -14.5t-9.5 -22t16 -39l169 -246l166 260q17 31 17 41q0 1 -1 5.5t-11 12.5t-10 16q0 18 31 18h69q35 0 35 -14q0 -10 -8 -15.5t-20 -9t-29.5 -17.5t-32.5 -37l-193 -300v-176q0 -37 8.5 -60t18.5 -28.5t18.5 -12t8.5 -15.5
q0 -15 -46 -15h-79q-46 0 -46 15q0 9 9 15.5t19 12t19 28.5t9 60v179l-198 284q-17 24 -35.5 40.5t-30.5 21.5t-19.5 11.5t-7.5 14.5q0 18 47 18z" />
    <glyph glyph-name="Z" unicode="Z" horiz-adv-x="632" 
d="M53 34l452 633l-257 -1q-101 0 -146 -97q-11 -21 -17.5 -27.5t-14.5 -6.5h-4q-11 2 -11 17q0 5 1 11q5 48 23 109q6 19 16 23.5t50 4.5h417q18 0 21.5 -6.5t3.5 -10.5q0 -8 -7 -17l-452 -633l267 1q100 0 145 97q12 22 18 28t14 6h5q11 -2 11 -19q0 -4 -1 -9
q-6 -49 -24 -109q-6 -19 -15.5 -23.5t-50.5 -4.5h-426q-17 0 -20.5 7t-3.5 11q0 7 6 16z" />
    <glyph glyph-name="bracketleft" unicode="[" horiz-adv-x="347" 
d="M118 779h143q17 0 17 -18t-17 -18h-73q-12 0 -12 -12v-811q0 -12 12 -12h73q17 0 17 -18t-17 -18h-143q-16 0 -16 16v875q0 16 16 16z" />
    <glyph glyph-name="backslash" unicode="\" horiz-adv-x="370" 
d="M35 735q4 5 12 5h13q13 0 18 -14l252 -807q1 -2 1 -4q0 -6 -4.5 -10.5t-11.5 -4.5h-13q-14 0 -18 14l-252 807q-1 2 -1 4q0 6 4 10z" />
    <glyph glyph-name="bracketright" unicode="]" horiz-adv-x="347" 
d="M70 761q0 18 16 18h143q16 0 16 -16v-875q0 -16 -16 -16h-143q-16 0 -16 18t16 18h73q12 0 12 12v811q0 12 -12 12h-73q-16 0 -16 18z" />
    <glyph glyph-name="underscore" unicode="_" horiz-adv-x="397" 
d="M0 -48q0 18 18 18h360q18 0 18 -18t-18 -18h-360q-18 0 -18 18z" />
    <glyph glyph-name="grave" unicode="`" horiz-adv-x="500" 
d="M213 645q6 13 19 19q4 1 9 1q20 0 49 -24q3 -2 26 -21q62 -57 64 -63q2 -3 2 -6q0 -6 -11 -10q-7 -3 -17 -3q-27 0 -79.5 25.5t-62.5 52.5q-3 7 -3 14q0 8 4 15z" />
    <glyph glyph-name="a" unicode="a" horiz-adv-x="522" 
d="M79 263q57 45 147 45q93 0 165 -33v10q0 81 -32.5 119t-104.5 38q-41 0 -71 -10.5t-72 -33.5q-7 -4 -13 -4q-5 0 -9 3t-4 8t6 13q21 27 70.5 49t110.5 22q87 0 131 -44.5t44 -114.5v-225q0 -30 10 -40.5t19 -10.5q3 0 10 2t17 2q2 0 8 -0.5t6 -8.5q0 -15 -20.5 -33
t-45.5 -18q-59 0 -65 78q-64 -86 -177 -86q-88 0 -137.5 45t-49.5 110q0 72 57 118zM94 151q2 -54 38 -85.5t101 -31.5q57 0 105 38t49 74v79q0 15 -45 30t-97 15q-70 0 -110.5 -32t-40.5 -82v-5z" />
    <glyph glyph-name="b" unicode="b" horiz-adv-x="606" 
d="M51 672q5 4 23 12q50 25 70 26h3q15 0 15 -17l-1 -138v-162q26 41 74.5 69t104.5 28q101 0 164.5 -65.5t63.5 -169.5q0 -103 -64 -184t-165 -81q-44 0 -77 9t-53 18.5t-31 9.5q-16 0 -38 -14.5t-36 -14.5q-13 0 -13 13q0 4 1 8q5 25 5 70v466q0 34 -8 54t-17.5 25
t-17.5 11t-8 16q0 6 5 11zM162 287v-87q0 -66 53 -121.5t126 -55.5q74 0 117.5 51t43.5 151q0 101 -54.5 159t-127.5 58q-41 0 -73.5 -18.5t-49.5 -45t-26 -50.5t-9 -41z" />
    <glyph glyph-name="c" unicode="c" horiz-adv-x="506" 
d="M107 412q71 77 177 77q87 0 138 -49t51 -111q0 -20 -9.5 -32t-26.5 -12q-28 0 -41 42q-16 59 -47.5 92t-88.5 34q-75 0 -118.5 -53.5t-43.5 -136.5q0 -102 53 -163t139 -61q88 0 156 77q8 9 16 9q3 0 8.5 -2t5.5 -10q0 -4 -3 -10q-20 -44 -72.5 -78.5t-136.5 -34.5
q-99 0 -163.5 66.5t-64.5 166.5q0 112 71 189z" />
    <glyph glyph-name="d" unicode="d" horiz-adv-x="578" 
d="M36 226q0 110 71.5 187t174.5 77q104 0 160 -68l1 122q0 28 -5.5 46t-13 25.5t-15 12t-12.5 9.5t-5 13q0 6 5 10.5t22 12.5q51 25 70 26h4q14 0 14 -17l-1 -138l-1 -425q0 -26 9.5 -40.5t21 -17.5t21 -8t9.5 -14q0 -11 -22 -24q-44 -26 -72 -26q-29 0 -29 48l-1 41
q-28 -40 -77 -63.5t-106 -24.5h-3q-100 0 -160 68t-60 168zM155 97q55 -58 123 -58q72 0 117.5 48.5t45.5 97.5q0 118 -37 178q-53 86 -147 86q-72 0 -114.5 -52.5t-42.5 -132.5q0 -109 55 -167z" />
    <glyph glyph-name="e" unicode="e" horiz-adv-x="521" 
d="M36 233q0 107 69.5 182t181.5 75q89 0 146 -55t57 -141q0 -11 -1 -23q-1 -17 -19 -17l-370 2q1 -87 54 -151.5t136 -64.5q50 0 94.5 21.5t74.5 55.5q8 9 16 9q3 0 8 -2t5 -10q0 -4 -3 -11q-19 -41 -74.5 -77t-130.5 -36q-111 0 -177.5 68t-66.5 175zM103 294q3 -4 15 -4
h276q13 0 16 2.5t3 11.5v5q-6 66 -47 105.5t-110 39.5q-65 0 -109 -47t-47 -97v-5q0 -9 3 -11z" />
    <glyph glyph-name="f" unicode="f" horiz-adv-x="346" 
d="M79 480h31q0 126 37.5 178t111.5 52q54 0 82 -30t28 -68q0 -17 -10.5 -30.5t-28.5 -13.5q-28 0 -36 30q-9 39 -23.5 55t-42.5 16q-31 0 -52 -26.5t-21 -79.5q0 -83 16 -83h126q29 0 32 -9q0 -2 1 -4q-1 -3 -1 -6q-5 -21 -30 -21h-5l-123 3v-317q0 -35 10 -56t22.5 -26.5
t22.5 -11.5t10 -16q0 -16 -36 -16h-102q-36 0 -36 16q0 8 7.5 14.5t16.5 12.5t16.5 27.5t7.5 55.5v319l-30 1h-4q-24 2 -24 14v4q2 16 27 16z" />
    <glyph glyph-name="g" unicode="g" horiz-adv-x="538" 
d="M31 -84q0 26 17 53t51 43q-62 32 -62 87q0 20 19 44t60 38q-67 45 -67 125q0 81 64 132.5t155 51.5h4h1q20 0 39.5 -2t28.5 -2q35 0 67 57q17 21 29 21t22 -9t10 -24q0 -26 -22 -48t-54 -31q60 -46 60 -117q0 -82 -59.5 -134.5t-158.5 -52.5q-53 0 -93 19
q-31 -18 -31 -45q0 -69 136 -69q30 0 75 2.5t57 2.5q73 0 112.5 -31t39.5 -77q0 -72 -71 -117t-207 -45q-95 0 -158.5 32t-63.5 96zM115 325q1 -61 39.5 -102.5t97.5 -41.5q60 0 95.5 38.5t35.5 94.5q-1 63 -36 103.5t-97 40.5q-58 0 -96.5 -36.5t-38.5 -96.5zM102 -80
q0 -48 47 -74.5t126 -26.5q80 0 133.5 27t53.5 80q0 33 -23.5 54.5t-71.5 21.5q-10 0 -22 -1q-52 -5 -146 -5q-38 -1 -67.5 -21.5t-29.5 -54.5z" />
    <glyph glyph-name="h" unicode="h" horiz-adv-x="601" 
d="M56 672q5 4 22 12q51 25 70 26h3q15 0 15 -17l-1 -138v-169q29 51 74.5 77.5t98.5 26.5q81 0 130 -52.5t49 -156.5l2 -154q0 -33 7 -54t16 -27.5t16 -13.5t7 -16q0 -16 -37 -16h-84q-36 0 -36 16q0 9 7.5 16t16.5 13.5t16.5 27.5t7.5 54v144q0 81 -32 128t-97 47h-5
q-57 -1 -101.5 -43t-55.5 -121v-155q0 -33 7 -54t16 -27.5t16 -13.5t7 -16q0 -16 -37 -16h-84q-36 0 -36 16q0 9 7.5 16t16.5 13.5t16.5 27.5t7.5 54v428q0 34 -8 54t-17.5 25t-17.5 11t-8 16q0 6 5 11z" />
    <glyph glyph-name="i" unicode="i" horiz-adv-x="276" 
d="M84 467q50 23 70 26h3q15 0 15 -17l-1 -139v-210q0 -33 7 -54t15.5 -27.5t15.5 -13.5t7 -16q0 -16 -36 -16h-85q-35 0 -35 16q0 9 7.5 16t16 13.5t16 27.5t7.5 54v210q0 34 -8 54t-17 25t-17 11.5t-8 16.5q0 11 27 23zM67 620q2 24 25 42.5t43 18.5q4 0 8 -1
q16 -2 24.5 -15t8.5 -25v-5q-2 -20 -25 -38.5t-42 -18.5h-6q-17 2 -26.5 12t-9.5 24v6z" />
    <glyph glyph-name="j" unicode="j" horiz-adv-x="264" 
d="M37 -172q3 1 7 1q24 0 39.5 7t24 16.5t12.5 29.5t4.5 35.5t0.5 45.5l2 372q0 34 -8 54t-17.5 25t-17.5 11.5t-8 16.5q0 6 5 10.5t22 12.5q54 25 70 26h3q15 0 15 -17l-2 -511v-47q0 -128 -92 -128q-59 0 -71 23q-2 4 -2 7q0 8 13 10zM96 620q2 24 25 42.5t43 18.5
q4 0 8 -1q16 -2 24.5 -15t8.5 -25v-5q-2 -20 -25 -38.5t-42 -18.5h-6q-17 2 -26.5 12t-9.5 24v6z" />
    <glyph glyph-name="k" unicode="k" horiz-adv-x="575" 
d="M56 672q5 4 22 12q51 25 70 26h3q15 0 15 -17l-1 -138v-364l221 223q6 6 6 13q0 8 -13.5 21t-13.5 17q0 15 22 15h84q29 0 29 -14q0 -7 -4 -10.5t-11.5 -6.5t-24.5 -15t-36 -31l-54 -54l109 -250q11 -26 28 -42.5t27.5 -24t10.5 -16.5t-8.5 -12.5t-33.5 -3.5h-80
q-22 0 -29 3t-7 12q0 10 16.5 25t16.5 29q0 6 -3 12l-95 218l-157 -158v-14q0 -33 7 -54t16 -27.5t16 -13.5t7 -16q0 -16 -37 -16h-84q-36 0 -36 16q0 9 7.5 16t16.5 13.5t16.5 27.5t7.5 54v428q0 34 -8 54t-17.5 25t-17.5 11t-8 16q0 6 5 11z" />
    <glyph glyph-name="l" unicode="l" horiz-adv-x="262" 
d="M56 672q5 4 22 12q51 25 70 26h3q15 0 15 -17l-1 -138v-428q0 -33 7 -54t16 -27.5t16 -13.5t7 -16q0 -16 -37 -16h-84q-36 0 -36 16q0 9 7.5 16t16.5 13.5t16.5 27.5t7.5 54v428q0 34 -8 54t-17.5 25t-17.5 11t-8 16q0 6 5 11z" />
    <glyph glyph-name="m" unicode="m" horiz-adv-x="957" 
d="M68 32q7 7 15.5 13.5t16 27.5t7.5 54v209q0 19 -0.5 27t-3 21t-9 21t-17.5 14q-17 10 -17 20q0 13 27 25q44 20 61 21h3q15 0 15 -17l-1 -96q29 58 77.5 88t104.5 30q129 0 161 -127q28 62 77.5 94.5t108.5 32.5q80 0 129.5 -52.5t49.5 -156.5l2 -154q0 -33 7 -54
t15.5 -27.5t15.5 -13.5t7 -16q0 -16 -36 -16h-84q-36 0 -36 16q0 9 7.5 16t16 13.5t16 27.5t7.5 54v144q0 81 -32 128t-97 47h-5q-62 -1 -108.5 -50t-50.5 -141l2 -128q0 -33 7 -54t15.5 -27.5t15.5 -13.5t7 -16q0 -16 -36 -16h-85q-35 0 -35 16q0 9 7.5 16t16 13.5t16 27.5
t7.5 54v144q0 175 -121 175h-5q-66 -1 -112.5 -55t-46.5 -155v-109q0 -33 7 -54t15.5 -27.5t15.5 -13.5t7 -16q0 -16 -36 -16h-85q-35 0 -35 16q0 9 8 16z" />
    <glyph glyph-name="n" unicode="n" horiz-adv-x="609" 
d="M87 464q44 20 61 21h3q15 0 15 -17l-1 -96q29 57 76.5 87.5t104.5 30.5q81 0 130 -52.5t49 -156.5l2 -154q0 -33 7 -54t15.5 -27.5t15.5 -13.5t7 -16q0 -16 -36 -16h-84q-36 0 -36 16q0 9 7.5 16t16.5 13.5t16.5 27.5t7.5 54v144q0 81 -32 128t-97 47h-5q-61 -1 -107 -48
t-52 -135v-136q0 -33 7 -54t15.5 -27.5t15.5 -13.5t7 -16q0 -16 -36 -16h-85q-35 0 -35 16q0 9 7.5 16t16 13.5t16 27.5t7.5 54v209q0 19 -0.5 27t-3 21t-9 21t-17.5 14q-17 10 -17 20q0 13 27 25z" />
    <glyph glyph-name="o" unicode="o" horiz-adv-x="559" 
d="M108 414q72 76 185 76q97 0 162.5 -68.5t65.5 -171.5q0 -111 -69.5 -185.5t-180.5 -74.5q-103 0 -169 63.5t-66 168.5q0 115 72 192zM101 260q0 -104 54 -168.5t139 -64.5q73 0 118 50.5t45 134.5q0 99 -56 168t-137 69q-74 0 -118.5 -53t-44.5 -136z" />
    <glyph glyph-name="p" unicode="p" horiz-adv-x="593" 
d="M55 455q5 5 22 13q43 21 61 22h3q15 0 15 -17l-1 -93q25 47 74.5 78.5t115.5 31.5q96 0 153 -69.5t57 -172.5q0 -107 -59.5 -182.5t-162.5 -75.5q-49 0 -96.5 17t-74.5 47l1 -127q0 -33 7 -54t15.5 -27.5t15.5 -13.5t7 -16q0 -16 -36 -16h-84q-36 0 -36 16q0 9 7.5 16
t16.5 13.5t16.5 27.5t7.5 54l-3 413q0 25 -1 36t-7.5 25.5t-20.5 22.5q-18 8 -18 19q0 7 5 12zM218 71q57 -46 122 -46q75 0 113 53t38 140q0 110 -51 165.5t-117 55.5q-75 0 -118 -56t-43 -119v-74v-3q0 -72 56 -116z" />
    <glyph glyph-name="q" unicode="q" horiz-adv-x="569" 
d="M106 413q70 77 165 77q41 0 87.5 -15t55.5 -15q21 0 38 15t30 15q17 0 17 -21v-543q0 -34 7.5 -55.5t16.5 -28t16.5 -12.5t7.5 -14q0 -16 -36 -16h-102q-36 0 -36 16q0 10 10 16t22.5 11.5t22.5 26.5t10 56v166q-27 -44 -74.5 -73t-107.5 -29q-100 0 -160 68.5t-60 168.5
q0 108 70 186zM102 264q0 -110 55 -167t122 -57q76 0 117 59.5t41 132.5q0 81 -31 131q-53 86 -146 86q-72 0 -115 -52.5t-43 -132.5z" />
    <glyph glyph-name="r" unicode="r" horiz-adv-x="428" 
d="M60 439q0 13 27 25q44 20 61 21h3q15 0 15 -17l-1 -94q22 47 61 81.5t86 34.5q35 0 52.5 -18t17.5 -41q0 -14 -9.5 -27.5t-25.5 -14.5q-16 0 -36 19.5t-43 19.5q-38 0 -67.5 -50t-29.5 -122v-129q0 -33 7 -54t15.5 -27.5t15.5 -13.5t7 -16q0 -16 -36 -16h-85
q-35 0 -35 16q0 9 7.5 16t16 13.5t16 27.5t7.5 54v209q0 19 -0.5 27t-3 21t-9 21t-17.5 14q-17 10 -17 20z" />
    <glyph glyph-name="s" unicode="s" horiz-adv-x="457" 
d="M47 125q0 18 13 30.5t32 12.5q20 0 33 -24q4 -6 14 -27t18 -32.5t22.5 -27t36 -23t49.5 -7.5q43 0 67.5 21.5t24.5 53.5q0 33 -32 56.5t-99 49.5q-79 31 -115.5 63.5t-36.5 88.5q0 61 52 95.5t114 34.5q72 0 117.5 -35.5t45.5 -80.5t-37 -45q-22 0 -33 22q-4 6 -15 30.5
t-20 36.5t-32.5 24.5t-57.5 12.5q-36 0 -62 -20.5t-26 -50.5q0 -35 26 -56.5t101 -49.5q80 -30 122.5 -64.5t42.5 -86.5q0 -53 -50 -95t-128 -42t-132.5 41.5t-54.5 93.5z" />
    <glyph glyph-name="t" unicode="t" horiz-adv-x="334" 
d="M24 473q43 52 94 96q8 7 22 7q8 0 9.5 -4t1.5 -10v-7q-2 -25 -3 -75h101q22 0 24 -7q1 -2 1 -5t-1 -7q-5 -21 -30 -21h-5l-91 2q-4 -264 -5 -304v-11q0 -38 13.5 -61.5t54.5 -23.5q44 0 80 36q5 6 11 6q3 0 7.5 -3.5t4.5 -9.5q0 -4 -2 -8q-11 -26 -43.5 -49.5
t-78.5 -23.5q-107 0 -107 132v16q0 217 4 306h-44q-23 0 -23 17q0 6 5 12z" />
    <glyph glyph-name="u" unicode="u" horiz-adv-x="590" 
d="M65 452q5 4 22 12q51 25 70 26h3q15 0 15 -17l-1 -138v-137q0 -78 29.5 -121.5t87.5 -43.5h5q58 2 108.5 49.5t50.5 121.5v131q0 34 -8 54t-17 25t-17 11t-8 16q0 6 5 10.5t22 12.5q52 25 70 26h3q15 0 15 -17l-1 -138v-216q0 -26 9.5 -40.5t20.5 -17.5t20.5 -8t9.5 -14
q0 -12 -21 -24q-46 -26 -73 -26t-29 48l-1 51q-33 -48 -81.5 -73.5t-94.5 -25.5q-75 0 -122 47.5t-47 149.5v149q0 34 -8 54t-17 25t-17 11t-8 16q0 6 5 11z" />
    <glyph glyph-name="v" unicode="v" horiz-adv-x="505" 
d="M50 480h87q36 0 36 -16q0 -5 -14.5 -15.5t-19.5 -20.5t-5 -19q0 -15 8 -41l127 -326l127 326q10 30 10 46q0 6 -3 15t-15 19.5t-12 15.5q0 16 36 16h46q35 0 35 -16q0 -7 -9 -14.5t-25.5 -28t-29.5 -53.5l-137 -351q-4 -16 -32 -23q-13 -3 -21 -3q-5 0 -10.5 2t-9.5 13
l-143 362q-13 33 -29 53.5t-24.5 28t-8.5 14.5q0 16 36 16z" />
    <glyph glyph-name="w" unicode="w" horiz-adv-x="810" 
d="M50 478h87q35 0 35 -16q0 -6 -14.5 -16.5t-19 -20.5t-4.5 -18q0 -15 8 -42l112 -286l145 395q5 12 18 15h2q10 0 13 -8l145 -407l121 293q11 30 11 46q0 5 -3 14t-15 19.5t-12 16.5q0 16 36 16h48q36 0 36 -16q0 -7 -9.5 -15t-26 -28t-30.5 -53l-146 -354q-7 -14 -24 -18
q-7 -2 -12 -2q-12 0 -14 8l-134 383l-136 -371q-6 -14 -25 -18q-7 -1 -12 -1q-12 0 -15 7l-140 364q-10 26 -21.5 45t-20 26t-14 13.5t-5.5 12.5q0 16 36 16z" />
    <glyph glyph-name="x" unicode="x" horiz-adv-x="494" 
d="M24 16q0 7 11 15t34 27.5t45 47.5l100 130l-93 137q-20 29 -43 48.5t-35 27.5t-12 15q0 16 37 16h103q36 0 36 -16q0 -5 -8 -12.5t-14.5 -14t-6.5 -17.5q0 -3 1 -13.5t17 -33.5l62 -91l66 91q17 23 18 33.5t1 13.5q0 12 -5.5 18t-13.5 13.5t-8 12.5q0 16 37 16h61
q36 0 36 -16q0 -7 -11.5 -15t-34.5 -28t-43 -48l-85 -117l102 -149q20 -29 43 -48.5t35 -27.5t12 -15q0 -16 -37 -16h-103q-36 0 -36 16q0 5 8 12.5t14.5 14t6.5 17.5q0 3 -1 13.5t-17 33.5l-71 103l-81 -104q-18 -23 -19.5 -33.5t-1.5 -14.5q0 -10 5.5 -16t13.5 -13.5
t8 -12.5q0 -16 -36 -16h-62q-35 0 -35 16z" />
    <glyph glyph-name="y" unicode="y" horiz-adv-x="508" 
d="M54 480h87q36 0 36 -16q0 -5 -14.5 -15.5t-19.5 -20.5t-5 -19q0 -15 8 -41l125 -321l128 321q10 30 10 46q0 6 -3 15t-15 19.5t-12 15.5q0 16 36 16h46q35 0 35 -16q0 -7 -9 -14.5t-25.5 -28t-29.5 -53.5l-134 -349q-6 -14 -16.5 -42.5t-15.5 -41t-15 -35t-16.5 -32.5
t-16.5 -26t-20 -23t-22.5 -15t-27.5 -11t-32 -3q-39 0 -58 18t-19 39q0 16 10 28t25 13h1q14 0 40.5 -20t46.5 -20q26 0 44.5 38.5t18.5 82.5q0 36 -21 86l-124 313q-13 33 -29 53.5t-24.5 28t-8.5 14.5q0 16 36 16z" />
    <glyph glyph-name="z" unicode="z" horiz-adv-x="497" 
d="M54 384q3 22 9 47q10 49 56 49h311q13 0 16 -5t3 -8q0 -6 -5 -14l-306 -423h135q99 0 147 74q7 11 9.5 14.5t7 6.5t8.5 3q2 0 5 -1q7 -2 7 -14q0 -6 -2 -15q-2 -16 -11 -51q-13 -47 -53 -47h-318q-14 0 -16.5 5.5t-2.5 8.5q0 6 5 13l307 424h-129q-95 0 -143 -71
q-1 -2 -3.5 -5.5t-3.5 -4.5t-3 -4t-3 -4l-3 -3q-2 -2 -3 -2.5l-3 -1.5t-3 -1t-2 0.5t-4 0.5q-10 2 -10 20q0 4 1 9z" />
    <glyph glyph-name="braceleft" unicode="{" horiz-adv-x="326" 
d="M47 355q26 7 40.5 28.5t14.5 42.5v177q0 76 32 123.5t91 51.5h4q8 0 15.5 -4t7.5 -12q0 -14 -24 -22q-27 -9 -40 -44.5t-13 -74.5v-155q0 -96 -93 -131q93 -34 93 -130v-175q0 -103 52 -116q22 -5 22 -19q0 -22 -20 -22h-4q-59 4 -91 51.5t-32 123.5v197q0 19 -16 41
t-40 30q-15 6 -15 22q0 13 16 17z" />
    <glyph glyph-name="bar" unicode="|" horiz-adv-x="167" 
d="M85 700h9q18 0 18 -18v-864q0 -18 -18 -18h-9q-18 0 -18 18v864q0 18 18 18z" />
    <glyph glyph-name="braceright" unicode="}" horiz-adv-x="326" 
d="M82 775q6 3 15 3h4q59 -4 91 -51.5t32 -123.5v-177q0 -21 14.5 -42.5t40.5 -28.5q16 -4 16 -17q0 -16 -15 -22q-24 -8 -40 -30t-16 -41v-197q0 -76 -32 -123.5t-91 -51.5h-4q-20 0 -20 22q0 14 22 19q52 13 52 116v175q0 96 93 130q-93 35 -93 131v155q0 39 -13 74.5
t-40 44.5q-24 8 -24 22q0 8 8 13z" />
    <glyph glyph-name="exclamdown" unicode="&#xa1;" horiz-adv-x="245" 
d="M73 -176q0 14 18 145t24 254q2 11 8 11t8 -11q6 -123 23.5 -253.5t17.5 -145.5q0 -24 -14 -39t-35 -15t-35.5 15t-14.5 39zM88 477q14 13 34 13t33 -11.5t13 -32.5q0 -22 -15.5 -36.5t-34.5 -14.5t-32 12t-13 34t15 36z" />
    <glyph glyph-name="cent" unicode="&#xa2;" horiz-adv-x="563" 
d="M109 438q58 73 154 89v51q0 11 4.5 14.5t13.5 3.5q18 0 18 -18v-48h8q83 0 127 -43.5t44 -80.5q0 -20 -10 -32.5t-26 -12.5q-26 0 -43 38q-13 30 -24 47t-37 31.5t-64 15.5q-74 0 -117.5 -52.5t-43.5 -134.5q0 -103 52.5 -165t137.5 -62q51 0 95 22.5t74 56.5q8 9 16 9
q3 0 8.5 -2t5.5 -10q0 -4 -3 -10q-19 -40 -71 -74.5t-129 -39.5v-54q0 -18 -18 -18t-18 18v53q-93 6 -153 71.5t-60 161.5q0 101 59 175z" />
    <glyph glyph-name="sterling" unicode="&#xa3;" horiz-adv-x="589" 
d="M52 76q0 40 28.5 64.5t67.5 24.5q41 0 87 -24q-3 54 -41 162h-85q-18 0 -18 18t18 18h73q-21 65 -21 116q0 67 48 116t125 49t128 -54q8 -8 8 -17q0 -6 -5 -13q-4 -6 -9 -6q-6 0 -13 6q-45 42 -104 42q-49 0 -77 -30t-28 -78q0 -47 21 -131h142q18 0 18 -18t-18 -18h-133
q22 -92 22 -143q0 -20 -5 -45q30 -17 42 -23.5t36.5 -15t44.5 -8.5q75 0 119 50q7 7 13 7q5 0 10 -5q4 -5 5 -13q-1 -12 -13 -30q-60 -87 -158 -87q-59 0 -129 55q-40 -55 -108 -55q-38 0 -64.5 21.5t-26.5 64.5zM104 40q18 -16 44 -16q55 0 77 43q-63 54 -93 54
q-47 0 -47 -43q0 -23 19 -38z" />
    <glyph glyph-name="yen" unicode="&#xa5;" horiz-adv-x="618" 
d="M30 595q0 15 29 15h119q27 0 27 -15q0 -8 -14 -19.5t-16.5 -18.5t-2.5 -10q0 -13 13 -41l144 -228l145 243q14 28 14 39q0 2 -1.5 7.5t-14 13t-12.5 14.5q0 15 28 15h67q31 0 31 -14q0 -10 -9.5 -14.5t-28.5 -18.5t-36 -41l-99 -164h88q18 0 18 -18t-18 -18h-110l-47 -77
h157q18 0 18 -18t-18 -18h-158v-96q0 -27 6.5 -45.5t15 -25.5t15 -14t6.5 -13q0 -15 -40 -15h-65q-39 0 -39 15q0 9 10.5 17.5t21 27.5t10.5 53v96h-167q-18 0 -18 18t18 18h166l-50 77h-116q-18 0 -18 18t18 18h92l-97 148q-14 22 -30 38.5t-27 23t-18 13.5t-7 14z" />
    <glyph glyph-name="section" unicode="&#xa7;" horiz-adv-x="600" 
d="M177 614q74 93 192 94h5q61 0 98.5 -25.5t37.5 -61.5q0 -18 -10.5 -29t-25.5 -11q-19 0 -34 14t-25 31t-31.5 31t-52.5 14q-29 0 -62.5 -19.5t-54.5 -49.5q60 -33 166 -159q57 -67 93.5 -158t36.5 -169q0 -146 -88 -239q-72 -74 -175 -75h-5q-61 0 -98.5 25.5t-37.5 61.5
q0 18 10.5 29t25.5 11q19 0 34 -14t25 -31.5t31.5 -31.5t52.5 -14q29 0 62.5 20t54.5 50q-300 229 -300 474q0 139 75 232zM155 405q19 -99 82 -213q52 -94 107 -154.5t87 -60.5q8 0 14 3q19 11 19 48q0 13 -6 53t-37 122t-69 149q-12 22 -30.5 49.5t-45.5 62t-50.5 49.5
t-37.5 15q-8 0 -14 -3q-26 -15 -26 -62q0 -25 7 -58z" />
    <glyph glyph-name="dieresis" unicode="&#xa8;" horiz-adv-x="500" 
d="M133 634q15 17 36 17q18 0 30 -11.5t12 -28.5q0 -20 -17 -34.5t-38 -14.5q-17 0 -27.5 9t-10.5 25q0 21 15 38zM266 634q15 17 36 17q18 0 30 -11.5t12 -28.5q0 -20 -17.5 -34.5t-38.5 -14.5q-16 0 -26.5 9.5t-10.5 24.5q0 21 15 38z" />
    <glyph glyph-name="copyright" unicode="&#xa9;" horiz-adv-x="832" 
d="M143 594q113 113 273 113t273 -113t113 -273t-113 -273t-273 -113t-273 113t-113 273t113 273zM169 72q102 -103 247 -103t247 103t102 249t-102 249t-247 103t-247 -103t-102 -249t102 -249zM258 489q66 71 164 71q80 0 127.5 -45.5t47.5 -102.5q0 -18 -9 -29.5
t-24 -11.5q-27 0 -39 39q-30 113 -124 116q-69 0 -109.5 -49t-40.5 -125q0 -94 49 -150.5t128 -56.5q82 0 144 71q8 8 16 8q3 0 8 -2t5 -9q0 -4 -3 -10q-19 -41 -67.5 -72.5t-127.5 -31.5q-91 0 -151 61.5t-60 153.5q0 104 66 175z" />
    <glyph glyph-name="ordfeminine" unicode="&#xaa;" horiz-adv-x="349" 
d="M66 569q36 28 92 28q58 0 103 -21v5q0 52 -20.5 75.5t-65.5 23.5q-40 0 -89 -27q-5 -3 -8 -3t-5 2t-2 5t3 8q13 17 44 31t69 14q54 0 81.5 -28t27.5 -72v-140q0 -19 6 -25.5t12 -6.5q2 0 6.5 1.5t10.5 1.5q1 0 5 -0.5t4 -5.5q0 -10 -13 -21t-28 -11q-38 0 -41 49
q-40 -54 -111 -54q-55 0 -86 28t-31 69q0 45 36 74zM76 498q1 -33 23.5 -52.5t62.5 -19.5q36 0 66 23.5t30 45.5q0 23 1 50q0 9 -28.5 18.5t-60.5 9.5q-44 0 -69 -20t-25 -50v-5z" />
    <glyph glyph-name="guillemotleft" unicode="&#xab;" horiz-adv-x="399" 
d="M235 320q8 9 12 14q65 76 79 76q11 0 12 -11v-1q0 -17 -28.5 -62.5t-59.5 -82.5q31 -37 59.5 -82.5t28.5 -62.5v-1q-1 -11 -12 -11q-14 0 -79 76q-51 59 -56 71q-2 6 -2 10q0 14 46 67zM28 253q0 3 1 7t4 9t6 9t9 11t10.5 12t13.5 16l15 17q65 76 78 76q11 0 12 -11v-2
q0 -17 -28 -61.5t-60 -82.5q32 -38 60 -82.5t28 -61.5v-2q-1 -11 -12 -11q-13 0 -78 76l-15 18l-13.5 15t-10.5 12t-9 11t-6 9t-4 9t-1 7z" />
    <glyph glyph-name="registered" unicode="&#xae;" horiz-adv-x="832" 
d="M143 594q113 113 273 113t273 -113t113 -273t-113 -273t-273 -113t-273 113t-113 273t113 273zM67 321q0 -146 102 -249t247 -103t247 103t102 249t-102 249t-247 103t-247 -103t-102 -249zM242 542q0 14 34 14h103q96 0 153.5 -40t57.5 -107q0 -97 -90 -134l58 -105
q12 -19 32 -33q14 -7 14 -18q0 -14 -26 -14h-52q-36 0 -36 16q0 8 9 15q8 7 8 16q0 8 -5 17l-53 93q-19 -3 -45 -3h-69q-8 0 -8 -9v-57q0 -43 23 -57q12 -10 12 -17q0 -14 -34 -14h-52q-34 0 -34 14q0 7 12 17q23 14 23 57v284q0 9 -2 23q-2 16 -20 26q-13 5 -13 16z
M404 290q62 0 95 27.5t33 78.5q0 57 -42 92t-112 36h-16q-18 0 -26.5 -2t-8.5 -10v-210q0 -12 77 -12z" />
    <glyph glyph-name="macron" unicode="&#xaf;" horiz-adv-x="500" 
d="M113 578q1 7 2 10.5t5.5 6.5t14.5 3h229q13 0 15 -3.5t2 -8.5q0 -4 -1 -9q-1 -7 -2 -10.5t-5.5 -6.5t-13.5 -3h-229q-14 0 -16 3.5t-2 8.5q0 4 1 9z" />
    <glyph glyph-name="degree" unicode="&#xb0;" horiz-adv-x="379" 
d="M70 661q50 49 120 49t119.5 -49.5t49.5 -119.5q0 -71 -50 -120.5t-122 -49.5q-68 0 -117.5 50t-49.5 120t50 120zM81 553q0 -66 34 -110t80 -44t74.5 37t28.5 92q0 65 -34 109.5t-81 44.5q-44 0 -73 -37t-29 -92z" />
    <glyph glyph-name="twosuperior" unicode="&#xb2;" horiz-adv-x="421" 
d="M57 296q60 51 100 89t80.5 95.5t40.5 99.5q0 43 -24.5 67.5t-65.5 24.5q-60 0 -102 -61q-2 -3 -5 -4.5t-5.5 -1.5t-5 2t-2.5 5t2 7q16 39 52 65t83 26q54 0 86.5 -34t32.5 -84v-6q-1 -60 -49 -118.5t-168 -159.5q38 -2 76 -2t75 2q28 2 47 12t28.5 19.5t14.5 9.5
q8 0 8 -11q0 -3 -1 -7q-1 -7 -8 -37q-9 -28 -29 -28h-248q-17 0 -20 6.5t-3 8.5q0 8 10 15z" />
    <glyph glyph-name="threesuperior" unicode="&#xb3;" horiz-adv-x="396" 
d="M53 319q0 7 3.5 7.5t4.5 0.5q7 0 17 -6q43 -30 104 -30q48 0 79.5 26t31.5 71q0 50 -39.5 75.5t-109.5 25.5h-5q-14 0 -14.5 5.5l-0.5 5.5q0 10 11 13q50 10 82.5 40.5t32.5 65.5v3q0 28 -20.5 41.5t-45.5 13.5q-46 0 -88 -26q-12 -7 -19 -7q-5 0 -7 4q-1 2 -1 4
q0 6 9 15q18 18 51.5 30.5t66.5 12.5q35 0 67 -20.5t32 -68.5q0 -71 -105 -109q63 -2 105.5 -34t42.5 -83q0 -56 -40 -95.5t-116 -39.5q-38 0 -71.5 13t-50.5 31q-7 7 -7 13v2z" />
    <glyph glyph-name="acute" unicode="&#xb4;" horiz-adv-x="500" 
d="M141 557q2 6 64 63q47 40 62 44l12 2l10 -2q13 -6 18 -16t5 -17t-3 -15q-10 -27 -62.5 -52.5t-79.5 -25.5q-10 0 -17 3q-11 4 -11 10q0 3 2 6z" />
    <glyph glyph-name="paragraph" unicode="&#xb6;" horiz-adv-x="600" 
d="M154 -148q0 39 40 39q6 0 11 -1.5t12 -6t10 -6t12 -9.5t11 -9q37 -29 79 -29q21 0 36.5 7.5t24.5 26.5t14 31t7 43.5t2 39.5v43l1 646h-21q-75 0 -112.5 -44.5t-37.5 -142.5q0 -76 20 -122.5t69 -65.5q10 -2 11.5 -7t1.5 -7q0 -5 -4.5 -8.5t-9.5 -3.5q-3 0 -7 1
q-77 16 -122.5 72.5t-45.5 140.5q0 96 60.5 158t153.5 62h116q45 0 45 -15q0 -8 -7 -13.5t-16 -9t-18 -14t-11 -27.5q-3 -13 -3 -38v117l-1 -676q0 -110 -49.5 -171.5t-145.5 -61.5q-54 0 -90 18.5t-36 42.5z" />
    <glyph glyph-name="periodcentered" unicode="&#xb7;" horiz-adv-x="245" 
d="M77 224q0 22 15.5 36.5t34.5 14.5t32 -12t13 -34t-14 -35q-15 -14 -35 -14t-33 11.5t-13 32.5z" />
    <glyph glyph-name="cedilla" unicode="&#xb8;" horiz-adv-x="500" 
d="M169 -166q3 3 6 3t7 -2q32 -18 59 -18q24 0 36 12.5t12 31.5q0 39 -68 56q-14 3 -14 10q0 3 2 6l36 67h26l-27 -55q92 -16 92 -77q0 -34 -26 -55.5t-63 -21.5q-53 0 -77 30q-3 4 -3 8q0 3 2 5z" />
    <glyph glyph-name="onesuperior" unicode="&#xb9;" horiz-adv-x="239" 
d="M99 699q26 8 35 9q11 0 11 -11v-358q0 -23 7 -36t14 -18.5t7 -10.5q0 -10 -26 -10h-56q-26 0 -26 9q0 5 6.5 10t14 9.5t14 17t6.5 29.5v284q0 18 -5 27.5t-23 12.5q-22 5 -22 13q0 7 43 23z" />
    <glyph glyph-name="ordmasculine" unicode="&#xba;" horiz-adv-x="377" 
d="M81 662q45 48 116 48q60 0 101 -43t41 -107q0 -69 -44 -115.5t-113 -46.5q-64 0 -105.5 39.5t-41.5 105.5q0 71 46 119zM76 567q0 -65 34 -105.5t87 -40.5q45 0 73.5 31.5t28.5 84.5q0 61 -35 104t-86 43q-46 0 -74 -32.5t-28 -84.5z" />
    <glyph glyph-name="guillemotright" unicode="&#xbb;" horiz-adv-x="401" 
d="M63 399q1 11 12 11q13 0 79 -76q51 -59 56 -71q2 -6 2 -10q0 -14 -46 -67q-8 -9 -12 -14q-66 -76 -79 -76q-11 0 -12 11v2q0 17 28 61.5t60 82.5q-32 38 -60 82.5t-28 61.5v2zM223 399q1 11 12 11q14 0 79 -76q4 -5 12 -14q44 -53 46 -67q0 -14 -46 -67q-8 -9 -12 -14
q-65 -76 -79 -76q-11 0 -12 11v1q0 17 29 63t60 82q-31 36 -60 82t-29 63v1z" />
    <glyph glyph-name="questiondown" unicode="&#xbf;" horiz-adv-x="600" 
d="M146 -94q1 30 19 60.5t40.5 52.5t51 54t43.5 60q14 27 16 78q1 9 7 12.5t10 3.5q3 0 8 -2.5t5 -12.5q0 -45 -17.5 -88.5t-39 -72.5t-40 -68t-19.5 -75v-3q0 -47 26.5 -74.5t67.5 -27.5q83 0 109 102q5 23 12 33t24 10q15 0 26 -11t11 -34q0 -49 -53 -91t-129 -42
q-81 0 -129.5 38t-48.5 93v5zM299 477q14 13 34 13t33 -11.5t13 -32.5q0 -22 -15.5 -36.5t-34.5 -14.5t-32 12t-13 34t15 36z" />
    <glyph glyph-name="Agrave" unicode="&#xc0;" horiz-adv-x="667" 
d="M6 30q8 6 19.5 10.5t27 23t27.5 48.5l194 502q5 10 5 19q0 5 -3.5 12.5t-11.5 11.5t-16.5 10.5t-8.5 15.5q0 17 25 17h78q14 0 19 -13l226 -576q11 -28 25 -45.5t24 -23t17 -11.5t7 -14q0 -17 -45 -17h-90q-36 0 -36 14q0 10 14.5 20.5t19 19t4.5 15.5q0 15 -9 42l-31 80
q-7 18 -18 22q-18 6 -147 6q-140 0 -158 -7q-12 -5 -19 -25l-29 -75q-9 -31 -9 -46q0 -6 3 -14t16.5 -16.5t13.5 -17.5q0 -18 -31 -18h-76q-35 0 -35 14q0 10 8 16zM180 253q14 -4 143 -4q121 0 131 6q3 2 3 7t-3 13l-140 354l-138 -362q-1 -4 -1 -7q0 -6 5 -7zM216 879
q6 13 20 19q4 1 6.5 1.5t4.5 0.5q3 0 6.5 -1l7 -2t8.5 -4.5t8 -5.5t9.5 -7.5t9.5 -8.5l11 -10q7 -8 11 -11q57 -60 60 -66q4 -6 4 -10t-5 -7q-8 -3 -17 -3q-28 0 -80.5 27.5t-63.5 55.5q-3 9 -3 17t3 15z" />
    <glyph glyph-name="Aacute" unicode="&#xc1;" horiz-adv-x="667" 
d="M6 30q8 6 19.5 10.5t27 23t27.5 48.5l194 502q5 10 5 19q0 5 -3.5 12.5t-11.5 11.5t-16.5 10.5t-8.5 15.5q0 17 25 17h78q14 0 19 -13l226 -576q11 -28 25 -45.5t24 -23t17 -11.5t7 -14q0 -17 -45 -17h-90q-36 0 -36 14q0 10 14.5 20.5t19 19t4.5 15.5q0 15 -9 42l-31 80
q-7 18 -18 22q-18 6 -147 6q-140 0 -158 -7q-12 -5 -19 -25l-29 -75q-9 -31 -9 -46q0 -6 3 -14t16.5 -16.5t13.5 -17.5q0 -18 -31 -18h-76q-35 0 -35 14q0 10 8 16zM180 253q14 -4 143 -4q121 0 131 6q3 2 3 7t-3 13l-140 354l-138 -362q-1 -4 -1 -7q0 -6 5 -7zM261 784
q7 11 61 66q43 41 57 47q7 3 14 3q6 0 11 -2q14 -6 18.5 -16t4.5 -18t-3 -17q-12 -28 -64.5 -55.5t-79.5 -27.5q-10 0 -17 3q-5 2 -5 7q0 4 3 10z" />
    <glyph glyph-name="Acircumflex" unicode="&#xc2;" horiz-adv-x="667" 
d="M-2 14q0 10 8 16t19.5 10.5t27 23t27.5 48.5l194 502q5 10 5 19q0 5 -3.5 12.5t-11.5 11.5t-16.5 10.5t-8.5 15.5q0 17 25 17h78q14 0 19 -13l226 -576q11 -28 25 -45.5t24 -23t17 -11.5t7 -14q0 -17 -45 -17h-90q-36 0 -36 14q0 10 14.5 20.5t19 19t4.5 15.5q0 15 -9 42
l-31 80q-7 18 -18 22q-18 6 -147 6q-140 0 -158 -7q-12 -5 -19 -25l-29 -75q-9 -31 -9 -46q0 -6 3 -14t16.5 -16.5t13.5 -17.5q0 -18 -31 -18h-76q-35 0 -35 14zM180 253q14 -4 143 -4q121 0 131 6q3 2 3 7t-3 13l-140 354l-138 -362q-1 -4 -1 -7q0 -6 5 -7zM194 766
q2 7 53 56q46 47 57 52q6 3 15 3q14 0 22.5 -6t35.5 -32l45 -44q5 -6 10.5 -12t8.5 -10t4 -7t1 -5q0 -6 -10 -7h-4q-18 0 -55 14.5t-57 30.5q-20 -16 -57 -30.5t-55 -14.5h-4q-10 1 -10 9v3z" />
    <glyph glyph-name="Atilde" unicode="&#xc3;" horiz-adv-x="667" 
d="M-2 14q0 10 8 16t19.5 10.5t27 23t27.5 48.5l194 502q5 10 5 19q0 5 -3.5 12.5t-11.5 11.5t-16.5 10.5t-8.5 15.5q0 17 25 17h78q14 0 19 -13l226 -576q11 -28 25 -45.5t24 -23t17 -11.5t7 -14q0 -17 -45 -17h-90q-36 0 -36 14q0 10 14.5 20.5t19 19t4.5 15.5q0 15 -9 42
l-31 80q-7 18 -18 22q-18 6 -147 6q-140 0 -158 -7q-12 -5 -19 -25l-29 -75q-9 -31 -9 -46q0 -6 3 -14t16.5 -16.5t13.5 -17.5q0 -18 -31 -18h-76q-35 0 -35 14zM180 253q14 -4 143 -4q121 0 131 6q3 2 3 7t-3 13l-140 354l-138 -362q-1 -4 -1 -7q0 -6 5 -7zM165 801
q0 26 18 40.5t46 14.5q37 0 91.5 -21t68.5 -21q34 0 34 28q0 12 7 12h1q11 -2 15 -24q1 -5 1 -10q0 -26 -17.5 -40t-46.5 -14q-23 0 -79.5 21t-79.5 21q-35 0 -35 -29q0 -12 -7 -12h-1q-11 2 -15 24z" />
    <glyph glyph-name="Adieresis" unicode="&#xc4;" horiz-adv-x="667" 
d="M6 30q8 6 19.5 10.5t27 23t27.5 48.5l194 502q5 10 5 19q0 5 -3.5 12.5t-11.5 11.5t-16.5 10.5t-8.5 15.5q0 17 25 17h78q14 0 19 -13l226 -576q11 -28 25 -45.5t24 -23t17 -11.5t7 -14q0 -17 -45 -17h-90q-36 0 -36 14q0 10 14.5 20.5t19 19t4.5 15.5q0 15 -9 42l-31 80
q-7 18 -18 22q-18 6 -147 6q-140 0 -158 -7q-12 -5 -19 -25l-29 -75q-9 -31 -9 -46q0 -6 3 -14t16.5 -16.5t13.5 -17.5q0 -18 -31 -18h-76q-35 0 -35 14q0 10 8 16zM180 253q14 -4 143 -4q121 0 131 6q3 2 3 7t-3 13l-140 354l-138 -362q-1 -4 -1 -7q0 -6 5 -7zM193 816
q0 21 15 38t36 17q18 0 30 -11.5t12 -28.5q0 -20 -17 -34.5t-38 -14.5q-17 0 -27.5 9t-10.5 25zM341 854q15 17 36 17q18 0 30 -11.5t12 -28.5q0 -20 -17.5 -34.5t-38.5 -14.5q-16 0 -26.5 9.5t-10.5 24.5q0 21 15 38z" />
    <glyph glyph-name="Aring" unicode="&#xc5;" horiz-adv-x="667" 
d="M-2 14q0 10 8 16t19.5 10.5t27 23t27.5 48.5l194 502q5 10 5 19q0 5 -3.5 12.5t-11.5 11.5t-16.5 10.5t-8.5 15.5q0 17 25 17h78q14 0 19 -13l226 -576q11 -28 25 -45.5t24 -23t17 -11.5t7 -14q0 -17 -45 -17h-90q-36 0 -36 14q0 10 14.5 20.5t19 19t4.5 15.5q0 15 -9 42
l-31 80q-7 18 -18 22q-18 6 -147 6q-140 0 -158 -7q-12 -5 -19 -25l-29 -75q-9 -31 -9 -46q0 -6 3 -14t16.5 -16.5t13.5 -17.5q0 -18 -31 -18h-76q-35 0 -35 14zM180 253q14 -4 143 -4q121 0 131 6q3 2 3 7t-3 13l-140 354l-138 -362q-1 -4 -1 -7q0 -6 5 -7zM223 842
q0 39 26.5 63t66.5 24q38 0 63 -23t25 -61q0 -40 -26 -63q-27 -24 -66 -24t-64 23t-25 61zM260 843q4 -25 19 -40t38 -15q24 0 37 16t13 37v6q-3 24 -18 39t-37 15q-25 0 -38.5 -15t-13.5 -37v-6z" />
    <glyph glyph-name="AE" unicode="&#xc6;" horiz-adv-x="960" 
d="M1 31q9 6 20.5 9.5t27 12.5t25.5 23l362 502q16 22 16 40q0 24 -28 42q-16 10 -16 25t24 15l390 1q40 0 50 -4.5t16 -23.5q18 -61 23 -108q1 -7 1 -12q0 -15 -10 -17h-5q-8 0 -14.5 6.5t-17.5 28.5q-23 49 -57.5 72.5t-88.5 23.5h-61q-81 0 -105 -10.5t-24 -36.5v-182
q0 -34 18 -41.5t67 -7.5h60q23 0 37 11.5t18.5 26t11.5 26t18 11.5q15 0 15 -59v-80q0 -47 -15 -47q-11 0 -18 12t-11.5 26.5t-18.5 26.5t-37 12h-53q-62 0 -76 -9q-16 -10 -16 -40v-222q0 -30 23 -40.5t104 -10.5l83 1q68 0 92.5 16.5t44.5 64.5q11 25 18 33t16 8h2
q11 -2 11 -21v-6q-6 -68 -15 -99q-5 -17 -19.5 -23.5t-59.5 -6.5h-372q-46 0 -46 15q0 8 7.5 13.5t16.5 9t18 14t11 27.5q3 13 3 38v105h-250l-104 -143q-8 -15 -8 -22q0 -3 3 -7t14.5 -13t11.5 -19q0 -18 -31 -18h-76q-35 0 -35 14q0 10 9 17zM467 250v316l-230 -316h230z
" />
    <glyph glyph-name="Ccedilla" unicode="&#xc7;" horiz-adv-x="674" 
d="M140 602q100 108 248 108q37 0 82 -9.5t57 -9.5q11 0 23 8.5t17 8.5q13 0 19 -9.5t16 -43.5q10 -35 28 -119q0 -4 1 -8q-1 -17 -13 -20h-2q-14 0 -32 31q-46 72 -96 100t-129 28q-113 0 -183.5 -84.5t-70.5 -219.5q0 -145 81 -236.5t206 -91.5q132 0 220 98q8 9 14 9
q4 0 8 -6q4 -5 4 -12q0 -10 -9 -22q-37 -48 -111 -80t-149 -32h-3l-22 -45q92 -16 92 -77q0 -34 -26 -55.5t-63 -21.5q-53 0 -77 30q-3 4 -3 8q0 3 2.5 5.5t5.5 2.5t7 -2q32 -18 59 -18q24 0 36 12.5t12 31.5q0 39 -68 56q-14 3 -14 10q0 3 2 6l31 58q-139 9 -220 101
t-81 239q0 162 101 271z" />
    <glyph glyph-name="Egrave" unicode="&#xc8;" horiz-adv-x="598" 
d="M57 29q7 5 16 8.5t18 14t11 27.5q3 14 3 38v466q0 25 -3 38q-2 17 -11 27.5t-18 14t-16 9t-7 13.5q0 15 45 15l365 1q40 0 50 -4.5t16 -23.5q18 -61 24 -108q1 -5 1 -9q0 -18 -11 -20h-5q-8 0 -14 6t-18 29q-23 49 -57.5 72.5t-88.5 23.5h-61q-81 0 -105 -10.5t-24 -36.5
v-182q0 -34 18 -41.5t67 -7.5h61q22 0 36 11.5t18.5 26t12 26t17.5 11.5q9 0 12 -12.5t3 -46.5v-80q0 -47 -15 -47q-10 0 -17.5 12t-12 26.5t-18.5 26.5t-36 12h-54q-62 0 -76 -9q-16 -10 -16 -40v-222q0 -30 23 -40.5t104 -10.5l83 1q69 0 93 16.5t44 64.5q11 25 18 33
t16 8h2q11 -2 11 -21v-6q-6 -68 -15 -99q-5 -17 -19.5 -23.5t-59.5 -6.5h-372q-45 0 -45 15q0 8 7 14zM98 879q6 13 20 19q4 1 6.5 1.5t4.5 0.5q3 0 6.5 -1l7 -2t8.5 -4.5t8 -5.5t9.5 -7.5t9.5 -8.5l11 -10q7 -8 11 -11q57 -60 60 -66q4 -6 4 -10t-5 -7q-8 -3 -17 -3
q-28 0 -80.5 27.5t-63.5 55.5q-3 9 -3 17t3 15z" />
    <glyph glyph-name="Eacute" unicode="&#xc9;" horiz-adv-x="598" 
d="M57 29q7 5 16 8.5t18 14t11 27.5q3 14 3 38v466q0 25 -3 38q-2 17 -11 27.5t-18 14t-16 9t-7 13.5q0 15 45 15l365 1q40 0 50 -4.5t16 -23.5q18 -61 24 -108q1 -5 1 -9q0 -18 -11 -20h-5q-8 0 -14 6t-18 29q-23 49 -57.5 72.5t-88.5 23.5h-61q-81 0 -105 -10.5t-24 -36.5
v-182q0 -34 18 -41.5t67 -7.5h61q22 0 36 11.5t18.5 26t12 26t17.5 11.5q9 0 12 -12.5t3 -46.5v-80q0 -47 -15 -47q-10 0 -17.5 12t-12 26.5t-18.5 26.5t-36 12h-54q-62 0 -76 -9q-16 -10 -16 -40v-222q0 -30 23 -40.5t104 -10.5l83 1q69 0 93 16.5t44 64.5q11 25 18 33
t16 8h2q11 -2 11 -21v-6q-6 -68 -15 -99q-5 -17 -19.5 -23.5t-59.5 -6.5h-372q-45 0 -45 15q0 8 7 14zM143 784q7 11 61 66q43 41 57 47q7 3 14 3q6 0 11 -2q14 -6 18.5 -16t4.5 -18t-3 -17q-12 -28 -64.5 -55.5t-79.5 -27.5q-10 0 -17 3q-5 2 -5 7q0 4 3 10z" />
    <glyph glyph-name="Ecircumflex" unicode="&#xca;" horiz-adv-x="598" 
d="M57 29q7 5 16 8.5t18 14t11 27.5q3 14 3 38v466q0 25 -3 38q-2 17 -11 27.5t-18 14t-16 9t-7 13.5q0 15 45 15l365 1q40 0 50 -4.5t16 -23.5q18 -61 24 -108q1 -5 1 -9q0 -18 -11 -20h-5q-8 0 -14 6t-18 29q-23 49 -57.5 72.5t-88.5 23.5h-61q-81 0 -105 -10.5t-24 -36.5
v-182q0 -34 18 -41.5t67 -7.5h61q22 0 36 11.5t18.5 26t12 26t17.5 11.5q9 0 12 -12.5t3 -46.5v-80q0 -47 -15 -47q-10 0 -17.5 12t-12 26.5t-18.5 26.5t-36 12h-54q-62 0 -76 -9q-16 -10 -16 -40v-222q0 -30 23 -40.5t104 -10.5l83 1q69 0 93 16.5t44 64.5q11 25 18 33
t16 8h2q11 -2 11 -21v-6q-6 -68 -15 -99q-5 -17 -19.5 -23.5t-59.5 -6.5h-372q-45 0 -45 15q0 8 7 14zM77 766q2 7 53 56q46 47 57 52q6 3 15 3q14 0 22.5 -6t35.5 -32l45 -44q5 -6 10.5 -12t8.5 -10t4 -7t1 -5q0 -6 -10 -7h-4q-18 0 -55 14.5t-57 30.5q-20 -16 -57 -30.5
t-55 -14.5h-4q-10 1 -10 9v3z" />
    <glyph glyph-name="Edieresis" unicode="&#xcb;" horiz-adv-x="598" 
d="M95 700l365 1q40 0 50 -4.5t16 -23.5q18 -61 24 -108q1 -5 1 -9q0 -18 -11 -20h-5q-8 0 -14 6t-18 29q-23 49 -57.5 72.5t-88.5 23.5h-61q-81 0 -105 -10.5t-24 -36.5v-182q0 -34 18 -41.5t67 -7.5h61q22 0 36 11.5t18.5 26t12 26t17.5 11.5q9 0 12 -12.5t3 -46.5v-80
q0 -47 -15 -47q-10 0 -17.5 12t-12 26.5t-18.5 26.5t-36 12h-54q-62 0 -76 -9q-16 -10 -16 -40v-222q0 -30 23 -40.5t104 -10.5l83 1q69 0 93 16.5t44 64.5q11 25 18 33t16 8h2q11 -2 11 -21v-6q-6 -68 -15 -99q-5 -17 -19.5 -23.5t-59.5 -6.5h-372q-45 0 -45 15q0 8 7 13.5
t16 9t18 14t11 27.5q3 14 3 38v466q0 25 -3 38q-2 17 -11 27.5t-18 14t-16 9t-7 13.5q0 15 45 15zM75 816q0 21 15 38t36 17q18 0 30 -11.5t12 -28.5q0 -20 -17 -34.5t-38 -14.5q-17 0 -27.5 9t-10.5 25zM223 854q15 17 36 17q18 0 30 -11.5t12 -28.5q0 -20 -17.5 -34.5
t-38.5 -14.5q-16 0 -26.5 9.5t-10.5 24.5q0 21 15 38z" />
    <glyph glyph-name="Igrave" unicode="&#xcc;" horiz-adv-x="272" 
d="M59 31q8 6 18.5 11.5t19 28.5t8.5 60v438q0 37 -8.5 60t-18 28.5t-18 12t-8.5 15.5q0 15 45 15h80q46 0 46 -15q0 -8 -6 -13t-14 -9.5t-16 -13t-14 -29t-6 -51.5v-438q0 -37 8.5 -60t18.5 -28.5t18.5 -12t8.5 -15.5q0 -15 -46 -15h-80q-45 0 -45 15q0 9 9 16zM38 879
q6 13 20 19q4 1 6.5 1.5t4.5 0.5q3 0 6.5 -1l7 -2t8.5 -4.5t8 -5.5t9.5 -7.5t9.5 -8.5l11 -10q7 -8 11 -11q57 -60 60 -66q4 -6 4 -10t-5 -7q-8 -3 -17 -3q-28 0 -80.5 27.5t-63.5 55.5q-3 9 -3 17t3 15z" />
    <glyph glyph-name="Iacute" unicode="&#xcd;" horiz-adv-x="272" 
d="M59 31q8 6 18.5 11.5t19 28.5t8.5 60v438q0 37 -8.5 60t-18 28.5t-18 12t-8.5 15.5q0 15 45 15h80q46 0 46 -15q0 -8 -6 -13t-14 -9.5t-16 -13t-14 -29t-6 -51.5v-438q0 -37 8.5 -60t18.5 -28.5t18.5 -12t8.5 -15.5q0 -15 -46 -15h-80q-45 0 -45 15q0 9 9 16zM83 784
q7 11 61 66q43 41 57 47q7 3 14 3q6 0 11 -2q14 -6 18.5 -16t4.5 -18t-3 -17q-12 -28 -64.5 -55.5t-79.5 -27.5q-10 0 -17 3q-5 2 -5 7q0 4 3 10z" />
    <glyph glyph-name="Icircumflex" unicode="&#xce;" horiz-adv-x="272" 
d="M59 31q8 6 18.5 11.5t19 28.5t8.5 60v438q0 37 -8.5 60t-18 28.5t-18 12t-8.5 15.5q0 15 45 15h80q46 0 46 -15q0 -8 -6 -13t-14 -9.5t-16 -13t-14 -29t-6 -51.5v-438q0 -37 8.5 -60t18.5 -28.5t18.5 -12t8.5 -15.5q0 -15 -46 -15h-80q-45 0 -45 15q0 9 9 16zM17 766
q2 7 53 56q46 47 57 52q6 3 15 3q14 0 22.5 -6t35.5 -32l45 -44q5 -6 10.5 -12t8.5 -10t4 -7t1 -5q0 -6 -10 -7h-4q-18 0 -55 14.5t-57 30.5q-20 -16 -57 -30.5t-55 -14.5h-4q-10 1 -10 9v3z" />
    <glyph glyph-name="Idieresis" unicode="&#xcf;" horiz-adv-x="272" 
d="M59 31q8 6 18.5 11.5t19 28.5t8.5 60v438q0 37 -8.5 60t-18 28.5t-18 12t-8.5 15.5q0 15 45 15h80q46 0 46 -15q0 -8 -6 -13t-14 -9.5t-16 -13t-14 -29t-6 -51.5v-438q0 -37 8.5 -60t18.5 -28.5t18.5 -12t8.5 -15.5q0 -15 -46 -15h-80q-45 0 -45 15q0 9 9 16zM30 854
q15 17 36 17q18 0 30 -11.5t12 -28.5q0 -20 -17 -34.5t-38 -14.5q-17 0 -27.5 9t-10.5 25q0 21 15 38zM163 854q15 17 36 17q18 0 30 -11.5t12 -28.5q0 -20 -17.5 -34.5t-38.5 -14.5q-16 0 -26.5 9.5t-10.5 24.5q0 21 15 38z" />
    <glyph glyph-name="Eth" unicode="&#xd0;" horiz-adv-x="729" 
d="M-25 346q0 10 4.5 14t19.5 4h121v219q0 25 -3 38q-3 17 -12 27.5t-18 14t-16 9t-7 13.5q0 15 46 15h185q84 0 153 -21t113 -55t74 -79t43 -91t13 -93q0 -72 -18.5 -133t-58.5 -114t-114 -83.5t-175 -30.5h-215q-46 0 -46 15q0 8 7 13.5t16 9t18 14t12 27.5q3 14 3 38v214
h-121q-24 0 -24 15zM181 364h18q15 0 19.5 -4t4.5 -14q0 -15 -24 -15h-18v-238q0 -34 26.5 -46.5t107.5 -12.5q307 0 307 285q0 154 -95.5 251t-271.5 97q-45 0 -59.5 -8.5t-14.5 -35.5v-259z" />
    <glyph glyph-name="Ntilde" unicode="&#xd1;" horiz-adv-x="746" 
d="M45 685q0 15 46 15h23q12 0 20 -11l486 -590l-2 484q0 30 -8.5 48t-18.5 23t-18 11.5t-8 16.5q0 18 44 18h54q42 0 42 -18q0 -10 -8.5 -17t-18 -12t-18 -22.5t-8.5 -47.5v-556q0 -27 -16 -27h-7q-10 0 -27 21l-469 573l2 -477q0 -24 6 -40.5t13.5 -23.5t15.5 -11.5
t13.5 -10t5.5 -13.5q0 -18 -45 -18h-54q-42 0 -42 18q0 10 8.5 17t18 12t18 22.5t8.5 47.5v466q0 25 -3 38q-3 17 -12 27.5t-18 14t-16 9t-7 13.5zM243 842q18 14 46 14q37 0 91.5 -21t68.5 -21q34 0 34 28q0 12 7 12h1q11 -2 15 -24q1 -5 1 -10q0 -26 -17.5 -40t-46.5 -14
q-23 0 -79.5 21t-79.5 21q-35 0 -35 -29q0 -12 -7 -12h-1q-11 2 -15 24l-1 10q0 26 18 41z" />
    <glyph glyph-name="Ograve" unicode="&#xd2;" horiz-adv-x="765" 
d="M39 322q0 164 103 276t262 112q146 0 234 -93.5t88 -238.5q0 -169 -100.5 -278.5t-263.5 -109.5q-148 0 -235.5 93t-87.5 239zM101 384q0 -157 81.5 -253t216.5 -96q121 0 191.5 88.5t70.5 209.5q0 145 -79 240t-210 95q-123 0 -197 -87.5t-74 -196.5zM287 879
q6 13 20 19q4 1 6.5 1.5t4.5 0.5q3 0 6.5 -1l7 -2t8.5 -4.5t8 -5.5t9.5 -7.5t9.5 -8.5l11 -10q7 -8 11 -11q57 -60 60 -66q4 -6 4 -10t-5 -7q-8 -3 -17 -3q-28 0 -80.5 27.5t-63.5 55.5q-3 9 -3 17t3 15z" />
    <glyph glyph-name="Oacute" unicode="&#xd3;" horiz-adv-x="765" 
d="M142 598q103 112 262 112q146 0 234 -93.5t88 -238.5q0 -169 -100.5 -278.5t-263.5 -109.5q-148 0 -235.5 93t-87.5 239q0 164 103 276zM101 384q0 -157 81.5 -253t216.5 -96q121 0 191.5 88.5t70.5 209.5q0 145 -79 240t-210 95q-123 0 -197 -87.5t-74 -196.5zM332 784
q7 11 61 66q43 41 57 47q7 3 14 3q6 0 11 -2q14 -6 18.5 -16t4.5 -18t-3 -17q-12 -28 -64.5 -55.5t-79.5 -27.5q-10 0 -17 3q-5 2 -5 7q0 4 3 10z" />
    <glyph glyph-name="Ocircumflex" unicode="&#xd4;" horiz-adv-x="765" 
d="M142 598q103 112 262 112q146 0 234 -93.5t88 -238.5q0 -169 -100.5 -278.5t-263.5 -109.5q-148 0 -235.5 93t-87.5 239q0 164 103 276zM183 131q81 -96 216 -96q121 0 191.5 88.5t70.5 209.5q0 145 -79 240t-210 95q-123 0 -197 -87.5t-74 -196.5q0 -157 82 -253z
M265 766q2 7 53 56q46 47 57 52q6 3 15 3q14 0 22.5 -6t35.5 -32l45 -44q5 -6 10.5 -12t8.5 -10t4 -7t1 -5q0 -6 -10 -7h-4q-18 0 -55 14.5t-57 30.5q-20 -16 -57 -30.5t-55 -14.5h-4q-10 1 -10 9v3z" />
    <glyph glyph-name="Otilde" unicode="&#xd5;" horiz-adv-x="765" 
d="M39 322q0 164 103 276t262 112q146 0 234 -93.5t88 -238.5q0 -169 -100.5 -278.5t-263.5 -109.5q-148 0 -235.5 93t-87.5 239zM183 131q81 -96 216 -96q121 0 191.5 88.5t70.5 209.5q0 145 -79 240t-210 95q-123 0 -197 -87.5t-74 -196.5q0 -157 82 -253zM236 801
q0 26 18 40.5t46 14.5q37 0 91.5 -21t68.5 -21q34 0 34 28q0 12 7 12h1q11 -2 15 -24q1 -5 1 -10q0 -26 -17.5 -40t-46.5 -14q-23 0 -79.5 21t-79.5 21q-35 0 -35 -29q0 -12 -7 -12h-1q-11 2 -15 24z" />
    <glyph glyph-name="Odieresis" unicode="&#xd6;" horiz-adv-x="765" 
d="M142 598q103 112 262 112q146 0 234 -93.5t88 -238.5q0 -169 -100.5 -278.5t-263.5 -109.5q-148 0 -235.5 93t-87.5 239q0 164 103 276zM101 384q0 -157 81.5 -253t216.5 -96q121 0 191.5 88.5t70.5 209.5q0 145 -79 240t-210 95q-123 0 -197 -87.5t-74 -196.5zM279 854
q15 17 36 17q18 0 30 -11.5t12 -28.5q0 -20 -17 -34.5t-38 -14.5q-17 0 -27.5 9t-10.5 25q0 21 15 38zM397 816q0 21 15 38t36 17q18 0 30 -11.5t12 -28.5q0 -20 -17.5 -34.5t-38.5 -14.5q-16 0 -26.5 9.5t-10.5 24.5z" />
    <glyph glyph-name="multiply" unicode="&#xd7;" horiz-adv-x="413" 
d="M60 256q0 8 13 21l101 101l-101 100q-13 13 -13 21t12 20t20 12t21 -13l101 -100l100 100q13 13 21 13t20 -12t12 -20t-13 -21l-100 -100l100 -101q13 -13 13 -21t-12 -20t-20 -12t-21 13l-100 101l-101 -101q-13 -13 -21 -13t-20 12t-12 20z" />
    <glyph glyph-name="Oslash" unicode="&#xd8;" horiz-adv-x="765" 
d="M142 598q103 112 262 112q86 0 152 -34l61 105q6 12 15 12q5 0 12 -4q5 -3 5 -10t-6 -18l-58 -101q67 -43 104 -117t37 -165q0 -169 -100.5 -278.5t-263.5 -109.5q-81 0 -147 30l-52 -90q-7 -12 -15 -12q-5 0 -10 3q-6 6 -6 14q0 7 5 15l49 85q-70 43 -108.5 117.5
t-38.5 169.5q0 164 103 276zM101 384q0 -195 119 -290l306 529q-67 45 -154 45q-123 0 -197 -87.5t-74 -196.5zM399 35q121 0 191.5 88.5t70.5 209.5q0 176 -109 271l-305 -529q66 -40 152 -40z" />
    <glyph glyph-name="Ugrave" unicode="&#xd9;" horiz-adv-x="707" 
d="M50 683q0 15 46 15h80q46 0 46 -15q0 -9 -9 -15.5t-19 -12t-19 -28.5t-9 -60v-318q0 -108 56 -165t156 -57q101 0 156.5 66t55.5 165l-4 325q0 30 -8 48t-17.5 23t-18 11.5t-8.5 16.5q0 18 45 18h54q42 0 42 -18q0 -10 -8.5 -17t-18 -12t-18 -22.5t-8.5 -47.5l-1 -317
q0 -119 -64.5 -197.5t-190.5 -78.5q-119 0 -190.5 74.5t-71.5 194.5v308q0 37 -8.5 60t-18.5 28.5t-18.5 12t-8.5 15.5zM316 879q6 13 20 19q4 1 6.5 1.5t4.5 0.5q3 0 6.5 -1l7 -2t8.5 -4.5t8 -5.5t9.5 -7.5t9.5 -8.5l11 -10q7 -8 11 -11q57 -60 60 -66q4 -6 4 -10t-5 -7
q-8 -3 -17 -3q-28 0 -80.5 27.5t-63.5 55.5q-3 9 -3 17t3 15z" />
    <glyph glyph-name="Uacute" unicode="&#xda;" horiz-adv-x="707" 
d="M96 698h80q46 0 46 -15q0 -9 -9 -15.5t-19 -12t-19 -28.5t-9 -60v-318q0 -108 56 -165t156 -57q101 0 156.5 66t55.5 165l-4 325q0 30 -8 48t-17.5 23t-18 11.5t-8.5 16.5q0 18 45 18h54q42 0 42 -18q0 -10 -8.5 -17t-18 -12t-18 -22.5t-8.5 -47.5l-1 -317
q0 -119 -64.5 -197.5t-190.5 -78.5q-119 0 -190.5 74.5t-71.5 194.5v308q0 37 -8.5 60t-18.5 28.5t-18.5 12t-8.5 15.5q0 15 46 15zM361 784q7 11 61 66q43 41 57 47q7 3 14 3q6 0 11 -2q14 -6 18.5 -16t4.5 -18t-3 -17q-12 -28 -64.5 -55.5t-79.5 -27.5q-10 0 -17 3
q-5 2 -5 7q0 4 3 10z" />
    <glyph glyph-name="Ucircumflex" unicode="&#xdb;" horiz-adv-x="707" 
d="M96 698h80q46 0 46 -15q0 -9 -9 -15.5t-19 -12t-19 -28.5t-9 -60v-318q0 -108 56 -165t156 -57q101 0 156.5 66t55.5 165l-4 325q0 30 -8 48t-17.5 23t-18 11.5t-8.5 16.5q0 18 45 18h54q42 0 42 -18q0 -10 -8.5 -17t-18 -12t-18 -22.5t-8.5 -47.5l-1 -317
q0 -119 -64.5 -197.5t-190.5 -78.5q-119 0 -190.5 74.5t-71.5 194.5v308q0 37 -8.5 60t-18.5 28.5t-18.5 12t-8.5 15.5q0 15 46 15zM295 766q2 7 53 56q46 47 57 52q6 3 15 3q14 0 22.5 -6t35.5 -32l45 -44q5 -6 10.5 -12t8.5 -10t4 -7t1 -5q0 -6 -10 -7h-4q-18 0 -55 14.5
t-57 30.5q-20 -16 -57 -30.5t-55 -14.5h-4q-10 1 -10 9v3z" />
    <glyph glyph-name="Udieresis" unicode="&#xdc;" horiz-adv-x="707" 
d="M96 698h80q46 0 46 -15q0 -9 -9 -15.5t-19 -12t-19 -28.5t-9 -60v-318q0 -108 56 -165t156 -57q101 0 156.5 66t55.5 165l-4 325q0 30 -8 48t-17.5 23t-18 11.5t-8.5 16.5q0 18 45 18h54q42 0 42 -18q0 -10 -8.5 -17t-18 -12t-18 -22.5t-8.5 -47.5l-1 -317
q0 -119 -64.5 -197.5t-190.5 -78.5q-119 0 -190.5 74.5t-71.5 194.5v308q0 37 -8.5 60t-18.5 28.5t-18.5 12t-8.5 15.5q0 15 46 15zM293 816q0 21 15 38t36 17q18 0 30 -11.5t12 -28.5q0 -20 -17 -34.5t-38 -14.5q-17 0 -27.5 9t-10.5 25zM426 816q0 21 15 38t36 17
q18 0 30 -11.5t12 -28.5q0 -20 -17.5 -34.5t-38.5 -14.5q-16 0 -26.5 9.5t-10.5 24.5z" />
    <glyph glyph-name="Yacute" unicode="&#xdd;" horiz-adv-x="638" 
d="M3 682q0 18 47 18h109q37 0 37 -14q0 -9 -10 -17.5t-19.5 -14.5t-9.5 -22t16 -39l169 -246l166 260q17 31 17 41q0 1 -1 5.5t-11 12.5t-10 16q0 18 31 18h69q35 0 35 -14q0 -10 -8 -15.5t-20 -9t-29.5 -17.5t-32.5 -37l-193 -300v-176q0 -37 8.5 -60t18.5 -28.5t18.5 -12
t8.5 -15.5q0 -15 -46 -15h-79q-46 0 -46 15q0 9 9 15.5t19 12t19 28.5t9 60v179l-198 284q-17 24 -35.5 40.5t-30.5 21.5t-19.5 11.5t-7.5 14.5zM281 784q7 11 61 66q43 41 57 47q7 3 14 3q6 0 11 -2q14 -6 18.5 -16t4.5 -18t-3 -17q-12 -28 -64.5 -55.5t-79.5 -27.5
q-10 0 -17 3q-5 2 -5 7q0 4 3 10z" />
    <glyph glyph-name="Thorn" unicode="&#xde;" horiz-adv-x="575" 
d="M59 32q8 6 18.5 11.5t19 28.5t8.5 60v432q0 33 -7 56t-15.5 31.5t-15.5 17t-7 16.5q0 15 42 15h68q42 0 42 -15q0 -8 -7 -15.5t-15.5 -14.5t-15.5 -30.5t-7 -61.5l89 1h8q120 0 200.5 -57t80.5 -164q0 -181 -274 -181h-84q-15 0 -17.5 -2.5t-2.5 -17.5v-10q0 -37 8.5 -60
t18.5 -28.5t18.5 -12t8.5 -15.5q0 -15 -46 -15h-80q-45 0 -45 15q0 9 9 16zM172 209q4 -5 24.5 -9t61.5 -4q216 0 216 149q0 180 -252 185h-9q-26 0 -36 -5.5t-10 -21.5v-279q0 -10 5 -15z" />
    <glyph glyph-name="germandbls" unicode="&#xdf;" horiz-adv-x="585" 
d="M372 -10q-37 0 -83.5 13t-64.5 45q-15 30 -15 70q0 37 16 37q3 0 5 -1t4 -4t3.5 -6t4.5 -8.5t5 -9.5q16 -28 31 -47.5t45 -37.5t66 -18q41 0 66 23.5t25 59.5q0 47 -25.5 75t-76.5 55q-3 2 -21.5 11.5t-24 12.5t-20 12t-20 16t-13.5 17.5t-11 22t-3 25.5q0 34 33 99
t33 124q0 39 -18.5 69.5t-59.5 30.5q-23 0 -40 -8.5t-27 -27t-16 -34t-8 -44t-2.5 -41.5t-0.5 -41l-1 -360q0 -28 5 -47t11 -26.5t11 -15.5t5 -16q0 -9 -8.5 -12t-35.5 -3h-52q-25 0 -33.5 3.5t-8.5 12.5q0 7 11 17t22.5 31.5t11.5 57.5v355q0 108 48 170.5t127 62.5
q65 0 97 -35t32 -87q0 -42 -44.5 -108.5t-44.5 -103.5q0 -7 2.5 -13t8 -12t11 -10.5t16 -10.5t18 -10.5t21.5 -11.5t22 -12q76 -44 98 -66q32 -33 32 -79q0 -68 -48 -115t-121 -46z" />
    <glyph glyph-name="agrave" unicode="&#xe0;" horiz-adv-x="522" 
d="M79 263q57 45 147 45q93 0 165 -33v10q0 81 -32.5 119t-104.5 38q-41 0 -71 -10.5t-72 -33.5q-7 -4 -13 -4q-5 0 -9 3t-4 8t6 13q21 27 70.5 49t110.5 22q87 0 131 -44.5t44 -114.5v-225q0 -30 10 -40.5t19 -10.5q3 0 10 2t17 2q2 0 8 -0.5t6 -8.5q0 -15 -20.5 -33
t-45.5 -18q-59 0 -65 78q-64 -86 -177 -86q-88 0 -137.5 45t-49.5 110q0 72 57 118zM94 151q2 -54 38 -85.5t101 -31.5q57 0 105 38t49 74v79q0 15 -45 30t-97 15q-70 0 -110.5 -32t-40.5 -82v-5zM193 645q6 13 19 19q4 1 9 1q20 0 49 -24q3 -2 26 -21q62 -57 64 -63
q2 -3 2 -6q0 -6 -11 -10q-7 -3 -17 -3q-27 0 -79.5 25.5t-62.5 52.5q-3 7 -3 14q0 8 4 15z" />
    <glyph glyph-name="aacute" unicode="&#xe1;" horiz-adv-x="522" 
d="M79 263q57 45 147 45q93 0 165 -33v10q0 81 -32.5 119t-104.5 38q-41 0 -71 -10.5t-72 -33.5q-7 -4 -13 -4q-5 0 -9 3t-4 8t6 13q21 27 70.5 49t110.5 22q87 0 131 -44.5t44 -114.5v-225q0 -30 10 -40.5t19 -10.5q3 0 10 2t17 2q2 0 8 -0.5t6 -8.5q0 -15 -20.5 -33
t-45.5 -18q-59 0 -65 78q-64 -86 -177 -86q-88 0 -137.5 45t-49.5 110q0 72 57 118zM94 151q2 -54 38 -85.5t101 -31.5q57 0 105 38t49 74v79q0 15 -45 30t-97 15q-70 0 -110.5 -32t-40.5 -82v-5zM203 557q2 6 64 63q47 40 62 44l12 2l10 -2q13 -6 18 -16t5 -17t-3 -15
q-10 -27 -62.5 -52.5t-79.5 -25.5q-10 0 -17 3q-11 4 -11 10q0 3 2 6z" />
    <glyph glyph-name="acircumflex" unicode="&#xe2;" horiz-adv-x="522" 
d="M79 263q57 45 147 45q93 0 165 -33v10q0 81 -32.5 119t-104.5 38q-41 0 -71 -10.5t-72 -33.5q-7 -4 -13 -4q-5 0 -9 3t-4 8t6 13q21 27 70.5 49t110.5 22q87 0 131 -44.5t44 -114.5v-225q0 -30 10 -40.5t19 -10.5q3 0 10 2t17 2q2 0 8 -0.5t6 -8.5q0 -15 -20.5 -33
t-45.5 -18q-59 0 -65 78q-64 -86 -177 -86q-88 0 -137.5 45t-49.5 110q0 72 57 118zM94 151q2 -54 38 -85.5t101 -31.5q57 0 105 38t49 74v79q0 15 -45 30t-97 15q-70 0 -110.5 -32t-40.5 -82v-5zM162 553q1 6 43 64q30 41 39.5 50t29.5 9q4 0 7.5 -0.5t6 -0.5t5.5 -2t5 -3
t4.5 -4t4.5 -5t5.5 -7.5t5.5 -8.5t7.5 -11t8.5 -13q10 -16 22 -32t18 -24.5t6 -11.5q0 -11 -11 -12h-2q-16 0 -45.5 18.5t-50.5 40.5q-21 -22 -50.5 -40.5t-45.5 -18.5h-2q-11 1 -11 12z" />
    <glyph glyph-name="atilde" unicode="&#xe3;" horiz-adv-x="522" 
d="M22 145q0 72 57 117.5t147 45.5q93 0 165 -33v10q0 81 -32.5 119t-104.5 38q-41 0 -71 -10.5t-72 -33.5q-7 -4 -13 -4q-5 0 -9 3t-4 8t6 13q21 27 70.5 49t110.5 22q87 0 131 -44.5t44 -114.5v-225q0 -30 10 -40.5t19 -10.5q3 0 10 2t17 2q2 0 8 -0.5t6 -8.5
q0 -15 -20.5 -33t-45.5 -18q-59 0 -65 78q-64 -86 -177 -86q-88 0 -137.5 45t-49.5 110zM94 151q2 -54 38 -85.5t101 -31.5q57 0 105 38t49 74v79q0 15 -45 30t-97 15q-70 0 -110.5 -32t-40.5 -82v-5zM139 622q18 14 46 14q37 0 91.5 -21t68.5 -21q34 0 34 28q0 12 7 12h1
q11 -2 15 -24q1 -5 1 -10q0 -26 -17.5 -40t-46.5 -14q-23 0 -79.5 21t-79.5 21q-35 0 -35 -29q0 -12 -7 -12h-1q-11 2 -15 24q-1 5 -1 10q0 26 18 41z" />
    <glyph glyph-name="adieresis" unicode="&#xe4;" horiz-adv-x="522" 
d="M22 145q0 72 57 117.5t147 45.5q93 0 165 -33v10q0 81 -32.5 119t-104.5 38q-41 0 -71 -10.5t-72 -33.5q-7 -4 -13 -4q-5 0 -9 3t-4 8t6 13q21 27 70.5 49t110.5 22q87 0 131 -44.5t44 -114.5v-225q0 -30 10 -40.5t19 -10.5q3 0 10 2t17 2q2 0 8 -0.5t6 -8.5
q0 -15 -20.5 -33t-45.5 -18q-59 0 -65 78q-64 -86 -177 -86q-88 0 -137.5 45t-49.5 110zM94 151q2 -54 38 -85.5t101 -31.5q57 0 105 38t49 74v79q0 15 -45 30t-97 15q-70 0 -110.5 -32t-40.5 -82v-5zM152 612q0 21 15.5 38t36.5 17q18 0 29.5 -11.5t11.5 -28.5
q0 -20 -17 -35t-38 -15q-16 0 -27 10t-11 25zM285 612q0 21 15.5 38t36.5 17q17 0 29 -11.5t12 -28.5q0 -20 -17 -35t-38 -15q-16 0 -27 10t-11 25z" />
    <glyph glyph-name="aring" unicode="&#xe5;" horiz-adv-x="522" 
d="M79 263q57 45 147 45q93 0 165 -33v10q0 81 -32.5 119t-104.5 38q-41 0 -71 -10.5t-72 -33.5q-7 -4 -13 -4q-5 0 -9 3t-4 8t6 13q21 27 70.5 49t110.5 22q87 0 131 -44.5t44 -114.5v-225q0 -30 10 -40.5t19 -10.5q3 0 10 2t17 2q2 0 8 -0.5t6 -8.5q0 -15 -20.5 -33
t-45.5 -18q-59 0 -65 78q-64 -86 -177 -86q-88 0 -137.5 45t-49.5 110q0 72 57 118zM94 151q2 -54 38 -85.5t101 -31.5q57 0 105 38t49 74v79q0 15 -45 30t-97 15q-70 0 -110.5 -32t-40.5 -82v-5zM179 622q0 39 26.5 63t66.5 24q38 0 63 -23t25 -61q0 -40 -26 -63
q-27 -24 -66 -24t-64 23t-25 61zM216 623q4 -25 19 -40t38 -15q24 0 37 16t13 37v6q-3 24 -18 39t-37 15q-25 0 -38.5 -15t-13.5 -37v-6z" />
    <glyph glyph-name="ae" unicode="&#xe6;" horiz-adv-x="860" 
d="M94 220q43 38 113 55q81 18 189 27q0 60 -34.5 100t-112.5 40q-54 0 -132 -44q-7 -4 -13 -4q-5 0 -9 3t-4 8t6 13q21 27 70.5 49t110.5 22q126 0 165 -97q71 98 201 98q89 0 145.5 -54.5t56.5 -138.5q0 -13 -1 -26q-1 -17 -19 -17l-369 2q1 -87 54 -151.5t136 -64.5
q50 0 94.5 21.5t73.5 55.5q8 9 16 9q3 0 8.5 -2t5.5 -10q0 -5 -3 -11q-19 -41 -74.5 -77t-130.5 -36q-84 0 -144 40.5t-85 109.5q-30 -69 -85.5 -109.5t-120.5 -40.5q-67 0 -109.5 39.5t-42.5 94.5q0 57 44 96zM150 66q32 -26 73 -26q75 0 118 51.5t51 129.5v12q0 18 1 27
q-2 8 -14 8h-6q-133 -8 -194.5 -39.5t-61.5 -91.5q0 -45 33 -71zM459 294q3 -4 16 -4h275q14 0 17 2.5t3 11.5v5q-7 66 -47.5 105.5t-109.5 39.5q-65 0 -109 -47t-47 -97v-6q0 -8 2 -10z" />
    <glyph glyph-name="ccedilla" unicode="&#xe7;" horiz-adv-x="506" 
d="M107 412q71 77 177 77q87 0 138 -49t51 -111q0 -20 -9.5 -32t-26.5 -12q-28 0 -41 42q-16 59 -47.5 92t-88.5 34q-75 0 -118.5 -53.5t-43.5 -136.5q0 -102 53 -163t139 -61q88 0 156 77q8 9 16 9q3 0 8.5 -2t5.5 -10q0 -4 -3 -10q-19 -41 -67 -75t-125 -38l-22 -45
q92 -16 92 -77q0 -34 -26 -55.5t-63 -21.5q-53 0 -77 30q-3 4 -3 8q0 3 2.5 5.5t5.5 2.5t7 -2q31 -18 59 -18q24 0 36 12.5t12 31.5q0 39 -68 56q-14 3 -14 10q0 3 2 6l31 57q-96 4 -157.5 69.5t-61.5 163.5q0 112 71 189z" />
    <glyph glyph-name="egrave" unicode="&#xe8;" horiz-adv-x="521" 
d="M106 415q69 75 181 75q89 0 146 -55t57 -141q0 -11 -1 -23q-1 -17 -19 -17l-370 2q1 -87 54 -151.5t136 -64.5q50 0 94.5 21.5t74.5 55.5q8 9 16 9q3 0 8 -2t5 -10q0 -4 -3 -11q-19 -41 -74.5 -77t-130.5 -36q-111 0 -177.5 68t-66.5 175t70 182zM103 294q3 -4 15 -4h276
q13 0 16 2.5t3 11.5v5q-6 66 -47 105.5t-110 39.5q-65 0 -109 -47t-47 -97v-5q0 -9 3 -11zM221 645q6 13 19 19q4 1 9 1q20 0 49 -24q3 -2 26 -21q62 -57 64 -63q2 -3 2 -6q0 -6 -11 -10q-7 -3 -17 -3q-27 0 -79.5 25.5t-62.5 52.5q-3 7 -3 14q0 8 4 15z" />
    <glyph glyph-name="eacute" unicode="&#xe9;" horiz-adv-x="521" 
d="M106 415q69 75 181 75q89 0 146 -55t57 -141q0 -11 -1 -23q-1 -17 -19 -17l-370 2q1 -87 54 -151.5t136 -64.5q50 0 94.5 21.5t74.5 55.5q8 9 16 9q3 0 8 -2t5 -10q0 -4 -3 -11q-19 -41 -74.5 -77t-130.5 -36q-111 0 -177.5 68t-66.5 175t70 182zM103 294q3 -4 15 -4h276
q13 0 16 2.5t3 11.5v5q-6 66 -47 105.5t-110 39.5q-65 0 -109 -47t-47 -97v-5q0 -9 3 -11zM231 557q2 6 64 63q47 40 62 44l12 2l10 -2q13 -6 18 -16t5 -17t-3 -15q-10 -27 -62.5 -52.5t-79.5 -25.5q-10 0 -17 3q-11 4 -11 10q0 3 2 6z" />
    <glyph glyph-name="ecircumflex" unicode="&#xea;" horiz-adv-x="521" 
d="M36 233q0 107 69.5 182t181.5 75q89 0 146 -55t57 -141q0 -11 -1 -23q-1 -17 -19 -17l-370 2q1 -87 54 -151.5t136 -64.5q50 0 94.5 21.5t74.5 55.5q8 9 16 9q3 0 8 -2t5 -10q0 -4 -3 -11q-19 -41 -74.5 -77t-130.5 -36q-111 0 -177.5 68t-66.5 175zM103 294q3 -4 15 -4
h276q13 0 16 2.5t3 11.5v5q-6 66 -47 105.5t-110 39.5q-65 0 -109 -47t-47 -97v-5q0 -9 3 -11zM190 553q1 6 43 64q30 41 39.5 50t29.5 9q4 0 7.5 -0.5t6 -0.5t5.5 -2t5 -3t4.5 -4t4.5 -5t5.5 -7.5t5.5 -8.5t7.5 -11t8.5 -13q10 -16 22 -32t18 -24.5t6 -11.5q0 -11 -11 -12
h-2q-16 0 -45.5 18.5t-50.5 40.5q-21 -22 -50.5 -40.5t-45.5 -18.5h-2q-11 1 -11 12z" />
    <glyph glyph-name="edieresis" unicode="&#xeb;" horiz-adv-x="521" 
d="M36 233q0 107 69.5 182t181.5 75q89 0 146 -55t57 -141q0 -11 -1 -23q-1 -17 -19 -17l-370 2q1 -87 54 -151.5t136 -64.5q50 0 94.5 21.5t74.5 55.5q8 9 16 9q3 0 8 -2t5 -10q0 -4 -3 -11q-19 -41 -74.5 -77t-130.5 -36q-111 0 -177.5 68t-66.5 175zM103 294q3 -4 15 -4
h276q13 0 16 2.5t3 11.5v5q-6 66 -47 105.5t-110 39.5q-65 0 -109 -47t-47 -97v-5q0 -9 3 -11zM196 650q15 17 36 17q18 0 29.5 -11.5t11.5 -28.5q0 -20 -17 -35t-38 -15q-16 0 -27 10t-11 25q0 21 16 38zM329 650q15 17 36 17q17 0 29 -11.5t12 -28.5q0 -20 -17 -35
t-38 -15q-16 0 -27 10t-11 25q0 21 16 38z" />
    <glyph glyph-name="igrave" unicode="&#xec;" horiz-adv-x="276" 
d="M84 467q50 23 70 26h3q15 0 15 -17l-1 -139v-210q0 -33 7 -54t15.5 -27.5t15.5 -13.5t7 -16q0 -16 -36 -16h-85q-35 0 -35 16q0 9 7.5 16t16 13.5t16 27.5t7.5 54v210q0 34 -8 54t-17 25t-17 11.5t-8 16.5q0 11 27 23zM51 645q6 13 19 19q4 1 9 1q20 0 50 -24
q5 -4 17 -14l8 -7q62 -57 64 -63q2 -3 2 -6q0 -6 -11 -10q-7 -3 -17 -3q-27 0 -79.5 25.5t-62.5 52.5q-3 7 -3 14q0 8 4 15z" />
    <glyph glyph-name="iacute" unicode="&#xed;" horiz-adv-x="276" 
d="M57 444q0 11 27 23q50 23 70 26h3q15 0 15 -17l-1 -139v-210q0 -33 7 -54t15.5 -27.5t15.5 -13.5t7 -16q0 -16 -36 -16h-85q-35 0 -35 16q0 9 7.5 16t16 13.5t16 27.5t7.5 54v210q0 34 -8 54t-17 25t-17 11.5t-8 16.5zM61 557q2 6 64 63q47 40 62 44q5 1 11 2q6 -1 11 -2
q13 -6 18 -16t5 -17t-3 -15q-10 -27 -62.5 -52.5t-79.5 -25.5q-10 0 -17 3q-11 4 -11 10q0 3 2 6z" />
    <glyph glyph-name="icircumflex" unicode="&#xee;" horiz-adv-x="276" 
d="M84 467q50 23 70 26h3q15 0 15 -17l-1 -139v-210q0 -33 7 -54t15.5 -27.5t15.5 -13.5t7 -16q0 -16 -36 -16h-85q-35 0 -35 16q0 9 7.5 16t16 13.5t16 27.5t7.5 54v210q0 34 -8 54t-17 25t-17 11.5t-8 16.5q0 11 27 23zM20 553q1 6 43 64q30 41 39.5 50t29.5 9
q4 0 7.5 -0.5t6 -0.5t5.5 -2t5 -3t4.5 -4t4.5 -5t5.5 -7.5t5.5 -8.5t7.5 -11t8.5 -13q10 -16 22 -32t18 -24.5t6 -11.5q0 -11 -11 -12h-2q-16 0 -45.5 18.5t-50.5 40.5q-21 -22 -50.5 -40.5t-45.5 -18.5h-2q-11 1 -11 12z" />
    <glyph glyph-name="idieresis" unicode="&#xef;" horiz-adv-x="276" 
d="M84 467q50 23 70 26h3q15 0 15 -17l-1 -139v-210q0 -33 7 -54t15.5 -27.5t15.5 -13.5t7 -16q0 -16 -36 -16h-85q-35 0 -35 16q0 9 7.5 16t16 13.5t16 27.5t7.5 54v210q0 34 -8 54t-17 25t-17 11.5t-8 16.5q0 11 27 23zM26 650q15 17 36 17q18 0 29.5 -11.5t11.5 -28.5
q0 -20 -17 -35t-38 -15q-16 0 -27 10t-11 25q0 21 16 38zM159 650q15 17 36 17q17 0 29 -11.5t12 -28.5q0 -20 -17 -35t-38 -15q-16 0 -27 10t-11 25q0 21 16 38z" />
    <glyph glyph-name="eth" unicode="&#xf0;" horiz-adv-x="562" 
d="M352 659l-31 -18q89 -62 146.5 -164.5t56.5 -207.5q-2 -127 -71 -203t-184 -76q-102 0 -167.5 70.5t-65.5 179.5q0 102 69 175.5t169 72.5q74 0 134 -44q-44 96 -141 165l-61 -35q-13 -6 -18 9q-6 15 7 21l43 25q-49 29 -100 45q-3 1 -7.5 1.5t-6 1t-4 2t-3.5 3.5t-1 5
q0 15 32 15q71 -1 143 -42l50 29q14 7 17 -7q7 -17 -6 -23zM300 31q73 0 119.5 54.5t46.5 133.5q0 90 -59 161.5t-144 71.5q-73 0 -119 -54.5t-46 -134.5q0 -91 57.5 -161.5t144.5 -70.5z" />
    <glyph glyph-name="ntilde" unicode="&#xf1;" horiz-adv-x="609" 
d="M60 16q0 9 7.5 16t16 13.5t16 27.5t7.5 54v209q0 19 -0.5 27t-3 21t-9 21t-17.5 14q-17 10 -17 20q0 13 27 25q44 20 61 21h3q15 0 15 -17l-1 -96q29 57 76.5 87.5t104.5 30.5q81 0 130 -52.5t49 -156.5l2 -154q0 -33 7 -54t15.5 -27.5t15.5 -13.5t7 -16q0 -16 -36 -16
h-84q-36 0 -36 16q0 9 7.5 16t16.5 13.5t16.5 27.5t7.5 54v144q0 81 -32 128t-97 47h-5q-61 -1 -107 -48t-52 -135v-136q0 -33 7 -54t15.5 -27.5t15.5 -13.5t7 -16q0 -16 -36 -16h-85q-35 0 -35 16zM163 581q0 26 18 40.5t46 14.5q37 0 91.5 -21t68.5 -21q34 0 34 28
q0 12 7 12h1q11 -2 15 -24q1 -5 1 -10q0 -26 -17.5 -40t-46.5 -14q-23 0 -79.5 21t-79.5 21q-35 0 -35 -29q0 -12 -7 -12h-1q-11 2 -15 24z" />
    <glyph glyph-name="ograve" unicode="&#xf2;" horiz-adv-x="559" 
d="M36 222q0 115 72 191.5t185 76.5q97 0 162.5 -68.5t65.5 -171.5q0 -111 -69.5 -185.5t-180.5 -74.5q-103 0 -169 63.5t-66 168.5zM155 92q54 -65 139 -65q73 0 118 50.5t45 134.5q0 99 -56 168t-137 69q-74 0 -118.5 -53t-44.5 -136q0 -104 54 -168zM205 645q6 13 19 19
q4 1 9 1q20 0 49 -24q3 -2 26 -21q62 -57 64 -63q2 -3 2 -6q0 -6 -11 -10q-7 -3 -17 -3q-27 0 -79.5 25.5t-62.5 52.5q-3 7 -3 14q0 8 4 15z" />
    <glyph glyph-name="oacute" unicode="&#xf3;" horiz-adv-x="559" 
d="M108 414q72 76 185 76q97 0 162.5 -68.5t65.5 -171.5q0 -111 -69.5 -185.5t-180.5 -74.5q-103 0 -169 63.5t-66 168.5q0 115 72 192zM101 260q0 -104 54 -168.5t139 -64.5q73 0 118 50.5t45 134.5q0 99 -56 168t-137 69q-74 0 -118.5 -53t-44.5 -136zM215 557q2 6 64 63
q47 40 62 44l12 2l10 -2q13 -6 18 -16t5 -17t-3 -15q-10 -27 -62.5 -52.5t-79.5 -25.5q-10 0 -17 3q-11 4 -11 10q0 3 2 6z" />
    <glyph glyph-name="ocircumflex" unicode="&#xf4;" horiz-adv-x="559" 
d="M108 414q72 76 185 76q97 0 162.5 -68.5t65.5 -171.5q0 -111 -69.5 -185.5t-180.5 -74.5q-103 0 -169 63.5t-66 168.5q0 115 72 192zM101 260q0 -104 54 -168.5t139 -64.5q73 0 118 50.5t45 134.5q0 99 -56 168t-137 69q-74 0 -118.5 -53t-44.5 -136zM174 553q1 6 43 64
q30 41 39.5 50t29.5 9q4 0 7.5 -0.5t6 -0.5t5.5 -2t5 -3t4.5 -4t4.5 -5t5.5 -7.5t5.5 -8.5t7.5 -11t8.5 -13q10 -16 22 -32t18 -24.5t6 -11.5q0 -11 -11 -12h-2q-16 0 -45.5 18.5t-50.5 40.5q-21 -22 -50.5 -40.5t-45.5 -18.5h-2q-11 1 -11 12z" />
    <glyph glyph-name="otilde" unicode="&#xf5;" horiz-adv-x="559" 
d="M108 414q72 76 185 76q97 0 162.5 -68.5t65.5 -171.5q0 -111 -69.5 -185.5t-180.5 -74.5q-103 0 -169 63.5t-66 168.5q0 115 72 192zM101 260q0 -104 54 -168.5t139 -64.5q73 0 118 50.5t45 134.5q0 99 -56 168t-137 69q-74 0 -118.5 -53t-44.5 -136zM133 581
q0 26 18 40.5t46 14.5q37 0 91.5 -21t68.5 -21q34 0 34 28q0 12 7 12h1q11 -2 15 -24q1 -5 1 -10q0 -26 -17.5 -40t-46.5 -14q-23 0 -79.5 21t-79.5 21q-35 0 -35 -29q0 -12 -7 -12h-1q-11 2 -15 24z" />
    <glyph glyph-name="odieresis" unicode="&#xf6;" horiz-adv-x="559" 
d="M108 414q72 76 185 76q97 0 162.5 -68.5t65.5 -171.5q0 -111 -69.5 -185.5t-180.5 -74.5q-103 0 -169 63.5t-66 168.5q0 115 72 192zM101 260q0 -104 54 -168.5t139 -64.5q73 0 118 50.5t45 134.5q0 99 -56 168t-137 69q-74 0 -118.5 -53t-44.5 -136zM180 650
q15 17 36 17q18 0 29.5 -11.5t11.5 -28.5q0 -20 -17 -35t-38 -15q-16 0 -27 10t-11 25q0 21 16 38zM297 612q0 21 15.5 38t36.5 17q17 0 29 -11.5t12 -28.5q0 -20 -17 -35t-38 -15q-16 0 -27 10t-11 25z" />
    <glyph glyph-name="divide" unicode="&#xf7;" horiz-adv-x="427" 
d="M211 469q-16 0 -27 9t-11 27q0 19 12.5 30.5t29.5 11.5q16 0 27 -10t11 -28t-12.5 -29t-29.5 -11zM66 406h303q17 0 21.5 -5.5t5.5 -23.5q-1 -16 -8.5 -22t-25.5 -6h-303q-17 0 -21.5 5.5t-4.5 24.5l-1 -3q0 17 7.5 23.5t26.5 6.5zM215 282q16 0 27 -10t11 -28
q0 -19 -12.5 -30t-29.5 -11q-16 0 -27 9t-11 27q0 19 12.5 31t29.5 12z" />
    <glyph glyph-name="oslash" unicode="&#xf8;" horiz-adv-x="559" 
d="M36 222q0 115 72 191.5t185 76.5q57 0 105 -25l65 113q7 13 19 13q13 0 13 -10q0 -6 -5 -16l-67 -116q46 -32 72 -84t26 -115q0 -111 -69.5 -185.5t-180.5 -74.5q-56 0 -100 19l-60 -104q-12 -19 -26 -19q-12 0 -12 12q0 5 5 13l64 112q-50 29 -78 80.5t-28 118.5z
M101 260q0 -120 71 -186l196 339q-47 36 -104 36q-74 0 -118.5 -53t-44.5 -136zM294 27q73 0 118 50.5t45 134.5q0 108 -67 180l-193 -337q44 -28 97 -28z" />
    <glyph glyph-name="ugrave" unicode="&#xf9;" horiz-adv-x="590" 
d="M60 441q0 6 5 10.5t22 12.5q51 25 70 26h3q15 0 15 -17l-1 -138v-137q0 -78 29.5 -121.5t87.5 -43.5h5q58 2 108.5 49.5t50.5 121.5v131q0 34 -8 54t-17 25t-17 11t-8 16q0 6 5 10.5t22 12.5q52 25 70 26h3q15 0 15 -17l-1 -138v-216q0 -26 9.5 -40.5t20.5 -17.5t20.5 -8
t9.5 -14q0 -12 -21 -24q-46 -26 -73 -26t-29 48l-1 51q-33 -48 -81.5 -73.5t-94.5 -25.5q-75 0 -122 47.5t-47 149.5v149q0 34 -8 54t-17 25t-17 11t-8 16zM253 645q6 13 19 19q4 1 9 1q20 0 49 -24q3 -2 26 -21q62 -57 64 -63q2 -3 2 -6q0 -6 -11 -10q-7 -3 -17 -3
q-27 0 -79.5 25.5t-62.5 52.5q-3 7 -3 14q0 8 4 15z" />
    <glyph glyph-name="uacute" unicode="&#xfa;" horiz-adv-x="590" 
d="M65 452q5 4 22 12q51 25 70 26h3q15 0 15 -17l-1 -138v-137q0 -78 29.5 -121.5t87.5 -43.5h5q58 2 108.5 49.5t50.5 121.5v131q0 34 -8 54t-17 25t-17 11t-8 16q0 6 5 10.5t22 12.5q52 25 70 26h3q15 0 15 -17l-1 -138v-216q0 -26 9.5 -40.5t20.5 -17.5t20.5 -8t9.5 -14
q0 -12 -21 -24q-46 -26 -73 -26t-29 48l-1 51q-33 -48 -81.5 -73.5t-94.5 -25.5q-75 0 -122 47.5t-47 149.5v149q0 34 -8 54t-17 25t-17 11t-8 16q0 6 5 11zM263 557q2 6 64 63q47 40 62 44l12 2l10 -2q13 -6 18 -16t5 -17t-3 -15q-10 -27 -62.5 -52.5t-79.5 -25.5
q-10 0 -17 3q-11 4 -11 10q0 3 2 6z" />
    <glyph glyph-name="ucircumflex" unicode="&#xfb;" horiz-adv-x="590" 
d="M60 441q0 6 5 10.5t22 12.5q51 25 70 26h3q15 0 15 -17l-1 -138v-137q0 -78 29.5 -121.5t87.5 -43.5h5q58 2 108.5 49.5t50.5 121.5v131q0 34 -8 54t-17 25t-17 11t-8 16q0 6 5 10.5t22 12.5q52 25 70 26h3q15 0 15 -17l-1 -138v-216q0 -26 9.5 -40.5t20.5 -17.5t20.5 -8
t9.5 -14q0 -12 -21 -24q-46 -26 -73 -26t-29 48l-1 51q-33 -48 -81.5 -73.5t-94.5 -25.5q-75 0 -122 47.5t-47 149.5v149q0 34 -8 54t-17 25t-17 11t-8 16zM222 553q1 6 43 64q30 41 39.5 50t29.5 9q4 0 7.5 -0.5t6 -0.5t5.5 -2t5 -3t4.5 -4t4.5 -5t5.5 -7.5t5.5 -8.5
t7.5 -11t8.5 -13q10 -16 22 -32t18 -24.5t6 -11.5q0 -11 -11 -12h-2q-16 0 -45.5 18.5t-50.5 40.5q-21 -22 -50.5 -40.5t-45.5 -18.5h-2q-11 1 -11 12z" />
    <glyph glyph-name="udieresis" unicode="&#xfc;" horiz-adv-x="590" 
d="M65 452q5 4 22 12q51 25 70 26h3q15 0 15 -17l-1 -138v-137q0 -78 29.5 -121.5t87.5 -43.5h5q58 2 108.5 49.5t50.5 121.5v131q0 34 -8 54t-17 25t-17 11t-8 16q0 6 5 10.5t22 12.5q52 25 70 26h3q15 0 15 -17l-1 -138v-216q0 -26 9.5 -40.5t20.5 -17.5t20.5 -8t9.5 -14
q0 -12 -21 -24q-46 -26 -73 -26t-29 48l-1 51q-33 -48 -81.5 -73.5t-94.5 -25.5q-75 0 -122 47.5t-47 149.5v149q0 34 -8 54t-17 25t-17 11t-8 16q0 6 5 11zM212 612q0 21 15.5 38t36.5 17q18 0 29.5 -11.5t11.5 -28.5q0 -20 -17 -35t-38 -15q-16 0 -27 10t-11 25zM345 612
q0 21 15.5 38t36.5 17q17 0 29 -11.5t12 -28.5q0 -20 -17 -35t-38 -15q-16 0 -27 10t-11 25z" />
    <glyph glyph-name="yacute" unicode="&#xfd;" horiz-adv-x="508" 
d="M54 480h87q36 0 36 -16q0 -5 -14.5 -15.5t-19.5 -20.5t-5 -19q0 -15 8 -41l125 -321l128 321q10 30 10 46q0 6 -3 15t-15 19.5t-12 15.5q0 16 36 16h46q35 0 35 -16q0 -7 -9 -14.5t-25.5 -28t-29.5 -53.5l-134 -349q-6 -14 -16.5 -42.5t-15.5 -41t-15 -35t-16.5 -32.5
t-16.5 -26t-20 -23t-22.5 -15t-27.5 -11t-32 -3q-39 0 -58 18t-19 39q0 16 10 28t25 13h1q14 0 40.5 -20t46.5 -20q26 0 44.5 38.5t18.5 82.5q0 36 -21 86l-124 313q-13 33 -29 53.5t-24.5 28t-8.5 14.5q0 16 36 16zM175 557q2 6 64 63q47 40 62 44l12 2l10 -2q13 -6 18 -16
t5 -17t-3 -15q-10 -27 -62.5 -52.5t-79.5 -25.5q-10 0 -17 3q-11 4 -11 10q0 3 2 6z" />
    <glyph glyph-name="thorn" unicode="&#xfe;" horiz-adv-x="592" 
d="M52 673q5 4 22 12q51 25 70 26h3q15 0 15 -17l-1 -138v-165q27 43 74 71t108 28q97 0 154 -69.5t57 -172.5q0 -107 -59.5 -182.5t-162.5 -75.5q-50 0 -97 17t-74 47v-127q0 -33 7 -54t15.5 -27.5t15.5 -13.5t7 -16q0 -16 -36 -16h-85q-35 0 -35 16q0 9 7.5 16t16 13.5
t16 27.5t7.5 54l1 629q0 34 -8 54t-17.5 25t-17.5 11t-8 16q0 6 5 11zM219 70q56 -45 119 -45q76 0 114 52.5t38 140.5q0 110 -51 165.5t-117 55.5q-76 0 -118.5 -55.5t-42.5 -119.5v-77q1 -73 58 -117z" />
    <glyph glyph-name="ydieresis" unicode="&#xff;" horiz-adv-x="508" 
d="M54 480h87q36 0 36 -16q0 -5 -14.5 -15.5t-19.5 -20.5t-5 -19q0 -15 8 -41l125 -321l128 321q10 30 10 46q0 6 -3 15t-15 19.5t-12 15.5q0 16 36 16h46q35 0 35 -16q0 -7 -9 -14.5t-25.5 -28t-29.5 -53.5l-134 -349q-6 -14 -16.5 -42.5t-15.5 -41t-15 -35t-16.5 -32.5
t-16.5 -26t-20 -23t-22.5 -15t-27.5 -11t-32 -3q-39 0 -58 18t-19 39q0 16 10 28t25 13h1q14 0 40.5 -20t46.5 -20q26 0 44.5 38.5t18.5 82.5q0 36 -21 86l-124 313q-13 33 -29 53.5t-24.5 28t-8.5 14.5q0 16 36 16zM124 612q0 21 15.5 38t36.5 17q18 0 29.5 -11.5
t11.5 -28.5q0 -20 -17 -35t-38 -15q-16 0 -27 10t-11 25zM273 650q15 17 36 17q17 0 29 -11.5t12 -28.5q0 -20 -17 -35t-38 -15q-16 0 -27 10t-11 25q0 21 16 38z" />
    <glyph glyph-name="Amacron" unicode="&#x100;" horiz-adv-x="667" 
d="M6 30q8 6 19.5 10.5t27 23t27.5 48.5l194 502q5 10 5 19q0 5 -3.5 12.5t-11.5 11.5t-16.5 10.5t-8.5 15.5q0 17 25 17h78q14 0 19 -13l226 -576q11 -28 25 -45.5t24 -23t17 -11.5t7 -14q0 -17 -45 -17h-90q-36 0 -36 14q0 10 14.5 20.5t19 19t4.5 15.5q0 15 -9 42l-31 80
q-7 18 -18 22q-18 6 -147 6q-140 0 -158 -7q-12 -5 -19 -25l-29 -75q-9 -31 -9 -46q0 -6 3 -14t16.5 -16.5t13.5 -17.5q0 -18 -31 -18h-76q-35 0 -35 14q0 10 8 16zM180 253q14 -4 143 -4q121 0 131 6q3 2 3 7t-3 13l-140 354l-138 -362q-1 -4 -1 -7q0 -6 5 -7zM175 798
q1 7 2 10.5t5.5 6.5t14.5 3h229q13 0 15 -3.5t2 -8.5q0 -4 -1 -9q-1 -7 -2 -10.5t-5.5 -6.5t-13.5 -3h-229q-14 0 -16 3.5t-2 8.5q0 4 1 9z" />
    <glyph glyph-name="amacron" unicode="&#x101;" horiz-adv-x="522" 
d="M79 263q57 45 147 45q93 0 165 -33v10q0 81 -32.5 119t-104.5 38q-41 0 -71 -10.5t-72 -33.5q-7 -4 -13 -4q-5 0 -9 3t-4 8t6 13q21 27 70.5 49t110.5 22q87 0 131 -44.5t44 -114.5v-225q0 -30 10 -40.5t19 -10.5q3 0 10 2t17 2q2 0 8 -0.5t6 -8.5q0 -15 -20.5 -33
t-45.5 -18q-59 0 -65 78q-64 -86 -177 -86q-88 0 -137.5 45t-49.5 110q0 72 57 118zM94 151q2 -54 38 -85.5t101 -31.5q57 0 105 38t49 74v79q0 15 -45 30t-97 15q-70 0 -110.5 -32t-40.5 -82v-5zM131 578q1 7 2 10.5t5.5 6.5t14.5 3h229q13 0 15 -3.5t2 -8.5q0 -4 -1 -9
q-1 -7 -2 -10.5t-5.5 -6.5t-13.5 -3h-229q-14 0 -16 3.5t-2 8.5q0 4 1 9z" />
    <glyph glyph-name="Abreve" unicode="&#x102;" horiz-adv-x="667" 
d="M6 30q8 6 19.5 10.5t27 23t27.5 48.5l194 502q5 10 5 19q0 5 -3.5 12.5t-11.5 11.5t-16.5 10.5t-8.5 15.5q0 17 25 17h78q14 0 19 -13l226 -576q11 -28 25 -45.5t24 -23t17 -11.5t7 -14q0 -17 -45 -17h-90q-36 0 -36 14q0 10 14.5 20.5t19 19t4.5 15.5q0 15 -9 42l-31 80
q-7 18 -18 22q-18 6 -147 6q-140 0 -158 -7q-12 -5 -19 -25l-29 -75q-9 -31 -9 -46q0 -6 3 -14t16.5 -16.5t13.5 -17.5q0 -18 -31 -18h-76q-35 0 -35 14q0 10 8 16zM180 253q14 -4 143 -4q121 0 131 6q3 2 3 7t-3 13l-140 354l-138 -362q-1 -4 -1 -7q0 -6 5 -7zM207 878
q6 0 12 -10q32 -53 89 -53q58 0 91 53q7 10 11 10q11 0 11 -14v-5q-3 -41 -33.5 -71t-79.5 -30q-53 0 -81 29.5t-31 71.5v5q0 14 11 14z" />
    <glyph glyph-name="abreve" unicode="&#x103;" horiz-adv-x="522" 
d="M79 263q57 45 147 45q93 0 165 -33v10q0 81 -32.5 119t-104.5 38q-41 0 -71 -10.5t-72 -33.5q-7 -4 -13 -4q-5 0 -9 3t-4 8t6 13q21 27 70.5 49t110.5 22q87 0 131 -44.5t44 -114.5v-225q0 -30 10 -40.5t19 -10.5q3 0 10 2t17 2q2 0 8 -0.5t6 -8.5q0 -15 -20.5 -33
t-45.5 -18q-59 0 -65 78q-64 -86 -177 -86q-88 0 -137.5 45t-49.5 110q0 72 57 118zM94 151q2 -54 38 -85.5t101 -31.5q57 0 105 38t49 74v79q0 15 -45 30t-97 15q-70 0 -110.5 -32t-40.5 -82v-5zM163 658q6 0 12 -10q32 -53 89 -53q58 0 91 53q7 10 11 10q11 0 11 -14v-5
q-3 -41 -33.5 -71t-79.5 -30q-53 0 -81 29.5t-31 71.5v5q0 14 11 14z" />
    <glyph glyph-name="Aogonek" unicode="&#x104;" horiz-adv-x="667" 
d="M6 30q8 6 19.5 10.5t27 23t27.5 48.5l194 502q5 10 5 19q0 5 -3.5 12.5t-11.5 11.5t-16.5 10.5t-8.5 15.5q0 17 25 17h78q14 0 19 -13l226 -576q11 -28 25 -45.5t24 -23t17 -11.5t7 -14q0 -17 -45 -17h-9q-51 -48 -51 -96q0 -56 61 -56q18 0 45 9q5 2 8 2q2 0 5 -1.5
t3 -6.5t-4 -8q-28 -23 -74 -23q-40 0 -67.5 20t-27.5 56q0 49 76 104h-55q-36 0 -36 14q0 10 14.5 20.5t19 19t4.5 15.5q0 15 -9 42l-31 80q-7 18 -18 22q-18 6 -147 6q-140 0 -158 -7q-12 -5 -19 -25l-29 -75q-9 -31 -9 -46q0 -6 3 -14t16.5 -16.5t13.5 -17.5
q0 -18 -31 -18h-76q-35 0 -35 14q0 10 8 16zM180 253q14 -4 143 -4q121 0 131 6q3 2 3 7t-3 13l-140 354l-138 -362q-1 -4 -1 -7q0 -6 5 -7z" />
    <glyph glyph-name="aogonek" unicode="&#x105;" horiz-adv-x="522" 
d="M79 263q57 45 147 45q93 0 165 -33v10q0 81 -32.5 119t-104.5 38q-41 0 -71 -10.5t-72 -33.5q-7 -4 -13 -4q-5 0 -9 3t-4 8t6 13q21 27 70.5 49t110.5 22q87 0 131 -44.5t44 -114.5v-225q0 -30 10 -40.5t19 -10.5q3 0 10 2t17 2q2 0 8 -0.5t6 -8.5q0 -15 -20.5 -33
t-45.5 -18h-3q-49 -49 -49 -94q0 -56 61 -56q18 0 45 9q5 2 8 2q2 0 5 -1.5t3 -6.5t-4 -8q-28 -23 -74 -23q-40 0 -67.5 20t-27.5 56q0 52 79 106q-36 13 -41 74q-64 -86 -177 -86q-88 0 -137.5 45t-49.5 110q0 72 57 118zM94 151q2 -54 38 -85.5t101 -31.5q57 0 105 38
t49 74v79q0 15 -45 30t-97 15q-70 0 -110.5 -32t-40.5 -82v-5z" />
    <glyph glyph-name="Cacute" unicode="&#x106;" horiz-adv-x="674" 
d="M140 602q100 108 248 108q37 0 82 -9.5t57 -9.5q11 0 23 8.5t17 8.5q13 0 19 -9.5t16 -43.5q10 -35 28 -119q0 -4 1 -8q-1 -17 -13 -20h-2q-14 0 -32 31q-46 72 -96 100t-129 28q-113 0 -183.5 -84.5t-70.5 -219.5q0 -145 81 -236.5t206 -91.5q132 0 220 98q8 9 14 9
q4 0 8 -6q4 -5 4 -12q0 -10 -9 -22q-37 -48 -111 -80t-149 -32q-151 0 -240.5 93t-89.5 248q0 162 101 271zM298 784q7 11 61 66q43 41 57 47q7 3 14 3q6 0 11 -2q14 -6 18.5 -16t4.5 -18t-3 -17q-12 -28 -64.5 -55.5t-79.5 -27.5q-10 0 -17 3q-5 2 -5 7q0 4 3 10z" />
    <glyph glyph-name="cacute" unicode="&#x107;" horiz-adv-x="506" 
d="M36 223q0 112 71 189t177 77q87 0 138 -49t51 -111q0 -20 -9.5 -32t-26.5 -12q-28 0 -41 42q-16 59 -47.5 92t-88.5 34q-75 0 -118.5 -53.5t-43.5 -136.5q0 -102 53 -163t139 -61q88 0 156 77q8 9 16 9q3 0 8.5 -2t5.5 -10q0 -4 -3 -10q-20 -44 -72.5 -78.5t-136.5 -34.5
q-99 0 -163.5 66.5t-64.5 166.5zM234 569q2 6 64 63q47 40 62 44l12 2l10 -2q13 -6 18 -16t5 -17t-3 -15q-10 -27 -62.5 -52.5t-79.5 -25.5q-10 0 -17 3q-11 4 -11 10q0 3 2 6z" />
    <glyph glyph-name="Cdotaccent" unicode="&#x10a;" horiz-adv-x="674" 
d="M39 331q0 162 100.5 270.5t248.5 108.5q37 0 82 -9.5t57 -9.5q11 0 23 8.5t17 8.5q13 0 19 -9.5t16 -43.5q10 -35 28 -119q0 -4 1 -8q-1 -17 -13 -20h-2q-14 0 -32 31q-46 72 -96 100t-129 28q-113 0 -183.5 -84.5t-70.5 -219.5q0 -145 81 -236.5t206 -91.5q132 0 220 98
q8 9 14 9q4 0 8 -6q4 -5 4 -12q0 -10 -9 -22q-37 -48 -111 -80t-149 -32q-151 0 -240.5 93t-89.5 248zM290 840q2 24 25 42.5t43 18.5q4 0 8 -1q16 -2 24.5 -15t8.5 -25v-5q-2 -20 -25 -38.5t-42 -18.5h-6q-17 2 -26.5 12t-9.5 24v6z" />
    <glyph glyph-name="cdotaccent" unicode="&#x10b;" horiz-adv-x="506" 
d="M36 223q0 112 71 189t177 77q87 0 138 -49t51 -111q0 -20 -9.5 -32t-26.5 -12q-28 0 -41 42q-16 59 -47.5 92t-88.5 34q-75 0 -118.5 -53.5t-43.5 -136.5q0 -102 53 -163t139 -61q88 0 156 77q8 9 16 9q3 0 8.5 -2t5.5 -10q0 -4 -3 -10q-20 -44 -72.5 -78.5t-136.5 -34.5
q-99 0 -163.5 66.5t-64.5 166.5zM240 632q2 24 25 42.5t43 18.5q4 0 8 -1q16 -2 24.5 -15t8.5 -25v-5q-2 -20 -25 -38.5t-42 -18.5h-6q-17 2 -26.5 12t-9.5 24v6z" />
    <glyph glyph-name="Ccaron" unicode="&#x10c;" horiz-adv-x="674" 
d="M39 331q0 162 100.5 270.5t248.5 108.5q37 0 82 -9.5t57 -9.5q11 0 23 8.5t17 8.5q13 0 19 -9.5t16 -43.5q10 -35 28 -119q0 -4 1 -8q-1 -17 -13 -20h-2q-14 0 -32 31q-46 72 -96 100t-129 28q-113 0 -183.5 -84.5t-70.5 -219.5q0 -145 81 -236.5t206 -91.5q132 0 220 98
q8 9 14 9q4 0 8 -6q4 -5 4 -12q0 -10 -9 -22q-37 -48 -111 -80t-149 -32q-151 0 -240.5 93t-89.5 248zM241 876h2q17 0 55.5 -15t58.5 -31q20 16 58.5 31t55.5 15h2q10 -1 10 -8q0 -2 -1 -5q-1 -5 -51 -55q-49 -49 -57 -53q-6 -3 -18 -3q-3 0 -5 1l-5 1q-3 0 -6 1.5t-5 3
t-5.5 4.5t-6 5t-8 7t-9 8.5t-10.5 11t-12 12.5q-52 51 -53 56v3q0 9 10 10z" />
    <glyph glyph-name="ccaron" unicode="&#x10d;" horiz-adv-x="506" 
d="M36 223q0 112 71 189t177 77q87 0 138 -49t51 -111q0 -20 -9.5 -32t-26.5 -12q-28 0 -41 42q-16 59 -47.5 92t-88.5 34q-75 0 -118.5 -53.5t-43.5 -136.5q0 -102 53 -163t139 -61q88 0 156 77q8 9 16 9q3 0 8.5 -2t5.5 -10q0 -4 -3 -10q-20 -44 -72.5 -78.5t-136.5 -34.5
q-99 0 -163.5 66.5t-64.5 166.5zM204 695h2q16 0 45.5 -18.5t50.5 -40.5q21 22 50.5 40.5t45.5 18.5h2q11 -1 11 -13q0 -2 -6 -10.5t-18 -24.5t-22 -32q-29 -45 -37 -50t-23 -5q-20 0 -29.5 9t-39.5 50q-42 59 -43 63q0 12 11 13z" />
    <glyph glyph-name="Dcaron" unicode="&#x10e;" horiz-adv-x="729" 
d="M64 685q0 15 46 15h185q84 0 153 -21t113 -55t74 -79t43 -91t13 -93q0 -72 -18.5 -133t-58.5 -114t-114 -83.5t-175 -30.5h-215q-46 0 -46 15q0 8 7 13.5t16 9t18 14t12 27.5q3 14 3 38v466q0 25 -3 38q-3 17 -12 27.5t-18 14t-16 9t-7 13.5zM181 623v-530
q0 -34 26.5 -46.5t107.5 -12.5q307 0 307 285q0 154 -95.5 251t-271.5 97q-45 0 -59.5 -8.5t-14.5 -35.5zM121 876h2q17 0 55.5 -15t58.5 -31q20 16 58.5 31t55.5 15h2q10 -1 10 -8q0 -2 -1 -5q-1 -5 -51 -55q-49 -49 -57 -53q-6 -3 -18 -3q-3 0 -5 1l-5 1q-3 0 -6 1.5t-5 3
t-5.5 4.5t-6 5t-8 7t-9 8.5t-10.5 11t-12 12.5q-52 51 -53 56v3q0 9 10 10z" />
    <glyph glyph-name="dcaron" unicode="&#x10f;" horiz-adv-x="578" 
d="M36 226q0 110 71.5 187t174.5 77q104 0 160 -68l1 122q0 28 -5.5 46t-13 25.5t-15 12t-12.5 9.5t-5 13q0 6 5 10.5t22 12.5q51 25 70 26h4q14 0 14 -17l-1 -138l-1 -425q0 -26 9.5 -40.5t21 -17.5t21 -8t9.5 -14q0 -11 -22 -24q-44 -26 -72 -26q-29 0 -29 48l-1 41
q-28 -40 -77 -63.5t-106 -24.5h-3q-100 0 -160 68t-60 168zM155 97q55 -58 123 -58q72 0 117.5 48.5t45.5 97.5q0 118 -37 178q-53 86 -147 86q-72 0 -114.5 -52.5t-42.5 -132.5q0 -109 55 -167zM685 507q1 14 6.5 77t5.5 70q1 21 11.5 32.5t25.5 11.5q31 0 31 -38
q0 -26 -26.5 -96.5t-42.5 -70.5q-11 0 -11 11v3z" />
    <glyph glyph-name="Dcroat" unicode="&#x110;" horiz-adv-x="729" 
d="M-25 346q0 10 4.5 14t19.5 4h121v219q0 25 -3 38q-3 17 -12 27.5t-18 14t-16 9t-7 13.5q0 15 46 15h185q84 0 153 -21t113 -55t74 -79t43 -91t13 -93q0 -72 -18.5 -133t-58.5 -114t-114 -83.5t-175 -30.5h-215q-46 0 -46 15q0 8 7 13.5t16 9t18 14t12 27.5q3 14 3 38v214
h-121q-24 0 -24 15zM181 364h18q15 0 19.5 -4t4.5 -14q0 -15 -24 -15h-18v-238q0 -34 26.5 -46.5t107.5 -12.5q307 0 307 285q0 154 -95.5 251t-271.5 97q-45 0 -59.5 -8.5t-14.5 -35.5v-259z" />
    <glyph glyph-name="dcroat" unicode="&#x111;" horiz-adv-x="578" 
d="M36 226q0 110 71.5 187t174.5 77q104 0 160 -68l1 114h-68q-15 0 -15 16q0 15 15 15h67q-3 24 -11.5 39t-17 19t-15 10t-6.5 15q0 6 5 10.5t22 12.5q51 25 70 26h4q14 0 14 -17l-1 -115h37q15 0 15 -15q0 -16 -15 -16h-37l-1 -417q0 -26 9.5 -40.5t21 -17.5t21 -8
t9.5 -14q0 -11 -22 -24q-44 -26 -72 -26q-29 0 -29 48l-1 41q-28 -40 -77 -63.5t-106 -24.5h-3q-100 0 -160 68t-60 168zM155 97q55 -58 123 -58q72 0 117.5 48.5t45.5 97.5q0 118 -37 178q-53 86 -147 86q-72 0 -114.5 -52.5t-42.5 -132.5q0 -109 55 -167z" />
    <glyph glyph-name="Emacron" unicode="&#x112;" horiz-adv-x="598" 
d="M95 700l365 1q40 0 50 -4.5t16 -23.5q18 -61 24 -108q1 -5 1 -9q0 -18 -11 -20h-5q-8 0 -14 6t-18 29q-23 49 -57.5 72.5t-88.5 23.5h-61q-81 0 -105 -10.5t-24 -36.5v-182q0 -34 18 -41.5t67 -7.5h61q22 0 36 11.5t18.5 26t12 26t17.5 11.5q9 0 12 -12.5t3 -46.5v-80
q0 -47 -15 -47q-10 0 -17.5 12t-12 26.5t-18.5 26.5t-36 12h-54q-62 0 -76 -9q-16 -10 -16 -40v-222q0 -30 23 -40.5t104 -10.5l83 1q69 0 93 16.5t44 64.5q11 25 18 33t16 8h2q11 -2 11 -21v-6q-6 -68 -15 -99q-5 -17 -19.5 -23.5t-59.5 -6.5h-372q-45 0 -45 15q0 8 7 13.5
t16 9t18 14t11 27.5q3 14 3 38v466q0 25 -3 38q-2 17 -11 27.5t-18 14t-16 9t-7 13.5q0 15 45 15zM57 798q1 7 2 10.5t5.5 6.5t14.5 3h229q13 0 15 -3.5t2 -8.5q0 -4 -1 -9q-1 -7 -2 -10.5t-5.5 -6.5t-13.5 -3h-229q-14 0 -16 3.5t-2 8.5q0 4 1 9z" />
    <glyph glyph-name="emacron" unicode="&#x113;" horiz-adv-x="521" 
d="M106 415q69 75 181 75q89 0 146 -55t57 -141q0 -11 -1 -23q-1 -17 -19 -17l-370 2q1 -87 54 -151.5t136 -64.5q50 0 94.5 21.5t74.5 55.5q8 9 16 9q3 0 8 -2t5 -10q0 -4 -3 -11q-19 -41 -74.5 -77t-130.5 -36q-111 0 -177.5 68t-66.5 175t70 182zM103 294q3 -4 15 -4h276
q13 0 16 2.5t3 11.5v5q-6 66 -47 105.5t-110 39.5q-65 0 -109 -47t-47 -97v-5q0 -9 3 -11zM159 578q1 7 2 10.5t5.5 6.5t14.5 3h229q13 0 15 -3.5t2 -8.5q0 -4 -1 -9q-1 -7 -2 -10.5t-5.5 -6.5t-13.5 -3h-229q-14 0 -16 3.5t-2 8.5q0 4 1 9z" />
    <glyph glyph-name="Edotaccent" unicode="&#x116;" horiz-adv-x="598" 
d="M50 685q0 15 45 15l365 1q40 0 50 -4.5t16 -23.5q18 -61 24 -108q1 -5 1 -9q0 -18 -11 -20h-5q-8 0 -14 6t-18 29q-23 49 -57.5 72.5t-88.5 23.5h-61q-81 0 -105 -10.5t-24 -36.5v-182q0 -34 18 -41.5t67 -7.5h61q22 0 36 11.5t18.5 26t12 26t17.5 11.5q9 0 12 -12.5
t3 -46.5v-80q0 -47 -15 -47q-10 0 -17.5 12t-12 26.5t-18.5 26.5t-36 12h-54q-62 0 -76 -9q-16 -10 -16 -40v-222q0 -30 23 -40.5t104 -10.5l83 1q69 0 93 16.5t44 64.5q11 25 18 33t16 8h2q11 -2 11 -21v-6q-6 -68 -15 -99q-5 -17 -19.5 -23.5t-59.5 -6.5h-372
q-45 0 -45 15q0 8 7 13.5t16 9t18 14t11 27.5q3 14 3 38v466q0 25 -3 38q-2 17 -11 27.5t-18 14t-16 9t-7 13.5zM136 840q2 24 25 42.5t43 18.5q4 0 8 -1q16 -2 24.5 -15t8.5 -25v-5q-2 -20 -25 -38.5t-42 -18.5h-6q-17 2 -26.5 12t-9.5 24v6z" />
    <glyph glyph-name="edotaccent" unicode="&#x117;" horiz-adv-x="521" 
d="M106 415q69 75 181 75q89 0 146 -55t57 -141q0 -11 -1 -23q-1 -17 -19 -17l-370 2q1 -87 54 -151.5t136 -64.5q50 0 94.5 21.5t74.5 55.5q8 9 16 9q3 0 8 -2t5 -10q0 -4 -3 -11q-19 -41 -74.5 -77t-130.5 -36q-111 0 -177.5 68t-66.5 175t70 182zM103 294q3 -4 15 -4h276
q13 0 16 2.5t3 11.5v5q-6 66 -47 105.5t-110 39.5q-65 0 -109 -47t-47 -97v-5q0 -9 3 -11zM237 620q2 24 25 42.5t43 18.5q4 0 8 -1q16 -2 24.5 -15t8.5 -25v-5q-2 -20 -25 -38.5t-42 -18.5h-6q-17 2 -26.5 12t-9.5 24v6z" />
    <glyph glyph-name="Eogonek" unicode="&#x118;" horiz-adv-x="598" 
d="M50 685q0 15 45 15l365 1q40 0 50 -4.5t16 -23.5q18 -61 24 -108q1 -5 1 -9q0 -18 -11 -20h-5q-8 0 -14 6t-18 29q-23 49 -57.5 72.5t-88.5 23.5h-61q-81 0 -105 -10.5t-24 -36.5v-182q0 -34 18 -41.5t67 -7.5h61q22 0 36 11.5t18.5 26t12 26t17.5 11.5q9 0 12 -12.5
t3 -46.5v-80q0 -47 -15 -47q-10 0 -17.5 12t-12 26.5t-18.5 26.5t-36 12h-54q-62 0 -76 -9q-16 -10 -16 -40v-222q0 -30 23 -40.5t104 -10.5l83 1q69 0 93 16.5t44 64.5q11 25 18 33t16 8h2q11 -2 11 -21v-6q-6 -68 -15 -99q-5 -17 -19.5 -23.5t-59.5 -6.5h-65
q-51 -48 -51 -96q0 -56 61 -56q18 0 45 9q5 2 8 2q2 0 5 -1.5t3 -6.5t-4 -8q-28 -23 -74 -23q-40 0 -67.5 20t-27.5 56q0 49 76 104h-281q-45 0 -45 15q0 8 7 13.5t16 9t18 14t11 27.5q3 14 3 38v466q0 25 -3 38q-2 17 -11 27.5t-18 14t-16 9t-7 13.5z" />
    <glyph glyph-name="eogonek" unicode="&#x119;" horiz-adv-x="521" 
d="M106 415q69 75 181 75q89 0 146 -55t57 -141q0 -11 -1 -23q-1 -17 -19 -17l-370 2q1 -87 54 -151.5t136 -64.5q50 0 94.5 21.5t74.5 55.5q8 9 16 9q3 0 8 -2t5 -10q0 -4 -3 -11q-25 -55 -99 -90q-46 -47 -46 -91q0 -56 61 -56q18 0 45 9q5 2 8 2q2 0 5 -1.5t3 -6.5t-4 -8
q-28 -23 -74 -23q-40 0 -67.5 20t-27.5 56q0 42 48 82q-27 -6 -57 -6q-111 0 -177.5 68t-66.5 175t70 182zM103 294q3 -4 15 -4h276q13 0 16 2.5t3 11.5v5q-6 66 -47 105.5t-110 39.5q-65 0 -109 -47t-47 -97v-5q0 -9 3 -11z" />
    <glyph glyph-name="Ecaron" unicode="&#x11a;" horiz-adv-x="598" 
d="M50 685q0 15 45 15l365 1q40 0 50 -4.5t16 -23.5q18 -61 24 -108q1 -5 1 -9q0 -18 -11 -20h-5q-8 0 -14 6t-18 29q-23 49 -57.5 72.5t-88.5 23.5h-61q-81 0 -105 -10.5t-24 -36.5v-182q0 -34 18 -41.5t67 -7.5h61q22 0 36 11.5t18.5 26t12 26t17.5 11.5q9 0 12 -12.5
t3 -46.5v-80q0 -47 -15 -47q-10 0 -17.5 12t-12 26.5t-18.5 26.5t-36 12h-54q-62 0 -76 -9q-16 -10 -16 -40v-222q0 -30 23 -40.5t104 -10.5l83 1q69 0 93 16.5t44 64.5q11 25 18 33t16 8h2q11 -2 11 -21v-6q-6 -68 -15 -99q-5 -17 -19.5 -23.5t-59.5 -6.5h-372
q-45 0 -45 15q0 8 7 13.5t16 9t18 14t11 27.5q3 14 3 38v466q0 25 -3 38q-2 17 -11 27.5t-18 14t-16 9t-7 13.5zM87 876h2q17 0 55.5 -15t58.5 -31q20 16 58.5 31t55.5 15h2q10 -1 10 -8q0 -2 -1 -5q-1 -5 -51 -55q-49 -49 -57 -53q-6 -3 -18 -3q-3 0 -5 1l-5 1q-3 0 -6 1.5
t-5 3t-5.5 4.5t-6 5t-8 7t-9 8.5t-10.5 11t-12 12.5q-52 51 -53 56v3q0 9 10 10z" />
    <glyph glyph-name="ecaron" unicode="&#x11b;" horiz-adv-x="521" 
d="M106 415q69 75 181 75q89 0 146 -55t57 -141q0 -11 -1 -23q-1 -17 -19 -17l-370 2q1 -87 54 -151.5t136 -64.5q50 0 94.5 21.5t74.5 55.5q8 9 16 9q3 0 8 -2t5 -10q0 -4 -3 -11q-19 -41 -74.5 -77t-130.5 -36q-111 0 -177.5 68t-66.5 175t70 182zM103 294q3 -4 15 -4h276
q13 0 16 2.5t3 11.5v5q-6 66 -47 105.5t-110 39.5q-65 0 -109 -47t-47 -97v-5q0 -9 3 -11zM201 683h2q16 0 45.5 -18.5t50.5 -40.5q21 22 50.5 40.5t45.5 18.5h2q11 -1 11 -13q0 -2 -6 -10.5t-18 -24.5t-22 -32q-29 -45 -37 -50t-23 -5q-20 0 -29.5 9t-39.5 50
q-42 59 -43 63q0 12 11 13z" />
    <glyph glyph-name="Gbreve" unicode="&#x11e;" horiz-adv-x="739" 
d="M39 331q0 163 104 271t266 108q35 0 71.5 -6t48.5 -6q11 0 23 5t17 5q14 0 20.5 -10.5t14.5 -42.5q19 -70 28 -124q1 -6 1 -11q0 -15 -12 -17h-2q-15 0 -35 29q-21 28 -27.5 36.5t-30 32.5t-42.5 33.5t-52 18.5t-71 9q-114 0 -185 -87t-73 -200q0 -145 82.5 -241.5
t216.5 -96.5q69 0 125.5 23.5t56.5 58.5v109q0 31 -16.5 50.5t-37 25.5t-37 14.5t-16.5 20.5q0 15 46 15l129 -1q28 0 28 -15q0 -10 -5.5 -16.5t-11.5 -11.5t-11.5 -26t-5.5 -57v-106q0 -44 -84 -87t-176 -44q-161 0 -254 97t-93 244zM294 878q6 0 12 -10q32 -53 89 -53
q58 0 91 53q7 10 11 10q11 0 11 -14v-5q-3 -41 -33.5 -71t-79.5 -30q-53 0 -81 29.5t-31 71.5v5q0 14 11 14z" />
    <glyph glyph-name="gbreve" unicode="&#x11f;" horiz-adv-x="538" 
d="M48 -31q17 27 51 43q-62 32 -62 87q0 20 19 44t60 38q-67 45 -67 125q0 81 64 132.5t155 51.5h4h1q20 0 39.5 -2t28.5 -2q35 0 67 57q17 21 29 21t22 -9t10 -24q0 -26 -22 -48t-54 -31q60 -46 60 -117q0 -82 -59.5 -134.5t-158.5 -52.5q-53 0 -93 19q-31 -18 -31 -45
q0 -69 136 -69q30 0 75 2.5t57 2.5q73 0 112.5 -31t39.5 -77q0 -72 -71 -117t-207 -45q-95 0 -158.5 32t-63.5 96q0 26 17 53zM115 325q1 -61 39.5 -102.5t97.5 -41.5q60 0 95.5 38.5t35.5 94.5q-1 63 -36 103.5t-97 40.5q-58 0 -96.5 -36.5t-38.5 -96.5zM149 -155
q47 -26 126 -26q80 0 133.5 27t53.5 80q0 33 -23.5 54.5t-71.5 21.5q-10 0 -22 -1q-52 -5 -146 -5q-38 -1 -67.5 -21.5t-29.5 -54.5q0 -48 47 -75zM165 658q6 0 12 -10q32 -53 89 -53q58 0 91 53q7 10 11 10q11 0 11 -14v-5q-3 -41 -33.5 -71t-79.5 -30q-53 0 -81 29.5
t-31 71.5v5q0 14 11 14z" />
    <glyph glyph-name="Gdotaccent" unicode="&#x120;" horiz-adv-x="739" 
d="M39 331q0 163 104 271t266 108q35 0 71.5 -6t48.5 -6q11 0 23 5t17 5q14 0 20.5 -10.5t14.5 -42.5q19 -70 28 -124q1 -6 1 -11q0 -15 -12 -17h-2q-15 0 -35 29q-21 28 -27.5 36.5t-30 32.5t-42.5 33.5t-52 18.5t-71 9q-114 0 -185 -87t-73 -200q0 -145 82.5 -241.5
t216.5 -96.5q69 0 125.5 23.5t56.5 58.5v109q0 31 -16.5 50.5t-37 25.5t-37 14.5t-16.5 20.5q0 15 46 15l129 -1q28 0 28 -15q0 -10 -5.5 -16.5t-11.5 -11.5t-11.5 -26t-5.5 -57v-106q0 -44 -84 -87t-176 -44q-161 0 -254 97t-93 244zM340 840q2 24 25 42.5t43 18.5
q4 0 8 -1q16 -2 24.5 -15t8.5 -25v-5q-2 -20 -25 -38.5t-42 -18.5h-6q-17 2 -26.5 12t-9.5 24v6z" />
    <glyph glyph-name="gdotaccent" unicode="&#x121;" horiz-adv-x="538" 
d="M31 -84q0 26 17 53t51 43q-62 32 -62 87q0 20 19 44t60 38q-67 45 -67 125q0 81 64 132.5t155 51.5h4h1q20 0 39.5 -2t28.5 -2q35 0 67 57q17 21 29 21t22 -9t10 -24q0 -26 -22 -48t-54 -31q60 -46 60 -117q0 -82 -59.5 -134.5t-158.5 -52.5q-53 0 -93 19
q-31 -18 -31 -45q0 -69 136 -69q30 0 75 2.5t57 2.5q73 0 112.5 -31t39.5 -77q0 -72 -71 -117t-207 -45q-95 0 -158.5 32t-63.5 96zM155 223q38 -42 97 -42q60 0 95.5 38.5t35.5 94.5q-1 63 -36 103.5t-97 40.5q-58 0 -96.5 -36.5t-38.5 -96.5q1 -61 40 -102zM102 -80
q0 -48 47 -74.5t126 -26.5q80 0 133.5 27t53.5 80q0 33 -23.5 54.5t-71.5 21.5q-10 0 -22 -1q-52 -5 -146 -5q-38 -1 -67.5 -21.5t-29.5 -54.5zM211 620q2 24 25 42.5t43 18.5q4 0 8 -1q16 -2 24.5 -15t8.5 -25v-5q-2 -20 -25 -38.5t-42 -18.5h-6q-17 2 -26.5 12t-9.5 24v6z
" />
    <glyph glyph-name="uni0122" unicode="&#x122;" horiz-adv-x="739" 
d="M143 602q104 108 266 108q35 0 71.5 -6t48.5 -6q11 0 23 5t17 5q14 0 20.5 -10.5t14.5 -42.5q19 -70 28 -124q1 -6 1 -11q0 -15 -12 -17h-2q-15 0 -35 29q-21 28 -27.5 36.5t-30 32.5t-42.5 33.5t-52 18.5t-71 9q-114 0 -185 -87t-73 -200q0 -145 82.5 -241.5
t216.5 -96.5q69 0 125.5 23.5t56.5 58.5v109q0 31 -16.5 50.5t-37 25.5t-37 14.5t-16.5 20.5q0 15 46 15l129 -1q28 0 28 -15q0 -10 -5.5 -16.5t-11.5 -11.5t-11.5 -26t-5.5 -57v-106q0 -44 -84 -87t-176 -44q-161 0 -254 97t-93 244q0 163 104 271zM366 -70q14 13 31 13
q24 0 39.5 -15t15.5 -46q0 -57 -31 -96.5t-54 -39.5q-11 0 -11 11q0 2 18 25t18 41q0 12 -20.5 31.5t-20.5 40.5q0 22 15 35z" />
    <glyph glyph-name="uni0123" unicode="&#x123;" horiz-adv-x="538" 
d="M31 -84q0 26 17 53t51 43q-62 32 -62 87q0 20 19 44t60 38q-67 45 -67 125q0 81 64 132.5t155 51.5h4h1q20 0 39.5 -2t28.5 -2q35 0 67 57q17 21 29 21t22 -9t10 -24q0 -26 -22 -48t-54 -31q60 -46 60 -117q0 -82 -59.5 -134.5t-158.5 -52.5q-53 0 -93 19
q-31 -18 -31 -45q0 -69 136 -69q30 0 75 2.5t57 2.5q73 0 112.5 -31t39.5 -77q0 -72 -71 -117t-207 -45q-95 0 -158.5 32t-63.5 96zM155 223q38 -42 97 -42q60 0 95.5 38.5t35.5 94.5q-1 63 -36 103.5t-97 40.5q-58 0 -96.5 -36.5t-38.5 -96.5q1 -61 40 -102zM149 -155
q47 -26 126 -26q80 0 133.5 27t53.5 80q0 33 -23.5 54.5t-71.5 21.5q-10 0 -22 -1q-52 -5 -146 -5q-38 -1 -67.5 -21.5t-29.5 -54.5q0 -48 47 -75zM218 607q0 57 31 96.5t54 39.5q11 0 11 -11q0 -2 -18 -25t-18 -41q0 -12 20.5 -31.5t20.5 -40.5q0 -22 -14.5 -35t-31.5 -13
q-23 0 -39 15t-16 46z" />
    <glyph glyph-name="Hbar" unicode="&#x126;" horiz-adv-x="756" 
d="M38 519v1q0 15 14 15h53v34q0 37 -8.5 60t-18 28.5t-18 12t-8.5 15.5q0 15 45 15h80q46 0 46 -15q0 -8 -6 -13t-14 -9.5t-16 -13t-14 -29t-6 -51.5v-34h422v34q0 37 -8.5 60t-18.5 28.5t-18.5 12t-8.5 15.5q0 15 46 15h80q45 0 45 -15q0 -9 -8.5 -15.5t-19 -12t-19 -28.5
t-8.5 -60v-34h66q14 0 14 -15v-1q0 -17 -14 -17h-66v-371q0 -37 8.5 -60t18 -28.5t18 -12t8.5 -15.5q0 -15 -45 -15h-80q-46 0 -46 15q0 8 6 13t14 9.5t16 13t14 29t6 51.5v173q0 31 -11 38q-16 12 -128 13h-65q-171 0 -196 -8q-20 -6 -22 -28v-188q0 -37 8.5 -60
t18.5 -28.5t18.5 -12t8.5 -15.5q0 -15 -46 -15h-80q-45 0 -45 15q0 9 8.5 15.5t19 12t19 28.5t8.5 60v371h-53q-14 0 -14 17zM167 440q0 -30 11 -38q17 -12 133 -13h75q159 0 183 8q19 6 20 30v75h-422v-62z" />
    <glyph glyph-name="hbar" unicode="&#x127;" horiz-adv-x="601" 
d="M47 550q0 15 15 15h40q-1 30 -9.5 47.5t-17.5 22t-16.5 11t-7.5 15.5q0 6 5 10.5t22 12.5q51 25 70 26h3q15 0 15 -17l-1 -128h65q15 0 15 -15q0 -16 -15 -16h-65v-148q29 51 74.5 77.5t98.5 26.5q81 0 130 -52.5t49 -156.5l2 -154q0 -33 7 -54t16 -27.5t16 -13.5t7 -16
q0 -16 -37 -16h-84q-36 0 -36 16q0 9 7.5 16t16.5 13.5t16.5 27.5t7.5 54v144q0 81 -32 128t-97 47h-5q-57 -1 -101.5 -43t-55.5 -121v-155q0 -33 7 -54t16 -27.5t16 -13.5t7 -16q0 -16 -37 -16h-84q-36 0 -36 16q0 9 7.5 16t16.5 13.5t16.5 27.5t7.5 54v407h-40
q-15 0 -15 16z" />
    <glyph glyph-name="Imacron" unicode="&#x12a;" horiz-adv-x="272" 
d="M59 31q8 6 18.5 11.5t19 28.5t8.5 60v438q0 37 -8.5 60t-18 28.5t-18 12t-8.5 15.5q0 15 45 15h80q46 0 46 -15q0 -8 -6 -13t-14 -9.5t-16 -13t-14 -29t-6 -51.5v-438q0 -37 8.5 -60t18.5 -28.5t18.5 -12t8.5 -15.5q0 -15 -46 -15h-80q-45 0 -45 15q0 9 9 16zM-3 798
q1 7 2 10.5t5.5 6.5t14.5 3h229q13 0 15 -3.5t2 -8.5q0 -4 -1 -9q-1 -7 -2 -10.5t-5.5 -6.5t-13.5 -3h-229q-14 0 -16 3.5t-2 8.5q0 4 1 9z" />
    <glyph glyph-name="imacron" unicode="&#x12b;" horiz-adv-x="276" 
d="M57 444q0 11 27 23q50 23 70 26h3q15 0 15 -17l-1 -139v-210q0 -33 7 -54t15.5 -27.5t15.5 -13.5t7 -16q0 -16 -36 -16h-85q-35 0 -35 16q0 9 7.5 16t16 13.5t16 27.5t7.5 54v210q0 34 -8 54t-17 25t-17 11.5t-8 16.5zM-11 578q1 7 2 10.5t5.5 6.5t14.5 3h229
q13 0 15 -3.5t2 -8.5q0 -4 -1 -9q-1 -7 -2 -10.5t-5.5 -6.5t-13.5 -3h-229q-14 0 -16 3.5t-2 8.5q0 4 1 9z" />
    <glyph glyph-name="Iogonek" unicode="&#x12e;" horiz-adv-x="272" 
d="M59 31q8 6 18.5 11.5t19 28.5t8.5 60v438q0 37 -8.5 60t-18 28.5t-18 12t-8.5 15.5q0 15 45 15h80q46 0 46 -15q0 -8 -6 -13t-14 -9.5t-16 -13t-14 -29t-6 -51.5v-438q0 -37 8.5 -60t18.5 -28.5t18.5 -12t8.5 -15.5q0 -4 -1 -5h3q-62 -54 -62 -106q0 -56 61 -56
q18 0 45 9q5 2 8 2q2 0 5 -1.5t3 -6.5t-4 -8q-28 -23 -74 -23q-40 0 -67.5 20t-27.5 56q0 50 77 104h-92q-45 0 -45 15q0 9 9 16z" />
    <glyph glyph-name="iogonek" unicode="&#x12f;" horiz-adv-x="276" 
d="M52 -56q23 26 67 56h-24q-35 0 -35 16q0 9 7.5 16t16 13.5t16 27.5t7.5 54v210q0 34 -8 54t-17 25t-17 11.5t-8 16.5q0 11 27 23q50 23 70 26h3q15 0 15 -17l-1 -139v-210q0 -33 7 -54t15.5 -27.5t15.5 -13.5t7 -16q0 -16 -36 -16h-39q-62 -54 -62 -106q0 -56 61 -56
q18 0 45 9q5 2 8 2q2 0 5 -1.5t3 -6.5t-4 -8q-28 -23 -74 -23q-40 0 -67.5 20t-27.5 56q0 32 24 58zM67 620q2 24 25 42.5t43 18.5q4 0 8 -1q16 -2 24.5 -15t8.5 -25v-5q-2 -20 -25 -38.5t-42 -18.5h-6q-17 2 -26.5 12t-9.5 24v6z" />
    <glyph glyph-name="Idotaccent" unicode="&#x130;" horiz-adv-x="272" 
d="M59 31q8 6 18.5 11.5t19 28.5t8.5 60v438q0 37 -8.5 60t-18 28.5t-18 12t-8.5 15.5q0 15 45 15h80q46 0 46 -15q0 -8 -6 -13t-14 -9.5t-16 -13t-14 -29t-6 -51.5v-438q0 -37 8.5 -60t18.5 -28.5t18.5 -12t8.5 -15.5q0 -15 -46 -15h-80q-45 0 -45 15q0 9 9 16zM75 840
q2 24 25 42.5t43 18.5q4 0 8 -1q16 -2 24.5 -15t8.5 -25v-5q-2 -20 -25 -38.5t-42 -18.5h-6q-17 2 -26.5 12t-9.5 24v6z" />
    <glyph glyph-name="dotlessi" unicode="&#x131;" horiz-adv-x="276" 
d="M84 467q50 23 70 26h3q15 0 15 -17l-1 -139v-210q0 -33 7 -54t15.5 -27.5t15.5 -13.5t7 -16q0 -16 -36 -16h-85q-35 0 -35 16q0 9 7.5 16t16 13.5t16 27.5t7.5 54v210q0 34 -8 54t-17 25t-17 11.5t-8 16.5q0 11 27 23z" />
    <glyph glyph-name="uni0136" unicode="&#x136;" horiz-adv-x="667" 
d="M50 15q0 9 8.5 15.5t19 12t19 28.5t8.5 60v438q0 37 -8.5 60t-18 28.5t-18 12t-8.5 15.5q0 15 45 15h80q46 0 46 -15q0 -8 -6 -13t-14 -9.5t-16 -13t-14 -29t-6 -51.5v-229l295 273q19 18 21 24.5t2 9.5q0 6 -6.5 9t-15 10.5t-8.5 17.5q0 16 30 16h83q46 0 46 -15
q0 -10 -8 -16t-20 -9.5t-33.5 -15.5t-42.5 -31l-107 -100l189 -424q9 -21 22.5 -34t24 -17t18 -9.5t7.5 -13.5q0 -15 -32 -15h-81q-47 0 -47 19q0 7 10 15.5t12 14.5t2 10q0 12 -8 37l-161 376l-192 -179v-162q0 -37 8.5 -60t18.5 -28.5t18.5 -12t8.5 -15.5q0 -15 -46 -15
h-80q-45 0 -45 15zM306 -105q0 22 14.5 35t31.5 13q24 0 39.5 -15t15.5 -46q0 -57 -31 -96.5t-54 -39.5q-11 0 -11 11q0 2 18 25t18 41q0 12 -20.5 31.5t-20.5 40.5z" />
    <glyph glyph-name="uni0137" unicode="&#x137;" horiz-adv-x="575" 
d="M51 661q0 6 5 10.5t22 12.5q51 25 70 26h3q15 0 15 -17l-1 -138v-364l221 223q6 6 6 13q0 8 -13.5 21t-13.5 17q0 15 22 15h84q29 0 29 -14q0 -7 -4 -10.5t-11.5 -6.5t-24.5 -15t-36 -31l-54 -54l109 -250q11 -26 28 -42.5t27.5 -24t10.5 -16.5t-8.5 -12.5t-33.5 -3.5
h-80q-22 0 -29 3t-7 12q0 10 16.5 25t16.5 29q0 6 -3 12l-95 218l-157 -158v-14q0 -33 7 -54t16 -27.5t16 -13.5t7 -16q0 -16 -37 -16h-84q-36 0 -36 16q0 9 7.5 16t16.5 13.5t16.5 27.5t7.5 54v428q0 34 -8 54t-17.5 25t-17.5 11t-8 16zM251 -70q14 13 31 13q24 0 39.5 -15
t15.5 -46q0 -57 -31 -96.5t-54 -39.5q-11 0 -11 11q0 2 18 25t18 41q0 12 -20.5 31.5t-20.5 40.5q0 22 15 35z" />
    <glyph glyph-name="Lacute" unicode="&#x139;" horiz-adv-x="538" 
d="M50 15q0 8 7 13.5t16 9t18 14t11 27.5q3 14 3 38v452q0 37 -8.5 60t-18 28.5t-18 12t-8.5 15.5q0 15 45 15h80q46 0 46 -15q0 -8 -6 -13t-14 -9.5t-16 -13t-14 -29t-6 -51.5v-485q0 -29 18 -40t76 -11l73 1q69 0 93 16.5t44 64.5q11 25 18 33t16 8h2q11 -2 11 -21v-6
q-4 -61 -15 -99q-5 -17 -19.5 -23.5t-59.5 -6.5h-329q-45 0 -45 15zM95 784q7 11 61 66q43 41 57 47q7 3 14 3q6 0 11 -2q14 -6 18.5 -16t4.5 -18t-3 -17q-12 -28 -64.5 -55.5t-79.5 -27.5q-10 0 -17 3q-5 2 -5 7q0 4 3 10z" />
    <glyph glyph-name="lacute" unicode="&#x13a;" horiz-adv-x="262" 
d="M56 672q5 4 22 12q51 25 70 26h3q15 0 15 -17l-1 -138v-428q0 -33 7 -54t16 -27.5t16 -13.5t7 -16q0 -16 -37 -16h-84q-36 0 -36 16q0 9 7.5 16t16.5 13.5t16.5 27.5t7.5 54v428q0 34 -8 54t-17.5 25t-17.5 11t-8 16q0 6 5 11zM61 777q2 6 64 63q47 40 62 44q5 1 11 2
q6 -1 11 -2q13 -6 18 -16t5 -17t-3 -15q-10 -27 -62.5 -52.5t-79.5 -25.5q-10 0 -17 3q-11 4 -11 10q0 3 2 6z" />
    <glyph glyph-name="uni013B" unicode="&#x13b;" horiz-adv-x="538" 
d="M50 15q0 8 7 13.5t16 9t18 14t11 27.5q3 14 3 38v452q0 37 -8.5 60t-18 28.5t-18 12t-8.5 15.5q0 15 45 15h80q46 0 46 -15q0 -8 -6 -13t-14 -9.5t-16 -13t-14 -29t-6 -51.5v-485q0 -29 18 -40t76 -11l73 1q69 0 93 16.5t44 64.5q11 25 18 33t16 8h2q11 -2 11 -21v-6
q-4 -61 -15 -99q-5 -17 -19.5 -23.5t-59.5 -6.5h-329q-45 0 -45 15zM274 -70q14 13 31 13q24 0 39.5 -15t15.5 -46q0 -57 -31 -96.5t-54 -39.5q-11 0 -11 11q0 2 18 25t18 41q0 12 -20.5 31.5t-20.5 40.5q0 22 15 35z" />
    <glyph glyph-name="uni013C" unicode="&#x13c;" horiz-adv-x="262" 
d="M56 672q5 4 22 12q51 25 70 26h3q15 0 15 -17l-1 -138v-428q0 -33 7 -54t16 -27.5t16 -13.5t7 -16q0 -16 -37 -16h-84q-36 0 -36 16q0 9 7.5 16t16.5 13.5t16.5 27.5t7.5 54v428q0 34 -8 54t-17.5 25t-17.5 11t-8 16q0 6 5 11zM93 -70q14 13 31 13q24 0 39.5 -15
t15.5 -46q0 -57 -31 -96.5t-54 -39.5q-11 0 -11 11q0 2 18 25t18 41q0 12 -20.5 31.5t-20.5 40.5q0 22 15 35z" />
    <glyph glyph-name="Lcaron" unicode="&#x13d;" horiz-adv-x="538" 
d="M57 29q7 5 16 8.5t18 14t11 27.5q3 14 3 38v452q0 37 -8.5 60t-18 28.5t-18 12t-8.5 15.5q0 15 45 15h80q46 0 46 -15q0 -8 -6 -13t-14 -9.5t-16 -13t-14 -29t-6 -51.5v-485q0 -29 18 -40t76 -11l73 1q69 0 93 16.5t44 64.5q11 25 18 33t16 8h2q11 -2 11 -21v-6
q-4 -61 -15 -99q-5 -17 -19.5 -23.5t-59.5 -6.5h-329q-45 0 -45 15q0 8 7 14zM383 507q1 14 6.5 77t5.5 70q1 21 11.5 32.5t25.5 11.5q31 0 31 -38q0 -26 -26.5 -96.5t-42.5 -70.5q-11 0 -11 11v3z" />
    <glyph glyph-name="lcaron" unicode="&#x13e;" horiz-adv-x="262" 
d="M56 672q5 4 22 12q51 25 70 26h3q15 0 15 -17l-1 -138v-428q0 -33 7 -54t16 -27.5t16 -13.5t7 -16q0 -16 -37 -16h-84q-36 0 -36 16q0 9 7.5 16t16.5 13.5t16.5 27.5t7.5 54v428q0 34 -8 54t-17.5 25t-17.5 11t-8 16q0 6 5 11zM288 507q1 14 6.5 77t5.5 70
q1 21 11.5 32.5t25.5 11.5q31 0 31 -38q0 -26 -26.5 -96.5t-42.5 -70.5q-11 0 -11 11v3z" />
    <glyph glyph-name="Lslash" unicode="&#x141;" horiz-adv-x="538" 
d="M49 303l56 32v234q0 37 -8.5 60t-18 28.5t-18 12t-8.5 15.5q0 15 45 15h80q46 0 46 -15q0 -8 -6 -13t-14 -9.5t-16 -13t-14 -29t-6 -51.5v-198l90 51q5 4 9 4q6 0 11 -8q2 -5 2 -8q0 -8 -8 -13l-104 -60v-253q0 -29 18 -40t76 -11l73 1q69 0 93 16.5t44 64.5q11 25 18 33
t16 8h2q11 -2 11 -21v-6q-4 -61 -15 -99q-5 -17 -19.5 -23.5t-59.5 -6.5h-329q-45 0 -45 15q0 8 7 13.5t16 9t18 14t11 27.5q3 14 3 38v184l-41 -24q-4 -2 -8 -2q-8 0 -13 9q-2 4 -2 8q0 6 8 11z" />
    <glyph glyph-name="lslash" unicode="&#x142;" horiz-adv-x="262" 
d="M13 292l89 51v212q0 34 -8 54t-17.5 25t-17.5 11t-8 16q0 6 5 10.5t22 12.5q51 25 70 26h3q15 0 15 -17l-1 -138v-176l56 32q5 4 9 4q6 0 11 -8q2 -5 2 -8q0 -8 -8 -13l-70 -41v-218q0 -33 7 -54t16 -27.5t16 -13.5t7 -16q0 -16 -37 -16h-84q-36 0 -36 16q0 9 7.5 16
t16.5 13.5t16.5 27.5t7.5 54v182l-74 -43q-4 -2 -8 -2q-8 0 -13 9q-2 4 -2 8q0 6 8 11z" />
    <glyph glyph-name="Nacute" unicode="&#x143;" horiz-adv-x="746" 
d="M91 700h23q12 0 20 -11l486 -590l-2 484q0 30 -8.5 48t-18.5 23t-18 11.5t-8 16.5q0 18 44 18h54q42 0 42 -18q0 -10 -8.5 -17t-18 -12t-18 -22.5t-8.5 -47.5v-556q0 -27 -16 -27h-7q-10 0 -27 21l-469 573l2 -477q0 -24 6 -40.5t13.5 -23.5t15.5 -11.5t13.5 -10
t5.5 -13.5q0 -18 -45 -18h-54q-42 0 -42 18q0 10 8.5 17t18 12t18 22.5t8.5 47.5v466q0 25 -3 38q-3 17 -12 27.5t-18 14t-16 9t-7 13.5q0 15 46 15zM321 784q7 11 61 66q43 41 57 47q7 3 14 3q6 0 11 -2q14 -6 18.5 -16t4.5 -18t-3 -17q-12 -28 -64.5 -55.5t-79.5 -27.5
q-10 0 -17 3q-5 2 -5 7q0 4 3 10z" />
    <glyph glyph-name="nacute" unicode="&#x144;" horiz-adv-x="609" 
d="M68 32q7 7 15.5 13.5t16 27.5t7.5 54v209q0 19 -0.5 27t-3 21t-9 21t-17.5 14q-17 10 -17 20q0 13 27 25q44 20 61 21h3q15 0 15 -17l-1 -96q29 57 76.5 87.5t104.5 30.5q81 0 130 -52.5t49 -156.5l2 -154q0 -33 7 -54t15.5 -27.5t15.5 -13.5t7 -16q0 -16 -36 -16h-84
q-36 0 -36 16q0 9 7.5 16t16.5 13.5t16.5 27.5t7.5 54v144q0 81 -32 128t-97 47h-5q-61 -1 -107 -48t-52 -135v-136q0 -33 7 -54t15.5 -27.5t15.5 -13.5t7 -16q0 -16 -36 -16h-85q-35 0 -35 16q0 9 8 16zM245 557q2 6 64 63q47 40 62 44l12 2l10 -2q13 -6 18 -16t5 -17
t-3 -15q-10 -27 -62.5 -52.5t-79.5 -25.5q-10 0 -17 3q-11 4 -11 10q0 3 2 6z" />
    <glyph glyph-name="uni0145" unicode="&#x145;" horiz-adv-x="746" 
d="M45 685q0 15 46 15h23q12 0 20 -11l486 -590l-2 484q0 30 -8.5 48t-18.5 23t-18 11.5t-8 16.5q0 18 44 18h54q42 0 42 -18q0 -10 -8.5 -17t-18 -12t-18 -22.5t-8.5 -47.5v-556q0 -27 -16 -27h-7q-10 0 -27 21l-469 573l2 -477q0 -24 6 -40.5t13.5 -23.5t15.5 -11.5
t13.5 -10t5.5 -13.5q0 -18 -45 -18h-54q-42 0 -42 18q0 10 8.5 17t18 12t18 22.5t8.5 47.5v466q0 25 -3 38q-3 17 -12 27.5t-18 14t-16 9t-7 13.5zM339 -70q14 13 31 13q24 0 39.5 -15t15.5 -46q0 -57 -31 -96.5t-54 -39.5q-11 0 -11 11q0 2 18 25t18 41q0 12 -20.5 31.5
t-20.5 40.5q0 22 15 35z" />
    <glyph glyph-name="uni0146" unicode="&#x146;" horiz-adv-x="609" 
d="M60 439q0 13 27 25q44 20 61 21h3q15 0 15 -17l-1 -96q29 57 76.5 87.5t104.5 30.5q81 0 130 -52.5t49 -156.5l2 -154q0 -33 7 -54t15.5 -27.5t15.5 -13.5t7 -16q0 -16 -36 -16h-84q-36 0 -36 16q0 9 7.5 16t16.5 13.5t16.5 27.5t7.5 54v144q0 81 -32 128t-97 47h-5
q-61 -1 -107 -48t-52 -135v-136q0 -33 7 -54t15.5 -27.5t15.5 -13.5t7 -16q0 -16 -36 -16h-85q-35 0 -35 16q0 9 7.5 16t16 13.5t16 27.5t7.5 54v209q0 19 -0.5 27t-3 21t-9 21t-17.5 14q-17 10 -17 20zM278 -70q14 13 31 13q24 0 39.5 -15t15.5 -46q0 -57 -31 -96.5
t-54 -39.5q-11 0 -11 11q0 2 18 25t18 41q0 12 -20.5 31.5t-20.5 40.5q0 22 15 35z" />
    <glyph glyph-name="Ncaron" unicode="&#x147;" horiz-adv-x="746" 
d="M45 685q0 15 46 15h23q12 0 20 -11l486 -590l-2 484q0 30 -8.5 48t-18.5 23t-18 11.5t-8 16.5q0 18 44 18h54q42 0 42 -18q0 -10 -8.5 -17t-18 -12t-18 -22.5t-8.5 -47.5v-556q0 -27 -16 -27h-7q-10 0 -27 21l-469 573l2 -477q0 -24 6 -40.5t13.5 -23.5t15.5 -11.5
t13.5 -10t5.5 -13.5q0 -18 -45 -18h-54q-42 0 -42 18q0 10 8.5 17t18 12t18 22.5t8.5 47.5v466q0 25 -3 38q-3 17 -12 27.5t-18 14t-16 9t-7 13.5zM264 876h2q17 0 55.5 -15t58.5 -31q20 16 58.5 31t55.5 15h2q10 -1 10 -8q0 -2 -1 -5q-1 -5 -51 -55q-49 -49 -57 -53
q-6 -3 -18 -3q-3 0 -5 1l-5 1q-3 0 -6 1.5t-5 3t-5.5 4.5t-6 5t-8 7t-9 8.5t-10.5 11t-12 12.5q-51 51 -53 56v3q0 9 10 10z" />
    <glyph glyph-name="ncaron" unicode="&#x148;" horiz-adv-x="609" 
d="M60 439q0 13 27 25q44 20 61 21h3q15 0 15 -17l-1 -96q29 57 76.5 87.5t104.5 30.5q81 0 130 -52.5t49 -156.5l2 -154q0 -33 7 -54t15.5 -27.5t15.5 -13.5t7 -16q0 -16 -36 -16h-84q-36 0 -36 16q0 9 7.5 16t16.5 13.5t16.5 27.5t7.5 54v144q0 81 -32 128t-97 47h-5
q-61 -1 -107 -48t-52 -135v-136q0 -33 7 -54t15.5 -27.5t15.5 -13.5t7 -16q0 -16 -36 -16h-85q-35 0 -35 16q0 9 7.5 16t16 13.5t16 27.5t7.5 54v209q0 19 -0.5 27t-3 21t-9 21t-17.5 14q-17 10 -17 20zM215 683h2q16 0 45.5 -18.5t50.5 -40.5q21 22 50.5 40.5t45.5 18.5h2
q11 -1 11 -13q0 -2 -6 -10.5t-18 -24.5t-22 -32q-29 -45 -37 -50t-23 -5q-20 0 -29.5 9t-39.5 50q-42 59 -43 63q0 12 11 13z" />
    <glyph glyph-name="Omacron" unicode="&#x14c;" horiz-adv-x="765" 
d="M39 322q0 164 103 276t262 112q146 0 234 -93.5t88 -238.5q0 -169 -100.5 -278.5t-263.5 -109.5q-148 0 -235.5 93t-87.5 239zM183 131q81 -96 216 -96q121 0 191.5 88.5t70.5 209.5q0 145 -79 240t-210 95q-123 0 -197 -87.5t-74 -196.5q0 -157 82 -253zM246 798
q1 7 2 10.5t5.5 6.5t14.5 3h229q13 0 15 -3.5t2 -8.5q0 -4 -1 -9q-1 -7 -2 -10.5t-5.5 -6.5t-13.5 -3h-229q-14 0 -16 3.5t-2 8.5q0 4 1 9z" />
    <glyph glyph-name="omacron" unicode="&#x14d;" horiz-adv-x="559" 
d="M36 222q0 115 72 191.5t185 76.5q97 0 162.5 -68.5t65.5 -171.5q0 -111 -69.5 -185.5t-180.5 -74.5q-103 0 -169 63.5t-66 168.5zM155 92q54 -65 139 -65q73 0 118 50.5t45 134.5q0 99 -56 168t-137 69q-74 0 -118.5 -53t-44.5 -136q0 -104 54 -168zM143 578q1 7 2 10.5
t5.5 6.5t14.5 3h229q13 0 15 -3.5t2 -8.5q0 -4 -1 -9q-1 -7 -2 -10.5t-5.5 -6.5t-13.5 -3h-229q-14 0 -16 3.5t-2 8.5q0 4 1 9z" />
    <glyph glyph-name="Ohungarumlaut" unicode="&#x150;" horiz-adv-x="765" 
d="M142 598q103 112 262 112q146 0 234 -93.5t88 -238.5q0 -169 -100.5 -278.5t-263.5 -109.5q-148 0 -235.5 93t-87.5 239q0 164 103 276zM183 131q81 -96 216 -96q121 0 191.5 88.5t70.5 209.5q0 145 -79 240t-210 95q-123 0 -197 -87.5t-74 -196.5q0 -157 82 -253z
M408 780q0 7 73 59q52 37 71 37h1q14 -1 26 -11.5t12 -22.5v-2q-1 -27 -56 -50.5t-91 -23.5h-6q-30 2 -30 13v1zM219 780q0 8 70 63q4 3 12.5 9.5t12 9t10 7t10.5 6.5l9 5q5 2 9 3t8 1q14 0 26.5 -10.5t12.5 -23.5q0 -28 -55.5 -55t-93.5 -27q-31 0 -31 12z" />
    <glyph glyph-name="ohungarumlaut" unicode="&#x151;" horiz-adv-x="559" 
d="M108 414q72 76 185 76q97 0 162.5 -68.5t65.5 -171.5q0 -111 -69.5 -185.5t-180.5 -74.5q-103 0 -169 63.5t-66 168.5q0 115 72 192zM101 260q0 -104 54 -168.5t139 -64.5q73 0 118 50.5t45 134.5q0 99 -56 168t-137 69q-74 0 -118.5 -53t-44.5 -136zM189 551q0 5 35 73
q29 50 41 58q8 6 18 6q13 0 23 -9.5t10 -25.5q0 -27 -43 -70.5t-71 -43.5q-13 0 -13 12zM326 551q0 4 39 71q17 25 23 34t17 18t21 9q13 0 22.5 -9.5t9.5 -25.5q0 -26 -44.5 -68t-73.5 -42q-9 0 -11.5 3.5t-2.5 7.5v2z" />
    <glyph glyph-name="OE" unicode="&#x152;" horiz-adv-x="1171" 
d="M142 598q103 112 262 112q87 0 156 -35.5t111 -99.5v95q0 30 30 30l324 1q41 0 51 -4.5t15 -23.5q17 -50 24 -108q1 -5 1 -9q0 -18 -11 -20h-4q-8 0 -14.5 6.5t-17.5 28.5q-23 49 -57.5 72.5t-88.5 23.5h-64q-71 0 -93 -10t-22 -32v-232h184q23 0 37 12t18.5 26t11.5 26
t17 12q9 0 12 -12.5t3 -47.5v-79q0 -48 -15 -48q-10 0 -17 12t-11.5 27t-18.5 27t-37 12h-184v-285q0 -22 22 -32t93 -10l81 1q101 0 146 97q11 21 17.5 27.5t14.5 6.5h4q11 -2 11 -19q0 -4 -1 -9q-8 -60 -24 -109q-5 -19 -15 -23.5t-51 -4.5h-341q-30 0 -30 30v131
q-47 -80 -127 -125.5t-182 -45.5q-148 0 -235.5 93t-87.5 239q0 164 103 276zM101 384q0 -157 81.5 -253t216.5 -96q121 0 191.5 88.5t70.5 209.5q0 145 -79 240t-210 95q-123 0 -197 -87.5t-74 -196.5z" />
    <glyph glyph-name="oe" unicode="&#x153;" horiz-adv-x="914" 
d="M36 249q0 101 69 171t172 70q144 0 206 -121q32 56 87.5 88.5t127.5 32.5q89 0 146 -55t57 -141q0 -11 -1 -23q-1 -17 -19 -17l-369 2q1 -8 1 -25v-5q9 -78 61 -132t127 -54q50 0 94.5 21.5t74.5 55.5q8 9 16 9q3 0 8.5 -2t5.5 -10q0 -5 -3 -11q-20 -41 -75.5 -77
t-130.5 -36q-144 0 -209 109q-59 -109 -193 -109q-117 0 -185 75t-68 184zM108 268q0 -105 52 -176t138 -71q72 0 109.5 50t41.5 125q-2 24 -2 37q0 15 1 23q-10 88 -57.5 145.5t-114.5 57.5h-2q-28 0 -55 -8.5t-53 -28.5t-42 -59.5t-16 -94.5zM514 294q3 -4 16 -4h275
q13 0 16 2.5t3 11.5v5q-6 66 -47 105.5t-110 39.5q-65 0 -109 -47t-47 -97v-5q0 -9 3 -11z" />
    <glyph glyph-name="Racute" unicode="&#x154;" horiz-adv-x="633" 
d="M50 685q0 15 45 15h162q160 0 243 -64.5t83 -162.5q0 -72 -38.5 -126t-109.5 -80l97 -175q11 -20 25.5 -34t24 -18.5t16.5 -10.5t7 -14q0 -15 -31 -15h-83q-50 0 -50 19q0 7 12.5 16t15 15.5t2.5 9.5q0 12 -11 36l-86 154q-36 -6 -78 -6h-109q-20 0 -20 -20v-93
q0 -37 8.5 -60t18.5 -28.5t18.5 -12t8.5 -15.5q0 -15 -46 -15h-80q-45 0 -45 15q0 9 8.5 15.5t19 12t19 28.5t8.5 60v452q0 25 -3 38q-2 17 -11 27.5t-18 14t-16 9t-7 13.5zM167 304q0 -9 7 -14t36.5 -8.5t86.5 -3.5q44 0 80 8.5t67 28t48.5 54.5t17.5 84q0 88 -67.5 149.5
t-186.5 62.5h-16q-42 0 -57.5 -5t-15.5 -21v-335zM205 784q7 11 61 66q43 41 57 47q7 3 14 3q6 0 11 -2q14 -6 18.5 -16t4.5 -18t-3 -17q-12 -28 -64.5 -55.5t-79.5 -27.5q-10 0 -17 3q-5 2 -5 7q0 4 3 10z" />
    <glyph glyph-name="racute" unicode="&#x155;" horiz-adv-x="428" 
d="M60 439q0 13 27 25q44 20 61 21h3q15 0 15 -17l-1 -94q22 47 61 81.5t86 34.5q35 0 52.5 -18t17.5 -41q0 -14 -9.5 -27.5t-25.5 -14.5q-16 0 -36 19.5t-43 19.5q-38 0 -67.5 -50t-29.5 -122v-129q0 -33 7 -54t15.5 -27.5t15.5 -13.5t7 -16q0 -16 -36 -16h-85
q-35 0 -35 16q0 9 7.5 16t16 13.5t16 27.5t7.5 54v209q0 19 -0.5 27t-3 21t-9 21t-17.5 14q-17 10 -17 20zM202 560q2 6 64 63q47 40 62 44l12 2l10 -2q13 -6 18 -16t5 -17t-3 -15q-10 -27 -62.5 -52.5t-79.5 -25.5q-10 0 -17 3q-11 4 -11 10q0 3 2 6z" />
    <glyph glyph-name="uni0156" unicode="&#x156;" horiz-adv-x="633" 
d="M95 700h162q160 0 243 -64.5t83 -162.5q0 -72 -38.5 -126t-109.5 -80l97 -175q11 -20 25.5 -34t24 -18.5t16.5 -10.5t7 -14q0 -15 -31 -15h-83q-50 0 -50 19q0 7 12.5 16t15 15.5t2.5 9.5q0 12 -11 36l-86 154q-36 -6 -78 -6h-109q-20 0 -20 -20v-93q0 -37 8.5 -60
t18.5 -28.5t18.5 -12t8.5 -15.5q0 -15 -46 -15h-80q-45 0 -45 15q0 9 8.5 15.5t19 12t19 28.5t8.5 60v452q0 25 -3 38q-2 17 -11 27.5t-18 14t-16 9t-7 13.5q0 15 45 15zM167 639v-335q0 -9 7 -14t36.5 -8.5t86.5 -3.5q44 0 80 8.5t67 28t48.5 54.5t17.5 84
q0 88 -67.5 149.5t-186.5 62.5h-16q-42 0 -57.5 -5t-15.5 -21zM292 -70q14 13 31 13q24 0 39.5 -15t15.5 -46q0 -57 -31 -96.5t-54 -39.5q-11 0 -11 11q0 2 18 25t18 41q0 12 -20.5 31.5t-20.5 40.5q0 22 15 35z" />
    <glyph glyph-name="uni0157" unicode="&#x157;" horiz-adv-x="428" 
d="M68 32q7 7 15.5 13.5t16 27.5t7.5 54v209q0 19 -0.5 27t-3 21t-9 21t-17.5 14q-17 10 -17 20q0 13 27 25q44 20 61 21h3q15 0 15 -17l-1 -94q22 47 61 81.5t86 34.5q35 0 52.5 -18t17.5 -41q0 -14 -9.5 -27.5t-25.5 -14.5q-16 0 -36 19.5t-43 19.5q-38 0 -67.5 -50
t-29.5 -122v-129q0 -33 7 -54t15.5 -27.5t15.5 -13.5t7 -16q0 -16 -36 -16h-85q-35 0 -35 16q0 9 8 16zM133 -70q14 13 31 13q24 0 39.5 -15t15.5 -46q0 -57 -31 -96.5t-54 -39.5q-11 0 -11 11q0 2 18 25t18 41q0 12 -20.5 31.5t-20.5 40.5q0 22 15 35z" />
    <glyph glyph-name="Rcaron" unicode="&#x158;" horiz-adv-x="633" 
d="M50 685q0 15 45 15h162q160 0 243 -64.5t83 -162.5q0 -72 -38.5 -126t-109.5 -80l97 -175q11 -20 25.5 -34t24 -18.5t16.5 -10.5t7 -14q0 -15 -31 -15h-83q-50 0 -50 19q0 7 12.5 16t15 15.5t2.5 9.5q0 12 -11 36l-86 154q-36 -6 -78 -6h-109q-20 0 -20 -20v-93
q0 -37 8.5 -60t18.5 -28.5t18.5 -12t8.5 -15.5q0 -15 -46 -15h-80q-45 0 -45 15q0 9 8.5 15.5t19 12t19 28.5t8.5 60v452q0 25 -3 38q-2 17 -11 27.5t-18 14t-16 9t-7 13.5zM167 304q0 -9 7 -14t36.5 -8.5t86.5 -3.5q44 0 80 8.5t67 28t48.5 54.5t17.5 84q0 88 -67.5 149.5
t-186.5 62.5h-16q-42 0 -57.5 -5t-15.5 -21v-335zM149 876h2q17 0 55.5 -15t58.5 -31q20 16 58.5 31t55.5 15h2q10 -1 10 -8q0 -2 -1 -5q-1 -5 -51 -55q-49 -49 -57 -53q-6 -3 -18 -3q-3 0 -5 1l-5 1q-3 0 -6 1.5t-5 3t-5.5 4.5t-6 5t-8 7t-9 8.5t-10.5 11t-12 12.5
q-52 51 -53 56v3q0 9 10 10z" />
    <glyph glyph-name="rcaron" unicode="&#x159;" horiz-adv-x="428" 
d="M60 16q0 9 7.5 16t16 13.5t16 27.5t7.5 54v209q0 19 -0.5 27t-3 21t-9 21t-17.5 14q-17 10 -17 20q0 13 27 25q44 20 61 21h3q15 0 15 -17l-1 -94q22 47 61 81.5t86 34.5q35 0 52.5 -18t17.5 -41q0 -14 -9.5 -27.5t-25.5 -14.5q-16 0 -36 19.5t-43 19.5q-38 0 -67.5 -50
t-29.5 -122v-129q0 -33 7 -54t15.5 -27.5t15.5 -13.5t7 -16q0 -16 -36 -16h-85q-35 0 -35 16zM161 673q0 12 11 13h2q16 0 45.5 -18.5t50.5 -40.5q21 22 50.5 40.5t45.5 18.5h2q11 -1 11 -13q0 -2 -6 -10.5t-18 -24.5t-22 -32q-29 -45 -37 -50t-23 -5q-20 0 -29.5 9
t-39.5 50q-42 58 -43 63z" />
    <glyph glyph-name="Sacute" unicode="&#x15a;" horiz-adv-x="559" 
d="M63 210q22 0 33 -28q27 -68 73 -111.5t126 -44.5h4q76 0 118.5 39t45.5 97v7q0 13 -3.5 27t-9 25.5t-18.5 24t-22.5 19.5t-29 17.5t-29.5 15.5t-33 15.5t-32 14.5q-7 3 -36 16.5t-39 18.5t-35 18.5t-35.5 22.5t-28 25.5t-25 31.5t-13.5 35.5t-6 43.5q0 69 57.5 118.5
t168.5 49.5q22 0 56 -5t49 -5q11 0 23 5t17 5q14 0 19 -9t13 -44q18 -65 26 -110q2 -8 2 -14q0 -12 -12 -12q-20 0 -34 27q-76 125 -186 125q-67 0 -104 -33.5t-37 -85.5q0 -21 7.5 -39t16 -29t30.5 -25t33 -20t43 -20.5t43 -19.5q12 -6 43 -20t46 -21.5t40.5 -21.5t39 -27
t28.5 -31t22.5 -40t8.5 -48v-9q0 -82 -69.5 -136t-171.5 -55q-44 0 -85.5 4.5t-51.5 4.5q-11 0 -22.5 -4.5t-17.5 -4.5q-15 0 -23 12t-13 43q-16 89 -22 137q-1 7 -1 12q0 16 13 16zM222 796q7 11 61 66q43 41 57 47q7 3 14 3q6 0 11 -2q14 -6 18.5 -16t4.5 -18t-3 -17
q-12 -28 -64.5 -55.5t-79.5 -27.5q-10 0 -17 3q-5 2 -5 7q0 4 3 10z" />
    <glyph glyph-name="sacute" unicode="&#x15b;" horiz-adv-x="457" 
d="M47 125q0 18 13 30.5t32 12.5q20 0 33 -24q4 -6 14 -27t18 -32.5t22.5 -27t36 -23t49.5 -7.5q43 0 67.5 21.5t24.5 53.5q0 33 -32 56.5t-99 49.5q-79 31 -115.5 63.5t-36.5 88.5q0 61 52 95.5t114 34.5q72 0 117.5 -35.5t45.5 -80.5t-37 -45q-22 0 -33 22q-4 6 -15 30.5
t-20 36.5t-32.5 24.5t-57.5 12.5q-36 0 -62 -20.5t-26 -50.5q0 -35 26 -56.5t101 -49.5q80 -30 122.5 -64.5t42.5 -86.5q0 -53 -50 -95t-128 -42t-132.5 41.5t-54.5 93.5zM152 557q2 6 64 63q47 40 62 44l12 2l10 -2q13 -6 18 -16t5 -17t-3 -15q-10 -27 -62.5 -52.5
t-79.5 -25.5q-10 0 -17 3q-11 4 -11 10q0 3 2 6z" />
    <glyph glyph-name="Scedilla" unicode="&#x15e;" horiz-adv-x="559" 
d="M63 210q22 0 33 -28q27 -68 73 -111.5t126 -44.5h4q76 0 118.5 39t45.5 97v7q0 13 -3.5 27t-9 25.5t-18.5 24t-22.5 19.5t-29 17.5t-29.5 15.5t-33 15.5t-32 14.5q-7 3 -36 16.5t-39 18.5t-35 18.5t-35.5 22.5t-28 25.5t-25 31.5t-13.5 35.5t-6 43.5q0 69 57.5 118.5
t168.5 49.5q22 0 56 -5t49 -5q11 0 23 5t17 5q14 0 19 -9t13 -44q18 -65 26 -110q2 -8 2 -14q0 -12 -12 -12q-20 0 -34 27q-76 125 -186 125q-67 0 -104 -33.5t-37 -85.5q0 -21 7.5 -39t16 -29t30.5 -25t33 -20t43 -20.5t43 -19.5q12 -6 43 -20t46 -21.5t40.5 -21.5t39 -27
t28.5 -31t22.5 -40t8.5 -48v-10q0 -78 -64.5 -131.5t-163.5 -58.5l-22 -45q92 -16 92 -77q0 -34 -26 -55.5t-63 -21.5q-53 0 -77 30q-3 4 -3 8q0 3 2.5 5.5t5.5 2.5t7 -2q31 -18 59 -18q24 0 36 12.5t12 31.5q0 39 -68 56q-14 3 -14 10q0 3 2 6l31 57q-38 1 -75.5 5t-48.5 4
t-22.5 -4.5t-17.5 -4.5q-15 0 -23 12t-13 43q-16 89 -22 137q-1 7 -1 12q0 16 13 16z" />
    <glyph glyph-name="scedilla" unicode="&#x15f;" horiz-adv-x="457" 
d="M47 125q0 18 13 30.5t32 12.5q20 0 33 -24q4 -6 14 -27t18 -32.5t22.5 -27t36 -23t49.5 -7.5q43 0 67.5 21.5t24.5 53.5q0 33 -32 56.5t-99 49.5q-79 31 -115.5 63.5t-36.5 88.5q0 61 52 95.5t114 34.5q72 0 117.5 -35.5t45.5 -80.5t-37 -45q-22 0 -33 22q-4 6 -15 30.5
t-20 36.5t-32.5 24.5t-57.5 12.5q-36 0 -62 -20.5t-26 -50.5q0 -35 26 -56.5t101 -49.5q80 -30 122.5 -64.5t42.5 -86.5q0 -53 -50 -95t-128 -42h-1l-22 -45q92 -16 92 -77q0 -34 -26 -55.5t-63 -21.5q-53 0 -77 30q-3 4 -3 8q0 3 2.5 5.5t5.5 2.5t7 -2q31 -18 59 -18
q24 0 36 12.5t12 31.5q0 39 -68 56q-14 3 -14 10q0 3 2 6l31 58q-68 7 -114 47t-46 87z" />
    <glyph glyph-name="Scaron" unicode="&#x160;" horiz-adv-x="559" 
d="M63 210q22 0 33 -28q27 -68 73 -111.5t126 -44.5h4q76 0 118.5 39t45.5 97v7q0 13 -3.5 27t-9 25.5t-18.5 24t-22.5 19.5t-29 17.5t-29.5 15.5t-33 15.5t-32 14.5q-7 3 -36 16.5t-39 18.5t-35 18.5t-35.5 22.5t-28 25.5t-25 31.5t-13.5 35.5t-6 43.5q0 69 57.5 118.5
t168.5 49.5q22 0 56 -5t49 -5q11 0 23 5t17 5q14 0 19 -9t13 -44q18 -65 26 -110q2 -8 2 -14q0 -12 -12 -12q-20 0 -34 27q-76 125 -186 125q-67 0 -104 -33.5t-37 -85.5q0 -21 7.5 -39t16 -29t30.5 -25t33 -20t43 -20.5t43 -19.5q12 -6 43 -20t46 -21.5t40.5 -21.5t39 -27
t28.5 -31t22.5 -40t8.5 -48v-9q0 -82 -69.5 -136t-171.5 -55q-44 0 -85.5 4.5t-51.5 4.5q-11 0 -22.5 -4.5t-17.5 -4.5q-15 0 -23 12t-13 43q-16 89 -22 137q-1 7 -1 12q0 16 13 16zM165 888h2q17 0 55.5 -15t58.5 -31q20 16 58.5 31t55.5 15h2q10 -1 10 -8q0 -2 -1 -5
q-1 -5 -51 -55q-49 -49 -57 -53q-6 -3 -18 -3q-3 0 -5 1l-5 1q-3 0 -6 1.5t-5 3t-5.5 4.5t-6 5t-8 7t-9 8.5t-10.5 11t-12 12.5q-52 51 -53 56v3q0 9 10 10z" />
    <glyph glyph-name="scaron" unicode="&#x161;" horiz-adv-x="457" 
d="M60 156q13 12 32 12q20 0 33 -24q4 -6 14 -27t18 -32.5t22.5 -27t36 -23t49.5 -7.5q43 0 67.5 21.5t24.5 53.5q0 33 -32 56.5t-99 49.5q-79 31 -115.5 63.5t-36.5 88.5q0 61 52 95.5t114 34.5q72 0 117.5 -35.5t45.5 -80.5t-37 -45q-22 0 -33 22q-4 6 -15 30.5t-20 36.5
t-32.5 24.5t-57.5 12.5q-36 0 -62 -20.5t-26 -50.5q0 -35 26 -56.5t101 -49.5q80 -30 122.5 -64.5t42.5 -86.5q0 -53 -50 -95t-128 -42t-132.5 41.5t-54.5 93.5q0 18 13 31zM111 670q0 12 11 13h2q16 0 45.5 -18.5t50.5 -40.5q21 22 50.5 40.5t45.5 18.5h2q11 -1 11 -13
q0 -2 -6 -10.5t-18 -24.5t-22 -32q-29 -45 -37 -50t-23 -5q-20 0 -29.5 9t-39.5 50q-42 59 -43 63z" />
    <glyph glyph-name="uni0162" unicode="&#x162;" horiz-adv-x="630" 
d="M42 571q0 57 12 99q4 16 18.5 23t60.5 7l364 1q46 0 60 -6.5t19 -23.5q11 -37 12 -99v-5q0 -22 -17 -22q-10 0 -17 8t-20 33q-19 36 -29 49t-34 23.5t-66 10.5q-33 0 -46 -12t-13 -41v-485q0 -37 8.5 -60t18 -28.5t18 -12t8.5 -15.5q0 -15 -45 -15h-23l-27 -55
q92 -16 92 -77q0 -34 -26 -55.5t-63 -21.5q-53 0 -77 30q-3 4 -3 8q0 3 2.5 5.5t5.5 2.5t7 -2q32 -18 59 -18q24 0 36 12.5t12 31.5q0 39 -68 56q-14 3 -14 10q0 3 2 6l36 67h-31q-46 0 -46 15q0 9 9 15.5t19 12t19 28.5t9 60v484q0 29 -13 41t-46 12q-42 0 -66 -10.5
t-34 -23.5t-29 -49q-13 -24 -20.5 -32.5t-16.5 -8.5q-17 0 -17 22v5z" />
    <glyph glyph-name="uni0163" unicode="&#x163;" horiz-adv-x="334" 
d="M19 461q0 6 5 12q43 52 94 96q8 7 22 7q8 0 9.5 -4t1.5 -10v-7q-2 -25 -3 -75h101q22 0 24 -7q1 -2 1 -5t-1 -7q-5 -21 -30 -21h-5l-91 2q-4 -264 -5 -304v-11q0 -38 13.5 -61.5t54.5 -23.5q44 0 80 36q5 6 11 6q3 0 7.5 -3.5t4.5 -9.5q0 -4 -2 -8q-11 -26 -43.5 -49.5
t-78.5 -23.5q-22 0 -35 4l-24 -49q92 -16 92 -77q0 -34 -26 -55.5t-63 -21.5q-53 0 -77 30q-3 4 -3 8q0 3 2.5 5.5t5.5 2.5t7 -2q32 -18 59 -18q24 0 36 12.5t12 31.5q0 39 -68 56q-14 3 -14 10q0 3 2 6l36 67h6q-55 25 -55 122v16q0 217 4 306h-44q-23 0 -23 17z" />
    <glyph glyph-name="Tcaron" unicode="&#x164;" horiz-adv-x="630" 
d="M42 571q0 57 12 99q4 16 18.5 23t60.5 7l364 1q46 0 60 -6.5t19 -23.5q11 -37 12 -99v-5q0 -22 -17 -22q-10 0 -17 8t-20 33q-19 36 -29 49t-34 23.5t-66 10.5q-33 0 -46 -12t-13 -41v-485q0 -37 8.5 -60t18 -28.5t18 -12t8.5 -15.5q0 -15 -45 -15h-80q-46 0 -46 15
q0 9 9 15.5t19 12t19 28.5t9 60v484q0 29 -13 41t-46 12q-42 0 -66 -10.5t-34 -23.5t-29 -49q-13 -24 -20.5 -32.5t-16.5 -8.5q-17 0 -17 22v5zM215 876h2q17 0 55.5 -15t58.5 -31q20 16 58.5 31t55.5 15h2q10 -1 10 -8q0 -2 -1 -5q-1 -5 -51 -55q-49 -49 -57 -53
q-6 -3 -18 -3q-3 0 -5 1l-5 1q-3 0 -6 1.5t-5 3t-5.5 4.5t-6 5t-8 7t-9 8.5t-10.5 11t-12 12.5q-52 51 -53 56v3q0 9 10 10z" />
    <glyph glyph-name="tcaron" unicode="&#x165;" horiz-adv-x="334" 
d="M24 473q43 52 94 96q8 7 22 7q8 0 9.5 -4t1.5 -10v-7q-2 -25 -3 -75h101q22 0 24 -7q1 -2 1 -5t-1 -7q-5 -21 -30 -21h-5l-91 2q-4 -264 -5 -304v-11q0 -38 13.5 -61.5t54.5 -23.5q44 0 80 36q5 6 11 6q3 0 7.5 -3.5t4.5 -9.5q0 -4 -2 -8q-11 -26 -43.5 -49.5
t-78.5 -23.5q-107 0 -107 132v16q0 217 4 306h-44q-23 0 -23 17q0 6 5 12zM255 527q1 14 6.5 77t5.5 70q1 21 11.5 32.5t25.5 11.5q31 0 31 -38q0 -26 -26.5 -96.5t-42.5 -70.5q-11 0 -11 11v3z" />
    <glyph glyph-name="Tbar" unicode="&#x166;" horiz-adv-x="630" 
d="M42 571q0 57 12 99q4 16 18.5 23t60.5 7l364 1q46 0 60 -6.5t19 -23.5q11 -37 12 -99v-5q0 -22 -17 -22q-10 0 -17 8t-20 33q-19 36 -29 49t-34 23.5t-66 10.5q-33 0 -46 -12t-13 -41v-252h67q15 0 19.5 -4t4.5 -14q0 -15 -24 -15h-67v-200q0 -37 8.5 -60t18 -28.5
t18 -12t8.5 -15.5q0 -15 -45 -15h-80q-46 0 -46 15q0 9 9 15.5t19 12t19 28.5t9 60v200h-71q-24 0 -24 15q0 10 4.5 14t19.5 4h71v251q0 29 -13 41t-46 12q-42 0 -66 -10.5t-34 -23.5t-29 -49q-13 -24 -20.5 -32.5t-16.5 -8.5q-17 0 -17 22v5z" />
    <glyph glyph-name="tbar" unicode="&#x167;" horiz-adv-x="334" 
d="M19 461q0 6 5 12q43 52 94 96q8 7 22 7q8 0 9.5 -4t1.5 -10v-7q-2 -25 -3 -75h101q22 0 24 -7q1 -2 1 -5t-1 -7q-5 -21 -30 -21h-5l-91 2q0 -17 -2 -111h57q15 0 15 -15q0 -16 -15 -16h-57l-3 -162v-11q0 -38 13.5 -61.5t54.5 -23.5q44 0 80 36q5 6 11 6q3 0 7.5 -3.5
t4.5 -9.5q0 -4 -2 -8q-11 -26 -43.5 -49.5t-78.5 -23.5q-107 0 -107 132v16q0 114 1 162h-49q-15 0 -15 16q0 15 15 15h49l3 113h-44q-23 0 -23 17z" />
    <glyph glyph-name="Umacron" unicode="&#x16a;" horiz-adv-x="707" 
d="M50 683q0 15 46 15h80q46 0 46 -15q0 -9 -9 -15.5t-19 -12t-19 -28.5t-9 -60v-318q0 -108 56 -165t156 -57q101 0 156.5 66t55.5 165l-4 325q0 30 -8 48t-17.5 23t-18 11.5t-8.5 16.5q0 18 45 18h54q42 0 42 -18q0 -10 -8.5 -17t-18 -12t-18 -22.5t-8.5 -47.5l-1 -317
q0 -119 -64.5 -197.5t-190.5 -78.5q-119 0 -190.5 74.5t-71.5 194.5v308q0 37 -8.5 60t-18.5 28.5t-18.5 12t-8.5 15.5zM275 798q1 7 2 10.5t5.5 6.5t14.5 3h229q13 0 15 -3.5t2 -8.5q0 -4 -1 -9q-1 -7 -2 -10.5t-5.5 -6.5t-13.5 -3h-229q-14 0 -16 3.5t-2 8.5q0 4 1 9z" />
    <glyph glyph-name="umacron" unicode="&#x16b;" horiz-adv-x="590" 
d="M65 452q5 4 22 12q51 25 70 26h3q15 0 15 -17l-1 -138v-137q0 -78 29.5 -121.5t87.5 -43.5h5q58 2 108.5 49.5t50.5 121.5v131q0 34 -8 54t-17 25t-17 11t-8 16q0 6 5 10.5t22 12.5q52 25 70 26h3q15 0 15 -17l-1 -138v-216q0 -26 9.5 -40.5t20.5 -17.5t20.5 -8t9.5 -14
q0 -12 -21 -24q-46 -26 -73 -26t-29 48l-1 51q-33 -48 -81.5 -73.5t-94.5 -25.5q-75 0 -122 47.5t-47 149.5v149q0 34 -8 54t-17 25t-17 11t-8 16q0 6 5 11zM191 578q1 7 2 10.5t5.5 6.5t14.5 3h229q13 0 15 -3.5t2 -8.5q0 -4 -1 -9q-1 -7 -2 -10.5t-5.5 -6.5t-13.5 -3h-229
q-14 0 -16 3.5t-2 8.5q0 4 1 9z" />
    <glyph glyph-name="Uring" unicode="&#x16e;" horiz-adv-x="707" 
d="M50 683q0 15 46 15h80q46 0 46 -15q0 -9 -9 -15.5t-19 -12t-19 -28.5t-9 -60v-318q0 -108 56 -165t156 -57q101 0 156.5 66t55.5 165l-4 325q0 30 -8 48t-17.5 23t-18 11.5t-8.5 16.5q0 18 45 18h54q42 0 42 -18q0 -10 -8.5 -17t-18 -12t-18 -22.5t-8.5 -47.5l-1 -317
q0 -119 -64.5 -197.5t-190.5 -78.5q-119 0 -190.5 74.5t-71.5 194.5v308q0 37 -8.5 60t-18.5 28.5t-18.5 12t-8.5 15.5zM324 842q0 39 26.5 63t66.5 24q38 0 63 -23t25 -61q0 -40 -26 -63q-27 -24 -66 -24t-64 23t-25 61zM361 843q4 -25 19 -40t38 -15q24 0 37 16t13 37v6
q-3 24 -18 39t-37 15q-25 0 -38.5 -15t-13.5 -37v-6z" />
    <glyph glyph-name="uring" unicode="&#x16f;" horiz-adv-x="590" 
d="M65 452q5 4 22 12q51 25 70 26h3q15 0 15 -17l-1 -138v-137q0 -78 29.5 -121.5t87.5 -43.5h5q58 2 108.5 49.5t50.5 121.5v131q0 34 -8 54t-17 25t-17 11t-8 16q0 6 5 10.5t22 12.5q52 25 70 26h3q15 0 15 -17l-1 -138v-216q0 -26 9.5 -40.5t20.5 -17.5t20.5 -8t9.5 -14
q0 -12 -21 -24q-46 -26 -73 -26t-29 48l-1 51q-33 -48 -81.5 -73.5t-94.5 -25.5q-75 0 -122 47.5t-47 149.5v149q0 34 -8 54t-17 25t-17 11t-8 16q0 6 5 11zM266 685q26 24 66 24q38 0 63 -23t25 -61q0 -40 -26 -63q-27 -24 -66 -24t-64 23t-25 61q0 39 27 63zM276 623
q4 -25 19 -40t38 -15q24 0 37 16t13 37v6q-3 24 -18 39t-37 15q-25 0 -38.5 -15t-13.5 -37v-6z" />
    <glyph glyph-name="Uhungarumlaut" unicode="&#x170;" horiz-adv-x="707" 
d="M96 698h80q46 0 46 -15q0 -9 -9 -15.5t-19 -12t-19 -28.5t-9 -60v-318q0 -108 56 -165t156 -57q101 0 156.5 66t55.5 165l-4 325q0 30 -8 48t-17.5 23t-18 11.5t-8.5 16.5q0 18 45 18h54q42 0 42 -18q0 -10 -8.5 -17t-18 -12t-18 -22.5t-8.5 -47.5l-1 -317
q0 -119 -64.5 -197.5t-190.5 -78.5q-119 0 -190.5 74.5t-71.5 194.5v308q0 37 -8.5 60t-18.5 28.5t-18.5 12t-8.5 15.5q0 15 46 15zM437 780q0 7 73 59q52 37 71 37h1q14 -1 26 -11.5t12 -22.5v-2q-1 -27 -56 -50.5t-91 -23.5h-6q-30 2 -30 13v1zM248 780q0 8 70 63
q4 3 12.5 9.5t12 9t10 7t10.5 6.5l9 5q5 2 9 3t8 1q14 0 26.5 -10.5t12.5 -23.5q0 -28 -55.5 -55t-93.5 -27q-31 0 -31 12z" />
    <glyph glyph-name="uhungarumlaut" unicode="&#x171;" horiz-adv-x="590" 
d="M60 441q0 6 5 10.5t22 12.5q51 25 70 26h3q15 0 15 -17l-1 -138v-137q0 -78 29.5 -121.5t87.5 -43.5h5q58 2 108.5 49.5t50.5 121.5v131q0 34 -8 54t-17 25t-17 11t-8 16q0 6 5 10.5t22 12.5q52 25 70 26h3q15 0 15 -17l-1 -138v-216q0 -26 9.5 -40.5t20.5 -17.5t20.5 -8
t9.5 -14q0 -12 -21 -24q-46 -26 -73 -26t-29 48l-1 51q-33 -48 -81.5 -73.5t-94.5 -25.5q-75 0 -122 47.5t-47 149.5v149q0 34 -8 54t-17 25t-17 11t-8 16zM237 551q0 5 35 73q29 50 41 58q8 6 18 6q13 0 23 -9.5t10 -25.5q0 -27 -43 -70.5t-71 -43.5q-13 0 -13 12zM374 551
q0 4 39 71q17 25 23 34t17 18t21 9q13 0 22.5 -9.5t9.5 -25.5q0 -26 -44.5 -68t-73.5 -42q-9 0 -11.5 3.5t-2.5 7.5v2z" />
    <glyph glyph-name="Uogonek" unicode="&#x172;" horiz-adv-x="707" 
d="M50 683q0 15 46 15h80q46 0 46 -15q0 -9 -9 -15.5t-19 -12t-19 -28.5t-9 -60v-318q0 -108 56 -165t156 -57q101 0 156.5 66t55.5 165l-4 325q0 30 -8 48t-17.5 23t-18 11.5t-8.5 16.5q0 18 45 18h54q42 0 42 -18q0 -10 -8.5 -17t-18 -12t-18 -22.5t-8.5 -47.5l-1 -317
q0 -99 -46 -172.5t-136 -95.5q-49 -48 -49 -94q0 -56 61 -56q18 0 45 9q5 2 8 2q2 0 5 -1.5t3 -6.5t-4 -8q-28 -23 -74 -23q-40 0 -67.5 20t-27.5 56q0 48 65 96q-24 -2 -38 -2q-119 0 -190.5 74.5t-71.5 194.5v308q0 37 -8.5 60t-18.5 28.5t-18.5 12t-8.5 15.5z" />
    <glyph glyph-name="uogonek" unicode="&#x173;" horiz-adv-x="590" 
d="M60 441q0 6 5 10.5t22 12.5q51 25 70 26h3q15 0 15 -17l-1 -138v-137q0 -78 29.5 -121.5t87.5 -43.5h5q58 2 108.5 49.5t50.5 121.5v131q0 34 -8 54t-17 25t-17 11t-8 16q0 6 5 10.5t22 12.5q52 25 70 26h3q15 0 15 -17l-1 -138v-216q0 -26 9.5 -40.5t20.5 -17.5t20.5 -8
t9.5 -14q0 -12 -21 -24q-2 -1 -8.5 -4.5t-10.5 -5.5h2q-62 -54 -62 -106q0 -56 61 -56q18 0 45 9q5 2 8 2q2 0 5 -1.5t3 -6t-4 -8.5q-28 -23 -74 -23q-40 0 -67.5 20t-27.5 56q0 49 70 99q-5 -1 -13 -1q-27 0 -29 48l-1 51q-33 -48 -81.5 -73.5t-94.5 -25.5q-75 0 -122 47.5
t-47 149.5v149q0 34 -8 54t-17 25t-17 11t-8 16z" />
    <glyph glyph-name="Wcircumflex" unicode="&#x174;" horiz-adv-x="1018" 
d="M-2 682q0 18 47 18h89q37 0 37 -14q0 -10 -15 -20.5t-20.5 -19.5t-5.5 -18q0 -15 7 -40l183 -530l168 508l-8 22q-10 29 -23 47t-23.5 23t-17.5 10.5t-7 13.5q0 18 47 18h89q37 0 37 -14q0 -10 -15 -20.5t-20.5 -19.5t-5.5 -18q0 -15 7 -40l185 -532l176 531q7 29 7 45
q0 7 -3.5 15.5t-16.5 17t-13 17.5q0 18 31 18h76q35 0 35 -14q0 -10 -8.5 -16t-20 -10.5t-26.5 -23t-25 -49.5l-192 -569q-6 -17 -31 -21q-9 -3 -16 -3q-15 0 -18 12l-180 507l-168 -495q-6 -16 -30 -21q-8 -2 -15 -2q-4 0 -11.5 1.5t-9.5 9.5l-205 582q-10 29 -23 47
t-23.5 23t-17.5 10.5t-7 13.5zM361 766q2 7 53 56q46 47 57 52q6 3 15 3q14 0 22.5 -6t35.5 -32l45 -44q5 -6 10.5 -12t8.5 -10t4 -7t1 -5q0 -6 -10 -7h-4q-18 0 -55 14.5t-57 30.5q-20 -16 -57 -30.5t-55 -14.5h-4q-10 1 -10 9v3z" />
    <glyph glyph-name="wcircumflex" unicode="&#x175;" horiz-adv-x="810" 
d="M14 462q0 16 36 16h87q35 0 35 -16q0 -6 -14.5 -16.5t-19 -20.5t-4.5 -18q0 -15 8 -42l112 -286l145 395q5 12 18 15h2q10 0 13 -8l145 -407l121 293q11 30 11 46q0 5 -3 14t-15 19.5t-12 16.5q0 16 36 16h48q36 0 36 -16q0 -7 -9.5 -15t-26 -28t-30.5 -53l-146 -354
q-7 -14 -24 -18q-7 -2 -12 -2q-12 0 -14 8l-134 383l-136 -371q-6 -14 -25 -18q-7 -1 -12 -1q-12 0 -15 7l-140 364q-10 26 -21.5 45t-20 26t-14 13.5t-5.5 12.5zM348 617q30 41 39.5 50t29.5 9q4 0 7.5 -0.5t6 -0.5t5.5 -2t5 -3t4.5 -4t4.5 -5t5.5 -7.5t5.5 -8.5t7.5 -11
t8.5 -13q10 -16 22 -32t18 -24.5t6 -11.5q0 -11 -11 -12h-2q-16 0 -45.5 18.5t-50.5 40.5q-21 -22 -50.5 -40.5t-45.5 -18.5h-2q-11 1 -11 12q1 6 43 64z" />
    <glyph glyph-name="Ycircumflex" unicode="&#x176;" horiz-adv-x="638" 
d="M3 682q0 18 47 18h109q37 0 37 -14q0 -9 -10 -17.5t-19.5 -14.5t-9.5 -22t16 -39l169 -246l166 260q17 31 17 41q0 1 -1 5.5t-11 12.5t-10 16q0 18 31 18h69q35 0 35 -14q0 -10 -8 -15.5t-20 -9t-29.5 -17.5t-32.5 -37l-193 -300v-176q0 -37 8.5 -60t18.5 -28.5t18.5 -12
t8.5 -15.5q0 -15 -46 -15h-79q-46 0 -46 15q0 9 9 15.5t19 12t19 28.5t9 60v179l-198 284q-17 24 -35.5 40.5t-30.5 21.5t-19.5 11.5t-7.5 14.5zM215 766q2 7 53 56q46 47 57 52q6 3 15 3q14 0 22.5 -6t35.5 -32l45 -44q5 -6 10.5 -12t8.5 -10t4 -7t1 -5q0 -6 -10 -7h-4
q-18 0 -55 14.5t-57 30.5q-20 -16 -57 -30.5t-55 -14.5h-4q-10 1 -10 9v3z" />
    <glyph glyph-name="ycircumflex" unicode="&#x177;" horiz-adv-x="508" 
d="M54 480h87q36 0 36 -16q0 -5 -14.5 -15.5t-19.5 -20.5t-5 -19q0 -15 8 -41l125 -321l128 321q10 30 10 46q0 6 -3 15t-15 19.5t-12 15.5q0 16 36 16h46q35 0 35 -16q0 -7 -9 -14.5t-25.5 -28t-29.5 -53.5l-134 -349q-6 -14 -16.5 -42.5t-15.5 -41t-15 -35t-16.5 -32.5
t-16.5 -26t-20 -23t-22.5 -15t-27.5 -11t-32 -3q-39 0 -58 18t-19 39q0 16 10 28t25 13h1q14 0 40.5 -20t46.5 -20q26 0 44.5 38.5t18.5 82.5q0 36 -21 86l-124 313q-13 33 -29 53.5t-24.5 28t-8.5 14.5q0 16 36 16zM134 553q1 6 43 64q30 41 39.5 50t29.5 9q4 0 7.5 -0.5
t6 -0.5t5.5 -2t5 -3t4.5 -4t4.5 -5t5.5 -7.5t5.5 -8.5t7.5 -11t8.5 -13q10 -16 22 -32t18 -24.5t6 -11.5q0 -11 -11 -12h-2q-16 0 -45.5 18.5t-50.5 40.5q-21 -22 -50.5 -40.5t-45.5 -18.5h-2q-11 1 -11 12z" />
    <glyph glyph-name="Ydieresis" unicode="&#x178;" horiz-adv-x="638" 
d="M50 700h109q37 0 37 -14q0 -9 -10 -17.5t-19.5 -14.5t-9.5 -22t16 -39l169 -246l166 260q17 31 17 41q0 1 -1 5.5t-11 12.5t-10 16q0 18 31 18h69q35 0 35 -14q0 -10 -8 -15.5t-20 -9t-29.5 -17.5t-32.5 -37l-193 -300v-176q0 -37 8.5 -60t18.5 -28.5t18.5 -12t8.5 -15.5
q0 -15 -46 -15h-79q-46 0 -46 15q0 9 9 15.5t19 12t19 28.5t9 60v179l-198 284q-17 24 -35.5 40.5t-30.5 21.5t-19.5 11.5t-7.5 14.5q0 18 47 18zM213 816q0 21 15 38t36 17q18 0 30 -11.5t12 -28.5q0 -20 -17 -34.5t-38 -14.5q-17 0 -27.5 9t-10.5 25zM361 854q15 17 36 17
q18 0 30 -11.5t12 -28.5q0 -20 -17.5 -34.5t-38.5 -14.5q-16 0 -26.5 9.5t-10.5 24.5q0 21 15 38z" />
    <glyph glyph-name="Zacute" unicode="&#x179;" horiz-adv-x="632" 
d="M53 34l452 633l-257 -1q-101 0 -146 -97q-11 -21 -17.5 -27.5t-14.5 -6.5h-4q-11 2 -11 17q0 5 1 11q5 48 23 109q6 19 16 23.5t50 4.5h417q18 0 21.5 -6.5t3.5 -10.5q0 -8 -7 -17l-452 -633l267 1q100 0 145 97q12 22 18 28t14 6h5q11 -2 11 -19q0 -4 -1 -9
q-6 -49 -24 -109q-6 -19 -15.5 -23.5t-50.5 -4.5h-426q-17 0 -20.5 7t-3.5 11q0 7 6 16zM261 784q7 11 61 66q43 41 57 47q7 3 14 3q6 0 11 -2q14 -6 18.5 -16t4.5 -18t-3 -17q-12 -28 -64.5 -55.5t-79.5 -27.5q-10 0 -17 3q-5 2 -5 7q0 4 3 10z" />
    <glyph glyph-name="zacute" unicode="&#x17a;" horiz-adv-x="497" 
d="M54 384q3 22 9 47q10 49 56 49h311q13 0 16 -5t3 -8q0 -6 -5 -14l-306 -423h135q99 0 147 74q7 11 9.5 14.5t7 6.5t8.5 3q2 0 5 -1q7 -2 7 -14q0 -6 -2 -15q-2 -16 -11 -51q-13 -47 -53 -47h-318q-14 0 -16.5 5.5t-2.5 8.5q0 6 5 13l307 424h-129q-95 0 -143 -71
q-1 -2 -3.5 -5.5t-3.5 -4.5t-3 -4t-3 -4l-3 -3q-2 -2 -3 -2.5l-3 -1.5t-3 -1t-2 0.5t-4 0.5q-10 2 -10 20q0 4 1 9zM186 557q2 6 64 63q47 40 62 44l12 2l10 -2q13 -6 18 -16t5 -17t-3 -15q-10 -27 -62.5 -52.5t-79.5 -25.5q-10 0 -17 3q-11 4 -11 10q0 3 2 6z" />
    <glyph glyph-name="Zdotaccent" unicode="&#x17b;" horiz-adv-x="632" 
d="M53 34l452 633l-257 -1q-101 0 -146 -97q-11 -21 -17.5 -27.5t-14.5 -6.5h-4q-11 2 -11 17q0 5 1 11q5 48 23 109q6 19 16 23.5t50 4.5h417q18 0 21.5 -6.5t3.5 -10.5q0 -8 -7 -17l-452 -633l267 1q100 0 145 97q12 22 18 28t14 6h5q11 -2 11 -19q0 -4 -1 -9
q-6 -49 -24 -109q-6 -19 -15.5 -23.5t-50.5 -4.5h-426q-17 0 -20.5 7t-3.5 11q0 7 6 16zM253 840q2 24 25 42.5t43 18.5q4 0 8 -1q16 -2 24.5 -15t8.5 -25v-5q-2 -20 -25 -38.5t-42 -18.5h-6q-17 2 -26.5 12t-9.5 24v6z" />
    <glyph glyph-name="zdotaccent" unicode="&#x17c;" horiz-adv-x="497" 
d="M54 384q3 22 9 47q10 49 56 49h311q13 0 16 -5t3 -8q0 -6 -5 -14l-306 -423h135q99 0 147 74q7 11 9.5 14.5t7 6.5t8.5 3q2 0 5 -1q7 -2 7 -14q0 -6 -2 -15q-2 -16 -11 -51q-13 -47 -53 -47h-318q-14 0 -16.5 5.5t-2.5 8.5q0 6 5 13l307 424h-129q-95 0 -143 -71
q-1 -2 -3.5 -5.5t-3.5 -4.5t-3 -4t-3 -4l-3 -3q-2 -2 -3 -2.5l-3 -1.5t-3 -1t-2 0.5t-4 0.5q-10 2 -10 20q0 4 1 9zM192 620q2 24 25 42.5t43 18.5q4 0 8 -1q16 -2 24.5 -15t8.5 -25v-5q-2 -20 -25 -38.5t-42 -18.5h-6q-17 2 -26.5 12t-9.5 24v6z" />
    <glyph glyph-name="Zcaron" unicode="&#x17d;" horiz-adv-x="632" 
d="M53 34l452 633l-257 -1q-101 0 -146 -97q-11 -21 -17.5 -27.5t-14.5 -6.5h-4q-11 2 -11 17q0 5 1 11q5 48 23 109q6 19 16 23.5t50 4.5h417q18 0 21.5 -6.5t3.5 -10.5q0 -8 -7 -17l-452 -633l267 1q100 0 145 97q12 22 18 28t14 6h5q11 -2 11 -19q0 -4 -1 -9
q-6 -49 -24 -109q-6 -19 -15.5 -23.5t-50.5 -4.5h-426q-17 0 -20.5 7t-3.5 11q0 7 6 16zM204 876h2q17 0 55.5 -15t58.5 -31q20 16 58.5 31t55.5 15h2q10 -1 10 -8q0 -2 -1 -5q-1 -5 -51 -55q-49 -49 -57 -53q-6 -3 -18 -3q-3 0 -5 1l-5 1q-3 0 -6 1.5t-5 3t-5.5 4.5t-6 5
t-8 7t-9 8.5t-10.5 11t-12 12.5q-51 51 -53 56v3q0 9 10 10z" />
    <glyph glyph-name="zcaron" unicode="&#x17e;" horiz-adv-x="497" 
d="M54 384q3 22 9 47q10 49 56 49h311q13 0 16 -5t3 -8q0 -6 -5 -14l-306 -423h135q99 0 147 74q7 11 9.5 14.5t7 6.5t8.5 3q2 0 5 -1q7 -2 7 -14q0 -6 -2 -15q-2 -16 -11 -51q-13 -47 -53 -47h-318q-14 0 -16.5 5.5t-2.5 8.5q0 6 5 13l307 424h-129q-95 0 -143 -71
q-1 -2 -3.5 -5.5t-3.5 -4.5t-3 -4t-3 -4l-3 -3q-2 -2 -3 -2.5l-3 -1.5t-3 -1t-2 0.5t-4 0.5q-10 2 -10 20q0 4 1 9zM145 670q0 12 11 13h2q16 0 45.5 -18.5t50.5 -40.5q21 22 50.5 40.5t45.5 18.5h2q11 -1 11 -13q0 -2 -6 -10.5t-18 -24.5t-22 -32q-29 -45 -37 -50t-23 -5
q-20 0 -29.5 9t-39.5 50q-42 59 -43 63z" />
    <glyph glyph-name="uni0218" unicode="&#x218;" horiz-adv-x="559" 
d="M63 210q22 0 33 -28q27 -68 73 -111.5t126 -44.5h4q76 0 118.5 39t45.5 97v7q0 13 -3.5 27t-9 25.5t-18.5 24t-22.5 19.5t-29 17.5t-29.5 15.5t-33 15.5t-32 14.5q-7 3 -36 16.5t-39 18.5t-35 18.5t-35.5 22.5t-28 25.5t-25 31.5t-13.5 35.5t-6 43.5q0 69 57.5 118.5
t168.5 49.5q22 0 56 -5t49 -5q11 0 23 5t17 5q14 0 19 -9t13 -44q18 -65 26 -110q2 -8 2 -14q0 -12 -12 -12q-20 0 -34 27q-76 125 -186 125q-67 0 -104 -33.5t-37 -85.5q0 -21 7.5 -39t16 -29t30.5 -25t33 -20t43 -20.5t43 -19.5q12 -6 43 -20t46 -21.5t40.5 -21.5t39 -27
t28.5 -31t22.5 -40t8.5 -48v-9q0 -82 -69.5 -136t-171.5 -55q-44 0 -85.5 4.5t-51.5 4.5q-11 0 -22.5 -4.5t-17.5 -4.5q-15 0 -23 12t-13 43q-16 89 -22 137q-1 7 -1 12q0 16 13 16zM250 -70q14 13 31 13q24 0 39.5 -15t15.5 -46q0 -57 -31 -96.5t-54 -39.5q-11 0 -11 11
q0 2 18 25t18 41q0 12 -20.5 31.5t-20.5 40.5q0 22 15 35z" />
    <glyph glyph-name="uni0219" unicode="&#x219;" horiz-adv-x="457" 
d="M47 125q0 18 13 30.5t32 12.5q20 0 33 -24q4 -6 14 -27t18 -32.5t22.5 -27t36 -23t49.5 -7.5q43 0 67.5 21.5t24.5 53.5q0 33 -32 56.5t-99 49.5q-79 31 -115.5 63.5t-36.5 88.5q0 61 52 95.5t114 34.5q72 0 117.5 -35.5t45.5 -80.5t-37 -45q-22 0 -33 22q-4 6 -15 30.5
t-20 36.5t-32.5 24.5t-57.5 12.5q-36 0 -62 -20.5t-26 -50.5q0 -35 26 -56.5t101 -49.5q80 -30 122.5 -64.5t42.5 -86.5q0 -53 -50 -95t-128 -42t-132.5 41.5t-54.5 93.5zM169 -105q0 22 14.5 35t31.5 13q24 0 39.5 -15t15.5 -46q0 -57 -31 -96.5t-54 -39.5q-11 0 -11 11
q0 2 18 25t18 41q0 12 -20.5 31.5t-20.5 40.5z" />
    <glyph glyph-name="uni021A" unicode="&#x21a;" horiz-adv-x="630" 
d="M42 571q0 57 12 99q4 16 18.5 23t60.5 7l364 1q46 0 60 -6.5t19 -23.5q11 -37 12 -99v-5q0 -22 -17 -22q-10 0 -17 8t-20 33q-19 36 -29 49t-34 23.5t-66 10.5q-33 0 -46 -12t-13 -41v-485q0 -37 8.5 -60t18 -28.5t18 -12t8.5 -15.5q0 -15 -45 -15h-80q-46 0 -46 15
q0 9 9 15.5t19 12t19 28.5t9 60v484q0 29 -13 41t-46 12q-42 0 -66 -10.5t-34 -23.5t-29 -49q-13 -24 -20.5 -32.5t-16.5 -8.5q-17 0 -17 22v5zM262 -105q0 22 14.5 35t31.5 13q24 0 39.5 -15t15.5 -46q0 -57 -31 -96.5t-54 -39.5q-11 0 -11 11q0 2 18 25t18 41
q0 12 -20.5 31.5t-20.5 40.5z" />
    <glyph glyph-name="uni021B" unicode="&#x21b;" horiz-adv-x="334" 
d="M24 473q43 52 94 96q8 7 22 7q8 0 9.5 -4t1.5 -10v-7q-2 -25 -3 -75h101q22 0 24 -7q1 -2 1 -5t-1 -7q-5 -21 -30 -21h-5l-91 2q-4 -264 -5 -304v-11q0 -38 13.5 -61.5t54.5 -23.5q44 0 80 36q5 6 11 6q3 0 7.5 -3.5t4.5 -9.5q0 -4 -2 -8q-11 -26 -43.5 -49.5
t-78.5 -23.5q-107 0 -107 132v16q0 217 4 306h-44q-23 0 -23 17q0 6 5 12zM88 -105q0 22 14.5 35t31.5 13q24 0 39.5 -15t15.5 -46q0 -57 -31 -96.5t-54 -39.5q-11 0 -11 11q0 2 18 25t18 41q0 12 -20.5 31.5t-20.5 40.5z" />
    <glyph glyph-name="uni0237" unicode="&#x237;" horiz-adv-x="264" 
d="M37 -172q3 1 7 1q24 0 39.5 7t24 16.5t12.5 29.5t4.5 35.5t0.5 45.5l2 372q0 34 -8 54t-17.5 25t-17.5 11.5t-8 16.5q0 6 5 10.5t22 12.5q54 25 70 26h3q15 0 15 -17l-2 -511v-47q0 -128 -92 -128q-59 0 -71 23q-2 4 -2 7q0 8 13 10z" />
    <glyph glyph-name="circumflex" unicode="&#x2c6;" horiz-adv-x="500" 
d="M153 537q-11 1 -11 12q1 6 43 64q30 41 39.5 50t29.5 9q4 0 7.5 -0.5t6 -0.5t5.5 -2t5 -3t4.5 -4t4.5 -5t5.5 -7.5t5.5 -8.5t7.5 -11t8.5 -13q10 -16 22 -32t18 -24.5t6 -11.5q0 -11 -11 -12q-16 -1 -46.5 18t-51.5 41q-21 -22 -51.5 -41t-46.5 -18z" />
    <glyph glyph-name="caron" unicode="&#x2c7;" horiz-adv-x="500" 
d="M153 641q16 1 46.5 -18t51.5 -41q21 22 51.5 41t46.5 18q11 -1 11 -13q0 -2 -6 -10.5t-18 -24.5t-22 -32q-29 -45 -37 -50q-9 -5 -23 -5q-20 0 -29.5 9t-39.5 50q-42 59 -43 63q0 12 11 13z" />
    <glyph glyph-name="breve" unicode="&#x2d8;" horiz-adv-x="500" 
d="M246 538q-53 0 -81 29.5t-31 71.5q-2 19 11 19q6 0 12 -10q32 -53 89 -53q58 0 91 53q7 10 11 10q13 0 11 -19q-3 -41 -33.5 -71t-79.5 -30z" />
    <glyph glyph-name="dotaccent" unicode="&#x2d9;" horiz-adv-x="500" 
d="M247 613q-17 2 -27.5 13.5t-9.5 29.5q3 23 28 43.5t49 16.5q15 -3 25 -17t8 -28q-3 -21 -27 -40.5t-46 -17.5z" />
    <glyph glyph-name="ring" unicode="&#x2da;" horiz-adv-x="500" 
d="M250 518q-39 0 -64 23t-25 61q0 39 26.5 63t66.5 24q38 0 63 -23t25 -61q0 -40 -26.5 -63.5t-65.5 -23.5zM255 548q24 0 38 17t12 42q-3 24 -18 39t-37 15q-25 0 -39.5 -16t-12.5 -42q4 -25 19 -40t38 -15z" />
    <glyph glyph-name="ogonek" unicode="&#x2db;" horiz-adv-x="500" 
d="M240 -190q-40 0 -67.5 20t-27.5 56q0 32 23.5 58t67.5 56h22q-62 -54 -62 -106q0 -56 61 -56q18 0 45 9q8 3 12 1t4 -7t-4 -8q-28 -23 -74 -23z" />
    <glyph glyph-name="tilde" unicode="&#x2dc;" horiz-adv-x="500" 
d="M320 546q-23 0 -79.5 21t-79.5 21q-35 0 -35 -29q0 -13 -8 -12q-11 2 -15 24q-1 5 -1 10q0 26 18 40.5t46 14.5q37 0 91.5 -21t68.5 -21q34 0 34 28q0 13 8 12q11 -2 15 -24q1 -5 1 -10q0 -26 -17.5 -40t-46.5 -14z" />
    <glyph glyph-name="hungarumlaut" unicode="&#x2dd;" horiz-adv-x="500" 
d="M117 539q-13 0 -13 12q0 5 35 73q29 50 41 58q8 6 18 6q13 0 23 -9.5t10 -25.5q0 -27 -43 -70.5t-71 -43.5zM255 538q-9 0 -12 4t-2 9q0 4 39 71q17 25 23 34t17 18t21 9q13 0 22.5 -9.5t9.5 -25.5q0 -26 -44.5 -68t-73.5 -42z" />
    <glyph glyph-name="gravecomb" unicode="&#x300;" 
d="M-288 645q7 13 20 19q4 1 9 1q20 0 50 -24q5 -4 17 -14l8 -7q62 -57 64 -63q2 -3 2 -6q0 -6 -11 -10q-7 -3 -17 -3q-27 0 -79.5 25.5t-62.5 52.5q-3 8 -3 15t3 14z" />
    <glyph glyph-name="acutecomb" unicode="&#x301;" 
d="M-359 557q2 6 64 63q47 40 62 44q5 1 11 2q5 -1 11 -2q13 -6 18 -16t5 -17t-3 -15q-10 -27 -62.5 -52.5t-79.5 -25.5q-10 0 -17 3q-11 4 -11 10q0 3 2 6z" />
    <glyph glyph-name="uni0302" unicode="&#x302;" 
d="M-358 553q1 6 43 64q30 41 39.5 50t29.5 9q4 0 7.5 -0.5t6 -0.5t5.5 -2t5 -3t4.5 -4t4.5 -5t5.5 -7.5t5.5 -8.5t7.5 -11t8.5 -13q10 -16 22 -32t18 -24.5t6 -11.5q0 -11 -11 -12h-2q-16 0 -45.5 18.5t-50.5 40.5q-21 -22 -50.5 -40.5t-45.5 -18.5h-2q-11 1 -11 12z" />
    <glyph glyph-name="tildecomb" unicode="&#x303;" 
d="M-398 581q0 26 18 40.5t46 14.5q37 0 91.5 -21t68.5 -21q34 0 34 28q0 12 7 12h1q11 -2 15 -24q1 -5 1 -10q0 -26 -17.5 -40t-46.5 -14q-23 0 -79.5 21t-79.5 21q-35 0 -35 -29q0 -12 -7 -12h-1q-11 2 -15 24q-1 5 -1 10z" />
    <glyph glyph-name="uni0304" unicode="&#x304;" 
d="M-387 578q1 7 2 10.5t5.5 6.5t14.5 3h229q13 0 15 -3.5t2 -8.5q0 -4 -1 -9q-1 -7 -2 -10.5t-5.5 -6.5t-13.5 -3h-229q-14 0 -16 3.5t-2 8.5q0 4 1 9z" />
    <glyph glyph-name="uni0306" unicode="&#x306;" 
d="M-355 658q6 0 12 -10q32 -53 89 -53q58 0 91 53q7 10 11 10q11 0 11 -14v-5q-3 -41 -33.5 -71t-79.5 -30q-53 0 -81 29.5t-31 71.5v5q0 14 11 14z" />
    <glyph glyph-name="uni0307" unicode="&#x307;" 
d="M-314 620q2 24 25 42.5t43 18.5q4 0 8 -1q16 -2 24.5 -15t8.5 -25v-5q-2 -20 -25 -38.5t-42 -18.5h-6q-17 2 -26.5 12t-9.5 24v6z" />
    <glyph glyph-name="uni0308" unicode="&#x308;" 
d="M-364 650q16 17 37 17q18 0 29.5 -11.5t11.5 -28.5q0 -20 -17 -35t-38 -15q-16 0 -27 10t-11 25q0 21 15 38zM-231 650q16 17 37 17q17 0 29 -11.5t12 -28.5q0 -20 -17 -35t-38 -15q-16 0 -27 10t-11 25q0 21 15 38z" />
    <glyph glyph-name="uni030A" unicode="&#x30a;" 
d="M-313 685q27 24 67 24q38 0 63 -23t25 -61q0 -40 -27 -63q-26 -24 -65 -24t-64 23t-25 61q0 39 26 63zM-302 623q4 -25 19 -40t38 -15q24 0 37 16t13 37v6q-3 24 -18 39t-37 15q-25 0 -38.5 -15t-13.5 -37v-6z" />
    <glyph glyph-name="uni030B" unicode="&#x30b;" 
d="M-396 551q0 5 35 73q29 50 41 58q8 6 18 6q13 0 23 -9.5t10 -25.5q0 -27 -43 -70.5t-71 -43.5q-13 0 -13 12zM-259 551q0 4 39 71q17 25 23 34t17 18t21 9q13 0 22.5 -9.5t9.5 -25.5q0 -26 -44.5 -68t-73.5 -42q-9 0 -11.5 3.5t-2.5 7.5v2z" />
    <glyph glyph-name="uni030C" unicode="&#x30c;" 
d="M-347 683h2q16 0 45.5 -18.5t50.5 -40.5q21 22 50.5 40.5t45.5 18.5h2q11 -1 11 -13q0 -2 -6 -10.5t-18 -24.5t-22 -32q-29 -45 -37 -50t-23 -5q-20 0 -29.5 9t-39.5 50q-42 58 -43 63q0 12 11 13z" />
    <glyph glyph-name="uni0312" unicode="&#x312;" 
d="M-303 607q0 57 31 96.5t54 39.5q11 0 11 -11q0 -2 -18 -25t-18 -41q0 -12 20.5 -31.5t20.5 -40.5q0 -22 -14.5 -35t-31.5 -13q-23 0 -39 15t-16 46z" />
    <glyph glyph-name="uni0326" unicode="&#x326;" 
d="M-404 -70q15 13 32 13q24 0 39.5 -15t15.5 -46q0 -57 -31 -96.5t-54 -39.5q-11 0 -11 11q0 2 18 25t18 41q0 12 -20.5 31.5t-20.5 40.5q0 22 14 35z" />
    <glyph glyph-name="uni0327" unicode="&#x327;" 
d="M-331 -166q3 3 6 3t7 -2q32 -18 59 -18q24 0 36 12.5t12 31.5q0 39 -68 56q-14 3 -14 10q0 3 2 6l36 67h26l-27 -55q92 -16 92 -77q0 -34 -26 -55.5t-63 -21.5q-53 0 -77 30q-3 4 -3 8q0 3 2 5z" />
    <glyph glyph-name="uni0328" unicode="&#x328;" 
d="M-332 -56q24 26 68 56h22q-62 -54 -62 -106q0 -56 61 -56q18 0 45 9q5 2 8 2q2 0 5 -1.5t3 -6.5t-4 -8q-28 -23 -74 -23q-40 0 -67.5 20t-27.5 56q0 32 23 58z" />
    <glyph glyph-name="uni0335" unicode="&#x335;" 
d="M-639 367q0 15 15 15h168q15 0 15 -15q0 -16 -15 -16h-168q-15 0 -15 16z" />
    <glyph glyph-name="uni0336" unicode="&#x336;" 
d="M-749 534h665q14 0 14 -15v-1q0 -17 -14 -17h-665q-14 0 -14 17v1q0 15 14 15z" />
    <glyph glyph-name="uni0337" unicode="&#x337;" 
d="M-535 303l208 119q5 4 9 4q6 0 11 -8q2 -5 2 -8q0 -8 -8 -13l-207 -120q-4 -2 -8 -2q-8 0 -13 9q-2 4 -2 8q0 6 8 11z" />
    <glyph glyph-name="uni0338" unicode="&#x338;" 
d="M-605 8q0 5 5 13l385 667q7 13 19 13q13 0 13 -10q0 -6 -5 -16l-379 -660q-12 -19 -26 -19q-12 0 -12 12z" />
    <glyph glyph-name="uni0401" unicode="&#x401;" horiz-adv-x="598" 
d="M95 700l365 1q40 0 50 -4.5t16 -23.5q18 -61 24 -108q1 -5 1 -9q0 -18 -11 -20h-5q-8 0 -14 6t-18 29q-23 49 -57.5 72.5t-88.5 23.5h-61q-81 0 -105 -10.5t-24 -36.5v-182q0 -34 18 -41.5t67 -7.5h61q22 0 36 11.5t18.5 26t12 26t17.5 11.5q9 0 12 -12.5t3 -46.5v-80
q0 -47 -15 -47q-10 0 -17.5 12t-12 26.5t-18.5 26.5t-36 12h-54q-62 0 -76 -9q-16 -10 -16 -40v-222q0 -30 23 -40.5t104 -10.5l83 1q69 0 93 16.5t44 64.5q11 25 18 33t16 8h2q11 -2 11 -21v-6q-6 -68 -15 -99q-5 -17 -19.5 -23.5t-59.5 -6.5h-372q-45 0 -45 15q0 8 7 13.5
t16 9t18 14t11 27.5q3 14 3 38v466q0 25 -3 38q-2 17 -11 27.5t-18 14t-16 9t-7 13.5q0 15 45 15zM75 816q0 21 15 38t36 17q18 0 30 -11.5t12 -28.5q0 -20 -17 -34.5t-38 -14.5q-17 0 -27.5 9t-10.5 25zM223 854q15 17 36 17q18 0 30 -11.5t12 -28.5q0 -20 -17.5 -34.5
t-38.5 -14.5q-16 0 -26.5 9.5t-10.5 24.5q0 21 15 38z" />
    <glyph glyph-name="uni0404" unicode="&#x404;" horiz-adv-x="650" 
d="M585 119q15 13 24 1.5t-5 -31.5q-16 -18 -42 -37.5t-83 -40.5t-120 -21q-147 0 -233.5 94.5t-86.5 246.5q0 164 95 271.5t252 107.5q37 0 74 -6t49 -6q11 0 23 5t18 5q14 0 20.5 -10.5t14.5 -42.5q15 -57 29 -124q6 -28 -12 -28q-3 0 -5 0.5t-4 2t-3.5 2.5t-4 4.5t-4 5
t-4.5 6l-5 7.5q-1 1 -14.5 19l-16.5 22t-16.5 19.5t-20.5 20t-21.5 16.5t-27 16.5t-30 11t-36.5 8.5t-41 2q-77 0 -132.5 -42t-81.5 -105t-29 -139q42 -25 85 -25q33 0 91 27t81 27q42 0 100 -33t58 -50q0 -16 -19 -16q-8 0 -48.5 21t-62.5 21q-25 0 -74 -24t-81 -24
q-58 0 -130 39q6 -135 84.5 -217t197.5 -82q116 0 198 75z" />
    <glyph glyph-name="uni0406" unicode="&#x406;" horiz-adv-x="272" 
d="M50 15q0 9 8.5 15.5t19 12t19 28.5t8.5 60v438q0 37 -8.5 60t-18 28.5t-18 12t-8.5 15.5q0 15 45 15h80q46 0 46 -15q0 -8 -6 -13t-14 -9.5t-16 -13t-14 -29t-6 -51.5v-438q0 -37 8.5 -60t18.5 -28.5t18.5 -12t8.5 -15.5q0 -15 -46 -15h-80q-45 0 -45 15z" />
    <glyph glyph-name="uni0407" unicode="&#x407;" horiz-adv-x="272" 
d="M59 31q8 6 18.5 11.5t19 28.5t8.5 60v438q0 37 -8.5 60t-18 28.5t-18 12t-8.5 15.5q0 15 45 15h80q46 0 46 -15q0 -8 -6 -13t-14 -9.5t-16 -13t-14 -29t-6 -51.5v-438q0 -37 8.5 -60t18.5 -28.5t18.5 -12t8.5 -15.5q0 -15 -46 -15h-80q-45 0 -45 15q0 9 9 16zM30 854
q15 17 36 17q18 0 30 -11.5t12 -28.5q0 -20 -17 -34.5t-38 -14.5q-17 0 -27.5 9t-10.5 25q0 21 15 38zM163 854q15 17 36 17q18 0 30 -11.5t12 -28.5q0 -20 -17.5 -34.5t-38.5 -14.5q-16 0 -26.5 9.5t-10.5 24.5q0 21 15 38z" />
    <glyph glyph-name="uni0410" unicode="&#x410;" horiz-adv-x="667" 
d="M-2 14q0 10 8 16t19.5 10.5t27 23t27.5 48.5l194 502q5 10 5 19q0 5 -3.5 12.5t-11.5 11.5t-16.5 10.5t-8.5 15.5q0 17 25 17h78q14 0 19 -13l226 -576q11 -28 25 -45.5t24 -23t17 -11.5t7 -14q0 -17 -45 -17h-90q-36 0 -36 14q0 10 14.5 20.5t19 19t4.5 15.5q0 15 -9 42
l-31 80q-7 18 -18 22q-18 6 -147 6q-140 0 -158 -7q-12 -5 -19 -25l-29 -75q-9 -31 -9 -46q0 -6 3 -14t16.5 -16.5t13.5 -17.5q0 -18 -31 -18h-76q-35 0 -35 14zM180 253q14 -4 143 -4q121 0 131 6q3 2 3 7t-3 13l-140 354l-138 -362q-1 -4 -1 -7q0 -6 5 -7z" />
    <glyph glyph-name="uni0411" unicode="&#x411;" horiz-adv-x="603" 
d="M214 477q172 0 265.5 -69.5t93.5 -183.5q0 -103 -77.5 -163.5t-224.5 -60.5h-176q-45 0 -45 15q0 8 7 13.5t16 9t18 14t11 27.5q3 14 3 38v466q0 25 -3 38q-2 17 -11 27.5t-18 14t-16 9t-7 13.5q0 15 45 15l353 1q41 0 51 -4.5t15 -23.5q17 -50 24 -108q3 -26 -10 -29
q-11 -2 -18 5.5t-18 29.5q-23 49 -57.5 72.5t-88.5 23.5h-50q-81 0 -105 -10.5t-24 -37.5v-124q0 -21 21 -19q3 0 11.5 0.5t14.5 0.5zM272 35q106 0 167 37.5t61 131.5q0 102 -80 169.5t-199 69.5q-33 1 -43.5 -5t-10.5 -22v-354q0 -10 5 -15t29 -8.5t71 -3.5z" />
    <glyph glyph-name="uni0412" unicode="&#x412;" horiz-adv-x="586" 
d="M57 29q7 5 16 8.5t18 14t11 27.5q3 14 3 38v466q0 25 -3 38q-2 17 -11 27.5t-18 14t-16 9t-7 13.5q0 15 45 15h137q114 0 172.5 -41t58.5 -115q-1 -56 -38 -89t-105 -39q104 -10 169.5 -64.5t65.5 -135.5q0 -113 -75 -164.5t-235 -51.5h-150q-45 0 -45 15q0 8 7 14z
M167 357v-254q0 -41 16.5 -55.5t60.5 -14.5q125 0 182.5 41.5t57.5 132.5q0 92 -66 142t-184 50q-40 0 -53.5 -8.5t-13.5 -33.5zM167 453q0 -19 62 -19q89 0 127 24t38 81q0 59 -42.5 93.5t-112.5 34.5q-43 0 -57.5 -9t-14.5 -37v-168z" />
    <glyph glyph-name="uni0413" unicode="&#x413;" horiz-adv-x="530" 
d="M548 565q3 -26 -10 -29q-11 -2 -18 5.5t-18 29.5q-23 49 -57.5 72.5t-88.5 23.5h-60q-81 0 -105 -10.5t-24 -37.5v-487q0 -37 8.5 -60t18.5 -28.5t18.5 -12t8.5 -15.5q0 -15 -46 -15h-80q-45 0 -45 15q0 9 8.5 15.5t19 12t19 28.5t8.5 60v451q0 25 -3 38q-2 17 -11 27.5
t-18 14t-16 9t-7 13.5q0 15 45 15l363 1q41 0 51 -4.5t15 -23.5q17 -50 24 -108z" />
    <glyph glyph-name="uni0414" unicode="&#x414;" horiz-adv-x="717" 
d="M699 -83q2 -27 -17 -27q-17 0 -36 40q-40 70 -128 70l-327 -1q-89 0 -127 -71q-21 -39 -36 -39q-20 0 -18 27q1 47 13 87q4 16 14.5 23t39.5 7q18 0 25 4.5t16 23.5q98 198 98 521q0 27 -8.5 45t-18 24t-18 13t-8.5 15q0 13 10.5 17t45.5 4h367q46 0 46 -15
q0 -8 -7 -13.5t-16 -9t-18 -14t-12 -27.5q-3 -13 -3 -38v-510q0 -26 4.5 -32.5t24.5 -6.5q48 0 62.5 -6.5t19.5 -23.5q10 -37 12 -87zM157 33l357 1v585q0 27 -23 37.5t-98 10.5q-65 0 -93.5 -11t-31.5 -44q-22 -215 -41.5 -325t-69.5 -254z" />
    <glyph glyph-name="uni0415" unicode="&#x415;" horiz-adv-x="598" 
d="M50 15q0 8 7 13.5t16 9t18 14t11 27.5q3 14 3 38v466q0 25 -3 38q-2 17 -11 27.5t-18 14t-16 9t-7 13.5q0 15 45 15l365 1q40 0 50 -4.5t16 -23.5q18 -61 24 -108q1 -5 1 -9q0 -18 -11 -20h-5q-8 0 -14 6t-18 29q-23 49 -57.5 72.5t-88.5 23.5h-61q-81 0 -105 -10.5
t-24 -36.5v-182q0 -34 18 -41.5t67 -7.5h61q22 0 36 11.5t18.5 26t12 26t17.5 11.5q9 0 12 -12.5t3 -46.5v-80q0 -47 -15 -47q-10 0 -17.5 12t-12 26.5t-18.5 26.5t-36 12h-54q-62 0 -76 -9q-16 -10 -16 -40v-222q0 -30 23 -40.5t104 -10.5l83 1q69 0 93 16.5t44 64.5
q11 25 18 33t16 8h2q11 -2 11 -21v-6q-6 -68 -15 -99q-5 -17 -19.5 -23.5t-59.5 -6.5h-372q-45 0 -45 15z" />
    <glyph glyph-name="uni0416" unicode="&#x416;" horiz-adv-x="1020" 
d="M862 613l-108 -98l190 -427q9 -21 22.5 -34t24 -17t18 -9t7.5 -13q0 -15 -31 -15h-82q-47 0 -47 18q0 7 10.5 16t14 19t-7.5 43l-163 379l-176 -159v-185q0 -37 9 -60t19 -28.5t19 -12t9 -15.5q0 -15 -46 -15h-83q-46 0 -46 15q0 9 9 15.5t20 12t20 28.5t9 60v194
l-166 150l-163 -379q-11 -33 -7.5 -43t14 -19t10.5 -16q0 -18 -47 -18h-82q-31 0 -31 15q0 8 7.5 13t18 9t24 17t22.5 34l190 427l-108 98q-21 19 -42.5 31t-33.5 15.5t-20 9.5t-8 16q0 15 45 15h83q31 0 31 -16q0 -10 -8.5 -17.5t-16 -11t-4.5 -14t23 -28.5l269 -243v199
q0 31 -6 51.5t-14 29t-16 13t-14 9.5t-6 13q0 15 46 15h83q46 0 46 -15q0 -9 -9 -15.5t-20 -12t-20 -28.5t-9 -60v-209l279 253q20 18 23 28.5t-4 14t-15.5 11t-8.5 17.5q0 16 30 16h83q46 0 46 -15q0 -10 -8 -16t-20 -9.5t-34 -15.5t-43 -31z" />
    <glyph glyph-name="uni0417" unicode="&#x417;" horiz-adv-x="537" 
d="M317 387q185 -25 185 -185q0 -103 -76 -157.5t-187 -52.5q-69 2 -115 14q-65 16 -73 61q-15 71 -16 92q-2 28 19 28q8 -1 13.5 -8t13.5 -26q56 -124 175 -124q74 0 123.5 41.5t49.5 115.5q0 173 -228 180q-22 1 -21.5 18t20.5 19q102 11 145.5 44t43.5 102
q0 62 -34.5 92.5t-88.5 30.5q-32 0 -57.5 -9t-44.5 -29t-29 -34t-26 -40q-4 -7 -6 -10q-16 -27 -32 -27t-14 28q3 56 16 103q8 33 14.5 43.5t21.5 10.5q5 0 17 -5t23 -5t49 5t78 5q28 0 56.5 -7t57.5 -22.5t47.5 -46t19.5 -72.5q1 -67 -38.5 -114t-101.5 -59z" />
    <glyph glyph-name="uni0418" unicode="&#x418;" horiz-adv-x="780" 
d="M50 15q0 8 7 13.5t16 9t18 14t11 27.5q3 14 3 28v486q0 15 -3 28q-4 21 -17 32t-23 17t-10 15q0 15 45 15h80q46 0 46 -15q0 -8 -7 -13.5t-16 -9t-18 -14t-12 -27.5q-3 -13 -3 -28v-433l437 433q9 8 9 20v2q-3 18 -12 30t-18 16.5t-16.5 10.5t-7.5 13q0 15 46 15h80
q45 0 45 -15q0 -8 -7 -13.5t-16 -9t-18 -14t-11 -27.5q-3 -13 -3 -28v-486q0 -15 3 -28q4 -21 17 -32t23 -17t10 -15q0 -15 -45 -15h-80q-46 0 -46 15q0 8 7 13.5t16 9t18 14t12 27.5q3 13 3 28v442l-437 -433q-8 -7 -8 -20v-3q1 -22 10 -35t18.5 -17t17 -10.5t7.5 -15.5
q0 -15 -46 -15h-80q-45 0 -45 15z" />
    <glyph glyph-name="uni0419" unicode="&#x419;" horiz-adv-x="780" 
d="M57 29q7 5 16 8.5t18 14t11 27.5q3 14 3 28v486q0 15 -3 28q-4 21 -17 32t-23 17t-10 15q0 15 45 15h80q46 0 46 -15q0 -8 -7 -13.5t-16 -9t-18 -14t-12 -27.5q-3 -13 -3 -28v-433l437 433q9 8 9 20v2q-3 18 -12 30t-18 16.5t-16.5 10.5t-7.5 13q0 15 46 15h80
q45 0 45 -15q0 -8 -7 -13.5t-16 -9t-18 -14t-11 -27.5q-3 -13 -3 -28v-486q0 -15 3 -28q4 -21 17 -32t23 -17t10 -15q0 -15 -45 -15h-80q-46 0 -46 15q0 8 7 13.5t16 9t18 14t12 27.5q3 13 3 28v442l-437 -433q-8 -7 -8 -20v-3q1 -22 10 -35t18.5 -17t17 -10.5t7.5 -15.5
q0 -15 -46 -15h-80q-45 0 -45 15q0 8 7 14zM256 857q0 12 7 21.5t20 9.5q17 0 29 -15.5t18.5 -34.5t22 -34.5t39.5 -15.5q23 0 38 15.5t21 34.5t18 34.5t29 15.5q13 0 20.5 -9.5t7.5 -21.5q0 -41 -39 -71t-97 -30q-57 0 -95.5 29.5t-38.5 71.5z" />
    <glyph glyph-name="uni041A" unicode="&#x41a;" horiz-adv-x="667" 
d="M59 31q8 6 18.5 11.5t19 28.5t8.5 60v438q0 37 -8.5 60t-18 28.5t-18 12t-8.5 15.5q0 15 45 15h80q46 0 46 -15q0 -8 -6 -13t-14 -9.5t-16 -13t-14 -29t-6 -51.5v-229l295 273q19 18 21 24.5t2 9.5q0 6 -6.5 9t-15 10.5t-8.5 17.5q0 16 30 16h83q46 0 46 -15
q0 -10 -8 -16t-20 -9.5t-33.5 -15.5t-42.5 -31l-107 -100l189 -424q9 -21 22.5 -34t24 -17t18 -9.5t7.5 -13.5q0 -15 -32 -15h-81q-47 0 -47 19q0 7 10 15.5t12 14.5t2 10q0 12 -8 37l-161 376l-192 -179v-162q0 -37 8.5 -60t18.5 -28.5t18.5 -12t8.5 -15.5q0 -15 -46 -15
h-80q-45 0 -45 15q0 9 9 16z" />
    <glyph glyph-name="uni041B" unicode="&#x41b;" horiz-adv-x="686" 
d="M95 -10q-36 0 -62 22t-26 59q0 29 14 41t33 12q17 0 27 -15t20.5 -30t26.5 -15q52 0 80.5 135t28.5 383q0 27 -8.5 45.5t-18.5 26t-18.5 15.5t-8.5 16q0 15 57 15h343q57 0 57 -15q0 -8 -9 -16.5t-19.5 -16t-19.5 -26.5t-9 -46v-448q0 -37 8.5 -60t18.5 -28.5t18.5 -12
t8.5 -15.5q0 -15 -46 -15h-79q-46 0 -46 15q0 9 9 15.5t19 12t19 28t9 60.5v487q0 26 -23.5 37t-90.5 11q-72 0 -99.5 -11t-30.5 -44q-2 -28 -4.5 -83t-4 -83t-5 -76t-6.5 -75t-8 -66t-11 -63.5t-14 -51.5t-18 -47t-23 -35q-34 -42 -89 -42z" />
    <glyph glyph-name="uni041C" unicode="&#x41c;" horiz-adv-x="871" 
d="M59 35q8 7 18.5 12t19.5 22.5t10 47.5l17 479v6q0 19 -6 34.5t-14.5 22.5t-15.5 14t-7 13q0 14 32 14h58q14 0 21 -15l235 -571l257 572q6 14 21 14h53q32 0 32 -14q0 -8 -11 -15t-21.5 -24t-10.5 -46v-5l15 -484q1 -33 14 -51t25 -26t12 -18q0 -17 -39 -17h-81
q-46 0 -46 17q0 8 8.5 15.5t19 13t18.5 22t8 39.5v5l-14 497l-250 -547q-5 -10 -21 -16q-7 -1 -12 -1q-12 0 -16 8l-227 551l-19 -487v-7q0 -25 7 -42t16 -22t17 -11.5t8 -16.5q0 -18 -44 -18h-54q-42 0 -42 18q0 10 9 17z" />
    <glyph glyph-name="uni041D" unicode="&#x41d;" horiz-adv-x="756" 
d="M50 15q0 9 8.5 15.5t19 12t19 28.5t8.5 60v438q0 37 -8.5 60t-18 28.5t-18 12t-8.5 15.5q0 15 45 15h80q46 0 46 -15q0 -8 -6 -13t-14 -9.5t-16 -13t-14 -29t-6 -51.5v-129q0 -30 11 -38q17 -12 133 -13h75q159 0 183 8q19 6 20 30v142q0 37 -8.5 60t-18.5 28.5t-18.5 12
t-8.5 15.5q0 15 46 15h80q45 0 45 -15q0 -9 -8.5 -15.5t-19 -12t-19 -28.5t-8.5 -60v-438q0 -37 8.5 -60t18 -28.5t18 -12t8.5 -15.5q0 -15 -45 -15h-80q-46 0 -46 15q0 8 6 13t14 9.5t16 13t14 29t6 51.5v173q0 31 -11 38q-16 12 -128 13h-65q-171 0 -196 -8
q-20 -6 -22 -28v-188q0 -37 8.5 -60t18.5 -28.5t18.5 -12t8.5 -15.5q0 -15 -46 -15h-80q-45 0 -45 15z" />
    <glyph glyph-name="uni041E" unicode="&#x41e;" horiz-adv-x="765" 
d="M142 598q103 112 262 112q146 0 234 -93.5t88 -238.5q0 -169 -100.5 -278.5t-263.5 -109.5q-148 0 -235.5 93t-87.5 239q0 164 103 276zM101 384q0 -157 81.5 -253t216.5 -96q121 0 191.5 88.5t70.5 209.5q0 145 -79 240t-210 95q-123 0 -197 -87.5t-74 -196.5z" />
    <glyph glyph-name="uni041F" unicode="&#x41f;" horiz-adv-x="728" 
d="M623 583v-451q0 -38 8.5 -60.5t18 -28t18 -12t8.5 -15.5q0 -15 -45 -15h-80q-46 0 -46 15q0 8 6 13t14 9.5t16 13t14 29t6 51.5v488q0 18 -10 26.5t-52 13.5t-131 5q-92 0 -136 -5t-54.5 -13.5t-10.5 -26.5v-488q0 -37 8.5 -60t18.5 -28.5t18.5 -12t8.5 -15.5
q0 -15 -46 -15h-80q-45 0 -45 15q0 9 8.5 15.5t19 12t19 28.5t8.5 60v451q0 25 -3 38q-2 17 -11 27.5t-18 14t-16 9t-7 13.5q0 15 45 15h538q45 0 45 -15q0 -8 -7 -13.5t-16 -9t-18 -14t-11 -27.5q-3 -13 -3 -38z" />
    <glyph glyph-name="uni0420" unicode="&#x420;" horiz-adv-x="609" 
d="M95 700h158q155 0 240.5 -69.5t85.5 -169.5q0 -110 -75.5 -171t-223.5 -61h-93q-15 0 -17.5 -2.5t-2.5 -17.5v-78q0 -37 8.5 -60t18.5 -28.5t18.5 -12t8.5 -15.5q0 -15 -46 -15h-80q-45 0 -45 15q0 9 8.5 15.5t19 12t19 28.5t8.5 60v452q0 25 -3 38q-2 17 -11 27.5
t-18 14t-16 9t-7 13.5q0 15 45 15zM280 262q51 0 90 8t71 27t49 55.5t17 88.5q0 95 -69.5 160t-186.5 65q-54 0 -69 -5.5t-15 -21.5v-350q0 -9 5.5 -14t31.5 -9t76 -4z" />
    <glyph glyph-name="uni0421" unicode="&#x421;" horiz-adv-x="674" 
d="M140 602q100 108 248 108q37 0 82 -9.5t57 -9.5q11 0 23 8.5t17 8.5q13 0 19 -9.5t16 -43.5q10 -35 28 -119q0 -4 1 -8q-1 -17 -13 -20h-2q-14 0 -32 31q-46 72 -96 100t-129 28q-113 0 -183.5 -84.5t-70.5 -219.5q0 -145 81 -236.5t206 -91.5q132 0 220 98q8 9 14 9
q4 0 8 -6q4 -5 4 -12q0 -10 -9 -22q-37 -48 -111 -80t-149 -32q-151 0 -240.5 93t-89.5 248q0 162 101 271z" />
    <glyph glyph-name="uni0422" unicode="&#x422;" horiz-adv-x="630" 
d="M42 571q0 57 12 99q4 16 18.5 23t60.5 7l364 1q46 0 60 -6.5t19 -23.5q11 -37 12 -99v-5q0 -22 -17 -22q-10 0 -17 8t-20 33q-19 36 -29 49t-34 23.5t-66 10.5q-33 0 -46 -12t-13 -41v-485q0 -37 8.5 -60t18 -28.5t18 -12t8.5 -15.5q0 -15 -45 -15h-80q-46 0 -46 15
q0 9 9 15.5t19 12t19 28.5t9 60v484q0 29 -13 41t-46 12q-42 0 -66 -10.5t-34 -23.5t-29 -49q-13 -24 -20.5 -32.5t-16.5 -8.5q-17 0 -17 22v5z" />
    <glyph glyph-name="uni0423" unicode="&#x423;" horiz-adv-x="623" 
d="M56 700h91q25 0 33 -3t8 -12t-14 -21.5t-17 -20.5t-3 -12q0 -15 13 -45l184 -343l156 345q12 32 12 47q0 4 -3 11.5t-16.5 16.5t-13.5 18q0 18 31 18h76q35 0 35 -14q0 -10 -8 -16t-19 -10.5t-27.5 -22.5t-29.5 -48l-196 -432q-45 -99 -80 -132.5t-80 -33.5
q-24 0 -46 13.5t-22 43.5q0 24 14 39t31 15q19 0 34 -21t32 -21q27 0 45.5 24.5t39.5 76.5q1 3 1 6q0 4 -2 8l-222 412q-17 31 -35 51.5t-26 29.5t-8 18q0 15 32 15z" />
    <glyph glyph-name="uni0424" unicode="&#x424;" horiz-adv-x="759" 
d="M418 0h-79q-46 0 -46 15q0 11 8 16.5t18 9.5t19 25.5t11 59.5q0 5 -3 8t-7 2q-10 0 -37 -1.5t-45 -1.5q-92 0 -153.5 63t-61.5 158t63.5 159.5t151.5 64.5q43 0 80 -3q5 -1 8 2t3 9q-1 35 -9.5 53.5t-18 21.5t-17.5 8t-8 16q0 15 46 15h79q46 0 46 -15q0 -10 -8 -15.5
t-18 -9t-19 -22.5t-10 -52q0 -6 2.5 -9t6.5 -2q38 3 82 3q95 0 155 -64t60 -160t-62.5 -158.5t-151.5 -62.5q-29 0 -81 5q-12 2 -12 -11q1 -33 7.5 -53.5t14 -27.5t15 -10t12.5 -7t5 -14q0 -15 -46 -15zM312 169q7 0 19.5 2t17.5 2v365q-28 2 -37 2q-197 0 -197 -181
q0 -79 55 -134.5t142 -55.5zM454 169q90 0 140 53t50 137q0 181 -197 181q-9 0 -37 -2v-364q25 -5 44 -5z" />
    <glyph glyph-name="uni0425" unicode="&#x425;" horiz-adv-x="686" 
d="M30 30q8 6 19.5 9t30 16.5t34.5 36.5l188 260l-182 243q-18 23 -37 39t-30.5 21.5t-19 12t-7.5 14.5q0 18 47 18h109q37 0 37 -14q0 -9 -10 -17.5t-19.5 -14.5t-9.5 -20q0 -1 0.5 -9t17.5 -30l157 -209l160 222q15 21 17 30t2 12q0 6 -4 9t-10.5 9t-6.5 14q0 18 30 18h70
q35 0 35 -14q0 -10 -8 -16t-20 -9t-30.5 -16.5t-34.5 -35.5l-181 -249l192 -255q22 -30 46.5 -46.5t36 -23t11.5 -17.5q0 -18 -47 -18h-109q-37 0 -37 14q0 9 10 17.5t19.5 15t9.5 20.5l-0.5 8t-17.5 30l-166 221l-167 -235q-20 -31 -20 -40l0.5 -4t11 -12t10.5 -17
q0 -18 -31 -18h-69q-35 0 -35 14q0 10 8 16z" />
    <glyph glyph-name="uni0426" unicode="&#x426;" horiz-adv-x="746" 
d="M728 -83q2 -27 -17 -27q-15 0 -36 40q-38 70 -128 70h-452q-45 0 -45 15q0 8 7 13.5t16 9t18 14t11 27.5q3 14 3 38v451q0 38 -8.5 60.5t-18 28t-18 12t-8.5 15.5q0 15 45 15h80q46 0 46 -15q0 -8 -6 -13t-14 -9.5t-16 -13t-14 -29t-6 -51.5v-488q0 -18 10 -26.5
t54.5 -13.5t137.5 -5q88 0 129.5 5t52 13.5t10.5 26.5v488q0 38 -8.5 60.5t-18.5 28t-18.5 12t-8.5 15.5q0 15 46 15h80q45 0 45 -15q0 -9 -8.5 -15.5t-19 -12t-19 -28t-8.5 -60.5v-495q0 -39 36 -39q31 0 41.5 -6.5t15.5 -23.5q10 -37 12 -87z" />
    <glyph glyph-name="uni0427" unicode="&#x427;" horiz-adv-x="674" 
d="M569 569v-438q0 -37 8.5 -60t18 -28.5t18 -12t8.5 -15.5q0 -15 -45 -15h-80q-46 0 -46 15q0 8 6 13t14 9.5t16 13t14 29t6 51.5v140q-120 -20 -213 -20q-66 0 -110.5 17.5t-67 52.5t-31.5 76t-9 98v72q0 37 -8.5 60t-18.5 28.5t-18.5 12t-8.5 15.5q0 15 46 15h79
q46 0 46 -15q0 -8 -5.5 -13t-13.5 -9.5t-16 -13t-14 -29t-7 -51.5l-1 -51q-1 -44 1.5 -73.5t12 -62t27.5 -51.5t51.5 -31.5t80.5 -12.5q85 0 198 22v262q0 37 -8.5 60t-18.5 28.5t-18.5 12t-8.5 15.5q0 15 46 15h80q45 0 45 -15q0 -9 -8.5 -15.5t-19 -12t-19 -28.5t-8.5 -60
z" />
    <glyph glyph-name="uni0428" unicode="&#x428;" horiz-adv-x="1063" 
d="M961 79q3 -17 12 -27.5t18 -14t16 -9t7 -13.5q0 -15 -46 -15h-873q-45 0 -45 15q0 8 7 13.5t16 9t18 14t11 27.5q3 14 3 38v451q0 38 -8.5 60.5t-18 28t-18 12t-8.5 15.5q0 15 45 15h80q46 0 46 -15q0 -8 -6 -13t-14 -9.5t-16 -13t-14 -29t-6 -51.5v-488q0 -18 9 -26.5
t46.5 -13.5t116.5 -5q73 0 108.5 5t44.5 13.5t9 26.5v488q0 31 -6 51.5t-14 29t-16 13t-14 9.5t-6 13q0 15 46 15h83q46 0 46 -15q0 -9 -9 -15.5t-19.5 -12t-19.5 -28t-9 -60.5v-488q0 -18 9 -26.5t46.5 -13.5t116.5 -5q73 0 108.5 5t44.5 13.5t9 26.5v488q0 38 -8.5 60.5
t-18.5 28t-18.5 12t-8.5 15.5q0 15 46 15h79q46 0 46 -15q0 -9 -9 -15.5t-19 -12t-19 -28t-9 -60.5v-451q0 -25 3 -38z" />
    <glyph glyph-name="uni0429" unicode="&#x429;" horiz-adv-x="1081" 
d="M1064 -83q2 -27 -17 -27q-17 0 -36 40q-40 70 -128 70h-788q-45 0 -45 15q0 8 7 13.5t16 9t18 14t11 27.5q3 14 3 38v451q0 38 -8.5 60.5t-18 28t-18 12t-8.5 15.5q0 15 45 15h80q46 0 46 -15q0 -8 -6 -13t-14 -9.5t-16 -13t-14 -29t-6 -51.5v-488q0 -18 9 -26.5
t46.5 -13.5t116.5 -5q73 0 108.5 5t44.5 13.5t9 26.5v488q0 31 -6 51.5t-14 29t-16 13t-14 9.5t-6 13q0 15 46 15h83q46 0 46 -15q0 -9 -9 -15.5t-19.5 -12t-19.5 -28t-9 -60.5v-488q0 -18 9 -26.5t46.5 -13.5t116.5 -5q73 0 108.5 5t44.5 13.5t9 26.5v488q0 38 -8.5 60.5
t-18.5 28t-18.5 12t-8.5 15.5q0 15 46 15h79q46 0 46 -15q0 -9 -9 -15.5t-19 -12t-19 -28t-9 -60.5v-495q0 -39 36 -39q32 0 42.5 -6.5t14.5 -23.5q12 -41 13 -87z" />
    <glyph glyph-name="uni042A" unicode="&#x42a;" horiz-adv-x="709" 
d="M347 477q173 0 266 -69t93 -184q0 -103 -77 -163.5t-224 -60.5h-166v2h-10q-46 0 -46 15q0 8 7 13.5t16 9t18 14t12 27.5q3 15 3 38v485q0 19 -5 32t-9 19t-15.5 9t-14.5 3h-15q-54 0 -80.5 -28.5t-48.5 -85.5q-11 -25 -17 -33t-15 -8q-16 0 -14 28q3 80 16 130
q4 19 16.5 24.5t55.5 5.5h217q46 0 46 -15q0 -8 -7 -13.5t-16 -9t-18 -14t-12 -27.5q-3 -13 -3 -38v-88q0 -20 22 -19q3 0 11.5 0.5t13.5 0.5zM405 35q51 0 90 8t71.5 26t50 52t17.5 83q0 102 -80 169.5t-200 69.5q-32 1 -43 -5t-11 -22v-354q0 -10 5.5 -15t29 -8.5
t70.5 -3.5z" />
    <glyph glyph-name="uni042B" unicode="&#x42b;" horiz-adv-x="893" 
d="M50 15q0 8 7 13.5t16 9t18 14t11 27.5q3 14 3 38v451q0 38 -8.5 60.5t-18 28t-18 12t-8.5 15.5q0 15 45 15h80q46 0 46 -15q0 -8 -6 -13t-14 -9.5t-16 -13t-14 -29t-6 -51.5v-73q0 -19 18 -19h3q3 0 11.5 0.5t14.5 0.5q172 0 265.5 -69.5t93.5 -183.5
q0 -103 -77.5 -163.5t-224.5 -60.5h-176q-45 0 -45 15zM172 45q5 -5 29 -8.5t71 -3.5q228 0 228 171q0 102 -80 169.5t-199 69.5h-9q-25 0 -35 -5.5t-10 -21.5v-357q0 -9 5 -14zM670 15q0 9 9 15.5t19 12t19 28.5t9 60v438q0 37 -8.5 60t-18.5 28.5t-18.5 12t-8.5 15.5
q0 15 46 15h80q46 0 46 -15q0 -9 -9 -15.5t-19 -12t-19 -28.5t-9 -60v-438q0 -37 8.5 -60t18.5 -28.5t18.5 -12t8.5 -15.5q0 -15 -46 -15h-80q-46 0 -46 15z" />
    <glyph glyph-name="uni042C" unicode="&#x42c;" horiz-adv-x="606" 
d="M214 477q172 0 265.5 -69.5t93.5 -183.5q0 -103 -77.5 -163.5t-224.5 -60.5h-176q-45 0 -45 15q0 8 7 13.5t16 9t18 14t11 27.5q3 14 3 38v451q0 38 -8.5 60.5t-18 28t-18 12t-8.5 15.5q0 15 45 15h80q46 0 46 -15q0 -8 -6 -13t-14 -9.5t-16 -13t-14 -29t-6 -51.5v-73
q0 -21 21 -19q3 0 11.5 0.5t14.5 0.5zM272 33q228 0 228 171q0 102 -80 169.5t-199 69.5q-33 1 -43.5 -5t-10.5 -22v-357q0 -9 5 -14t29 -8.5t71 -3.5z" />
    <glyph glyph-name="uni042D" unicode="&#x42d;" horiz-adv-x="639" 
d="M304 710q126 0 211.5 -93.5t85.5 -246.5q0 -157 -92.5 -268t-255.5 -110q-78 1 -117 12q-66 18 -73 61q-15 74 -16 92q-1 13 3.5 21t14.5 7q2 0 4 -0.5t3.5 -2t2.5 -2t2.5 -2.5t2.5 -3.5t2.5 -4.5t2.5 -4.5t3 -5.5l3 -6q26 -53 79 -88t127 -35q94 0 162 87t77 225
q-71 -39 -129 -39q-32 0 -81 24t-74 24q-22 0 -62.5 -21t-48.5 -21q-20 0 -20 16q0 17 58.5 50t100.5 33q23 0 81 -27t91 -27q43 0 85 25q0 42 -8 83t-27 80.5t-46 69.5t-69.5 48t-93.5 18q-25 0 -47.5 -4.5t-38 -9.5t-32.5 -18l-25.5 -19.5t-22 -24.5t-17 -23t-15.5 -25.5
t-13 -21.5q-7 -13 -10 -17.5t-7.5 -8.5t-10.5 -4q-16 0 -14 28q2 69 15 124q9 32 15.5 42.5t20.5 10.5q6 0 18 -5t23 -5q8 0 61 6t111 6z" />
    <glyph glyph-name="uni042E" unicode="&#x42e;" horiz-adv-x="1059" 
d="M168 335v33h168q15 147 115.5 244.5t247.5 97.5q146 0 234 -93.5t88 -238.5q0 -169 -100.5 -278.5t-263.5 -109.5q-149 0 -236 93t-87 239v13h-166zM478 131q81 -96 216 -96q81 0 142 44t90.5 110.5t29.5 143.5q0 145 -79 240t-211 95q-83 0 -146.5 -44t-93.5 -107.5
t-30 -132.5q0 -157 82 -253zM59 31q8 6 18.5 11.5t19 28.5t8.5 60v438q0 37 -8.5 60t-18 28.5t-18 12t-8.5 15.5q0 15 45 15h80q46 0 46 -15q0 -8 -6 -13t-14 -9.5t-16 -13t-14 -29t-6 -51.5v-438q0 -37 8.5 -60t18.5 -28.5t18.5 -12t8.5 -15.5q0 -15 -46 -15h-80
q-45 0 -45 15q0 9 9 16z" />
    <glyph glyph-name="uni042F" unicode="&#x42f;" horiz-adv-x="617" 
d="M512 583v-451q0 -38 9 -60.5t19 -28t19 -12t9 -15.5q0 -15 -46 -15h-80q-45 0 -45 15q0 9 8.5 15.5t18 12t18 28t8.5 60.5v92q0 16 -2 18t-18 2h-84q-44 0 -87 8l-80 -156q-13 -32 -9 -42.5t16 -19t12 -15.5q0 -19 -49 -19h-83q-32 0 -32 15q0 8 7 13.5t17 9.5t24 18
t25 36l91 176q-67 26 -103 74.5t-36 110.5q0 110 86 178.5t241 68.5h136q46 0 46 -15q0 -8 -7 -13.5t-16 -9t-18 -14t-12 -27.5q-3 -13 -3 -38zM450 304v336q0 15 -7.5 19.5t-31.5 6.5q-28 2 -43 2q-108 0 -172 -53.5t-64 -146.5q0 -94 61 -142t153 -48q47 0 70.5 3.5
t28.5 8.5t5 14z" />
    <glyph glyph-name="uni0430" unicode="&#x430;" horiz-adv-x="522" 
d="M79 263q57 45 147 45q93 0 165 -33v10q0 81 -32.5 119t-104.5 38q-41 0 -71 -10.5t-72 -33.5q-7 -4 -13 -4q-5 0 -9 3t-4 8t6 13q21 27 70.5 49t110.5 22q87 0 131 -44.5t44 -114.5v-225q0 -30 10 -40.5t19 -10.5q3 0 10 2t17 2q2 0 8 -0.5t6 -8.5q0 -15 -20.5 -33
t-45.5 -18q-59 0 -65 78q-64 -86 -177 -86q-88 0 -137.5 45t-49.5 110q0 72 57 118zM94 151q2 -54 38 -85.5t101 -31.5q57 0 105 38t49 74v79q0 15 -45 30t-97 15q-70 0 -110.5 -32t-40.5 -82v-5z" />
    <glyph glyph-name="uni0431" unicode="&#x431;" horiz-adv-x="579" 
d="M308 494q106 0 169.5 -69.5t63.5 -168.5q0 -114 -70 -190t-178 -76q-106 0 -180.5 80t-75.5 234q0 118 41 213t124 135q44 23 142 29q36 0 62 6q21 5 34 18q7 8 14 10.5t11.5 -1t4.5 -12.5q0 -46 -52 -71q-30 -15 -105.5 -21t-123.5 -33q-94 -54 -93 -231q52 148 212 148
zM315 35q73 0 118.5 53.5t45.5 132.5q0 92 -56 164.5t-141 72.5q-73 0 -119 -58.5t-46 -144.5q0 -87 55.5 -153.5t142.5 -66.5z" />
    <glyph glyph-name="uni0432" unicode="&#x432;" horiz-adv-x="490" 
d="M307 267q75 -10 110.5 -44.5t35.5 -83.5q0 -139 -232 -139h-121q-47 0 -47 19q0 9 9 14.5t20.5 17t14.5 34.5q3 15 3 31v249q0 15 -3 30q-3 23 -14.5 34.5t-20.5 17t-9 14.5q0 19 47 19h117q189 0 190 -110q1 -41 -27 -68t-73 -35zM160 415v-126q0 -12 49 -12
q76 0 106 21t30 67q0 80 -130 80q-37 0 -46 -5t-9 -25zM222 35q92 0 131.5 22t39.5 77q0 49 -46.5 78t-135.5 29h-41q-10 0 -10 -8v-150q0 -32 10.5 -40t51.5 -8z" />
    <glyph glyph-name="uni0433" unicode="&#x433;" horiz-adv-x="419" 
d="M407 378q4 -27 -13 -29q-11 -2 -30 27q-2 3 -3.5 5.5t-3.5 4.5q-17 22 -27.5 32t-37.5 19t-68 9t-50.5 -6t-9.5 -31v-282q0 -33 7 -54t15.5 -27.5t15.5 -13.5t7 -16q0 -16 -36 -16h-85q-35 0 -35 16q0 9 7.5 16t16 13.5t16 27.5t7.5 54v238q0 15 -3 30q-3 23 -14.5 34.5
t-20.5 17t-9 14.5q0 19 47 19l123 2h95q44 0 55.5 -5t17.5 -25q12 -45 16 -74z" />
    <glyph glyph-name="uni0434" unicode="&#x434;" horiz-adv-x="529" 
d="M26 -108q-20 0 -18 36q6 61 10 77t12 22t33 8q11 -1 17 8q33 55 54.5 161t21.5 158q0 27 -8.5 45t-19 24.5t-19 14.5t-8.5 16q0 10 10.5 14t46.5 4h278q36 0 46.5 -4t10.5 -14q0 -9 -9 -17t-19.5 -14.5t-19.5 -25t-9 -45.5v-311q0 -15 15 -16q28 -1 36 -6.5t12 -21.5
q7 -26 10 -77q2 -36 -18 -36q-19 0 -36 40q-15 39 -39 53.5t-84 14.5h-147q-60 0 -84 -14.5t-39 -53.5q-17 -40 -36 -40zM120 34h252v373q0 26 -12.5 32.5t-64.5 6.5q-59 0 -76 -6.5t-19 -29.5q-22 -242 -80 -376z" />
    <glyph glyph-name="uni0435" unicode="&#x435;" horiz-adv-x="521" 
d="M36 233q0 107 69.5 182t181.5 75q89 0 146 -55t57 -141q0 -11 -1 -23q-1 -17 -19 -17l-370 2q1 -87 54 -151.5t136 -64.5q50 0 94.5 21.5t74.5 55.5q8 9 16 9q3 0 8 -2t5 -10q0 -4 -3 -11q-19 -41 -74.5 -77t-130.5 -36q-111 0 -177.5 68t-66.5 175zM103 294q3 -4 15 -4
h276q13 0 16 2.5t3 11.5v5q-6 66 -47 105.5t-110 39.5q-65 0 -109 -47t-47 -97v-5q0 -9 3 -11z" />
    <glyph glyph-name="uni0436" unicode="&#x436;" horiz-adv-x="854" 
d="M703 403l-54 -54l109 -250q11 -26 28 -42.5t28 -24t11 -16.5t-9 -12.5t-34 -3.5h-80q-22 0 -29 3t-7 12q0 10 19.5 28t10.5 38l-95 218l-144 -145v-27q0 -33 7 -54t16 -27.5t16 -13.5t7 -16q0 -16 -37 -16h-84q-36 0 -36 16q0 9 7.5 16t16.5 13.5t16.5 27.5t7.5 54v28
l-142 144l-96 -218q-9 -20 11 -38t20 -28q0 -9 -7.5 -12t-28.5 -3h-81q-24 0 -33 3.5t-9 12.5t10.5 16.5t27.5 24t29 42.5l109 249l-55 55q-19 19 -35.5 31t-24 15t-11.5 6.5t-4 10.5q0 14 29 14h83q22 0 22 -15q0 -4 -17 -20.5t-4 -30.5l207 -209v148q0 33 -7 54
t-15.5 27.5t-15.5 13.5t-7 16q0 16 36 16h84q36 0 36 -16q0 -9 -7.5 -16t-16.5 -13.5t-16.5 -27.5t-7.5 -54v-149l208 210q14 14 -3.5 30.5t-17.5 20.5q0 15 22 15h84q29 0 29 -14q0 -7 -4 -10.5t-11.5 -6.5t-24.5 -15t-36 -31z" />
    <glyph glyph-name="uni0437" unicode="&#x437;" horiz-adv-x="409" 
d="M249 268q63 -12 94.5 -48.5t31.5 -79.5q0 -74 -49.5 -112t-114.5 -38q-77 -1 -129 35t-52 86q0 37 36 37q22 0 35 -22q3 -6 12.5 -24t16 -28t18.5 -23t28.5 -19.5t36.5 -6.5q38 0 65 30.5t27 77.5q0 111 -168 113q-13 1 -12.5 16.5t13.5 15.5q73 5 103 36.5t30 68.5
q0 32 -16.5 52t-50.5 20q-21 0 -37.5 -11t-23 -20.5t-18.5 -33.5t-15 -29q-13 -22 -35 -22q-36 0 -36 38q0 49 47.5 81t123.5 31q134 -3 134 -106q1 -44 -26 -75t-69 -40z" />
    <glyph glyph-name="uni0438" unicode="&#x438;" horiz-adv-x="596" 
d="M89 480h84q36 0 36 -16q0 -8 -6 -14t-13.5 -10t-15 -15.5t-10.5 -29.5q-3 -15 -3 -30v-225l262 227q10 8 10 22q0 3 -1 7q-5 26 -23.5 41.5t-18.5 26.5q0 16 36 16h84q36 0 36 -16q0 -8 -6 -14t-13.5 -10t-15 -15.5t-10.5 -29.5q-3 -15 -3 -30v-249q0 -16 3 -31
q6 -29 25.5 -43.5t19.5 -25.5q0 -16 -36 -16h-85q-35 0 -35 16q0 10 9 16.5t20.5 18t14.5 34.5q3 15 3 31l-2 216l-258 -225q-10 -9 -10 -22v-4q4 -21 14.5 -32t19 -17t8.5 -16q0 -16 -36 -16h-85q-35 0 -35 16q0 10 9 16.5t20.5 18t14.5 34.5q3 15 3 31l-2 249q0 15 -3 30
q-3 18 -10.5 29.5t-14.5 15.5t-12 10t-5 14q0 16 36 16z" />
    <glyph glyph-name="uni0439" unicode="&#x439;" horiz-adv-x="596" 
d="M53 464q0 16 36 16h84q36 0 36 -16q0 -8 -6 -14t-13.5 -10t-15 -15.5t-10.5 -29.5q-3 -15 -3 -30v-225l262 227q10 8 10 22q0 3 -1 7q-5 26 -23.5 41.5t-18.5 26.5q0 16 36 16h84q36 0 36 -16q0 -8 -6 -14t-13.5 -10t-15 -15.5t-10.5 -29.5q-3 -15 -3 -30v-249
q0 -16 3 -31q6 -29 25.5 -43.5t19.5 -25.5q0 -16 -36 -16h-85q-35 0 -35 16q0 10 9 16.5t20.5 18t14.5 34.5q3 15 3 31l-2 216l-258 -225q-10 -9 -10 -22v-4q4 -21 14.5 -32t19 -17t8.5 -16q0 -16 -36 -16h-85q-35 0 -35 16q0 10 9 16.5t20.5 18t14.5 34.5q3 15 3 31l-2 249
q0 15 -3 30q-3 18 -10.5 29.5t-14.5 15.5t-12 10t-5 14zM170 637q0 12 7 21.5t20 9.5q17 0 29 -15.5t18.5 -34.5t22 -34.5t39.5 -15.5q23 0 38 15.5t21 34.5t18 34.5t29 15.5q13 0 20.5 -9.5t7.5 -21.5q0 -41 -39 -71t-97 -30q-57 0 -95.5 29.5t-38.5 71.5z" />
    <glyph glyph-name="uni043A" unicode="&#x43a;" horiz-adv-x="560" 
d="M434 403l-71 -72l101 -232q12 -26 29 -42.5t27.5 -24t10.5 -16.5t-8.5 -12.5t-33.5 -3.5h-81q-21 0 -28 3t-7 12q0 10 19.5 28t10.5 38l-88 202l-151 -153v-3q0 -33 7 -54t15.5 -27.5t15.5 -13.5t7 -16q0 -16 -36 -16h-85q-35 0 -35 16q0 9 7.5 16t16 13.5t16 27.5
t7.5 54v226q0 33 -7 54t-15.5 27.5t-15.5 13.5t-7 16q0 16 36 16h85q35 0 35 -16q0 -9 -7.5 -16t-16 -13.5t-16 -27.5t-7.5 -54v-173l232 234q13 14 -4 30.5t-17 20.5q0 15 22 15h83q29 0 29 -14q0 -7 -4 -10.5t-11.5 -6.5t-24 -15t-35.5 -31z" />
    <glyph glyph-name="uni043B" unicode="&#x43b;" horiz-adv-x="534" 
d="M52 -10q-19 0 -37 11t-18 36q0 18 10 29.5t23 11.5q17 0 26.5 -16.5t19.5 -16.5q43 0 66.5 115.5t23.5 230.5q0 19 -9 31t-20 17t-20 11.5t-9 14.5q0 15 44 15h275q57 0 57 -15q0 -10 -14 -18.5t-28.5 -21t-14.5 -33.5v-265q0 -33 7 -54t15.5 -27.5t15.5 -13.5t7 -16
q0 -16 -36 -16h-84q-36 0 -36 16q0 9 7.5 16t16.5 13.5t16.5 27.5t7.5 54v283q0 25 -12.5 31t-63.5 6q-57 0 -71 -5.5t-15 -28.5q0 -6 -2.5 -45.5t-3.5 -54t-4.5 -52t-6.5 -57t-9 -51.5t-13.5 -52t-17.5 -42t-23 -37q-38 -32 -70 -32z" />
    <glyph glyph-name="uni043C" unicode="&#x43c;" horiz-adv-x="652" 
d="M571 411l6 -284q1 -33 8 -54t15.5 -27.5t15.5 -13.5t7 -16q0 -16 -37 -16h-84q-36 0 -36 16q0 9 7.5 16t16.5 13.5t16.5 27.5t7.5 54l-2 245l-165 -314q-10 -21 -27 -25q-26 -6 -37 16l-160 312l-9 -253q-1 -28 5 -45.5t14 -23t15 -11.5t7 -13q0 -15 -30 -15h-62
q-34 0 -34 15q0 8 7.5 14.5t16 11.5t17 22.5t9.5 44.5l12 303q1 27 -15 41.5t-16 19.5q0 10 22 10h38q8 0 15 -11l192 -381l195 381q6 11 15 11h43q22 0 22 -10q0 -6 -8 -12t-15.5 -17.5t-7.5 -31.5z" />
    <glyph glyph-name="uni043D" unicode="&#x43d;" horiz-adv-x="591" 
d="M494 353v-226q0 -33 7 -54t15.5 -27.5t15.5 -13.5t7 -16q0 -16 -36 -16h-85q-35 0 -35 16q0 9 7.5 16t16 13.5t16 27.5t7.5 54v59q0 27 -10 33q-20 8 -122 8q-109 0 -123 -7q-11 -9 -11 -34v-59q0 -33 7 -54t15.5 -27.5t15.5 -13.5t7 -16q0 -16 -36 -16h-85q-35 0 -35 16
q0 9 7.5 16t16 13.5t16 27.5t7.5 54v226q0 33 -7 54t-15.5 27.5t-15.5 13.5t-7 16q0 16 36 16h85q35 0 35 -16q0 -9 -7.5 -16t-16 -13.5t-16 -27.5t-7.5 -54v-53q0 -27 10 -33q22 -8 125 -8q106 0 120 7q11 9 11 34v53q0 33 -7 54t-15.5 27.5t-15.5 13.5t-7 16q0 16 36 16
h85q35 0 35 -16q0 -9 -7.5 -16t-16 -13.5t-16 -27.5t-7.5 -54z" />
    <glyph glyph-name="uni043E" unicode="&#x43e;" horiz-adv-x="559" 
d="M108 414q72 76 185 76q97 0 162.5 -68.5t65.5 -171.5q0 -111 -69.5 -185.5t-180.5 -74.5q-103 0 -169 63.5t-66 168.5q0 115 72 192zM101 260q0 -104 54 -168.5t139 -64.5q73 0 118 50.5t45 134.5q0 99 -56 168t-137 69q-74 0 -118.5 -53t-44.5 -136z" />
    <glyph glyph-name="uni043F" unicode="&#x43f;" horiz-adv-x="589" 
d="M492 365v-238q0 -33 7 -54t15.5 -27.5t15.5 -13.5t7 -16q0 -16 -36 -16h-85q-35 0 -35 16q0 9 7.5 16t16 13.5t16 27.5t7.5 54v282q0 23 -20.5 28.5t-104.5 5.5q-94 0 -116.5 -5.5t-22.5 -28.5v-282q0 -33 7 -54t15.5 -27.5t15.5 -13.5t7 -16q0 -16 -36 -16h-85
q-35 0 -35 16q0 9 7.5 16t16 13.5t16 27.5t7.5 54v238q0 15 -3 30q-3 23 -14.5 34.5t-20.5 17t-9 14.5q0 19 47 19h392q47 0 47 -19q0 -9 -9.5 -14.5t-20.5 -17t-14 -34.5q-3 -15 -3 -30z" />
    <glyph glyph-name="uni0440" unicode="&#x440;" horiz-adv-x="593" 
d="M55 455q5 5 22 13q43 21 61 22h3q15 0 15 -17l-1 -93q25 47 74.5 78.5t115.5 31.5q96 0 153 -69.5t57 -172.5q0 -107 -59.5 -182.5t-162.5 -75.5q-49 0 -96.5 17t-74.5 47l1 -127q0 -33 7 -54t15.5 -27.5t15.5 -13.5t7 -16q0 -16 -36 -16h-84q-36 0 -36 16q0 9 7.5 16
t16.5 13.5t16.5 27.5t7.5 54l-3 413q0 25 -1 36t-7.5 25.5t-20.5 22.5q-18 8 -18 19q0 7 5 12zM218 71q57 -46 122 -46q75 0 113 53t38 140q0 110 -51 165.5t-117 55.5q-75 0 -118 -56t-43 -119v-74v-3q0 -72 56 -116z" />
    <glyph glyph-name="uni0441" unicode="&#x441;" horiz-adv-x="506" 
d="M107 412q71 77 177 77q87 0 138 -49t51 -111q0 -20 -9.5 -32t-26.5 -12q-28 0 -41 42q-16 59 -47.5 92t-88.5 34q-75 0 -118.5 -53.5t-43.5 -136.5q0 -102 53 -163t139 -61q88 0 156 77q8 9 16 9q3 0 8.5 -2t5.5 -10q0 -4 -3 -10q-20 -44 -72.5 -78.5t-136.5 -34.5
q-99 0 -163.5 66.5t-64.5 166.5q0 112 71 189z" />
    <glyph glyph-name="uni0442" unicode="&#x442;" horiz-adv-x="456" 
d="M270 0h-84q-36 0 -36 16q0 8 6 14t13.5 10t15 15.5t10.5 29.5q3 15 3 30v309q0 21 -43 19q-38 -1 -56 -11.5t-33 -39.5q-20 -41 -28 -45q-3 -1 -7 -1q-16 0 -16 30q2 44 9 74q5 18 17 24t56 6h265q44 0 56 -5t16 -24q9 -34 10 -73q0 -30 -16 -30q-9 0 -14.5 7.5
t-20.5 37.5q-16 30 -34 40t-55 12q-25 1 -34 -3.5t-9 -15.5v-311q0 -15 3 -30q3 -18 10.5 -29.5t14.5 -15.5t12 -10t5 -14q0 -16 -36 -16z" />
    <glyph glyph-name="uni0443" unicode="&#x443;" horiz-adv-x="508" 
d="M54 480h87q36 0 36 -16q0 -5 -14.5 -15.5t-19.5 -20.5t-5 -19q0 -15 8 -41l125 -321l128 321q10 30 10 46q0 6 -3 15t-15 19.5t-12 15.5q0 16 36 16h46q35 0 35 -16q0 -7 -9 -14.5t-25.5 -28t-29.5 -53.5l-134 -349q-6 -14 -16.5 -42.5t-15.5 -41t-15 -35t-16.5 -32.5
t-16.5 -26t-20 -23t-22.5 -15t-27.5 -11t-32 -3q-39 0 -58 18t-19 39q0 16 10 28t25 13h1q14 0 40.5 -20t46.5 -20q26 0 44.5 38.5t18.5 82.5q0 36 -21 86l-124 313q-13 33 -29 53.5t-24.5 28t-8.5 14.5q0 16 36 16z" />
    <glyph glyph-name="uni0444" unicode="&#x444;" horiz-adv-x="742" 
d="M518 490q89 0 137.5 -70.5t48.5 -191.5q0 -103 -52 -170.5t-145 -67.5q-59 0 -106 20v-83q0 -33 7 -54t16 -27.5t16 -13.5t7 -16q0 -16 -37 -16h-84q-36 0 -36 16q0 9 7.5 16t16.5 13.5t16.5 27.5t7.5 54v83q-45 -20 -105 -20q-88 0 -142.5 68.5t-54.5 176.5
q0 101 51.5 178t142.5 77q70 0 108 -55v117q0 34 -8 54t-17.5 25t-17.5 11t-8 16q0 6 5 10.5t22 12.5q51 25 71 26q8 1 12.5 -2.5t4.5 -14.5l-1 -138v-116q39 54 117 54zM523 21q118 0 118 190q0 107 -35.5 172t-104.5 65q-48 0 -74 -34t-26 -84v-231q0 -23 34.5 -50.5
t87.5 -27.5zM247 20q44 0 67.5 27t23.5 51v232q0 51 -26 83t-79 32q-62 0 -98.5 -57.5t-36.5 -131.5q0 -121 45 -178.5t104 -57.5z" />
    <glyph glyph-name="uni0445" unicode="&#x445;" horiz-adv-x="494" 
d="M24 16q0 7 11 15t34 27.5t45 47.5l100 130l-93 137q-20 29 -43 48.5t-35 27.5t-12 15q0 16 37 16h103q36 0 36 -16q0 -5 -8 -12.5t-14.5 -14t-6.5 -17.5q0 -3 1 -13.5t17 -33.5l62 -91l66 91q17 23 18 33.5t1 13.5q0 12 -5.5 18t-13.5 13.5t-8 12.5q0 16 37 16h61
q36 0 36 -16q0 -7 -11.5 -15t-34.5 -28t-43 -48l-85 -117l102 -149q20 -29 43 -48.5t35 -27.5t12 -15q0 -16 -37 -16h-103q-36 0 -36 16q0 5 8 12.5t14.5 14t6.5 17.5q0 3 -1 13.5t-17 33.5l-71 103l-81 -104q-18 -23 -19.5 -33.5t-1.5 -14.5q0 -10 5.5 -16t13.5 -13.5
t8 -12.5q0 -16 -36 -16h-62q-35 0 -35 16z" />
    <glyph glyph-name="uni0446" unicode="&#x446;" horiz-adv-x="575" 
d="M551 -108q-19 0 -37 40q-15 39 -38.5 53.5t-83.5 14.5h-292q-47 0 -47 19q0 9 11.5 19t23.5 29t12 49v237q0 33 -7 54t-15.5 27.5t-15.5 13.5t-7 16q0 16 36 16h85q35 0 35 -16q0 -9 -7.5 -16t-16 -13.5t-16 -27.5t-7.5 -54v-290q0 -17 21 -21.5t104 -4.5q49 0 75 1t41 4
t19 7.5t4 13.5v290q0 33 -7 54t-15.5 27.5t-15.5 13.5t-7 16q0 16 36 16h85q35 0 35 -16q0 -9 -7.5 -16t-16 -13.5t-16 -27.5t-7.5 -54v-301q0 -12 3 -14.5t16 -3.5q27 -1 35.5 -6.5t12.5 -22.5q6 -26 9 -77q2 -36 -17 -36z" />
    <glyph glyph-name="uni0447" unicode="&#x447;" horiz-adv-x="523" 
d="M426 353v-226q0 -33 7 -54t15.5 -27.5t15.5 -13.5t7 -16q0 -16 -36 -16h-85q-35 0 -35 16q0 9 7.5 16t16 13.5t16 27.5t7.5 54v52q-73 -19 -148 -19q-146 0 -146 143l-3 49q0 33 -7 54t-15.5 27.5t-15.5 13.5t-7 16q0 16 36 16h85q35 0 35 -16q0 -9 -7 -16t-15.5 -13.5
t-16 -27.5t-8.5 -54l-1 -30q-2 -59 18.5 -93t78.5 -34q68 0 137 22v136q0 33 -7 54t-15.5 27.5t-15.5 13.5t-7 16q0 16 36 16h85q35 0 35 -16q0 -9 -7.5 -16t-16 -13.5t-16 -27.5t-7.5 -54z" />
    <glyph glyph-name="uni0448" unicode="&#x448;" horiz-adv-x="841" 
d="M746 85q3 -18 10.5 -29.5t15 -15t13.5 -9t6 -12.5q0 -19 -48 -19h-643q-47 0 -47 19q0 9 9 14.5t20.5 17t14.5 34.5q3 15 3 31v237q0 33 -7 54t-15.5 27.5t-15.5 13.5t-7 16q0 16 36 16h85q35 0 35 -16q0 -9 -7.5 -16t-16 -13.5t-16 -27.5t-7.5 -54v-270q0 -26 20 -36
t86 -10q75 0 97.5 10t22.5 36v270q0 33 -7.5 54t-16 27.5t-16 13.5t-7.5 16q0 16 36 16h88q36 0 36 -16q0 -9 -7.5 -16t-17 -13.5t-17 -27.5t-7.5 -54v-270q0 -26 20 -36t87 -10q74 0 96.5 10t22.5 36v270q0 33 -7 54t-15.5 27.5t-15.5 13.5t-7 16q0 16 36 16h84
q36 0 36 -16q0 -9 -7.5 -16t-16.5 -13.5t-16.5 -27.5t-7.5 -54v-237q0 -16 3 -31z" />
    <glyph glyph-name="uni0449" unicode="&#x449;" horiz-adv-x="839" 
d="M815 -108q-20 0 -37 40q-15 39 -39 53.5t-84 14.5h-555q-47 0 -47 19q0 8 7.5 13.5t16 10t16 23.5t7.5 50v237q0 33 -7 54t-15.5 27.5t-15.5 13.5t-7 16q0 16 36 16h85q35 0 35 -16q0 -9 -7.5 -16t-16 -13.5t-16 -27.5t-7.5 -54v-292q0 -16 17 -20t87 -4q82 0 102 4
t20 20v292q0 33 -7.5 54t-16 27.5t-16 13.5t-7.5 16q0 16 36 16h88q36 0 36 -16q0 -9 -7.5 -16t-17 -13.5t-17 -27.5t-7.5 -54v-292q0 -16 18 -20t89 -4q80 0 99.5 4t19.5 20v292q0 33 -7 54t-15.5 27.5t-15.5 13.5t-7 16q0 16 36 16h84q36 0 36 -16q0 -9 -7.5 -16
t-16.5 -13.5t-16.5 -27.5t-7.5 -54v-300q0 -13 3.5 -16t17.5 -3q34 0 44 -5.5t14 -23.5q7 -26 10 -77q2 -36 -17 -36z" />
    <glyph glyph-name="uni044A" unicode="&#x44a;" horiz-adv-x="570" 
d="M291 309q131 -1 186.5 -43.5t55.5 -118.5q0 -147 -232 -147h-121q-47 0 -47 19q0 9 9 14.5t20.5 17t14.5 34.5q3 15 3 31v278q0 52 -29 52q-37 0 -72 -51q-21 -33 -29 -36q-3 -1 -6 -1q-17 0 -15 30q3 28 12 62q4 18 16.5 24t55.5 6h128q48 0 48 -19q0 -9 -9.5 -14.5
t-21 -17t-14.5 -34.5q-3 -15 -3 -30v-38q0 -10 4 -15t11 -4q8 0 19.5 0.5t15.5 0.5zM302 35q93 0 132 24t39 87t-50 97t-133 34h-16q-34 0 -34 -21v-173q0 -27 12 -37.5t50 -10.5z" />
    <glyph glyph-name="uni044B" unicode="&#x44b;" horiz-adv-x="662" 
d="M214 309q239 -1 239 -162q0 -147 -232 -147h-121q-47 0 -47 19q0 9 9 14.5t20.5 17t14.5 34.5q3 15 3 31v237q0 33 -7 54t-15.5 27.5t-15.5 13.5t-7 16q0 16 36 16h85q35 0 35 -16q0 -9 -7.5 -16t-16 -13.5t-16 -27.5t-7.5 -54v-26q0 -10 3.5 -15t11.5 -4q7 0 19 0.5
t16 0.5zM564 353v-226q0 -33 7 -54t15.5 -27.5t15.5 -13.5t7 -16q0 -16 -36 -16h-84q-36 0 -36 16q0 9 7.5 16t16.5 13.5t16.5 27.5t7.5 54v226q0 33 -7 54t-16 27.5t-16 13.5t-7 16q0 16 37 16h84q36 0 36 -16q0 -9 -7.5 -16t-16.5 -13.5t-16.5 -27.5t-7.5 -54zM224 35
q92 0 130 24t38 87t-49.5 97t-130.5 34h-16q-33 0 -33 -21v-173q0 -26 12 -37t49 -11z" />
    <glyph glyph-name="uni044C" unicode="&#x44c;" horiz-adv-x="480" 
d="M214 309q239 -1 239 -162q0 -147 -232 -147h-121q-47 0 -47 19q0 9 9 14.5t20.5 17t14.5 34.5q3 15 3 31v237q0 33 -7 54t-15.5 27.5t-15.5 13.5t-7 16q0 16 36 16h85q35 0 35 -16q0 -9 -7.5 -16t-16 -13.5t-16 -27.5t-7.5 -54v-26q0 -10 3.5 -15t11.5 -4q7 0 19 0.5
t16 0.5zM224 35q92 0 130 24t38 87t-49.5 97t-130.5 34h-16q-33 0 -33 -21v-173q0 -26 12 -37t49 -11z" />
    <glyph glyph-name="uni044D" unicode="&#x44d;" horiz-adv-x="476" 
d="M215 490q102 0 162.5 -70.5t60.5 -173.5q0 -49 -13.5 -93t-41.5 -81.5t-76.5 -59.5t-111.5 -22q-44 0 -93.5 20.5t-70.5 52.5q-6 10 -3.5 16.5t11.5 6.5t17 -8q21 -20 60.5 -36t79.5 -16q86 0 132 56.5t45 156.5q-32 -29 -69 -29q-17 0 -55.5 15.5t-59.5 15.5
q-22 0 -47 -15.5t-30 -15.5q-12 0 -12 13q0 19 34 42.5t65 23.5q23 0 61 -17t58 -17q27 0 53 17q-10 77 -56.5 131t-116.5 54q-90 0 -135 -76q-9 -18 -19 -18q-12 0 -10 18q1 40 12 74q5 21 9.5 28t13.5 7q4 0 15 -6.5t20 -6.5q10 0 40 6.5t71 6.5z" />
    <glyph glyph-name="uni044E" unicode="&#x44e;" horiz-adv-x="795" 
d="M53 16q0 9 7.5 16t16 13.5t16 27.5t7.5 54v226q0 33 -7 54t-15.5 27.5t-15.5 13.5t-7 16q0 16 36 16h85q35 0 35 -16q0 -9 -7.5 -16t-16 -13.5t-16 -27.5t-7.5 -54v-93h109q12 101 82.5 165.5t173.5 64.5q97 0 162.5 -68.5t65.5 -171.5q0 -111 -70 -185.5t-181 -74.5
q-103 0 -169 63.5t-66 168.5v4h-107v-99q0 -33 7 -54t15.5 -27.5t15.5 -13.5t7 -16q0 -16 -36 -16h-85q-35 0 -35 16zM337 260q0 -104 54 -168.5t139 -64.5q73 0 118 50.5t45 134.5q0 99 -56 168t-137 69q-74 0 -118.5 -52.5t-44.5 -136.5z" />
    <glyph glyph-name="uni044F" unicode="&#x44f;" horiz-adv-x="529" 
d="M431 365v-245q0 -28 7 -48t16 -27.5t16 -14.5t7 -14q0 -16 -43 -16h-67q-42 0 -42 15q0 8 7 16t15.5 15.5t15.5 26.5t7 47v45v5q0 7 -3 7q-1 1 -6 0h-3q-32 -4 -76 -4q-13 0 -20 1v-1q-11 2 -22 0t-21 -7t-19.5 -22.5t-16.5 -47.5q-26 -103 -94 -103q-16 0 -36.5 8.5
t-18.5 23.5q1 9 14 11q22 2 37 14.5t31 51.5q2 4 6.5 15.5t6.5 16.5t7.5 15t11 15.5t14 12.5t18.5 12q-49 16 -76.5 49t-27.5 74q0 74 67 121t203 47h85q48 0 48 -19q0 -9 -9.5 -14.5t-21 -17t-14.5 -34.5q-3 -15 -3 -30zM371 224v206q0 9 -11.5 12t-45.5 3
q-85 0 -130 -31.5t-45 -93.5q0 -47 34 -80t116 -33q36 0 55 2.5t23 5.5t4 9z" />
    <glyph glyph-name="uni0451" unicode="&#x451;" horiz-adv-x="521" 
d="M36 233q0 107 69.5 182t181.5 75q89 0 146 -55t57 -141q0 -11 -1 -23q-1 -17 -19 -17l-370 2q1 -87 54 -151.5t136 -64.5q50 0 94.5 21.5t74.5 55.5q8 9 16 9q3 0 8 -2t5 -10q0 -4 -3 -11q-19 -41 -74.5 -77t-130.5 -36q-111 0 -177.5 68t-66.5 175zM103 294q3 -4 15 -4
h276q13 0 16 2.5t3 11.5v5q-6 66 -47 105.5t-110 39.5q-65 0 -109 -47t-47 -97v-5q0 -9 3 -11zM186 650q15 17 36 17q18 0 29.5 -11.5t11.5 -28.5q0 -20 -17 -35t-38 -15q-16 0 -27 10t-11 25q0 21 16 38zM319 650q15 17 36 17q17 0 29 -11.5t12 -28.5q0 -20 -17 -35
t-38 -15q-16 0 -27 10t-11 25q0 21 16 38z" />
    <glyph glyph-name="uni0454" unicode="&#x454;" horiz-adv-x="504" 
d="M443 118q11 12 22.5 7.5t4.5 -20.5q-19 -41 -73.5 -78t-125.5 -37q-110 0 -172.5 67.5t-62.5 163.5q0 110 68.5 189.5t190.5 79.5q58 0 108.5 -24.5t50.5 -57.5q0 -14 -9.5 -23.5t-24.5 -9.5q-17 0 -41 18.5t-56.5 37t-70.5 18.5q-66 0 -111.5 -52t-44.5 -139v-5
q32 29 68 29q18 0 56.5 -15.5t58.5 -15.5q23 0 48 15t30 15q11 0 11 -12q0 -19 -33.5 -42.5t-64.5 -23.5q-22 0 -61 17t-59 17q-26 0 -51 -17q10 -80 59 -127.5t133 -47.5q88 0 152 73z" />
    <glyph glyph-name="uni0456" unicode="&#x456;" horiz-adv-x="276" 
d="M84 467q50 23 70 26h3q15 0 15 -17l-1 -139v-210q0 -33 7 -54t15.5 -27.5t15.5 -13.5t7 -16q0 -16 -36 -16h-85q-35 0 -35 16q0 9 7.5 16t16 13.5t16 27.5t7.5 54v210q0 34 -8 54t-17 25t-17 11.5t-8 16.5q0 11 27 23zM67 620q2 24 25 42.5t43 18.5q4 0 8 -1
q16 -2 24.5 -15t8.5 -25v-5q-2 -20 -25 -38.5t-42 -18.5h-6q-17 2 -26.5 12t-9.5 24v6z" />
    <glyph glyph-name="uni0457" unicode="&#x457;" horiz-adv-x="276" 
d="M84 467q50 23 70 26h3q15 0 15 -17l-1 -139v-210q0 -33 7 -54t15.5 -27.5t15.5 -13.5t7 -16q0 -16 -36 -16h-85q-35 0 -35 16q0 9 7.5 16t16 13.5t16 27.5t7.5 54v210q0 34 -8 54t-17 25t-17 11.5t-8 16.5q0 11 27 23zM26 650q15 17 36 17q18 0 29.5 -11.5t11.5 -28.5
q0 -20 -17 -35t-38 -15q-16 0 -27 10t-11 25q0 21 16 38zM159 650q15 17 36 17q17 0 29 -11.5t12 -28.5q0 -20 -17 -35t-38 -15q-16 0 -27 10t-11 25q0 21 16 38z" />
    <glyph glyph-name="uni0490" unicode="&#x490;" horiz-adv-x="546" 
d="M538 832q13 -3 10 -28q-7 -59 -24 -109q-5 -19 -15 -23.5t-51 -4.5h-162q-81 0 -105 -10.5t-24 -37.5v-487q0 -37 8.5 -60t18.5 -28.5t18.5 -12t8.5 -15.5q0 -15 -46 -15h-80q-45 0 -45 15q0 9 8.5 15.5t19 12t19 28.5t8.5 60v451q0 25 -3 38q-2 17 -11 27.5t-18 14
t-16 9t-7 13.5q0 15 45 15l261 1q101 0 146 97q11 21 18 28.5t18 5.5z" />
    <glyph glyph-name="uni0491" unicode="&#x491;" horiz-adv-x="419" 
d="M394 579q17 -2 13 -29q-4 -29 -16 -74q-6 -20 -17.5 -25t-55.5 -5h-94q-34 0 -48.5 -11t-14.5 -36l3 -272q0 -33 7 -54t15.5 -27.5t15.5 -13.5t7 -16q0 -16 -36 -16h-85q-35 0 -35 16q0 9 7.5 16t16 13.5t16 27.5t7.5 54v238q0 15 -3 30q-3 23 -14.5 34.5t-20.5 17
t-9 14.5q0 19 47 19l123 2q42 0 69 9t37.5 19t27.5 32q23 34 29 36q4 2 8 1z" />
    </font>
</defs>
</svg>
